  0
SECTION
  2
HEADER
  9
$ANGBASE
  50
0.0
  9
$ANGDIR
  70
1
  9
$MEASUREMENT
  70
0
  0
ENDSEC
  0
SECTION
  2
TABLES
  0
TABLE
  2
LTYPE
  70
4
  0
LTYPE
  5
40F
  2
CONTINUOUS
  70
0
  3
Solid line
  72
65
  73
0
  40
0.0
  0
LTYPE
  5
410
  2
DASHDOT
 70
0
  3
Dash Dot ____ _ ____ _
 72
65
 73
4
 40
2.0
 49
1.25
 49
-0.25
 49
0.25
 49
-0.25
  0
LTYPE
  5
411
  2
DASHED
 70
0
  3
Dashed __ __ __ __ __
 72
65
 73
2
 40
0.75
 49
0.5
 49
-0.25
  0
LTYPE
  5
43B
  2
DOTTED
 70
0
  3
Dotted .  .  .  .
 72
65
 73
2
 40
0.2
 49
0.0
 49
-0.2
  0
ENDTAB
  0
TABLE
  2
STYLE
  70
4
  0
STYLE
  2
KICAD
  70
0
  40
0
  41
1
  42
1
  50
0
  71
0
  3
isocp.shx
  0
STYLE
  2
KICADB
  70
0
  40
0
  41
1
  42
1
  50
0
  71
0
  3
isocp.shx
  0
STYLE
  2
KICADI
  70
0
  40
0
  41
1
  42
1
  50
15
  71
0
  3
isocp.shx
  0
STYLE
  2
KICADBI
  70
0
  40
0
  41
1
  42
1
  50
15
  71
0
  3
isocp.shx
  0
ENDTAB
  0
TABLE
  2
LAYER
  70
1
  0
LAYER
  2
BLACK
  70
0
  62
7
  6
CONTINUOUS
  0
ENDTAB
  0
ENDSEC
  0
SECTION
  2
ENTITIES
0
LINE
8
BLACK
6
CONTINUOUS
10
0.511356
20
-4.47104
11
0.503426
21
-4.46914
0
LINE
8
BLACK
6
CONTINUOUS
10
0.503426
20
-4.46914
11
0.495892
21
-4.46602
0
LINE
8
BLACK
6
CONTINUOUS
10
0.495892
20
-4.46602
11
0.488939
21
-4.46176
0
LINE
8
BLACK
6
CONTINUOUS
10
0.488939
20
-4.46176
11
0.482738
21
-4.45646
0
LINE
8
BLACK
6
CONTINUOUS
10
0.482738
20
-4.45646
11
0.477442
21
-4.45026
0
LINE
8
BLACK
6
CONTINUOUS
10
0.477442
20
-4.45026
11
0.473181
21
-4.44331
0
LINE
8
BLACK
6
CONTINUOUS
10
0.473181
20
-4.44331
11
0.47006
21
-4.43577
0
LINE
8
BLACK
6
CONTINUOUS
10
0.47006
20
-4.43577
11
0.468156
21
-4.42785
0
LINE
8
BLACK
6
CONTINUOUS
10
0.468156
20
-4.42785
11
0.467517
21
-4.41972
0
LINE
8
BLACK
6
CONTINUOUS
10
0.467517
20
-4.41972
11
0.467517
21
-1.29543
0
LINE
8
BLACK
6
CONTINUOUS
10
0.467517
20
-1.29543
11
0.468157
21
-1.2873
0
LINE
8
BLACK
6
CONTINUOUS
10
0.468157
20
-1.2873
11
0.47006
21
-1.27937
0
LINE
8
BLACK
6
CONTINUOUS
10
0.47006
20
-1.27937
11
0.473181
21
-1.27183
0
LINE
8
BLACK
6
CONTINUOUS
10
0.473181
20
-1.27183
11
0.477442
21
-1.26488
0
LINE
8
BLACK
6
CONTINUOUS
10
0.477442
20
-1.26488
11
0.482738
21
-1.25868
0
LINE
8
BLACK
6
CONTINUOUS
10
0.482738
20
-1.25868
11
0.488939
21
-1.25338
0
LINE
8
BLACK
6
CONTINUOUS
10
0.488939
20
-1.25338
11
0.495892
21
-1.24912
0
LINE
8
BLACK
6
CONTINUOUS
10
0.495892
20
-1.24912
11
0.503426
21
-1.246
0
LINE
8
BLACK
6
CONTINUOUS
10
0.503426
20
-1.246
11
0.511356
21
-1.2441
0
LINE
8
BLACK
6
CONTINUOUS
10
0.511356
20
-1.2441
11
0.519485
21
-1.24346
0
LINE
8
BLACK
6
CONTINUOUS
10
0.519485
20
-1.24346
11
11.1738
21
-1.24346
0
LINE
8
BLACK
6
CONTINUOUS
10
11.1738
20
-1.24346
11
11.1819
21
-1.2441
0
LINE
8
BLACK
6
CONTINUOUS
10
11.1819
20
-1.2441
11
11.1898
21
-1.246
0
LINE
8
BLACK
6
CONTINUOUS
10
11.1898
20
-1.246
11
11.1974
21
-1.24912
0
LINE
8
BLACK
6
CONTINUOUS
10
11.1974
20
-1.24912
11
11.2043
21
-1.25338
0
LINE
8
BLACK
6
CONTINUOUS
10
11.2043
20
-1.25338
11
11.2105
21
-1.25868
0
LINE
8
BLACK
6
CONTINUOUS
10
11.2105
20
-1.25868
11
11.2158
21
-1.26488
0
LINE
8
BLACK
6
CONTINUOUS
10
11.2158
20
-1.26488
11
11.2201
21
-1.27183
0
LINE
8
BLACK
6
CONTINUOUS
10
11.2201
20
-1.27183
11
11.2232
21
-1.27937
0
LINE
8
BLACK
6
CONTINUOUS
10
11.2232
20
-1.27937
11
11.2251
21
-1.2873
0
LINE
8
BLACK
6
CONTINUOUS
10
11.2251
20
-1.2873
11
11.2257
21
-1.29543
0
LINE
8
BLACK
6
CONTINUOUS
10
11.2257
20
-1.29543
11
11.2257
21
-1.29543
0
LINE
8
BLACK
6
CONTINUOUS
10
11.2257
20
-1.29543
11
11.2276
21
-4.41972
0
LINE
8
BLACK
6
CONTINUOUS
10
11.2276
20
-4.41972
11
11.2276
21
-4.41972
0
LINE
8
BLACK
6
CONTINUOUS
10
11.2276
20
-4.41972
11
11.2276
21
-4.41972
0
LINE
8
BLACK
6
CONTINUOUS
10
11.2276
20
-4.41972
11
11.2269
21
-4.42785
0
LINE
8
BLACK
6
CONTINUOUS
10
11.2269
20
-4.42785
11
11.225
21
-4.43578
0
LINE
8
BLACK
6
CONTINUOUS
10
11.225
20
-4.43578
11
11.2219
21
-4.44331
0
LINE
8
BLACK
6
CONTINUOUS
10
11.2219
20
-4.44331
11
11.2176
21
-4.45026
0
LINE
8
BLACK
6
CONTINUOUS
10
11.2176
20
-4.45026
11
11.2123
21
-4.45646
0
LINE
8
BLACK
6
CONTINUOUS
10
11.2123
20
-4.45646
11
11.2061
21
-4.46176
0
LINE
8
BLACK
6
CONTINUOUS
10
11.2061
20
-4.46176
11
11.1992
21
-4.46602
0
LINE
8
BLACK
6
CONTINUOUS
10
11.1992
20
-4.46602
11
11.1917
21
-4.46914
0
LINE
8
BLACK
6
CONTINUOUS
10
11.1917
20
-4.46914
11
11.1837
21
-4.47105
0
LINE
8
BLACK
6
CONTINUOUS
10
11.1837
20
-4.47105
11
11.1756
21
-4.47169
0
LINE
8
BLACK
6
CONTINUOUS
10
11.1756
20
-4.47169
11
11.1756
21
-4.47168
0
LINE
8
BLACK
6
CONTINUOUS
10
11.1756
20
-4.47168
11
0.519485
21
-4.47168
0
LINE
8
BLACK
6
CONTINUOUS
10
0.519485
20
-4.47168
11
0.511356
21
-4.47104
0
LINE
8
BLACK
6
CONTINUOUS
10
0.471329
20
-4.42002
11
0.471898
21
-4.42725
0
LINE
8
BLACK
6
CONTINUOUS
10
0.471898
20
-4.42725
11
0.473663
21
-4.4346
0
LINE
8
BLACK
6
CONTINUOUS
10
0.473663
20
-4.4346
11
0.476556
21
-4.44159
0
LINE
8
BLACK
6
CONTINUOUS
10
0.476556
20
-4.44159
11
0.480507
21
-4.44804
0
LINE
8
BLACK
6
CONTINUOUS
10
0.480507
20
-4.44804
11
0.485417
21
-4.45378
0
LINE
8
BLACK
6
CONTINUOUS
10
0.485417
20
-4.45378
11
0.491166
21
-4.45869
0
LINE
8
BLACK
6
CONTINUOUS
10
0.491166
20
-4.45869
11
0.497612
21
-4.46264
0
LINE
8
BLACK
6
CONTINUOUS
10
0.497612
20
-4.46264
11
0.504597
21
-4.46554
0
LINE
8
BLACK
6
CONTINUOUS
10
0.504597
20
-4.46554
11
0.511948
21
-4.4673
0
LINE
8
BLACK
6
CONTINUOUS
10
0.511948
20
-4.4673
11
0.519184
21
-4.46787
0
LINE
8
BLACK
6
CONTINUOUS
10
0.519184
20
-4.46787
11
0.519485
21
-4.46775
0
LINE
8
BLACK
6
CONTINUOUS
10
0.519485
20
-4.46775
11
0.519485
21
-4.46775
0
LINE
8
BLACK
6
CONTINUOUS
10
0.519485
20
-4.46775
11
11.1756
21
-4.46775
0
LINE
8
BLACK
6
CONTINUOUS
10
11.1756
20
-4.46775
11
11.1759
21
-4.46787
0
LINE
8
BLACK
6
CONTINUOUS
10
11.1759
20
-4.46787
11
11.1831
21
-4.4673
0
LINE
8
BLACK
6
CONTINUOUS
10
11.1831
20
-4.4673
11
11.1905
21
-4.46554
0
LINE
8
BLACK
6
CONTINUOUS
10
11.1905
20
-4.46554
11
11.1975
21
-4.46265
0
LINE
8
BLACK
6
CONTINUOUS
10
11.1975
20
-4.46265
11
11.2039
21
-4.4587
0
LINE
8
BLACK
6
CONTINUOUS
10
11.2039
20
-4.4587
11
11.2097
21
-4.45379
0
LINE
8
BLACK
6
CONTINUOUS
10
11.2097
20
-4.45379
11
11.2146
21
-4.44804
0
LINE
8
BLACK
6
CONTINUOUS
10
11.2146
20
-4.44804
11
11.2185
21
-4.44159
0
LINE
8
BLACK
6
CONTINUOUS
10
11.2185
20
-4.44159
11
11.2214
21
-4.4346
0
LINE
8
BLACK
6
CONTINUOUS
10
11.2214
20
-4.4346
11
11.2232
21
-4.42725
0
LINE
8
BLACK
6
CONTINUOUS
10
11.2232
20
-4.42725
11
11.2238
21
-4.42002
0
LINE
8
BLACK
6
CONTINUOUS
10
11.2238
20
-4.42002
11
11.2236
21
-4.41972
0
LINE
8
BLACK
6
CONTINUOUS
10
11.2236
20
-4.41972
11
11.2218
21
-1.29543
0
LINE
8
BLACK
6
CONTINUOUS
10
11.2218
20
-1.29543
11
11.2218
21
-1.29543
0
LINE
8
BLACK
6
CONTINUOUS
10
11.2218
20
-1.29543
11
11.2218
21
-1.29543
0
LINE
8
BLACK
6
CONTINUOUS
10
11.2218
20
-1.29543
11
11.2219
21
-1.29512
0
LINE
8
BLACK
6
CONTINUOUS
10
11.2219
20
-1.29512
11
11.2214
21
-1.28789
0
LINE
8
BLACK
6
CONTINUOUS
10
11.2214
20
-1.28789
11
11.2196
21
-1.28054
0
LINE
8
BLACK
6
CONTINUOUS
10
11.2196
20
-1.28054
11
11.2167
21
-1.27355
0
LINE
8
BLACK
6
CONTINUOUS
10
11.2167
20
-1.27355
11
11.2128
21
-1.26711
0
LINE
8
BLACK
6
CONTINUOUS
10
11.2128
20
-1.26711
11
11.2078
21
-1.26136
0
LINE
8
BLACK
6
CONTINUOUS
10
11.2078
20
-1.26136
11
11.2021
21
-1.25645
0
LINE
8
BLACK
6
CONTINUOUS
10
11.2021
20
-1.25645
11
11.1956
21
-1.2525
0
LINE
8
BLACK
6
CONTINUOUS
10
11.1956
20
-1.2525
11
11.1887
21
-1.2496
0
LINE
8
BLACK
6
CONTINUOUS
10
11.1887
20
-1.2496
11
11.1813
21
-1.24784
0
LINE
8
BLACK
6
CONTINUOUS
10
11.1813
20
-1.24784
11
11.1741
21
-1.24727
0
LINE
8
BLACK
6
CONTINUOUS
10
11.1741
20
-1.24727
11
11.1738
21
-1.2474
0
LINE
8
BLACK
6
CONTINUOUS
10
11.1738
20
-1.2474
11
11.1738
21
-1.2474
0
LINE
8
BLACK
6
CONTINUOUS
10
11.1738
20
-1.2474
11
0.519485
21
-1.24739
0
LINE
8
BLACK
6
CONTINUOUS
10
0.519485
20
-1.24739
11
0.519184
21
-1.24727
0
LINE
8
BLACK
6
CONTINUOUS
10
0.519184
20
-1.24727
11
0.511948
21
-1.24784
0
LINE
8
BLACK
6
CONTINUOUS
10
0.511948
20
-1.24784
11
0.504597
21
-1.2496
0
LINE
8
BLACK
6
CONTINUOUS
10
0.504597
20
-1.2496
11
0.497612
21
-1.2525
0
LINE
8
BLACK
6
CONTINUOUS
10
0.497612
20
-1.2525
11
0.491166
21
-1.25645
0
LINE
8
BLACK
6
CONTINUOUS
10
0.491166
20
-1.25645
11
0.485417
21
-1.26136
0
LINE
8
BLACK
6
CONTINUOUS
10
0.485417
20
-1.26136
11
0.480507
21
-1.26711
0
LINE
8
BLACK
6
CONTINUOUS
10
0.480507
20
-1.26711
11
0.476556
21
-1.27355
0
LINE
8
BLACK
6
CONTINUOUS
10
0.476556
20
-1.27355
11
0.473663
21
-1.28054
0
LINE
8
BLACK
6
CONTINUOUS
10
0.473663
20
-1.28054
11
0.471898
21
-1.28789
0
LINE
8
BLACK
6
CONTINUOUS
10
0.471898
20
-1.28789
11
0.471329
21
-1.29512
0
LINE
8
BLACK
6
CONTINUOUS
10
0.471329
20
-1.29512
11
0.471454
21
-1.29543
0
LINE
8
BLACK
6
CONTINUOUS
10
0.471454
20
-1.29543
11
0.471454
21
-4.41972
0
LINE
8
BLACK
6
CONTINUOUS
10
0.471454
20
-4.41972
11
0.471329
21
-4.42002
0
LINE
8
BLACK
6
CONTINUOUS
10
11.0046
20
-1.31855
11
11.0125
21
-1.32045
0
LINE
8
BLACK
6
CONTINUOUS
10
11.0125
20
-1.32045
11
11.02
21
-1.32357
0
LINE
8
BLACK
6
CONTINUOUS
10
11.02
20
-1.32357
11
11.027
21
-1.32783
0
LINE
8
BLACK
6
CONTINUOUS
10
11.027
20
-1.32783
11
11.0332
21
-1.33313
0
LINE
8
BLACK
6
CONTINUOUS
10
11.0332
20
-1.33313
11
11.0385
21
-1.33933
0
LINE
8
BLACK
6
CONTINUOUS
10
11.0385
20
-1.33933
11
11.0427
21
-1.34628
0
LINE
8
BLACK
6
CONTINUOUS
10
11.0427
20
-1.34628
11
11.0459
21
-1.35382
0
LINE
8
BLACK
6
CONTINUOUS
10
11.0459
20
-1.35382
11
11.0478
21
-1.36175
0
LINE
8
BLACK
6
CONTINUOUS
10
11.0478
20
-1.36175
11
11.0484
21
-1.36988
0
LINE
8
BLACK
6
CONTINUOUS
10
11.0484
20
-1.36988
11
11.0484
21
-1.36988
0
LINE
8
BLACK
6
CONTINUOUS
10
11.0484
20
-1.36988
11
11.0484
21
-1.36988
0
LINE
8
BLACK
6
CONTINUOUS
10
11.0484
20
-1.36988
11
11.0484
21
-1.36988
0
LINE
8
BLACK
6
CONTINUOUS
10
11.0484
20
-1.36988
11
11.0484
21
-4.28007
0
LINE
8
BLACK
6
CONTINUOUS
10
11.0484
20
-4.28007
11
11.0478
21
-4.2882
0
LINE
8
BLACK
6
CONTINUOUS
10
11.0478
20
-4.2882
11
11.0459
21
-4.29613
0
LINE
8
BLACK
6
CONTINUOUS
10
11.0459
20
-4.29613
11
11.0427
21
-4.30366
0
LINE
8
BLACK
6
CONTINUOUS
10
11.0427
20
-4.30366
11
11.0385
21
-4.31062
0
LINE
8
BLACK
6
CONTINUOUS
10
11.0385
20
-4.31062
11
11.0332
21
-4.31682
0
LINE
8
BLACK
6
CONTINUOUS
10
11.0332
20
-4.31682
11
11.027
21
-4.32211
0
LINE
8
BLACK
6
CONTINUOUS
10
11.027
20
-4.32211
11
11.02
21
-4.32638
0
LINE
8
BLACK
6
CONTINUOUS
10
11.02
20
-4.32638
11
11.0125
21
-4.3295
0
LINE
8
BLACK
6
CONTINUOUS
10
11.0125
20
-4.3295
11
11.0046
21
-4.3314
0
LINE
8
BLACK
6
CONTINUOUS
10
11.0046
20
-4.3314
11
10.9964
21
-4.33204
0
LINE
8
BLACK
6
CONTINUOUS
10
10.9964
20
-4.33204
11
10.9964
21
-4.33204
0
LINE
8
BLACK
6
CONTINUOUS
10
10.9964
20
-4.33204
11
10.9964
21
-4.33204
0
LINE
8
BLACK
6
CONTINUOUS
10
10.9964
20
-4.33204
11
0.70413
21
-4.33214
0
LINE
8
BLACK
6
CONTINUOUS
10
0.70413
20
-4.33214
11
0.696
21
-4.3315
0
LINE
8
BLACK
6
CONTINUOUS
10
0.696
20
-4.3315
11
0.688071
21
-4.32959
0
LINE
8
BLACK
6
CONTINUOUS
10
0.688071
20
-4.32959
11
0.680537
21
-4.32647
0
LINE
8
BLACK
6
CONTINUOUS
10
0.680537
20
-4.32647
11
0.673584
21
-4.32221
0
LINE
8
BLACK
6
CONTINUOUS
10
0.673584
20
-4.32221
11
0.667383
21
-4.31691
0
LINE
8
BLACK
6
CONTINUOUS
10
0.667383
20
-4.31691
11
0.662087
21
-4.31071
0
LINE
8
BLACK
6
CONTINUOUS
10
0.662087
20
-4.31071
11
0.657827
21
-4.30376
0
LINE
8
BLACK
6
CONTINUOUS
10
0.657827
20
-4.30376
11
0.654706
21
-4.29623
0
LINE
8
BLACK
6
CONTINUOUS
10
0.654706
20
-4.29623
11
0.652803
21
-4.2883
0
LINE
8
BLACK
6
CONTINUOUS
10
0.652803
20
-4.2883
11
0.652164
21
-4.28017
0
LINE
8
BLACK
6
CONTINUOUS
10
0.652164
20
-4.28017
11
0.652161
21
-4.28017
0
LINE
8
BLACK
6
CONTINUOUS
10
0.652161
20
-4.28017
11
0.652161
21
-1.37007
0
LINE
8
BLACK
6
CONTINUOUS
10
0.652161
20
-1.37007
11
0.652801
21
-1.36194
0
LINE
8
BLACK
6
CONTINUOUS
10
0.652801
20
-1.36194
11
0.654705
21
-1.35401
0
LINE
8
BLACK
6
CONTINUOUS
10
0.654705
20
-1.35401
11
0.657826
21
-1.34648
0
LINE
8
BLACK
6
CONTINUOUS
10
0.657826
20
-1.34648
11
0.662087
21
-1.33952
0
LINE
8
BLACK
6
CONTINUOUS
10
0.662087
20
-1.33952
11
0.667383
21
-1.33332
0
LINE
8
BLACK
6
CONTINUOUS
10
0.667383
20
-1.33332
11
0.673584
21
-1.32803
0
LINE
8
BLACK
6
CONTINUOUS
10
0.673584
20
-1.32803
11
0.680537
21
-1.32377
0
LINE
8
BLACK
6
CONTINUOUS
10
0.680537
20
-1.32377
11
0.688071
21
-1.32065
0
LINE
8
BLACK
6
CONTINUOUS
10
0.688071
20
-1.32065
11
0.696
21
-1.31874
0
LINE
8
BLACK
6
CONTINUOUS
10
0.696
20
-1.31874
11
0.70413
21
-1.3181
0
LINE
8
BLACK
6
CONTINUOUS
10
0.70413
20
-1.3181
11
10.9964
21
-1.31791
0
LINE
8
BLACK
6
CONTINUOUS
10
10.9964
20
-1.31791
11
10.9964
21
-1.31791
0
LINE
8
BLACK
6
CONTINUOUS
10
10.9964
20
-1.31791
11
11.0046
21
-1.31855
0
LINE
8
BLACK
6
CONTINUOUS
10
0.655975
20
-4.28046
11
0.656545
21
-4.2877
0
LINE
8
BLACK
6
CONTINUOUS
10
0.656545
20
-4.2877
11
0.65831
21
-4.29506
0
LINE
8
BLACK
6
CONTINUOUS
10
0.65831
20
-4.29506
11
0.661202
21
-4.30204
0
LINE
8
BLACK
6
CONTINUOUS
10
0.661202
20
-4.30204
11
0.665152
21
-4.30849
0
LINE
8
BLACK
6
CONTINUOUS
10
0.665152
20
-4.30849
11
0.670062
21
-4.31424
0
LINE
8
BLACK
6
CONTINUOUS
10
0.670062
20
-4.31424
11
0.675811
21
-4.31915
0
LINE
8
BLACK
6
CONTINUOUS
10
0.675811
20
-4.31915
11
0.682257
21
-4.3231
0
LINE
8
BLACK
6
CONTINUOUS
10
0.682257
20
-4.3231
11
0.689242
21
-4.32599
0
LINE
8
BLACK
6
CONTINUOUS
10
0.689242
20
-4.32599
11
0.696593
21
-4.32775
0
LINE
8
BLACK
6
CONTINUOUS
10
0.696593
20
-4.32775
11
0.703829
21
-4.32832
0
LINE
8
BLACK
6
CONTINUOUS
10
0.703829
20
-4.32832
11
0.70413
21
-4.3282
0
LINE
8
BLACK
6
CONTINUOUS
10
0.70413
20
-4.3282
11
10.9964
21
-4.3281
0
LINE
8
BLACK
6
CONTINUOUS
10
10.9964
20
-4.3281
11
10.9964
21
-4.3281
0
LINE
8
BLACK
6
CONTINUOUS
10
10.9964
20
-4.3281
11
10.9967
21
-4.32823
0
LINE
8
BLACK
6
CONTINUOUS
10
10.9967
20
-4.32823
11
11.004
21
-4.32766
0
LINE
8
BLACK
6
CONTINUOUS
10
11.004
20
-4.32766
11
11.0113
21
-4.32589
0
LINE
8
BLACK
6
CONTINUOUS
10
11.0113
20
-4.32589
11
11.0183
21
-4.323
0
LINE
8
BLACK
6
CONTINUOUS
10
11.0183
20
-4.323
11
11.0247
21
-4.31905
0
LINE
8
BLACK
6
CONTINUOUS
10
11.0247
20
-4.31905
11
11.0305
21
-4.31414
0
LINE
8
BLACK
6
CONTINUOUS
10
11.0305
20
-4.31414
11
11.0354
21
-4.30839
0
LINE
8
BLACK
6
CONTINUOUS
10
11.0354
20
-4.30839
11
11.0394
21
-4.30194
0
LINE
8
BLACK
6
CONTINUOUS
10
11.0394
20
-4.30194
11
11.0422
21
-4.29496
0
LINE
8
BLACK
6
CONTINUOUS
10
11.0422
20
-4.29496
11
11.044
21
-4.28761
0
LINE
8
BLACK
6
CONTINUOUS
10
11.044
20
-4.28761
11
11.0446
21
-4.28037
0
LINE
8
BLACK
6
CONTINUOUS
10
11.0446
20
-4.28037
11
11.0445
21
-4.28007
0
LINE
8
BLACK
6
CONTINUOUS
10
11.0445
20
-4.28007
11
11.0445
21
-1.36988
0
LINE
8
BLACK
6
CONTINUOUS
10
11.0445
20
-1.36988
11
11.0446
21
-1.36957
0
LINE
8
BLACK
6
CONTINUOUS
10
11.0446
20
-1.36957
11
11.044
21
-1.36234
0
LINE
8
BLACK
6
CONTINUOUS
10
11.044
20
-1.36234
11
11.0422
21
-1.35499
0
LINE
8
BLACK
6
CONTINUOUS
10
11.0422
20
-1.35499
11
11.0394
21
-1.34801
0
LINE
8
BLACK
6
CONTINUOUS
10
11.0394
20
-1.34801
11
11.0354
21
-1.34156
0
LINE
8
BLACK
6
CONTINUOUS
10
11.0354
20
-1.34156
11
11.0305
21
-1.33581
0
LINE
8
BLACK
6
CONTINUOUS
10
11.0305
20
-1.33581
11
11.0247
21
-1.3309
0
LINE
8
BLACK
6
CONTINUOUS
10
11.0247
20
-1.3309
11
11.0183
21
-1.32695
0
LINE
8
BLACK
6
CONTINUOUS
10
11.0183
20
-1.32695
11
11.0113
21
-1.32406
0
LINE
8
BLACK
6
CONTINUOUS
10
11.0113
20
-1.32406
11
11.004
21
-1.32229
0
LINE
8
BLACK
6
CONTINUOUS
10
11.004
20
-1.32229
11
10.9967
21
-1.32172
0
LINE
8
BLACK
6
CONTINUOUS
10
10.9967
20
-1.32172
11
10.9964
21
-1.32185
0
LINE
8
BLACK
6
CONTINUOUS
10
10.9964
20
-1.32185
11
0.70413
21
-1.32204
0
LINE
8
BLACK
6
CONTINUOUS
10
0.70413
20
-1.32204
11
0.70413
21
-1.32204
0
LINE
8
BLACK
6
CONTINUOUS
10
0.70413
20
-1.32204
11
0.703829
21
-1.32191
0
LINE
8
BLACK
6
CONTINUOUS
10
0.703829
20
-1.32191
11
0.696593
21
-1.32248
0
LINE
8
BLACK
6
CONTINUOUS
10
0.696593
20
-1.32248
11
0.689241
21
-1.32425
0
LINE
8
BLACK
6
CONTINUOUS
10
0.689241
20
-1.32425
11
0.682257
21
-1.32714
0
LINE
8
BLACK
6
CONTINUOUS
10
0.682257
20
-1.32714
11
0.67581
21
-1.33109
0
LINE
8
BLACK
6
CONTINUOUS
10
0.67581
20
-1.33109
11
0.670062
21
-1.336
0
LINE
8
BLACK
6
CONTINUOUS
10
0.670062
20
-1.336
11
0.665151
21
-1.34175
0
LINE
8
BLACK
6
CONTINUOUS
10
0.665151
20
-1.34175
11
0.661201
21
-1.3482
0
LINE
8
BLACK
6
CONTINUOUS
10
0.661201
20
-1.3482
11
0.658308
21
-1.35518
0
LINE
8
BLACK
6
CONTINUOUS
10
0.658308
20
-1.35518
11
0.656543
21
-1.36253
0
LINE
8
BLACK
6
CONTINUOUS
10
0.656543
20
-1.36253
11
0.655974
21
-1.36977
0
LINE
8
BLACK
6
CONTINUOUS
10
0.655974
20
-1.36977
11
0.656098
21
-1.37007
0
LINE
8
BLACK
6
CONTINUOUS
10
0.656098
20
-1.37007
11
0.656098
21
-4.28017
0
LINE
8
BLACK
6
CONTINUOUS
10
0.656098
20
-4.28017
11
0.655975
21
-4.28046
  0
ENDSEC
  0
EOF
