  0
SECTION
  2
HEADER
  9
$ANGBASE
  50
0.0
  9
$ANGDIR
  70
1
  9
$MEASUREMENT
  70
0
  0
ENDSEC
  0
SECTION
  2
TABLES
  0
TABLE
  2
LTYPE
  70
4
  0
LTYPE
  5
40F
  2
CONTINUOUS
  70
0
  3
Solid line
  72
65
  73
0
  40
0.0
  0
LTYPE
  5
410
  2
DASHDOT
 70
0
  3
Dash Dot ____ _ ____ _
 72
65
 73
4
 40
2.0
 49
1.25
 49
-0.25
 49
0.25
 49
-0.25
  0
LTYPE
  5
411
  2
DASHED
 70
0
  3
Dashed __ __ __ __ __
 72
65
 73
2
 40
0.75
 49
0.5
 49
-0.25
  0
LTYPE
  5
43B
  2
DOTTED
 70
0
  3
Dotted .  .  .  .
 72
65
 73
2
 40
0.2
 49
0.0
 49
-0.2
  0
ENDTAB
  0
TABLE
  2
STYLE
  70
4
  0
STYLE
  2
KICAD
  70
0
  40
0
  41
1
  42
1
  50
0
  71
0
  3
isocp.shx
  0
STYLE
  2
KICADB
  70
0
  40
0
  41
1
  42
1
  50
0
  71
0
  3
isocp.shx
  0
STYLE
  2
KICADI
  70
0
  40
0
  41
1
  42
1
  50
15
  71
0
  3
isocp.shx
  0
STYLE
  2
KICADBI
  70
0
  40
0
  41
1
  42
1
  50
15
  71
0
  3
isocp.shx
  0
ENDTAB
  0
TABLE
  2
LAYER
  70
1
  0
LAYER
  2
BLACK
  70
0
  62
7
  6
CONTINUOUS
  0
ENDTAB
  0
ENDSEC
  0
SECTION
  2
ENTITIES
0
LINE
8
BLACK
6
CONTINUOUS
10
0.65413
20
-1.37007
11
0.65413
21
-4.28017
0
LINE
8
BLACK
6
CONTINUOUS
10
6.64
20
-1.32
11
6.64
21
-1.245
0
ARC
8
BLACK
10
10.9964
20
-4.28007
40
0.0500009
50
-89.9989
51
-0
0
ARC
8
BLACK
10
0.70413
20
-1.37007
40
0.05
50
90
51
180
0
LINE
8
BLACK
6
CONTINUOUS
10
0.519485
20
-4.46972
11
11.1756
21
-4.46972
0
ARC
8
BLACK
10
10.9964
20
-1.36988
40
0.0500036
50
0.00415048
51
89.9989
0
ARC
8
BLACK
10
11.1756
20
-4.41972
40
0.0500005
50
-89.9995
51
0.000360915
0
LINE
8
BLACK
6
CONTINUOUS
10
5.06218
20
-1.24511
11
0.519485
21
-1.24543
0
LINE
8
BLACK
6
CONTINUOUS
10
11.2256
20
-4.41972
11
11.2238
21
-1.29543
0
ARC
8
BLACK
10
0.519484
20
-4.41972
40
0.049999
50
-180.001
51
-89.9988
0
ARC
8
BLACK
10
0.70413
20
-4.28017
40
0.0499979
50
-180.002
51
-90
0
ARC
8
BLACK
10
0.519485
20
-1.29543
40
0.0499998
50
-270
51
-180
0
LINE
8
BLACK
6
CONTINUOUS
10
11.0464
20
-4.28007
11
11.0464
21
-1.36988
0
LINE
8
BLACK
6
CONTINUOUS
10
10.9964
20
-1.31988
11
6.64
21
-1.32
0
ARC
8
BLACK
10
11.1738
20
-1.29543
40
0.0499983
50
-0.00194002
51
90.0026
0
LINE
8
BLACK
6
CONTINUOUS
10
0.70413
20
-4.33017
11
10.9964
21
-4.33007
0
LINE
8
BLACK
6
CONTINUOUS
10
5.06218
20
-1.32011
11
0.70413
21
-1.32007
0
LINE
8
BLACK
6
CONTINUOUS
10
11.1738
20
-1.24543
11
6.64
21
-1.245
0
LINE
8
BLACK
6
CONTINUOUS
10
5.06218
20
-1.32011
11
5.06218
21
-1.24511
0
LINE
8
BLACK
6
CONTINUOUS
10
0.469485
20
-1.29543
11
0.469485
21
-4.41972
0
LINE
8
BLACK
6
CONTINUOUS
10
0.568942
20
-4.59392
11
0.568942
21
-4.51518
0
LINE
8
BLACK
6
CONTINUOUS
10
0.568942
20
-4.51518
11
0.587689
21
-4.51518
0
LINE
8
BLACK
6
CONTINUOUS
10
0.587689
20
-4.51518
11
0.598938
21
-4.51893
0
LINE
8
BLACK
6
CONTINUOUS
10
0.598938
20
-4.51893
11
0.606437
21
-4.52643
0
LINE
8
BLACK
6
CONTINUOUS
10
0.606437
20
-4.52643
11
0.610186
21
-4.53393
0
LINE
8
BLACK
6
CONTINUOUS
10
0.610186
20
-4.53393
11
0.613936
21
-4.54893
0
LINE
8
BLACK
6
CONTINUOUS
10
0.613936
20
-4.54893
11
0.613936
21
-4.56017
0
LINE
8
BLACK
6
CONTINUOUS
10
0.613936
20
-4.56017
11
0.610186
21
-4.57517
0
LINE
8
BLACK
6
CONTINUOUS
10
0.610186
20
-4.57517
11
0.606437
21
-4.58267
0
LINE
8
BLACK
6
CONTINUOUS
10
0.606437
20
-4.58267
11
0.598938
21
-4.59017
0
LINE
8
BLACK
6
CONTINUOUS
10
0.598938
20
-4.59017
11
0.587689
21
-4.59392
0
LINE
8
BLACK
6
CONTINUOUS
10
0.587689
20
-4.59392
11
0.568942
21
-4.59392
0
LINE
8
BLACK
6
CONTINUOUS
10
0.647682
20
-4.59392
11
0.647682
21
-4.54143
0
LINE
8
BLACK
6
CONTINUOUS
10
0.647682
20
-4.55642
11
0.651431
21
-4.54893
0
LINE
8
BLACK
6
CONTINUOUS
10
0.651431
20
-4.54893
11
0.655181
21
-4.54518
0
LINE
8
BLACK
6
CONTINUOUS
10
0.655181
20
-4.54518
11
0.66268
21
-4.54143
0
LINE
8
BLACK
6
CONTINUOUS
10
0.66268
20
-4.54143
11
0.670179
21
-4.54143
0
LINE
8
BLACK
6
CONTINUOUS
10
0.696426
20
-4.59392
11
0.696426
21
-4.54143
0
LINE
8
BLACK
6
CONTINUOUS
10
0.696426
20
-4.51518
11
0.692676
21
-4.51893
0
LINE
8
BLACK
6
CONTINUOUS
10
0.692676
20
-4.51893
11
0.696426
21
-4.52268
0
LINE
8
BLACK
6
CONTINUOUS
10
0.696426
20
-4.52268
11
0.700175
21
-4.51893
0
LINE
8
BLACK
6
CONTINUOUS
10
0.700175
20
-4.51893
11
0.696426
21
-4.51518
0
LINE
8
BLACK
6
CONTINUOUS
10
0.696426
20
-4.51518
11
0.696426
21
-4.52268
0
LINE
8
BLACK
6
CONTINUOUS
10
0.74517
20
-4.59392
11
0.73767
21
-4.59017
0
LINE
8
BLACK
6
CONTINUOUS
10
0.73767
20
-4.59017
11
0.733921
21
-4.58267
0
LINE
8
BLACK
6
CONTINUOUS
10
0.733921
20
-4.58267
11
0.733921
21
-4.51518
0
LINE
8
BLACK
6
CONTINUOUS
10
0.786414
20
-4.59392
11
0.778915
21
-4.59017
0
LINE
8
BLACK
6
CONTINUOUS
10
0.778915
20
-4.59017
11
0.775166
21
-4.58267
0
LINE
8
BLACK
6
CONTINUOUS
10
0.775166
20
-4.58267
11
0.775166
21
-4.51518
0
LINE
8
BLACK
6
CONTINUOUS
10
0.876403
20
-4.59392
11
0.876403
21
-4.51518
0
LINE
8
BLACK
6
CONTINUOUS
10
0.876403
20
-4.51518
11
0.90265
21
-4.57142
0
LINE
8
BLACK
6
CONTINUOUS
10
0.90265
20
-4.57142
11
0.928897
21
-4.51518
0
LINE
8
BLACK
6
CONTINUOUS
10
0.928897
20
-4.51518
11
0.928897
21
-4.59392
0
LINE
8
BLACK
6
CONTINUOUS
10
1.00014
20
-4.59392
11
1.00014
21
-4.55267
0
LINE
8
BLACK
6
CONTINUOUS
10
1.00014
20
-4.55267
11
0.996388
21
-4.54518
0
LINE
8
BLACK
6
CONTINUOUS
10
0.996388
20
-4.54518
11
0.988889
21
-4.54143
0
LINE
8
BLACK
6
CONTINUOUS
10
0.988889
20
-4.54143
11
0.973891
21
-4.54143
0
LINE
8
BLACK
6
CONTINUOUS
10
0.973891
20
-4.54143
11
0.966392
21
-4.54518
0
LINE
8
BLACK
6
CONTINUOUS
10
1.00014
20
-4.59017
11
0.992639
21
-4.59392
0
LINE
8
BLACK
6
CONTINUOUS
10
0.992639
20
-4.59392
11
0.973891
21
-4.59392
0
LINE
8
BLACK
6
CONTINUOUS
10
0.973891
20
-4.59392
11
0.966392
21
-4.59017
0
LINE
8
BLACK
6
CONTINUOUS
10
0.966392
20
-4.59017
11
0.962642
21
-4.58267
0
LINE
8
BLACK
6
CONTINUOUS
10
0.962642
20
-4.58267
11
0.962642
21
-4.57517
0
LINE
8
BLACK
6
CONTINUOUS
10
0.962642
20
-4.57517
11
0.966392
21
-4.56767
0
LINE
8
BLACK
6
CONTINUOUS
10
0.966392
20
-4.56767
11
0.973891
21
-4.56392
0
LINE
8
BLACK
6
CONTINUOUS
10
0.973891
20
-4.56392
11
0.992639
21
-4.56392
0
LINE
8
BLACK
6
CONTINUOUS
10
0.992639
20
-4.56392
11
1.00014
21
-4.56017
0
LINE
8
BLACK
6
CONTINUOUS
10
1.03763
20
-4.54143
11
1.03763
21
-4.62017
0
LINE
8
BLACK
6
CONTINUOUS
10
1.03763
20
-4.54518
11
1.04513
21
-4.54143
0
LINE
8
BLACK
6
CONTINUOUS
10
1.04513
20
-4.54143
11
1.06013
21
-4.54143
0
LINE
8
BLACK
6
CONTINUOUS
10
1.06013
20
-4.54143
11
1.06763
21
-4.54518
0
LINE
8
BLACK
6
CONTINUOUS
10
1.06763
20
-4.54518
11
1.07138
21
-4.54893
0
LINE
8
BLACK
6
CONTINUOUS
10
1.07138
20
-4.54893
11
1.07513
21
-4.55642
0
LINE
8
BLACK
6
CONTINUOUS
10
1.07513
20
-4.55642
11
1.07513
21
-4.57892
0
LINE
8
BLACK
6
CONTINUOUS
10
1.07513
20
-4.57892
11
1.07138
21
-4.58642
0
LINE
8
BLACK
6
CONTINUOUS
10
1.07138
20
-4.58642
11
1.06763
21
-4.59017
0
LINE
8
BLACK
6
CONTINUOUS
10
1.06763
20
-4.59017
11
1.06013
21
-4.59392
0
LINE
8
BLACK
6
CONTINUOUS
10
1.06013
20
-4.59392
11
1.04513
21
-4.59392
0
LINE
8
BLACK
6
CONTINUOUS
10
1.04513
20
-4.59392
11
1.03763
21
-4.59017
0
LINE
8
BLACK
6
CONTINUOUS
10
1.10887
20
-4.58642
11
1.11262
21
-4.59017
0
LINE
8
BLACK
6
CONTINUOUS
10
1.11262
20
-4.59017
11
1.10887
21
-4.59392
0
LINE
8
BLACK
6
CONTINUOUS
10
1.10887
20
-4.59392
11
1.10512
21
-4.59017
0
LINE
8
BLACK
6
CONTINUOUS
10
1.10512
20
-4.59017
11
1.10887
21
-4.58642
0
LINE
8
BLACK
6
CONTINUOUS
10
1.10887
20
-4.58642
11
1.10887
21
-4.59392
0
LINE
8
BLACK
6
CONTINUOUS
10
1.10887
20
-4.54518
11
1.11262
21
-4.54893
0
LINE
8
BLACK
6
CONTINUOUS
10
1.11262
20
-4.54893
11
1.10887
21
-4.55267
0
LINE
8
BLACK
6
CONTINUOUS
10
1.10887
20
-4.55267
11
1.10512
21
-4.54893
0
LINE
8
BLACK
6
CONTINUOUS
10
1.10512
20
-4.54893
11
1.10887
21
-4.54518
0
LINE
8
BLACK
6
CONTINUOUS
10
1.10887
20
-4.54518
11
1.10887
21
-4.55267
  0
ENDSEC
  0
EOF
