%TF.GenerationSoftware,KiCad,Pcbnew,(6.0.7)*%
%TF.CreationDate,2022-10-26T00:08:18+02:00*%
%TF.ProjectId,skoosk backplate,736b6f6f-736b-4206-9261-636b706c6174,rev?*%
%TF.SameCoordinates,Original*%
%TF.FileFunction,Copper,L2,Bot*%
%TF.FilePolarity,Positive*%
%FSLAX46Y46*%
G04 Gerber Fmt 4.6, Leading zero omitted, Abs format (unit mm)*
G04 Created by KiCad (PCBNEW (6.0.7)) date 2022-10-26 00:08:18*
%MOMM*%
%LPD*%
G01*
G04 APERTURE LIST*
%TA.AperFunction,ComponentPad*%
%ADD10C,4.400000*%
%TD*%
G04 APERTURE END LIST*
D10*
%TO.P,H2,1,1*%
%TO.N,N/C*%
X81146500Y-88311400D03*
%TD*%
%TO.P,H3,1,1*%
%TO.N,N/C*%
X197253100Y-11936200D03*
%TD*%
%TO.P,H4,1,1*%
%TO.N,N/C*%
X273186700Y-11950000D03*
%TD*%
%TO.P,H1,1,1*%
%TO.N,N/C*%
X5207000Y-88265000D03*
%TD*%
%TO.P,H4,1,1*%
%TO.N,N/C*%
X273313700Y-88277000D03*
%TD*%
%TO.P,H1,1,1*%
%TO.N,N/C*%
X5080000Y-11938000D03*
%TD*%
%TO.P,H2,1,1*%
%TO.N,N/C*%
X81019500Y-11984400D03*
%TD*%
%TO.P,H3,1,1*%
%TO.N,N/C*%
X197380100Y-88263200D03*
%TD*%
%TA.AperFunction,NonConductor*%
G36*
X139086456Y-9154035D02*
G01*
X274305994Y-9154043D01*
X274315875Y-9154431D01*
X274423333Y-9162884D01*
X274424435Y-9162976D01*
X274484742Y-9168253D01*
X274505110Y-9170036D01*
X274523529Y-9173035D01*
X274621207Y-9196482D01*
X274623134Y-9196945D01*
X274626330Y-9197756D01*
X274710043Y-9220184D01*
X274725651Y-9225482D01*
X274819385Y-9264305D01*
X274824416Y-9266519D01*
X274903752Y-9303511D01*
X274916333Y-9310270D01*
X275002544Y-9363098D01*
X275008969Y-9367311D01*
X275080898Y-9417675D01*
X275090458Y-9425077D01*
X275167228Y-9490643D01*
X275174494Y-9497360D01*
X275236625Y-9559491D01*
X275243341Y-9566755D01*
X275308922Y-9643540D01*
X275316324Y-9653101D01*
X275366668Y-9725000D01*
X275370888Y-9731436D01*
X275423727Y-9817662D01*
X275430490Y-9830249D01*
X275467468Y-9909554D01*
X275469681Y-9914583D01*
X275508514Y-10008334D01*
X275513812Y-10023944D01*
X275536239Y-10107651D01*
X275537033Y-10110774D01*
X275560958Y-10210438D01*
X275563959Y-10228869D01*
X275571094Y-10310442D01*
X275571185Y-10311538D01*
X275579557Y-10417947D01*
X275579945Y-10427748D01*
X275580150Y-10779264D01*
X275580182Y-10834747D01*
X275560220Y-10902879D01*
X275506591Y-10949403D01*
X275436323Y-10959548D01*
X275371725Y-10930092D01*
X275340174Y-10888468D01*
X275296121Y-10794850D01*
X275296117Y-10794843D01*
X275294433Y-10791264D01*
X275132585Y-10536232D01*
X275120136Y-10521183D01*
X275043031Y-10427980D01*
X274940049Y-10303496D01*
X274719862Y-10096726D01*
X274703346Y-10084726D01*
X274478698Y-9921511D01*
X274478697Y-9921510D01*
X274475495Y-9919184D01*
X274466508Y-9914243D01*
X274214273Y-9775575D01*
X274214272Y-9775574D01*
X274210804Y-9773668D01*
X274207135Y-9772215D01*
X274207130Y-9772213D01*
X273933632Y-9663928D01*
X273933631Y-9663928D01*
X273929962Y-9662475D01*
X273637398Y-9587358D01*
X273337727Y-9549500D01*
X273035673Y-9549500D01*
X272736002Y-9587358D01*
X272443438Y-9662475D01*
X272439769Y-9663928D01*
X272439768Y-9663928D01*
X272166270Y-9772213D01*
X272166265Y-9772215D01*
X272162596Y-9773668D01*
X272159128Y-9775574D01*
X272159127Y-9775575D01*
X271906893Y-9914243D01*
X271897905Y-9919184D01*
X271894703Y-9921510D01*
X271894702Y-9921511D01*
X271670055Y-10084726D01*
X271653538Y-10096726D01*
X271433351Y-10303496D01*
X271330369Y-10427980D01*
X271253265Y-10521183D01*
X271240815Y-10536232D01*
X271078967Y-10791264D01*
X271077283Y-10794843D01*
X271077279Y-10794850D01*
X270955077Y-11054543D01*
X270950359Y-11064570D01*
X270857019Y-11351840D01*
X270800420Y-11648543D01*
X270781454Y-11950000D01*
X270800420Y-12251457D01*
X270857019Y-12548160D01*
X270858246Y-12551936D01*
X270947042Y-12825220D01*
X270950359Y-12835430D01*
X270952046Y-12839016D01*
X270952048Y-12839020D01*
X271077279Y-13105150D01*
X271077282Y-13105155D01*
X271078967Y-13108736D01*
X271240815Y-13363768D01*
X271243334Y-13366814D01*
X271243337Y-13366817D01*
X271299033Y-13434141D01*
X271433351Y-13596504D01*
X271653538Y-13803274D01*
X271897905Y-13980816D01*
X271901374Y-13982723D01*
X271901377Y-13982725D01*
X272140768Y-14114332D01*
X272162596Y-14126332D01*
X272166265Y-14127785D01*
X272166270Y-14127787D01*
X272411061Y-14224706D01*
X272443438Y-14237525D01*
X272736002Y-14312642D01*
X273035673Y-14350500D01*
X273337727Y-14350500D01*
X273637398Y-14312642D01*
X273929962Y-14237525D01*
X273962339Y-14224706D01*
X274207130Y-14127787D01*
X274207135Y-14127785D01*
X274210804Y-14126332D01*
X274232632Y-14114332D01*
X274472023Y-13982725D01*
X274472026Y-13982723D01*
X274475495Y-13980816D01*
X274719862Y-13803274D01*
X274940049Y-13596504D01*
X275074367Y-13434141D01*
X275130063Y-13366817D01*
X275130066Y-13366814D01*
X275132585Y-13363768D01*
X275294433Y-13108736D01*
X275341473Y-13008771D01*
X275388576Y-12955650D01*
X275456921Y-12936428D01*
X275524809Y-12957207D01*
X275570685Y-13011391D01*
X275581481Y-13062345D01*
X275624530Y-86894583D01*
X275624594Y-87004627D01*
X275604632Y-87072759D01*
X275551003Y-87119283D01*
X275480735Y-87129428D01*
X275416137Y-87099973D01*
X275392209Y-87072214D01*
X275261707Y-86866576D01*
X275259585Y-86863232D01*
X275247136Y-86848183D01*
X275201367Y-86792859D01*
X275067049Y-86630496D01*
X274846862Y-86423726D01*
X274830346Y-86411726D01*
X274605698Y-86248511D01*
X274605697Y-86248510D01*
X274602495Y-86246184D01*
X274580668Y-86234184D01*
X274341273Y-86102575D01*
X274341272Y-86102574D01*
X274337804Y-86100668D01*
X274334135Y-86099215D01*
X274334130Y-86099213D01*
X274060632Y-85990928D01*
X274060631Y-85990928D01*
X274056962Y-85989475D01*
X273764398Y-85914358D01*
X273464727Y-85876500D01*
X273162673Y-85876500D01*
X272863002Y-85914358D01*
X272570438Y-85989475D01*
X272566769Y-85990928D01*
X272566768Y-85990928D01*
X272293270Y-86099213D01*
X272293265Y-86099215D01*
X272289596Y-86100668D01*
X272286128Y-86102574D01*
X272286127Y-86102575D01*
X272046733Y-86234184D01*
X272024905Y-86246184D01*
X272021703Y-86248510D01*
X272021702Y-86248511D01*
X271797055Y-86411726D01*
X271780538Y-86423726D01*
X271560351Y-86630496D01*
X271426033Y-86792859D01*
X271380265Y-86848183D01*
X271367815Y-86863232D01*
X271205967Y-87118264D01*
X271204283Y-87121843D01*
X271204279Y-87121850D01*
X271082077Y-87381543D01*
X271077359Y-87391570D01*
X270984019Y-87678840D01*
X270927420Y-87975543D01*
X270908454Y-88277000D01*
X270927420Y-88578457D01*
X270984019Y-88875160D01*
X270985246Y-88878936D01*
X271074042Y-89152220D01*
X271077359Y-89162430D01*
X271079046Y-89166016D01*
X271079048Y-89166020D01*
X271204279Y-89432150D01*
X271204283Y-89432157D01*
X271205967Y-89435736D01*
X271367815Y-89690768D01*
X271370334Y-89693814D01*
X271370337Y-89693817D01*
X271426033Y-89761141D01*
X271560351Y-89923504D01*
X271780538Y-90130274D01*
X271783740Y-90132601D01*
X271783742Y-90132602D01*
X272002708Y-90291689D01*
X272024905Y-90307816D01*
X272028374Y-90309723D01*
X272028377Y-90309725D01*
X272267768Y-90441332D01*
X272289596Y-90453332D01*
X272293265Y-90454785D01*
X272293270Y-90454787D01*
X272557835Y-90559535D01*
X272570438Y-90564525D01*
X272863002Y-90639642D01*
X273162673Y-90677500D01*
X273464727Y-90677500D01*
X273764398Y-90639642D01*
X274056962Y-90564525D01*
X274069565Y-90559535D01*
X274334130Y-90454787D01*
X274334135Y-90454785D01*
X274337804Y-90453332D01*
X274359632Y-90441332D01*
X274599023Y-90309725D01*
X274599026Y-90309723D01*
X274602495Y-90307816D01*
X274624692Y-90291689D01*
X274843658Y-90132602D01*
X274843660Y-90132601D01*
X274846862Y-90130274D01*
X275067049Y-89923504D01*
X275201367Y-89761141D01*
X275257063Y-89693817D01*
X275257066Y-89693814D01*
X275259585Y-89690768D01*
X275393692Y-89479449D01*
X275447080Y-89432651D01*
X275517295Y-89422146D01*
X275582043Y-89451270D01*
X275620767Y-89510776D01*
X275626076Y-89546891D01*
X275626209Y-89775001D01*
X275625821Y-89784958D01*
X275617396Y-89892025D01*
X275617311Y-89893045D01*
X275614407Y-89926215D01*
X275610205Y-89974192D01*
X275607204Y-89992612D01*
X275583341Y-90092011D01*
X275582529Y-90095208D01*
X275560044Y-90179126D01*
X275554746Y-90194734D01*
X275515974Y-90288339D01*
X275513760Y-90293370D01*
X275476712Y-90372821D01*
X275469950Y-90385406D01*
X275417186Y-90471511D01*
X275412967Y-90477946D01*
X275362529Y-90549980D01*
X275355146Y-90559517D01*
X275296538Y-90628139D01*
X275289640Y-90636216D01*
X275282925Y-90643480D01*
X275220700Y-90705706D01*
X275213435Y-90712422D01*
X275136743Y-90777924D01*
X275127184Y-90785325D01*
X275055157Y-90835760D01*
X275048720Y-90839980D01*
X274962631Y-90892736D01*
X274950047Y-90899498D01*
X274870571Y-90936559D01*
X274865539Y-90938773D01*
X274771952Y-90977539D01*
X274756346Y-90982837D01*
X274672410Y-91005329D01*
X274669212Y-91006141D01*
X274569845Y-91029998D01*
X274551415Y-91033000D01*
X274469211Y-91040192D01*
X274468323Y-91040267D01*
X274383403Y-91046951D01*
X274362399Y-91048604D01*
X274352513Y-91048992D01*
X142765145Y-91048983D01*
X3696981Y-91048974D01*
X3687095Y-91048586D01*
X3578734Y-91040058D01*
X3577640Y-91039967D01*
X3536500Y-91036368D01*
X3497962Y-91032997D01*
X3479533Y-91029996D01*
X3410238Y-91013359D01*
X3379242Y-91005918D01*
X3376045Y-91005106D01*
X3293040Y-90982865D01*
X3277432Y-90977566D01*
X3183253Y-90938555D01*
X3178223Y-90936342D01*
X3099350Y-90899564D01*
X3086765Y-90892802D01*
X3059581Y-90876144D01*
X3000225Y-90839771D01*
X2993820Y-90835571D01*
X2922205Y-90785426D01*
X2912646Y-90778024D01*
X2835612Y-90712231D01*
X2828347Y-90705515D01*
X2766485Y-90643653D01*
X2759769Y-90636388D01*
X2693976Y-90559354D01*
X2686574Y-90549795D01*
X2672716Y-90530004D01*
X2636429Y-90478180D01*
X2632229Y-90471775D01*
X2595856Y-90412419D01*
X2579198Y-90385235D01*
X2572436Y-90372650D01*
X2535658Y-90293777D01*
X2533445Y-90288747D01*
X2494434Y-90194568D01*
X2489135Y-90178960D01*
X2466894Y-90095955D01*
X2466082Y-90092758D01*
X2442005Y-89992470D01*
X2439003Y-89974036D01*
X2432033Y-89894360D01*
X2431942Y-89893266D01*
X2423414Y-89784905D01*
X2423026Y-89775019D01*
X2423026Y-88265000D01*
X2801754Y-88265000D01*
X2820720Y-88566457D01*
X2877319Y-88863160D01*
X2970659Y-89150430D01*
X2972346Y-89154016D01*
X2972348Y-89154020D01*
X3097579Y-89420150D01*
X3097583Y-89420157D01*
X3099267Y-89423736D01*
X3261115Y-89678768D01*
X3263634Y-89681814D01*
X3263637Y-89681817D01*
X3296734Y-89721824D01*
X3453651Y-89911504D01*
X3673838Y-90118274D01*
X3677040Y-90120601D01*
X3677042Y-90120602D01*
X3914838Y-90293370D01*
X3918205Y-90295816D01*
X3921674Y-90297723D01*
X3921677Y-90297725D01*
X4176153Y-90437625D01*
X4182896Y-90441332D01*
X4186565Y-90442785D01*
X4186570Y-90442787D01*
X4396488Y-90525899D01*
X4463738Y-90552525D01*
X4756302Y-90627642D01*
X5055973Y-90665500D01*
X5358027Y-90665500D01*
X5657698Y-90627642D01*
X5950262Y-90552525D01*
X6017512Y-90525899D01*
X6227430Y-90442787D01*
X6227435Y-90442785D01*
X6231104Y-90441332D01*
X6237847Y-90437625D01*
X6492323Y-90297725D01*
X6492326Y-90297723D01*
X6495795Y-90295816D01*
X6499162Y-90293370D01*
X6736958Y-90120602D01*
X6736960Y-90120601D01*
X6740162Y-90118274D01*
X6960349Y-89911504D01*
X7117266Y-89721824D01*
X7150363Y-89681817D01*
X7150366Y-89681814D01*
X7152885Y-89678768D01*
X7314733Y-89423736D01*
X7316417Y-89420157D01*
X7316421Y-89420150D01*
X7441652Y-89154020D01*
X7441654Y-89154016D01*
X7443341Y-89150430D01*
X7536681Y-88863160D01*
X7593280Y-88566457D01*
X7609327Y-88311400D01*
X78741254Y-88311400D01*
X78760220Y-88612857D01*
X78816819Y-88909560D01*
X78910159Y-89196830D01*
X78911846Y-89200416D01*
X78911848Y-89200420D01*
X79037079Y-89466550D01*
X79037083Y-89466557D01*
X79038767Y-89470136D01*
X79200615Y-89725168D01*
X79203134Y-89728214D01*
X79203137Y-89728217D01*
X79245806Y-89779795D01*
X79393151Y-89957904D01*
X79613338Y-90164674D01*
X79616540Y-90167001D01*
X79616542Y-90167002D01*
X79796468Y-90297725D01*
X79857705Y-90342216D01*
X79861174Y-90344123D01*
X79861177Y-90344125D01*
X80092890Y-90471511D01*
X80122396Y-90487732D01*
X80126065Y-90489185D01*
X80126070Y-90489187D01*
X80303750Y-90559535D01*
X80403238Y-90598925D01*
X80695802Y-90674042D01*
X80995473Y-90711900D01*
X81297527Y-90711900D01*
X81597198Y-90674042D01*
X81889762Y-90598925D01*
X81989250Y-90559535D01*
X82166930Y-90489187D01*
X82166935Y-90489185D01*
X82170604Y-90487732D01*
X82200110Y-90471511D01*
X82431823Y-90344125D01*
X82431826Y-90344123D01*
X82435295Y-90342216D01*
X82496532Y-90297725D01*
X82676458Y-90167002D01*
X82676460Y-90167001D01*
X82679662Y-90164674D01*
X82899849Y-89957904D01*
X83047194Y-89779795D01*
X83089863Y-89728217D01*
X83089866Y-89728214D01*
X83092385Y-89725168D01*
X83254233Y-89470136D01*
X83255917Y-89466557D01*
X83255921Y-89466550D01*
X83381152Y-89200420D01*
X83381154Y-89200416D01*
X83382841Y-89196830D01*
X83476181Y-88909560D01*
X83532780Y-88612857D01*
X83551746Y-88311400D01*
X83548714Y-88263200D01*
X194974854Y-88263200D01*
X194993820Y-88564657D01*
X195050419Y-88861360D01*
X195143759Y-89148630D01*
X195145446Y-89152216D01*
X195145448Y-89152220D01*
X195270679Y-89418350D01*
X195270683Y-89418357D01*
X195272367Y-89421936D01*
X195434215Y-89676968D01*
X195436734Y-89680014D01*
X195436737Y-89680017D01*
X195476612Y-89728217D01*
X195626751Y-89909704D01*
X195846938Y-90116474D01*
X195850140Y-90118801D01*
X195850142Y-90118802D01*
X195954426Y-90194568D01*
X196091305Y-90294016D01*
X196094774Y-90295923D01*
X196094777Y-90295925D01*
X196352527Y-90437625D01*
X196355996Y-90439532D01*
X196359665Y-90440985D01*
X196359670Y-90440987D01*
X196633168Y-90549272D01*
X196636838Y-90550725D01*
X196929402Y-90625842D01*
X197229073Y-90663700D01*
X197531127Y-90663700D01*
X197830798Y-90625842D01*
X198123362Y-90550725D01*
X198127032Y-90549272D01*
X198400530Y-90440987D01*
X198400535Y-90440985D01*
X198404204Y-90439532D01*
X198407673Y-90437625D01*
X198665423Y-90295925D01*
X198665426Y-90295923D01*
X198668895Y-90294016D01*
X198805774Y-90194568D01*
X198910058Y-90118802D01*
X198910060Y-90118801D01*
X198913262Y-90116474D01*
X199133449Y-89909704D01*
X199283588Y-89728217D01*
X199323463Y-89680017D01*
X199323466Y-89680014D01*
X199325985Y-89676968D01*
X199487833Y-89421936D01*
X199489517Y-89418357D01*
X199489521Y-89418350D01*
X199614752Y-89152220D01*
X199614754Y-89152216D01*
X199616441Y-89148630D01*
X199709781Y-88861360D01*
X199766380Y-88564657D01*
X199785346Y-88263200D01*
X199766380Y-87961743D01*
X199709781Y-87665040D01*
X199620925Y-87391570D01*
X199617667Y-87381543D01*
X199617667Y-87381542D01*
X199616441Y-87377770D01*
X199512202Y-87156250D01*
X199489521Y-87108050D01*
X199489517Y-87108043D01*
X199487833Y-87104464D01*
X199325985Y-86849432D01*
X199133449Y-86616696D01*
X198913262Y-86409926D01*
X198732610Y-86278675D01*
X198672098Y-86234711D01*
X198672097Y-86234710D01*
X198668895Y-86232384D01*
X198489233Y-86133613D01*
X198407673Y-86088775D01*
X198407672Y-86088774D01*
X198404204Y-86086868D01*
X198400535Y-86085415D01*
X198400530Y-86085413D01*
X198127032Y-85977128D01*
X198127031Y-85977128D01*
X198123362Y-85975675D01*
X197830798Y-85900558D01*
X197531127Y-85862700D01*
X197229073Y-85862700D01*
X196929402Y-85900558D01*
X196636838Y-85975675D01*
X196633169Y-85977128D01*
X196633168Y-85977128D01*
X196359670Y-86085413D01*
X196359665Y-86085415D01*
X196355996Y-86086868D01*
X196352528Y-86088774D01*
X196352527Y-86088775D01*
X196270968Y-86133613D01*
X196091305Y-86232384D01*
X196088103Y-86234710D01*
X196088102Y-86234711D01*
X196027591Y-86278675D01*
X195846938Y-86409926D01*
X195626751Y-86616696D01*
X195434215Y-86849432D01*
X195272367Y-87104464D01*
X195270683Y-87108043D01*
X195270679Y-87108050D01*
X195247998Y-87156250D01*
X195143759Y-87377770D01*
X195142533Y-87381542D01*
X195142533Y-87381543D01*
X195139275Y-87391570D01*
X195050419Y-87665040D01*
X194993820Y-87961743D01*
X194974854Y-88263200D01*
X83548714Y-88263200D01*
X83532780Y-88009943D01*
X83476181Y-87713240D01*
X83382841Y-87425970D01*
X83366654Y-87391570D01*
X83255921Y-87156250D01*
X83255917Y-87156243D01*
X83254233Y-87152664D01*
X83092385Y-86897632D01*
X83061405Y-86860183D01*
X83034167Y-86827259D01*
X82899849Y-86664896D01*
X82679662Y-86458126D01*
X82617052Y-86412637D01*
X82438498Y-86282911D01*
X82438497Y-86282910D01*
X82435295Y-86280584D01*
X82350895Y-86234184D01*
X82174073Y-86136975D01*
X82174072Y-86136974D01*
X82170604Y-86135068D01*
X82166935Y-86133615D01*
X82166930Y-86133613D01*
X81893432Y-86025328D01*
X81893431Y-86025328D01*
X81889762Y-86023875D01*
X81597198Y-85948758D01*
X81297527Y-85910900D01*
X80995473Y-85910900D01*
X80695802Y-85948758D01*
X80403238Y-86023875D01*
X80399569Y-86025328D01*
X80399568Y-86025328D01*
X80126070Y-86133613D01*
X80126065Y-86133615D01*
X80122396Y-86135068D01*
X80118928Y-86136974D01*
X80118927Y-86136975D01*
X79942106Y-86234184D01*
X79857705Y-86280584D01*
X79854503Y-86282910D01*
X79854502Y-86282911D01*
X79675949Y-86412637D01*
X79613338Y-86458126D01*
X79393151Y-86664896D01*
X79258833Y-86827259D01*
X79231596Y-86860183D01*
X79200615Y-86897632D01*
X79038767Y-87152664D01*
X79037083Y-87156243D01*
X79037079Y-87156250D01*
X78926346Y-87391570D01*
X78910159Y-87425970D01*
X78816819Y-87713240D01*
X78760220Y-88009943D01*
X78741254Y-88311400D01*
X7609327Y-88311400D01*
X7612246Y-88265000D01*
X7593280Y-87963543D01*
X7536681Y-87666840D01*
X7443341Y-87379570D01*
X7338255Y-87156250D01*
X7316421Y-87109850D01*
X7316417Y-87109843D01*
X7314733Y-87106264D01*
X7152885Y-86851232D01*
X6960349Y-86618496D01*
X6740162Y-86411726D01*
X6562863Y-86282911D01*
X6498998Y-86236511D01*
X6498997Y-86236510D01*
X6495795Y-86234184D01*
X6489049Y-86230475D01*
X6234573Y-86090575D01*
X6234572Y-86090574D01*
X6231104Y-86088668D01*
X6227435Y-86087215D01*
X6227430Y-86087213D01*
X5953932Y-85978928D01*
X5953931Y-85978928D01*
X5950262Y-85977475D01*
X5657698Y-85902358D01*
X5358027Y-85864500D01*
X5055973Y-85864500D01*
X4756302Y-85902358D01*
X4463738Y-85977475D01*
X4460069Y-85978928D01*
X4460068Y-85978928D01*
X4186570Y-86087213D01*
X4186565Y-86087215D01*
X4182896Y-86088668D01*
X4179428Y-86090574D01*
X4179427Y-86090575D01*
X3924952Y-86230475D01*
X3918205Y-86234184D01*
X3915003Y-86236510D01*
X3915002Y-86236511D01*
X3851138Y-86282911D01*
X3673838Y-86411726D01*
X3453651Y-86618496D01*
X3261115Y-86851232D01*
X3099267Y-87106264D01*
X3097583Y-87109843D01*
X3097579Y-87109850D01*
X3075745Y-87156250D01*
X2970659Y-87379570D01*
X2877319Y-87666840D01*
X2820720Y-87963543D01*
X2801754Y-88265000D01*
X2423026Y-88265000D01*
X2423026Y-11946278D01*
X2424367Y-11941712D01*
X2423938Y-11937873D01*
X2674690Y-11937873D01*
X2674777Y-11938366D01*
X2693720Y-12239457D01*
X2750319Y-12536160D01*
X2843659Y-12823430D01*
X2845346Y-12827016D01*
X2845348Y-12827020D01*
X2970579Y-13093150D01*
X2970583Y-13093157D01*
X2972267Y-13096736D01*
X3134115Y-13351768D01*
X3136634Y-13354814D01*
X3136637Y-13354817D01*
X3169734Y-13394824D01*
X3326651Y-13584504D01*
X3546838Y-13791274D01*
X3550040Y-13793601D01*
X3550042Y-13793602D01*
X3788002Y-13966489D01*
X3791205Y-13968816D01*
X3794674Y-13970723D01*
X3794677Y-13970725D01*
X3879078Y-14017125D01*
X4055896Y-14114332D01*
X4059565Y-14115785D01*
X4059570Y-14115787D01*
X4173089Y-14160732D01*
X4336738Y-14225525D01*
X4629302Y-14300642D01*
X4928973Y-14338500D01*
X5231027Y-14338500D01*
X5530698Y-14300642D01*
X5823262Y-14225525D01*
X5986911Y-14160732D01*
X6100430Y-14115787D01*
X6100435Y-14115785D01*
X6104104Y-14114332D01*
X6280922Y-14017125D01*
X6365323Y-13970725D01*
X6365326Y-13970723D01*
X6368795Y-13968816D01*
X6371998Y-13966489D01*
X6609958Y-13793602D01*
X6609960Y-13793601D01*
X6613162Y-13791274D01*
X6833349Y-13584504D01*
X6990266Y-13394824D01*
X7023363Y-13354817D01*
X7023366Y-13354814D01*
X7025885Y-13351768D01*
X7187733Y-13096736D01*
X7189417Y-13093157D01*
X7189421Y-13093150D01*
X7314652Y-12827020D01*
X7314654Y-12827016D01*
X7316341Y-12823430D01*
X7409681Y-12536160D01*
X7466280Y-12239457D01*
X7482327Y-11984400D01*
X78614254Y-11984400D01*
X78633220Y-12285857D01*
X78689819Y-12582560D01*
X78783159Y-12869830D01*
X78784846Y-12873416D01*
X78784848Y-12873420D01*
X78910079Y-13139550D01*
X78910083Y-13139557D01*
X78911767Y-13143136D01*
X79073615Y-13398168D01*
X79266151Y-13630904D01*
X79486338Y-13837674D01*
X79489540Y-13840001D01*
X79489542Y-13840002D01*
X79669468Y-13970725D01*
X79730705Y-14015216D01*
X79734174Y-14017123D01*
X79734177Y-14017125D01*
X79991927Y-14158825D01*
X79995396Y-14160732D01*
X79999065Y-14162185D01*
X79999070Y-14162187D01*
X80161522Y-14226506D01*
X80276238Y-14271925D01*
X80568802Y-14347042D01*
X80868473Y-14384900D01*
X81170527Y-14384900D01*
X81470198Y-14347042D01*
X81762762Y-14271925D01*
X81877478Y-14226506D01*
X82039930Y-14162187D01*
X82039935Y-14162185D01*
X82043604Y-14160732D01*
X82047073Y-14158825D01*
X82304823Y-14017125D01*
X82304826Y-14017123D01*
X82308295Y-14015216D01*
X82369532Y-13970725D01*
X82549458Y-13840002D01*
X82549460Y-13840001D01*
X82552662Y-13837674D01*
X82772849Y-13630904D01*
X82965385Y-13398168D01*
X83127233Y-13143136D01*
X83128917Y-13139557D01*
X83128921Y-13139550D01*
X83254152Y-12873420D01*
X83254154Y-12873416D01*
X83255841Y-12869830D01*
X83349181Y-12582560D01*
X83405780Y-12285857D01*
X83424746Y-11984400D01*
X83421714Y-11936200D01*
X194847854Y-11936200D01*
X194866820Y-12237657D01*
X194923419Y-12534360D01*
X195016759Y-12821630D01*
X195018446Y-12825216D01*
X195018448Y-12825220D01*
X195143679Y-13091350D01*
X195143683Y-13091357D01*
X195145367Y-13094936D01*
X195307215Y-13349968D01*
X195309734Y-13353014D01*
X195309737Y-13353017D01*
X195349612Y-13401217D01*
X195499751Y-13582704D01*
X195719938Y-13789474D01*
X195723140Y-13791801D01*
X195723142Y-13791802D01*
X195786280Y-13837674D01*
X195964305Y-13967016D01*
X195967774Y-13968923D01*
X195967777Y-13968925D01*
X195985174Y-13978489D01*
X196228996Y-14112532D01*
X196232665Y-14113985D01*
X196232670Y-14113987D01*
X196354410Y-14162187D01*
X196509838Y-14223725D01*
X196802402Y-14298842D01*
X197102073Y-14336700D01*
X197404127Y-14336700D01*
X197703798Y-14298842D01*
X197996362Y-14223725D01*
X198151790Y-14162187D01*
X198273530Y-14113987D01*
X198273535Y-14113985D01*
X198277204Y-14112532D01*
X198521026Y-13978489D01*
X198538423Y-13968925D01*
X198538426Y-13968923D01*
X198541895Y-13967016D01*
X198719920Y-13837674D01*
X198783058Y-13791802D01*
X198783060Y-13791801D01*
X198786262Y-13789474D01*
X199006449Y-13582704D01*
X199156588Y-13401217D01*
X199196463Y-13353017D01*
X199196466Y-13353014D01*
X199198985Y-13349968D01*
X199360833Y-13094936D01*
X199362517Y-13091357D01*
X199362521Y-13091350D01*
X199487752Y-12825220D01*
X199487754Y-12825216D01*
X199489441Y-12821630D01*
X199582781Y-12534360D01*
X199639380Y-12237657D01*
X199658346Y-11936200D01*
X199639380Y-11634743D01*
X199582781Y-11338040D01*
X199493925Y-11064570D01*
X199490667Y-11054543D01*
X199490667Y-11054542D01*
X199489441Y-11050770D01*
X199487752Y-11047180D01*
X199362521Y-10781050D01*
X199362517Y-10781043D01*
X199360833Y-10777464D01*
X199198985Y-10522432D01*
X199006449Y-10289696D01*
X198786262Y-10082926D01*
X198712122Y-10029060D01*
X198545098Y-9907711D01*
X198545097Y-9907710D01*
X198541895Y-9905384D01*
X198435536Y-9846912D01*
X198280673Y-9761775D01*
X198280672Y-9761774D01*
X198277204Y-9759868D01*
X198273535Y-9758415D01*
X198273530Y-9758413D01*
X198000032Y-9650128D01*
X198000031Y-9650128D01*
X197996362Y-9648675D01*
X197703798Y-9573558D01*
X197404127Y-9535700D01*
X197102073Y-9535700D01*
X196802402Y-9573558D01*
X196509838Y-9648675D01*
X196506169Y-9650128D01*
X196506168Y-9650128D01*
X196232670Y-9758413D01*
X196232665Y-9758415D01*
X196228996Y-9759868D01*
X196225528Y-9761774D01*
X196225527Y-9761775D01*
X196070665Y-9846912D01*
X195964305Y-9905384D01*
X195961103Y-9907710D01*
X195961102Y-9907711D01*
X195794079Y-10029060D01*
X195719938Y-10082926D01*
X195499751Y-10289696D01*
X195307215Y-10522432D01*
X195145367Y-10777464D01*
X195143683Y-10781043D01*
X195143679Y-10781050D01*
X195018448Y-11047180D01*
X195016759Y-11050770D01*
X195015533Y-11054542D01*
X195015533Y-11054543D01*
X195012275Y-11064570D01*
X194923419Y-11338040D01*
X194866820Y-11634743D01*
X194847854Y-11936200D01*
X83421714Y-11936200D01*
X83405780Y-11682943D01*
X83349181Y-11386240D01*
X83255841Y-11098970D01*
X83239654Y-11064570D01*
X83128921Y-10829250D01*
X83128917Y-10829243D01*
X83127233Y-10825664D01*
X82965385Y-10570632D01*
X82934405Y-10533183D01*
X82847188Y-10427757D01*
X82772849Y-10337896D01*
X82552662Y-10131126D01*
X82490052Y-10085637D01*
X82311498Y-9955911D01*
X82311497Y-9955910D01*
X82308295Y-9953584D01*
X82236735Y-9914243D01*
X82047073Y-9809975D01*
X82047072Y-9809974D01*
X82043604Y-9808068D01*
X82039935Y-9806615D01*
X82039930Y-9806613D01*
X81766432Y-9698328D01*
X81766431Y-9698328D01*
X81762762Y-9696875D01*
X81470198Y-9621758D01*
X81170527Y-9583900D01*
X80868473Y-9583900D01*
X80568802Y-9621758D01*
X80276238Y-9696875D01*
X80272569Y-9698328D01*
X80272568Y-9698328D01*
X79999070Y-9806613D01*
X79999065Y-9806615D01*
X79995396Y-9808068D01*
X79991928Y-9809974D01*
X79991927Y-9809975D01*
X79802266Y-9914243D01*
X79730705Y-9953584D01*
X79727503Y-9955910D01*
X79727502Y-9955911D01*
X79548949Y-10085637D01*
X79486338Y-10131126D01*
X79266151Y-10337896D01*
X79191812Y-10427757D01*
X79104596Y-10533183D01*
X79073615Y-10570632D01*
X78911767Y-10825664D01*
X78910083Y-10829243D01*
X78910079Y-10829250D01*
X78799346Y-11064570D01*
X78783159Y-11098970D01*
X78689819Y-11386240D01*
X78633220Y-11682943D01*
X78614254Y-11984400D01*
X7482327Y-11984400D01*
X7485246Y-11938000D01*
X7466280Y-11636543D01*
X7409681Y-11339840D01*
X7316341Y-11052570D01*
X7313805Y-11047180D01*
X7189421Y-10782850D01*
X7189417Y-10782843D01*
X7187733Y-10779264D01*
X7025885Y-10524232D01*
X6833349Y-10291496D01*
X6613162Y-10084726D01*
X6539066Y-10030892D01*
X6371998Y-9909511D01*
X6371997Y-9909510D01*
X6368795Y-9907184D01*
X6362049Y-9903475D01*
X6107573Y-9763575D01*
X6107572Y-9763574D01*
X6104104Y-9761668D01*
X6100435Y-9760215D01*
X6100430Y-9760213D01*
X5826932Y-9651928D01*
X5826931Y-9651928D01*
X5823262Y-9650475D01*
X5530698Y-9575358D01*
X5231027Y-9537500D01*
X4928973Y-9537500D01*
X4629302Y-9575358D01*
X4336738Y-9650475D01*
X4333069Y-9651928D01*
X4333068Y-9651928D01*
X4059570Y-9760213D01*
X4059565Y-9760215D01*
X4055896Y-9761668D01*
X4052428Y-9763574D01*
X4052427Y-9763575D01*
X3797952Y-9903475D01*
X3791205Y-9907184D01*
X3788003Y-9909510D01*
X3788002Y-9909511D01*
X3620935Y-10030892D01*
X3546838Y-10084726D01*
X3326651Y-10291496D01*
X3134115Y-10524232D01*
X2972267Y-10779264D01*
X2970583Y-10782843D01*
X2970579Y-10782850D01*
X2846195Y-11047180D01*
X2843659Y-11052570D01*
X2750319Y-11339840D01*
X2693720Y-11636543D01*
X2685217Y-11771702D01*
X2674777Y-11937634D01*
X2674690Y-11937873D01*
X2423938Y-11937873D01*
X2423026Y-11929722D01*
X2423026Y-10427980D01*
X2423414Y-10418095D01*
X2429485Y-10340948D01*
X2431955Y-10309571D01*
X2432021Y-10308781D01*
X2439004Y-10228963D01*
X2442005Y-10210531D01*
X2442028Y-10210438D01*
X2466079Y-10110257D01*
X2466891Y-10107062D01*
X2489135Y-10024044D01*
X2494433Y-10008436D01*
X2533449Y-9914243D01*
X2535663Y-9909212D01*
X2538338Y-9903475D01*
X2572439Y-9830345D01*
X2579190Y-9817780D01*
X2632234Y-9731221D01*
X2636436Y-9724812D01*
X2679067Y-9663928D01*
X2686575Y-9653206D01*
X2693977Y-9643647D01*
X2759770Y-9566613D01*
X2766486Y-9559348D01*
X2828348Y-9497486D01*
X2835613Y-9490770D01*
X2912647Y-9424977D01*
X2922206Y-9417575D01*
X2944226Y-9402156D01*
X2993812Y-9367436D01*
X3000221Y-9363234D01*
X3086780Y-9310190D01*
X3099345Y-9303439D01*
X3178217Y-9266661D01*
X3183243Y-9264449D01*
X3277436Y-9225433D01*
X3293044Y-9220135D01*
X3376062Y-9197891D01*
X3379257Y-9197079D01*
X3386537Y-9195331D01*
X3479535Y-9173004D01*
X3497963Y-9170004D01*
X3577781Y-9163021D01*
X3578571Y-9162955D01*
X3687095Y-9154414D01*
X3696980Y-9154026D01*
X139086456Y-9154035D01*
G37*
%TD.AperFunction*%
M02*
