  0
SECTION
  2
HEADER
  9
$ANGBASE
  50
0.0
  9
$ANGDIR
  70
1
  9
$MEASUREMENT
  70
0
  0
ENDSEC
  0
SECTION
  2
TABLES
  0
TABLE
  2
LTYPE
  70
4
  0
LTYPE
  5
40F
  2
CONTINUOUS
  70
0
  3
Solid line
  72
65
  73
0
  40
0.0
  0
LTYPE
  5
410
  2
DASHDOT
 70
0
  3
Dash Dot ____ _ ____ _
 72
65
 73
4
 40
2.0
 49
1.25
 49
-0.25
 49
0.25
 49
-0.25
  0
LTYPE
  5
411
  2
DASHED
 70
0
  3
Dashed __ __ __ __ __
 72
65
 73
2
 40
0.75
 49
0.5
 49
-0.25
  0
LTYPE
  5
43B
  2
DOTTED
 70
0
  3
Dotted .  .  .  .
 72
65
 73
2
 40
0.2
 49
0.0
 49
-0.2
  0
ENDTAB
  0
TABLE
  2
STYLE
  70
4
  0
STYLE
  2
KICAD
  70
0
  40
0
  41
1
  42
1
  50
0
  71
0
  3
isocp.shx
  0
STYLE
  2
KICADB
  70
0
  40
0
  41
1
  42
1
  50
0
  71
0
  3
isocp.shx
  0
STYLE
  2
KICADI
  70
0
  40
0
  41
1
  42
1
  50
15
  71
0
  3
isocp.shx
  0
STYLE
  2
KICADBI
  70
0
  40
0
  41
1
  42
1
  50
15
  71
0
  3
isocp.shx
  0
ENDTAB
  0
TABLE
  2
LAYER
  70
1
  0
LAYER
  2
BLACK
  70
0
  62
7
  6
CONTINUOUS
  0
ENDTAB
  0
ENDSEC
  0
SECTION
  2
ENTITIES
0
ARC
8
BLACK
10
10.9964
20
-4.28007
40
0.0500009
50
-89.9989
51
-0
0
ARC
8
BLACK
10
0.70413
20
-1.37007
40
0.05
50
90
51
180
0
LINE
8
BLACK
6
CONTINUOUS
10
0.519485
20
-4.46972
11
11.1756
21
-4.46972
0
ARC
8
BLACK
10
10.9964
20
-1.36988
40
0.0500036
50
0.00415048
51
89.9989
0
ARC
8
BLACK
10
11.1756
20
-4.41972
40
0.0500005
50
-89.9995
51
0.000360915
0
LINE
8
BLACK
6
CONTINUOUS
10
0.65413
20
-1.37007
11
0.65413
21
-4.28017
0
LINE
8
BLACK
6
CONTINUOUS
10
11.2256
20
-4.41972
11
11.2238
21
-1.29543
0
ARC
8
BLACK
10
0.519484
20
-4.41972
40
0.049999
50
-180.001
51
-89.9988
0
ARC
8
BLACK
10
0.70413
20
-4.28017
40
0.0499979
50
-180.002
51
-90
0
ARC
8
BLACK
10
0.519485
20
-1.29543
40
0.0499998
50
-270
51
-180
0
LINE
8
BLACK
6
CONTINUOUS
10
11.0464
20
-4.28007
11
11.0464
21
-1.36988
0
LINE
8
BLACK
6
CONTINUOUS
10
10.9964
20
-1.31988
11
0.70413
21
-1.32007
0
ARC
8
BLACK
10
11.1738
20
-1.29543
40
0.0499983
50
-0.00194002
51
90.0026
0
LINE
8
BLACK
6
CONTINUOUS
10
0.70413
20
-4.33017
11
10.9964
21
-4.33007
0
LINE
8
BLACK
6
CONTINUOUS
10
11.1738
20
-1.24543
11
0.519485
21
-1.24543
0
LINE
8
BLACK
6
CONTINUOUS
10
0.469485
20
-1.29543
11
0.469485
21
-4.41972
0
LINE
8
BLACK
6
CONTINUOUS
10
0.489484
20
-1.27043
11
0.658776
21
-1.43972
0
LINE
8
BLACK
6
CONTINUOUS
10
0.658776
20
-1.27043
11
0.489484
21
-1.43972
0
LINE
8
BLACK
6
CONTINUOUS
10
0.494484
20
-4.27543
11
0.663776
21
-4.44472
0
LINE
8
BLACK
6
CONTINUOUS
10
0.663776
20
-4.27543
11
0.494484
21
-4.44472
0
LINE
8
BLACK
6
CONTINUOUS
10
11.0449
20
-1.2709
11
11.2142
21
-1.44019
0
LINE
8
BLACK
6
CONTINUOUS
10
11.2142
20
-1.2709
11
11.0449
21
-1.44019
0
LINE
8
BLACK
6
CONTINUOUS
10
11.0499
20
-4.2759
11
11.2192
21
-4.44519
0
LINE
8
BLACK
6
CONTINUOUS
10
11.2192
20
-4.2759
11
11.0499
21
-4.44519
0
LINE
8
BLACK
6
CONTINUOUS
10
0.568942
20
-4.59392
11
0.568942
21
-4.51518
0
LINE
8
BLACK
6
CONTINUOUS
10
0.568942
20
-4.51518
11
0.587689
21
-4.51518
0
LINE
8
BLACK
6
CONTINUOUS
10
0.587689
20
-4.51518
11
0.598938
21
-4.51893
0
LINE
8
BLACK
6
CONTINUOUS
10
0.598938
20
-4.51893
11
0.606437
21
-4.52643
0
LINE
8
BLACK
6
CONTINUOUS
10
0.606437
20
-4.52643
11
0.610186
21
-4.53393
0
LINE
8
BLACK
6
CONTINUOUS
10
0.610186
20
-4.53393
11
0.613936
21
-4.54893
0
LINE
8
BLACK
6
CONTINUOUS
10
0.613936
20
-4.54893
11
0.613936
21
-4.56017
0
LINE
8
BLACK
6
CONTINUOUS
10
0.613936
20
-4.56017
11
0.610186
21
-4.57517
0
LINE
8
BLACK
6
CONTINUOUS
10
0.610186
20
-4.57517
11
0.606437
21
-4.58267
0
LINE
8
BLACK
6
CONTINUOUS
10
0.606437
20
-4.58267
11
0.598938
21
-4.59017
0
LINE
8
BLACK
6
CONTINUOUS
10
0.598938
20
-4.59017
11
0.587689
21
-4.59392
0
LINE
8
BLACK
6
CONTINUOUS
10
0.587689
20
-4.59392
11
0.568942
21
-4.59392
0
LINE
8
BLACK
6
CONTINUOUS
10
0.647682
20
-4.59392
11
0.647682
21
-4.54143
0
LINE
8
BLACK
6
CONTINUOUS
10
0.647682
20
-4.55642
11
0.651431
21
-4.54893
0
LINE
8
BLACK
6
CONTINUOUS
10
0.651431
20
-4.54893
11
0.655181
21
-4.54518
0
LINE
8
BLACK
6
CONTINUOUS
10
0.655181
20
-4.54518
11
0.66268
21
-4.54143
0
LINE
8
BLACK
6
CONTINUOUS
10
0.66268
20
-4.54143
11
0.670179
21
-4.54143
0
LINE
8
BLACK
6
CONTINUOUS
10
0.696426
20
-4.59392
11
0.696426
21
-4.54143
0
LINE
8
BLACK
6
CONTINUOUS
10
0.696426
20
-4.51518
11
0.692676
21
-4.51893
0
LINE
8
BLACK
6
CONTINUOUS
10
0.692676
20
-4.51893
11
0.696426
21
-4.52268
0
LINE
8
BLACK
6
CONTINUOUS
10
0.696426
20
-4.52268
11
0.700175
21
-4.51893
0
LINE
8
BLACK
6
CONTINUOUS
10
0.700175
20
-4.51893
11
0.696426
21
-4.51518
0
LINE
8
BLACK
6
CONTINUOUS
10
0.696426
20
-4.51518
11
0.696426
21
-4.52268
0
LINE
8
BLACK
6
CONTINUOUS
10
0.74517
20
-4.59392
11
0.73767
21
-4.59017
0
LINE
8
BLACK
6
CONTINUOUS
10
0.73767
20
-4.59017
11
0.733921
21
-4.58267
0
LINE
8
BLACK
6
CONTINUOUS
10
0.733921
20
-4.58267
11
0.733921
21
-4.51518
0
LINE
8
BLACK
6
CONTINUOUS
10
0.786414
20
-4.59392
11
0.778915
21
-4.59017
0
LINE
8
BLACK
6
CONTINUOUS
10
0.778915
20
-4.59017
11
0.775166
21
-4.58267
0
LINE
8
BLACK
6
CONTINUOUS
10
0.775166
20
-4.58267
11
0.775166
21
-4.51518
0
LINE
8
BLACK
6
CONTINUOUS
10
0.876403
20
-4.59392
11
0.876403
21
-4.51518
0
LINE
8
BLACK
6
CONTINUOUS
10
0.876403
20
-4.51518
11
0.90265
21
-4.57142
0
LINE
8
BLACK
6
CONTINUOUS
10
0.90265
20
-4.57142
11
0.928897
21
-4.51518
0
LINE
8
BLACK
6
CONTINUOUS
10
0.928897
20
-4.51518
11
0.928897
21
-4.59392
0
LINE
8
BLACK
6
CONTINUOUS
10
1.00014
20
-4.59392
11
1.00014
21
-4.55267
0
LINE
8
BLACK
6
CONTINUOUS
10
1.00014
20
-4.55267
11
0.996388
21
-4.54518
0
LINE
8
BLACK
6
CONTINUOUS
10
0.996388
20
-4.54518
11
0.988889
21
-4.54143
0
LINE
8
BLACK
6
CONTINUOUS
10
0.988889
20
-4.54143
11
0.973891
21
-4.54143
0
LINE
8
BLACK
6
CONTINUOUS
10
0.973891
20
-4.54143
11
0.966392
21
-4.54518
0
LINE
8
BLACK
6
CONTINUOUS
10
1.00014
20
-4.59017
11
0.992639
21
-4.59392
0
LINE
8
BLACK
6
CONTINUOUS
10
0.992639
20
-4.59392
11
0.973891
21
-4.59392
0
LINE
8
BLACK
6
CONTINUOUS
10
0.973891
20
-4.59392
11
0.966392
21
-4.59017
0
LINE
8
BLACK
6
CONTINUOUS
10
0.966392
20
-4.59017
11
0.962642
21
-4.58267
0
LINE
8
BLACK
6
CONTINUOUS
10
0.962642
20
-4.58267
11
0.962642
21
-4.57517
0
LINE
8
BLACK
6
CONTINUOUS
10
0.962642
20
-4.57517
11
0.966392
21
-4.56767
0
LINE
8
BLACK
6
CONTINUOUS
10
0.966392
20
-4.56767
11
0.973891
21
-4.56392
0
LINE
8
BLACK
6
CONTINUOUS
10
0.973891
20
-4.56392
11
0.992639
21
-4.56392
0
LINE
8
BLACK
6
CONTINUOUS
10
0.992639
20
-4.56392
11
1.00014
21
-4.56017
0
LINE
8
BLACK
6
CONTINUOUS
10
1.03763
20
-4.54143
11
1.03763
21
-4.62017
0
LINE
8
BLACK
6
CONTINUOUS
10
1.03763
20
-4.54518
11
1.04513
21
-4.54143
0
LINE
8
BLACK
6
CONTINUOUS
10
1.04513
20
-4.54143
11
1.06013
21
-4.54143
0
LINE
8
BLACK
6
CONTINUOUS
10
1.06013
20
-4.54143
11
1.06763
21
-4.54518
0
LINE
8
BLACK
6
CONTINUOUS
10
1.06763
20
-4.54518
11
1.07138
21
-4.54893
0
LINE
8
BLACK
6
CONTINUOUS
10
1.07138
20
-4.54893
11
1.07513
21
-4.55642
0
LINE
8
BLACK
6
CONTINUOUS
10
1.07513
20
-4.55642
11
1.07513
21
-4.57892
0
LINE
8
BLACK
6
CONTINUOUS
10
1.07513
20
-4.57892
11
1.07138
21
-4.58642
0
LINE
8
BLACK
6
CONTINUOUS
10
1.07138
20
-4.58642
11
1.06763
21
-4.59017
0
LINE
8
BLACK
6
CONTINUOUS
10
1.06763
20
-4.59017
11
1.06013
21
-4.59392
0
LINE
8
BLACK
6
CONTINUOUS
10
1.06013
20
-4.59392
11
1.04513
21
-4.59392
0
LINE
8
BLACK
6
CONTINUOUS
10
1.04513
20
-4.59392
11
1.03763
21
-4.59017
0
LINE
8
BLACK
6
CONTINUOUS
10
1.10887
20
-4.58642
11
1.11262
21
-4.59017
0
LINE
8
BLACK
6
CONTINUOUS
10
1.11262
20
-4.59017
11
1.10887
21
-4.59392
0
LINE
8
BLACK
6
CONTINUOUS
10
1.10887
20
-4.59392
11
1.10512
21
-4.59017
0
LINE
8
BLACK
6
CONTINUOUS
10
1.10512
20
-4.59017
11
1.10887
21
-4.58642
0
LINE
8
BLACK
6
CONTINUOUS
10
1.10887
20
-4.58642
11
1.10887
21
-4.59392
0
LINE
8
BLACK
6
CONTINUOUS
10
1.10887
20
-4.54518
11
1.11262
21
-4.54893
0
LINE
8
BLACK
6
CONTINUOUS
10
1.11262
20
-4.54893
11
1.10887
21
-4.55267
0
LINE
8
BLACK
6
CONTINUOUS
10
1.10887
20
-4.55267
11
1.10512
21
-4.54893
0
LINE
8
BLACK
6
CONTINUOUS
10
1.10512
20
-4.54893
11
1.10887
21
-4.54518
0
LINE
8
BLACK
6
CONTINUOUS
10
1.10887
20
-4.54518
11
1.10887
21
-4.55267
0
LINE
8
BLACK
6
CONTINUOUS
10
0.388777
20
-4.68428
11
0.467517
21
-4.76302
0
LINE
8
BLACK
6
CONTINUOUS
10
0.467517
20
-4.68428
11
0.388777
21
-4.76302
0
LINE
8
BLACK
6
CONTINUOUS
10
0.602687
20
-4.70678
11
0.602687
21
-4.75927
0
LINE
8
BLACK
6
CONTINUOUS
10
0.58394
20
-4.67678
11
0.565192
21
-4.73303
0
LINE
8
BLACK
6
CONTINUOUS
10
0.565192
20
-4.73303
11
0.613936
21
-4.73303
0
LINE
8
BLACK
6
CONTINUOUS
10
0.643932
20
-4.75177
11
0.647682
21
-4.75552
0
LINE
8
BLACK
6
CONTINUOUS
10
0.647682
20
-4.75552
11
0.643932
21
-4.75927
0
LINE
8
BLACK
6
CONTINUOUS
10
0.643932
20
-4.75927
11
0.640183
21
-4.75552
0
LINE
8
BLACK
6
CONTINUOUS
10
0.640183
20
-4.75552
11
0.643932
21
-4.75177
0
LINE
8
BLACK
6
CONTINUOUS
10
0.643932
20
-4.75177
11
0.643932
21
-4.75927
0
LINE
8
BLACK
6
CONTINUOUS
10
0.673928
20
-4.68053
11
0.722672
21
-4.68053
0
LINE
8
BLACK
6
CONTINUOUS
10
0.722672
20
-4.68053
11
0.696426
21
-4.71053
0
LINE
8
BLACK
6
CONTINUOUS
10
0.696426
20
-4.71053
11
0.707674
21
-4.71053
0
LINE
8
BLACK
6
CONTINUOUS
10
0.707674
20
-4.71053
11
0.715173
21
-4.71428
0
LINE
8
BLACK
6
CONTINUOUS
10
0.715173
20
-4.71428
11
0.718923
21
-4.71803
0
LINE
8
BLACK
6
CONTINUOUS
10
0.718923
20
-4.71803
11
0.722672
21
-4.72553
0
LINE
8
BLACK
6
CONTINUOUS
10
0.722672
20
-4.72553
11
0.722672
21
-4.74428
0
LINE
8
BLACK
6
CONTINUOUS
10
0.722672
20
-4.74428
11
0.718923
21
-4.75177
0
LINE
8
BLACK
6
CONTINUOUS
10
0.718923
20
-4.75177
11
0.715173
21
-4.75552
0
LINE
8
BLACK
6
CONTINUOUS
10
0.715173
20
-4.75552
11
0.707674
21
-4.75927
0
LINE
8
BLACK
6
CONTINUOUS
10
0.707674
20
-4.75927
11
0.685177
21
-4.75927
0
LINE
8
BLACK
6
CONTINUOUS
10
0.685177
20
-4.75927
11
0.677678
21
-4.75552
0
LINE
8
BLACK
6
CONTINUOUS
10
0.677678
20
-4.75552
11
0.673928
21
-4.75177
0
LINE
8
BLACK
6
CONTINUOUS
10
0.771416
20
-4.68053
11
0.778915
21
-4.68053
0
LINE
8
BLACK
6
CONTINUOUS
10
0.778915
20
-4.68053
11
0.786414
21
-4.68428
0
LINE
8
BLACK
6
CONTINUOUS
10
0.786414
20
-4.68428
11
0.790164
21
-4.68803
0
LINE
8
BLACK
6
CONTINUOUS
10
0.790164
20
-4.68803
11
0.793913
21
-4.69553
0
LINE
8
BLACK
6
CONTINUOUS
10
0.793913
20
-4.69553
11
0.797663
21
-4.71053
0
LINE
8
BLACK
6
CONTINUOUS
10
0.797663
20
-4.71053
11
0.797663
21
-4.72928
0
LINE
8
BLACK
6
CONTINUOUS
10
0.797663
20
-4.72928
11
0.793913
21
-4.74428
0
LINE
8
BLACK
6
CONTINUOUS
10
0.793913
20
-4.74428
11
0.790164
21
-4.75177
0
LINE
8
BLACK
6
CONTINUOUS
10
0.790164
20
-4.75177
11
0.786414
21
-4.75552
0
LINE
8
BLACK
6
CONTINUOUS
10
0.786414
20
-4.75552
11
0.778915
21
-4.75927
0
LINE
8
BLACK
6
CONTINUOUS
10
0.778915
20
-4.75927
11
0.771416
21
-4.75927
0
LINE
8
BLACK
6
CONTINUOUS
10
0.771416
20
-4.75927
11
0.763917
21
-4.75552
0
LINE
8
BLACK
6
CONTINUOUS
10
0.763917
20
-4.75552
11
0.760168
21
-4.75177
0
LINE
8
BLACK
6
CONTINUOUS
10
0.760168
20
-4.75177
11
0.756418
21
-4.74428
0
LINE
8
BLACK
6
CONTINUOUS
10
0.756418
20
-4.74428
11
0.752669
21
-4.72928
0
LINE
8
BLACK
6
CONTINUOUS
10
0.752669
20
-4.72928
11
0.752669
21
-4.71053
0
LINE
8
BLACK
6
CONTINUOUS
10
0.752669
20
-4.71053
11
0.756418
21
-4.69553
0
LINE
8
BLACK
6
CONTINUOUS
10
0.756418
20
-4.69553
11
0.760168
21
-4.68803
0
LINE
8
BLACK
6
CONTINUOUS
10
0.760168
20
-4.68803
11
0.763917
21
-4.68428
0
LINE
8
BLACK
6
CONTINUOUS
10
0.763917
20
-4.68428
11
0.771416
21
-4.68053
0
LINE
8
BLACK
6
CONTINUOUS
10
0.846407
20
-4.68053
11
0.853906
21
-4.68053
0
LINE
8
BLACK
6
CONTINUOUS
10
0.853906
20
-4.68053
11
0.861405
21
-4.68428
0
LINE
8
BLACK
6
CONTINUOUS
10
0.861405
20
-4.68428
11
0.865155
21
-4.68803
0
LINE
8
BLACK
6
CONTINUOUS
10
0.865155
20
-4.68803
11
0.868904
21
-4.69553
0
LINE
8
BLACK
6
CONTINUOUS
10
0.868904
20
-4.69553
11
0.872654
21
-4.71053
0
LINE
8
BLACK
6
CONTINUOUS
10
0.872654
20
-4.71053
11
0.872654
21
-4.72928
0
LINE
8
BLACK
6
CONTINUOUS
10
0.872654
20
-4.72928
11
0.868904
21
-4.74428
0
LINE
8
BLACK
6
CONTINUOUS
10
0.868904
20
-4.74428
11
0.865155
21
-4.75177
0
LINE
8
BLACK
6
CONTINUOUS
10
0.865155
20
-4.75177
11
0.861405
21
-4.75552
0
LINE
8
BLACK
6
CONTINUOUS
10
0.861405
20
-4.75552
11
0.853906
21
-4.75927
0
LINE
8
BLACK
6
CONTINUOUS
10
0.853906
20
-4.75927
11
0.846407
21
-4.75927
0
LINE
8
BLACK
6
CONTINUOUS
10
0.846407
20
-4.75927
11
0.838908
21
-4.75552
0
LINE
8
BLACK
6
CONTINUOUS
10
0.838908
20
-4.75552
11
0.835158
21
-4.75177
0
LINE
8
BLACK
6
CONTINUOUS
10
0.835158
20
-4.75177
11
0.831409
21
-4.74428
0
LINE
8
BLACK
6
CONTINUOUS
10
0.831409
20
-4.74428
11
0.827659
21
-4.72928
0
LINE
8
BLACK
6
CONTINUOUS
10
0.827659
20
-4.72928
11
0.827659
21
-4.71053
0
LINE
8
BLACK
6
CONTINUOUS
10
0.827659
20
-4.71053
11
0.831409
21
-4.69553
0
LINE
8
BLACK
6
CONTINUOUS
10
0.831409
20
-4.69553
11
0.835158
21
-4.68803
0
LINE
8
BLACK
6
CONTINUOUS
10
0.835158
20
-4.68803
11
0.838908
21
-4.68428
0
LINE
8
BLACK
6
CONTINUOUS
10
0.838908
20
-4.68428
11
0.846407
21
-4.68053
0
LINE
8
BLACK
6
CONTINUOUS
10
0.906399
20
-4.75927
11
0.906399
21
-4.70678
0
LINE
8
BLACK
6
CONTINUOUS
10
0.906399
20
-4.71428
11
0.910149
21
-4.71053
0
LINE
8
BLACK
6
CONTINUOUS
10
0.910149
20
-4.71053
11
0.917648
21
-4.70678
0
LINE
8
BLACK
6
CONTINUOUS
10
0.917648
20
-4.70678
11
0.928897
21
-4.70678
0
LINE
8
BLACK
6
CONTINUOUS
10
0.928897
20
-4.70678
11
0.936396
21
-4.71053
0
LINE
8
BLACK
6
CONTINUOUS
10
0.936396
20
-4.71053
11
0.940145
21
-4.71803
0
LINE
8
BLACK
6
CONTINUOUS
10
0.940145
20
-4.71803
11
0.940145
21
-4.75927
0
LINE
8
BLACK
6
CONTINUOUS
10
0.940145
20
-4.71803
11
0.943895
21
-4.71053
0
LINE
8
BLACK
6
CONTINUOUS
10
0.943895
20
-4.71053
11
0.951394
21
-4.70678
0
LINE
8
BLACK
6
CONTINUOUS
10
0.951394
20
-4.70678
11
0.962642
21
-4.70678
0
LINE
8
BLACK
6
CONTINUOUS
10
0.962642
20
-4.70678
11
0.970141
21
-4.71053
0
LINE
8
BLACK
6
CONTINUOUS
10
0.970141
20
-4.71053
11
0.973891
21
-4.71803
0
LINE
8
BLACK
6
CONTINUOUS
10
0.973891
20
-4.71803
11
0.973891
21
-4.75927
0
LINE
8
BLACK
6
CONTINUOUS
10
1.01139
20
-4.75927
11
1.01139
21
-4.70678
0
LINE
8
BLACK
6
CONTINUOUS
10
1.01139
20
-4.71428
11
1.01514
21
-4.71053
0
LINE
8
BLACK
6
CONTINUOUS
10
1.01514
20
-4.71053
11
1.02263
21
-4.70678
0
LINE
8
BLACK
6
CONTINUOUS
10
1.02263
20
-4.70678
11
1.03388
21
-4.70678
0
LINE
8
BLACK
6
CONTINUOUS
10
1.03388
20
-4.70678
11
1.04138
21
-4.71053
0
LINE
8
BLACK
6
CONTINUOUS
10
1.04138
20
-4.71053
11
1.04513
21
-4.71803
0
LINE
8
BLACK
6
CONTINUOUS
10
1.04513
20
-4.71803
11
1.04513
21
-4.75927
0
LINE
8
BLACK
6
CONTINUOUS
10
1.04513
20
-4.71803
11
1.04888
21
-4.71053
0
LINE
8
BLACK
6
CONTINUOUS
10
1.04888
20
-4.71053
11
1.05638
21
-4.70678
0
LINE
8
BLACK
6
CONTINUOUS
10
1.05638
20
-4.70678
11
1.06763
21
-4.70678
0
LINE
8
BLACK
6
CONTINUOUS
10
1.06763
20
-4.70678
11
1.07513
21
-4.71053
0
LINE
8
BLACK
6
CONTINUOUS
10
1.07513
20
-4.71053
11
1.07888
21
-4.71803
0
LINE
8
BLACK
6
CONTINUOUS
10
1.07888
20
-4.71803
11
1.07888
21
-4.75927
0
LINE
8
BLACK
6
CONTINUOUS
10
1.23261
20
-4.67678
11
1.16512
21
-4.77802
0
LINE
8
BLACK
6
CONTINUOUS
10
1.33385
20
-4.68053
11
1.34135
21
-4.68053
0
LINE
8
BLACK
6
CONTINUOUS
10
1.34135
20
-4.68053
11
1.34884
21
-4.68428
0
LINE
8
BLACK
6
CONTINUOUS
10
1.34884
20
-4.68428
11
1.35259
21
-4.68803
0
LINE
8
BLACK
6
CONTINUOUS
10
1.35259
20
-4.68803
11
1.35634
21
-4.69553
0
LINE
8
BLACK
6
CONTINUOUS
10
1.35634
20
-4.69553
11
1.36009
21
-4.71053
0
LINE
8
BLACK
6
CONTINUOUS
10
1.36009
20
-4.71053
11
1.36009
21
-4.72928
0
LINE
8
BLACK
6
CONTINUOUS
10
1.36009
20
-4.72928
11
1.35634
21
-4.74428
0
LINE
8
BLACK
6
CONTINUOUS
10
1.35634
20
-4.74428
11
1.35259
21
-4.75177
0
LINE
8
BLACK
6
CONTINUOUS
10
1.35259
20
-4.75177
11
1.34884
21
-4.75552
0
LINE
8
BLACK
6
CONTINUOUS
10
1.34884
20
-4.75552
11
1.34135
21
-4.75927
0
LINE
8
BLACK
6
CONTINUOUS
10
1.34135
20
-4.75927
11
1.33385
21
-4.75927
0
LINE
8
BLACK
6
CONTINUOUS
10
1.33385
20
-4.75927
11
1.32635
21
-4.75552
0
LINE
8
BLACK
6
CONTINUOUS
10
1.32635
20
-4.75552
11
1.3226
21
-4.75177
0
LINE
8
BLACK
6
CONTINUOUS
10
1.3226
20
-4.75177
11
1.31885
21
-4.74428
0
LINE
8
BLACK
6
CONTINUOUS
10
1.31885
20
-4.74428
11
1.3151
21
-4.72928
0
LINE
8
BLACK
6
CONTINUOUS
10
1.3151
20
-4.72928
11
1.3151
21
-4.71053
0
LINE
8
BLACK
6
CONTINUOUS
10
1.3151
20
-4.71053
11
1.31885
21
-4.69553
0
LINE
8
BLACK
6
CONTINUOUS
10
1.31885
20
-4.69553
11
1.3226
21
-4.68803
0
LINE
8
BLACK
6
CONTINUOUS
10
1.3226
20
-4.68803
11
1.32635
21
-4.68428
0
LINE
8
BLACK
6
CONTINUOUS
10
1.32635
20
-4.68428
11
1.33385
21
-4.68053
0
LINE
8
BLACK
6
CONTINUOUS
10
1.39384
20
-4.75177
11
1.39759
21
-4.75552
0
LINE
8
BLACK
6
CONTINUOUS
10
1.39759
20
-4.75552
11
1.39384
21
-4.75927
0
LINE
8
BLACK
6
CONTINUOUS
10
1.39384
20
-4.75927
11
1.39009
21
-4.75552
0
LINE
8
BLACK
6
CONTINUOUS
10
1.39009
20
-4.75552
11
1.39384
21
-4.75177
0
LINE
8
BLACK
6
CONTINUOUS
10
1.39384
20
-4.75177
11
1.39384
21
-4.75927
0
LINE
8
BLACK
6
CONTINUOUS
10
1.47258
20
-4.75927
11
1.42758
21
-4.75927
0
LINE
8
BLACK
6
CONTINUOUS
10
1.45008
20
-4.75927
11
1.45008
21
-4.68053
0
LINE
8
BLACK
6
CONTINUOUS
10
1.45008
20
-4.68053
11
1.44258
21
-4.69178
0
LINE
8
BLACK
6
CONTINUOUS
10
1.44258
20
-4.69178
11
1.43508
21
-4.69928
0
LINE
8
BLACK
6
CONTINUOUS
10
1.43508
20
-4.69928
11
1.42758
21
-4.70303
0
LINE
8
BLACK
6
CONTINUOUS
10
1.54007
20
-4.68053
11
1.52507
21
-4.68053
0
LINE
8
BLACK
6
CONTINUOUS
10
1.52507
20
-4.68053
11
1.51757
21
-4.68428
0
LINE
8
BLACK
6
CONTINUOUS
10
1.51757
20
-4.68428
11
1.51382
21
-4.68803
0
LINE
8
BLACK
6
CONTINUOUS
10
1.51382
20
-4.68803
11
1.50632
21
-4.69928
0
LINE
8
BLACK
6
CONTINUOUS
10
1.50632
20
-4.69928
11
1.50257
21
-4.71428
0
LINE
8
BLACK
6
CONTINUOUS
10
1.50257
20
-4.71428
11
1.50257
21
-4.74428
0
LINE
8
BLACK
6
CONTINUOUS
10
1.50257
20
-4.74428
11
1.50632
21
-4.75177
0
LINE
8
BLACK
6
CONTINUOUS
10
1.50632
20
-4.75177
11
1.51007
21
-4.75552
0
LINE
8
BLACK
6
CONTINUOUS
10
1.51007
20
-4.75552
11
1.51757
21
-4.75927
0
LINE
8
BLACK
6
CONTINUOUS
10
1.51757
20
-4.75927
11
1.53257
21
-4.75927
0
LINE
8
BLACK
6
CONTINUOUS
10
1.53257
20
-4.75927
11
1.54007
21
-4.75552
0
LINE
8
BLACK
6
CONTINUOUS
10
1.54007
20
-4.75552
11
1.54382
21
-4.75177
0
LINE
8
BLACK
6
CONTINUOUS
10
1.54382
20
-4.75177
11
1.54757
21
-4.74428
0
LINE
8
BLACK
6
CONTINUOUS
10
1.54757
20
-4.74428
11
1.54757
21
-4.72553
0
LINE
8
BLACK
6
CONTINUOUS
10
1.54757
20
-4.72553
11
1.54382
21
-4.71803
0
LINE
8
BLACK
6
CONTINUOUS
10
1.54382
20
-4.71803
11
1.54007
21
-4.71428
0
LINE
8
BLACK
6
CONTINUOUS
10
1.54007
20
-4.71428
11
1.53257
21
-4.71053
0
LINE
8
BLACK
6
CONTINUOUS
10
1.53257
20
-4.71053
11
1.51757
21
-4.71053
0
LINE
8
BLACK
6
CONTINUOUS
10
1.51757
20
-4.71053
11
1.51007
21
-4.71428
0
LINE
8
BLACK
6
CONTINUOUS
10
1.51007
20
-4.71428
11
1.50632
21
-4.71803
0
LINE
8
BLACK
6
CONTINUOUS
10
1.50632
20
-4.71803
11
1.50257
21
-4.72553
0
LINE
8
BLACK
6
CONTINUOUS
10
1.58506
20
-4.75927
11
1.60006
21
-4.75927
0
LINE
8
BLACK
6
CONTINUOUS
10
1.60006
20
-4.75927
11
1.60756
21
-4.75552
0
LINE
8
BLACK
6
CONTINUOUS
10
1.60756
20
-4.75552
11
1.61131
21
-4.75177
0
LINE
8
BLACK
6
CONTINUOUS
10
1.61131
20
-4.75177
11
1.61881
21
-4.74053
0
LINE
8
BLACK
6
CONTINUOUS
10
1.61881
20
-4.74053
11
1.62256
21
-4.72553
0
LINE
8
BLACK
6
CONTINUOUS
10
1.62256
20
-4.72553
11
1.62256
21
-4.69553
0
LINE
8
BLACK
6
CONTINUOUS
10
1.62256
20
-4.69553
11
1.61881
21
-4.68803
0
LINE
8
BLACK
6
CONTINUOUS
10
1.61881
20
-4.68803
11
1.61506
21
-4.68428
0
LINE
8
BLACK
6
CONTINUOUS
10
1.61506
20
-4.68428
11
1.60756
21
-4.68053
0
LINE
8
BLACK
6
CONTINUOUS
10
1.60756
20
-4.68053
11
1.59256
21
-4.68053
0
LINE
8
BLACK
6
CONTINUOUS
10
1.59256
20
-4.68053
11
1.58506
21
-4.68428
0
LINE
8
BLACK
6
CONTINUOUS
10
1.58506
20
-4.68428
11
1.58132
21
-4.68803
0
LINE
8
BLACK
6
CONTINUOUS
10
1.58132
20
-4.68803
11
1.57757
21
-4.69553
0
LINE
8
BLACK
6
CONTINUOUS
10
1.57757
20
-4.69553
11
1.57757
21
-4.71428
0
LINE
8
BLACK
6
CONTINUOUS
10
1.57757
20
-4.71428
11
1.58132
21
-4.72178
0
LINE
8
BLACK
6
CONTINUOUS
10
1.58132
20
-4.72178
11
1.58506
21
-4.72553
0
LINE
8
BLACK
6
CONTINUOUS
10
1.58506
20
-4.72553
11
1.59256
21
-4.72928
0
LINE
8
BLACK
6
CONTINUOUS
10
1.59256
20
-4.72928
11
1.60756
21
-4.72928
0
LINE
8
BLACK
6
CONTINUOUS
10
1.60756
20
-4.72928
11
1.61506
21
-4.72553
0
LINE
8
BLACK
6
CONTINUOUS
10
1.61506
20
-4.72553
11
1.61881
21
-4.72178
0
LINE
8
BLACK
6
CONTINUOUS
10
1.61881
20
-4.72178
11
1.62256
21
-4.71428
0
LINE
8
BLACK
6
CONTINUOUS
10
1.64881
20
-4.68053
11
1.69755
21
-4.68053
0
LINE
8
BLACK
6
CONTINUOUS
10
1.69755
20
-4.68053
11
1.6713
21
-4.71053
0
LINE
8
BLACK
6
CONTINUOUS
10
1.6713
20
-4.71053
11
1.68255
21
-4.71053
0
LINE
8
BLACK
6
CONTINUOUS
10
1.68255
20
-4.71053
11
1.69005
21
-4.71428
0
LINE
8
BLACK
6
CONTINUOUS
10
1.69005
20
-4.71428
11
1.6938
21
-4.71803
0
LINE
8
BLACK
6
CONTINUOUS
10
1.6938
20
-4.71803
11
1.69755
21
-4.72553
0
LINE
8
BLACK
6
CONTINUOUS
10
1.69755
20
-4.72553
11
1.69755
21
-4.74428
0
LINE
8
BLACK
6
CONTINUOUS
10
1.69755
20
-4.74428
11
1.6938
21
-4.75177
0
LINE
8
BLACK
6
CONTINUOUS
10
1.6938
20
-4.75177
11
1.69005
21
-4.75552
0
LINE
8
BLACK
6
CONTINUOUS
10
1.69005
20
-4.75552
11
1.68255
21
-4.75927
0
LINE
8
BLACK
6
CONTINUOUS
10
1.68255
20
-4.75927
11
1.66006
21
-4.75927
0
LINE
8
BLACK
6
CONTINUOUS
10
1.66006
20
-4.75927
11
1.65256
21
-4.75552
0
LINE
8
BLACK
6
CONTINUOUS
10
1.65256
20
-4.75552
11
1.64881
21
-4.75177
0
LINE
8
BLACK
6
CONTINUOUS
10
1.72755
20
-4.68053
11
1.72755
21
-4.69553
0
LINE
8
BLACK
6
CONTINUOUS
10
1.75754
20
-4.68053
11
1.75754
21
-4.69553
0
LINE
8
BLACK
6
CONTINUOUS
10
1.87378
20
-4.78927
11
1.87003
21
-4.78552
0
LINE
8
BLACK
6
CONTINUOUS
10
1.87003
20
-4.78552
11
1.86253
21
-4.77427
0
LINE
8
BLACK
6
CONTINUOUS
10
1.86253
20
-4.77427
11
1.85878
21
-4.76677
0
LINE
8
BLACK
6
CONTINUOUS
10
1.85878
20
-4.76677
11
1.85503
21
-4.75552
0
LINE
8
BLACK
6
CONTINUOUS
10
1.85503
20
-4.75552
11
1.85128
21
-4.73678
0
LINE
8
BLACK
6
CONTINUOUS
10
1.85128
20
-4.73678
11
1.85128
21
-4.72178
0
LINE
8
BLACK
6
CONTINUOUS
10
1.85128
20
-4.72178
11
1.85503
21
-4.70303
0
LINE
8
BLACK
6
CONTINUOUS
10
1.85503
20
-4.70303
11
1.85878
21
-4.69178
0
LINE
8
BLACK
6
CONTINUOUS
10
1.85878
20
-4.69178
11
1.86253
21
-4.68428
0
LINE
8
BLACK
6
CONTINUOUS
10
1.86253
20
-4.68428
11
1.87003
21
-4.67303
0
LINE
8
BLACK
6
CONTINUOUS
10
1.87003
20
-4.67303
11
1.87378
21
-4.66928
0
LINE
8
BLACK
6
CONTINUOUS
10
1.93752
20
-4.70678
11
1.93752
21
-4.75927
0
LINE
8
BLACK
6
CONTINUOUS
10
1.91877
20
-4.67678
11
1.90003
21
-4.73303
0
LINE
8
BLACK
6
CONTINUOUS
10
1.90003
20
-4.73303
11
1.94877
21
-4.73303
0
LINE
8
BLACK
6
CONTINUOUS
10
2.03876
20
-4.75927
11
2.03876
21
-4.68053
0
LINE
8
BLACK
6
CONTINUOUS
10
2.0725
20
-4.75927
11
2.0725
21
-4.71803
0
LINE
8
BLACK
6
CONTINUOUS
10
2.0725
20
-4.71803
11
2.06875
21
-4.71053
0
LINE
8
BLACK
6
CONTINUOUS
10
2.06875
20
-4.71053
11
2.06126
21
-4.70678
0
LINE
8
BLACK
6
CONTINUOUS
10
2.06126
20
-4.70678
11
2.05001
21
-4.70678
0
LINE
8
BLACK
6
CONTINUOUS
10
2.05001
20
-4.70678
11
2.04251
21
-4.71053
0
LINE
8
BLACK
6
CONTINUOUS
10
2.04251
20
-4.71053
11
2.03876
21
-4.71428
0
LINE
8
BLACK
6
CONTINUOUS
10
2.12125
20
-4.75927
11
2.11375
21
-4.75552
0
LINE
8
BLACK
6
CONTINUOUS
10
2.11375
20
-4.75552
11
2.11
21
-4.75177
0
LINE
8
BLACK
6
CONTINUOUS
10
2.11
20
-4.75177
11
2.10625
21
-4.74428
0
LINE
8
BLACK
6
CONTINUOUS
10
2.10625
20
-4.74428
11
2.10625
21
-4.72178
0
LINE
8
BLACK
6
CONTINUOUS
10
2.10625
20
-4.72178
11
2.11
21
-4.71428
0
LINE
8
BLACK
6
CONTINUOUS
10
2.11
20
-4.71428
11
2.11375
21
-4.71053
0
LINE
8
BLACK
6
CONTINUOUS
10
2.11375
20
-4.71053
11
2.12125
21
-4.70678
0
LINE
8
BLACK
6
CONTINUOUS
10
2.12125
20
-4.70678
11
2.1325
21
-4.70678
0
LINE
8
BLACK
6
CONTINUOUS
10
2.1325
20
-4.70678
11
2.14
21
-4.71053
0
LINE
8
BLACK
6
CONTINUOUS
10
2.14
20
-4.71053
11
2.14374
21
-4.71428
0
LINE
8
BLACK
6
CONTINUOUS
10
2.14374
20
-4.71428
11
2.14749
21
-4.72178
0
LINE
8
BLACK
6
CONTINUOUS
10
2.14749
20
-4.72178
11
2.14749
21
-4.74428
0
LINE
8
BLACK
6
CONTINUOUS
10
2.14749
20
-4.74428
11
2.14374
21
-4.75177
0
LINE
8
BLACK
6
CONTINUOUS
10
2.14374
20
-4.75177
11
2.14
21
-4.75552
0
LINE
8
BLACK
6
CONTINUOUS
10
2.14
20
-4.75552
11
2.1325
21
-4.75927
0
LINE
8
BLACK
6
CONTINUOUS
10
2.1325
20
-4.75927
11
2.12125
21
-4.75927
0
LINE
8
BLACK
6
CONTINUOUS
10
2.19249
20
-4.75927
11
2.18499
21
-4.75552
0
LINE
8
BLACK
6
CONTINUOUS
10
2.18499
20
-4.75552
11
2.18124
21
-4.74803
0
LINE
8
BLACK
6
CONTINUOUS
10
2.18124
20
-4.74803
11
2.18124
21
-4.68053
0
LINE
8
BLACK
6
CONTINUOUS
10
2.25248
20
-4.75552
11
2.24498
21
-4.75927
0
LINE
8
BLACK
6
CONTINUOUS
10
2.24498
20
-4.75927
11
2.22998
21
-4.75927
0
LINE
8
BLACK
6
CONTINUOUS
10
2.22998
20
-4.75927
11
2.22248
21
-4.75552
0
LINE
8
BLACK
6
CONTINUOUS
10
2.22248
20
-4.75552
11
2.21874
21
-4.74803
0
LINE
8
BLACK
6
CONTINUOUS
10
2.21874
20
-4.74803
11
2.21874
21
-4.71803
0
LINE
8
BLACK
6
CONTINUOUS
10
2.21874
20
-4.71803
11
2.22248
21
-4.71053
0
LINE
8
BLACK
6
CONTINUOUS
10
2.22248
20
-4.71053
11
2.22998
21
-4.70678
0
LINE
8
BLACK
6
CONTINUOUS
10
2.22998
20
-4.70678
11
2.24498
21
-4.70678
0
LINE
8
BLACK
6
CONTINUOUS
10
2.24498
20
-4.70678
11
2.25248
21
-4.71053
0
LINE
8
BLACK
6
CONTINUOUS
10
2.25248
20
-4.71053
11
2.25623
21
-4.71803
0
LINE
8
BLACK
6
CONTINUOUS
10
2.25623
20
-4.71803
11
2.25623
21
-4.72553
0
LINE
8
BLACK
6
CONTINUOUS
10
2.25623
20
-4.72553
11
2.21874
21
-4.73303
0
LINE
8
BLACK
6
CONTINUOUS
10
2.28623
20
-4.75552
11
2.29373
21
-4.75927
0
LINE
8
BLACK
6
CONTINUOUS
10
2.29373
20
-4.75927
11
2.30872
21
-4.75927
0
LINE
8
BLACK
6
CONTINUOUS
10
2.30872
20
-4.75927
11
2.31622
21
-4.75552
0
LINE
8
BLACK
6
CONTINUOUS
10
2.31622
20
-4.75552
11
2.31997
21
-4.74803
0
LINE
8
BLACK
6
CONTINUOUS
10
2.31997
20
-4.74803
11
2.31997
21
-4.74428
0
LINE
8
BLACK
6
CONTINUOUS
10
2.31997
20
-4.74428
11
2.31622
21
-4.73678
0
LINE
8
BLACK
6
CONTINUOUS
10
2.31622
20
-4.73678
11
2.30872
21
-4.73303
0
LINE
8
BLACK
6
CONTINUOUS
10
2.30872
20
-4.73303
11
2.29748
21
-4.73303
0
LINE
8
BLACK
6
CONTINUOUS
10
2.29748
20
-4.73303
11
2.28998
21
-4.72928
0
LINE
8
BLACK
6
CONTINUOUS
10
2.28998
20
-4.72928
11
2.28623
21
-4.72178
0
LINE
8
BLACK
6
CONTINUOUS
10
2.28623
20
-4.72178
11
2.28623
21
-4.71803
0
LINE
8
BLACK
6
CONTINUOUS
10
2.28623
20
-4.71803
11
2.28998
21
-4.71053
0
LINE
8
BLACK
6
CONTINUOUS
10
2.28998
20
-4.71053
11
2.29748
21
-4.70678
0
LINE
8
BLACK
6
CONTINUOUS
10
2.29748
20
-4.70678
11
2.30872
21
-4.70678
0
LINE
8
BLACK
6
CONTINUOUS
10
2.30872
20
-4.70678
11
2.31622
21
-4.71053
0
LINE
8
BLACK
6
CONTINUOUS
10
2.34622
20
-4.78927
11
2.34997
21
-4.78552
0
LINE
8
BLACK
6
CONTINUOUS
10
2.34997
20
-4.78552
11
2.35747
21
-4.77427
0
LINE
8
BLACK
6
CONTINUOUS
10
2.35747
20
-4.77427
11
2.36122
21
-4.76677
0
LINE
8
BLACK
6
CONTINUOUS
10
2.36122
20
-4.76677
11
2.36497
21
-4.75552
0
LINE
8
BLACK
6
CONTINUOUS
10
2.36497
20
-4.75552
11
2.36872
21
-4.73678
0
LINE
8
BLACK
6
CONTINUOUS
10
2.36872
20
-4.73678
11
2.36872
21
-4.72178
0
LINE
8
BLACK
6
CONTINUOUS
10
2.36872
20
-4.72178
11
2.36497
21
-4.70303
0
LINE
8
BLACK
6
CONTINUOUS
10
2.36497
20
-4.70303
11
2.36122
21
-4.69178
0
LINE
8
BLACK
6
CONTINUOUS
10
2.36122
20
-4.69178
11
2.35747
21
-4.68428
0
LINE
8
BLACK
6
CONTINUOUS
10
2.35747
20
-4.68428
11
2.34997
21
-4.67303
0
LINE
8
BLACK
6
CONTINUOUS
10
2.34997
20
-4.67303
11
2.34622
21
-4.66928
0
LINE
8
BLACK
6
CONTINUOUS
10
2.4887
20
-4.78927
11
2.48495
21
-4.78552
0
LINE
8
BLACK
6
CONTINUOUS
10
2.48495
20
-4.78552
11
2.47745
21
-4.77427
0
LINE
8
BLACK
6
CONTINUOUS
10
2.47745
20
-4.77427
11
2.4737
21
-4.76677
0
LINE
8
BLACK
6
CONTINUOUS
10
2.4737
20
-4.76677
11
2.46995
21
-4.75552
0
LINE
8
BLACK
6
CONTINUOUS
10
2.46995
20
-4.75552
11
2.4662
21
-4.73678
0
LINE
8
BLACK
6
CONTINUOUS
10
2.4662
20
-4.73678
11
2.4662
21
-4.72178
0
LINE
8
BLACK
6
CONTINUOUS
10
2.4662
20
-4.72178
11
2.46995
21
-4.70303
0
LINE
8
BLACK
6
CONTINUOUS
10
2.46995
20
-4.70303
11
2.4737
21
-4.69178
0
LINE
8
BLACK
6
CONTINUOUS
10
2.4737
20
-4.69178
11
2.47745
21
-4.68428
0
LINE
8
BLACK
6
CONTINUOUS
10
2.47745
20
-4.68428
11
2.48495
21
-4.67303
0
LINE
8
BLACK
6
CONTINUOUS
10
2.48495
20
-4.67303
11
2.4887
21
-4.66928
0
LINE
8
BLACK
6
CONTINUOUS
10
2.5187
20
-4.70678
11
2.5187
21
-4.75927
0
LINE
8
BLACK
6
CONTINUOUS
10
2.5187
20
-4.71428
11
2.52245
21
-4.71053
0
LINE
8
BLACK
6
CONTINUOUS
10
2.52245
20
-4.71053
11
2.52995
21
-4.70678
0
LINE
8
BLACK
6
CONTINUOUS
10
2.52995
20
-4.70678
11
2.5412
21
-4.70678
0
LINE
8
BLACK
6
CONTINUOUS
10
2.5412
20
-4.70678
11
2.54869
21
-4.71053
0
LINE
8
BLACK
6
CONTINUOUS
10
2.54869
20
-4.71053
11
2.55244
21
-4.71803
0
LINE
8
BLACK
6
CONTINUOUS
10
2.55244
20
-4.71803
11
2.55244
21
-4.75927
0
LINE
8
BLACK
6
CONTINUOUS
10
2.60119
20
-4.75927
11
2.59369
21
-4.75552
0
LINE
8
BLACK
6
CONTINUOUS
10
2.59369
20
-4.75552
11
2.58994
21
-4.75177
0
LINE
8
BLACK
6
CONTINUOUS
10
2.58994
20
-4.75177
11
2.58619
21
-4.74428
0
LINE
8
BLACK
6
CONTINUOUS
10
2.58619
20
-4.74428
11
2.58619
21
-4.72178
0
LINE
8
BLACK
6
CONTINUOUS
10
2.58619
20
-4.72178
11
2.58994
21
-4.71428
0
LINE
8
BLACK
6
CONTINUOUS
10
2.58994
20
-4.71428
11
2.59369
21
-4.71053
0
LINE
8
BLACK
6
CONTINUOUS
10
2.59369
20
-4.71053
11
2.60119
21
-4.70678
0
LINE
8
BLACK
6
CONTINUOUS
10
2.60119
20
-4.70678
11
2.61244
21
-4.70678
0
LINE
8
BLACK
6
CONTINUOUS
10
2.61244
20
-4.70678
11
2.61994
21
-4.71053
0
LINE
8
BLACK
6
CONTINUOUS
10
2.61994
20
-4.71053
11
2.62368
21
-4.71428
0
LINE
8
BLACK
6
CONTINUOUS
10
2.62368
20
-4.71428
11
2.62743
21
-4.72178
0
LINE
8
BLACK
6
CONTINUOUS
10
2.62743
20
-4.72178
11
2.62743
21
-4.74428
0
LINE
8
BLACK
6
CONTINUOUS
10
2.62743
20
-4.74428
11
2.62368
21
-4.75177
0
LINE
8
BLACK
6
CONTINUOUS
10
2.62368
20
-4.75177
11
2.61994
21
-4.75552
0
LINE
8
BLACK
6
CONTINUOUS
10
2.61994
20
-4.75552
11
2.61244
21
-4.75927
0
LINE
8
BLACK
6
CONTINUOUS
10
2.61244
20
-4.75927
11
2.60119
21
-4.75927
0
LINE
8
BLACK
6
CONTINUOUS
10
2.64993
20
-4.70678
11
2.67993
21
-4.70678
0
LINE
8
BLACK
6
CONTINUOUS
10
2.66118
20
-4.68053
11
2.66118
21
-4.74803
0
LINE
8
BLACK
6
CONTINUOUS
10
2.66118
20
-4.74803
11
2.66493
21
-4.75552
0
LINE
8
BLACK
6
CONTINUOUS
10
2.66493
20
-4.75552
11
2.67243
21
-4.75927
0
LINE
8
BLACK
6
CONTINUOUS
10
2.67243
20
-4.75927
11
2.67993
21
-4.75927
0
LINE
8
BLACK
6
CONTINUOUS
10
2.76617
20
-4.70678
11
2.76617
21
-4.78552
0
LINE
8
BLACK
6
CONTINUOUS
10
2.76617
20
-4.71053
11
2.77367
21
-4.70678
0
LINE
8
BLACK
6
CONTINUOUS
10
2.77367
20
-4.70678
11
2.78866
21
-4.70678
0
LINE
8
BLACK
6
CONTINUOUS
10
2.78866
20
-4.70678
11
2.79616
21
-4.71053
0
LINE
8
BLACK
6
CONTINUOUS
10
2.79616
20
-4.71053
11
2.79991
21
-4.71428
0
LINE
8
BLACK
6
CONTINUOUS
10
2.79991
20
-4.71428
11
2.80366
21
-4.72178
0
LINE
8
BLACK
6
CONTINUOUS
10
2.80366
20
-4.72178
11
2.80366
21
-4.74428
0
LINE
8
BLACK
6
CONTINUOUS
10
2.80366
20
-4.74428
11
2.79991
21
-4.75177
0
LINE
8
BLACK
6
CONTINUOUS
10
2.79991
20
-4.75177
11
2.79616
21
-4.75552
0
LINE
8
BLACK
6
CONTINUOUS
10
2.79616
20
-4.75552
11
2.78866
21
-4.75927
0
LINE
8
BLACK
6
CONTINUOUS
10
2.78866
20
-4.75927
11
2.77367
21
-4.75927
0
LINE
8
BLACK
6
CONTINUOUS
10
2.77367
20
-4.75927
11
2.76617
21
-4.75552
0
LINE
8
BLACK
6
CONTINUOUS
10
2.84866
20
-4.75927
11
2.84116
21
-4.75552
0
LINE
8
BLACK
6
CONTINUOUS
10
2.84116
20
-4.75552
11
2.83741
21
-4.74803
0
LINE
8
BLACK
6
CONTINUOUS
10
2.83741
20
-4.74803
11
2.83741
21
-4.68053
0
LINE
8
BLACK
6
CONTINUOUS
10
2.9124
20
-4.75927
11
2.9124
21
-4.71803
0
LINE
8
BLACK
6
CONTINUOUS
10
2.9124
20
-4.71803
11
2.90865
21
-4.71053
0
LINE
8
BLACK
6
CONTINUOUS
10
2.90865
20
-4.71053
11
2.90115
21
-4.70678
0
LINE
8
BLACK
6
CONTINUOUS
10
2.90115
20
-4.70678
11
2.88615
21
-4.70678
0
LINE
8
BLACK
6
CONTINUOUS
10
2.88615
20
-4.70678
11
2.87865
21
-4.71053
0
LINE
8
BLACK
6
CONTINUOUS
10
2.9124
20
-4.75552
11
2.9049
21
-4.75927
0
LINE
8
BLACK
6
CONTINUOUS
10
2.9049
20
-4.75927
11
2.88615
21
-4.75927
0
LINE
8
BLACK
6
CONTINUOUS
10
2.88615
20
-4.75927
11
2.87865
21
-4.75552
0
LINE
8
BLACK
6
CONTINUOUS
10
2.87865
20
-4.75552
11
2.8749
21
-4.74803
0
LINE
8
BLACK
6
CONTINUOUS
10
2.8749
20
-4.74803
11
2.8749
21
-4.74053
0
LINE
8
BLACK
6
CONTINUOUS
10
2.8749
20
-4.74053
11
2.87865
21
-4.73303
0
LINE
8
BLACK
6
CONTINUOUS
10
2.87865
20
-4.73303
11
2.88615
21
-4.72928
0
LINE
8
BLACK
6
CONTINUOUS
10
2.88615
20
-4.72928
11
2.9049
21
-4.72928
0
LINE
8
BLACK
6
CONTINUOUS
10
2.9049
20
-4.72928
11
2.9124
21
-4.72553
0
LINE
8
BLACK
6
CONTINUOUS
10
2.93865
20
-4.70678
11
2.96864
21
-4.70678
0
LINE
8
BLACK
6
CONTINUOUS
10
2.94989
20
-4.68053
11
2.94989
21
-4.74803
0
LINE
8
BLACK
6
CONTINUOUS
10
2.94989
20
-4.74803
11
2.95364
21
-4.75552
0
LINE
8
BLACK
6
CONTINUOUS
10
2.95364
20
-4.75552
11
2.96114
21
-4.75927
0
LINE
8
BLACK
6
CONTINUOUS
10
2.96114
20
-4.75927
11
2.96864
21
-4.75927
0
LINE
8
BLACK
6
CONTINUOUS
10
3.02488
20
-4.75552
11
3.01739
21
-4.75927
0
LINE
8
BLACK
6
CONTINUOUS
10
3.01739
20
-4.75927
11
3.00239
21
-4.75927
0
LINE
8
BLACK
6
CONTINUOUS
10
3.00239
20
-4.75927
11
2.99489
21
-4.75552
0
LINE
8
BLACK
6
CONTINUOUS
10
2.99489
20
-4.75552
11
2.99114
21
-4.74803
0
LINE
8
BLACK
6
CONTINUOUS
10
2.99114
20
-4.74803
11
2.99114
21
-4.71803
0
LINE
8
BLACK
6
CONTINUOUS
10
2.99114
20
-4.71803
11
2.99489
21
-4.71053
0
LINE
8
BLACK
6
CONTINUOUS
10
2.99489
20
-4.71053
11
3.00239
21
-4.70678
0
LINE
8
BLACK
6
CONTINUOUS
10
3.00239
20
-4.70678
11
3.01739
21
-4.70678
0
LINE
8
BLACK
6
CONTINUOUS
10
3.01739
20
-4.70678
11
3.02488
21
-4.71053
0
LINE
8
BLACK
6
CONTINUOUS
10
3.02488
20
-4.71053
11
3.02863
21
-4.71803
0
LINE
8
BLACK
6
CONTINUOUS
10
3.02863
20
-4.71803
11
3.02863
21
-4.72553
0
LINE
8
BLACK
6
CONTINUOUS
10
3.02863
20
-4.72553
11
2.99114
21
-4.73303
0
LINE
8
BLACK
6
CONTINUOUS
10
3.09613
20
-4.75927
11
3.09613
21
-4.68053
0
LINE
8
BLACK
6
CONTINUOUS
10
3.09613
20
-4.75552
11
3.08863
21
-4.75927
0
LINE
8
BLACK
6
CONTINUOUS
10
3.08863
20
-4.75927
11
3.07363
21
-4.75927
0
LINE
8
BLACK
6
CONTINUOUS
10
3.07363
20
-4.75927
11
3.06613
21
-4.75552
0
LINE
8
BLACK
6
CONTINUOUS
10
3.06613
20
-4.75552
11
3.06238
21
-4.75177
0
LINE
8
BLACK
6
CONTINUOUS
10
3.06238
20
-4.75177
11
3.05863
21
-4.74428
0
LINE
8
BLACK
6
CONTINUOUS
10
3.05863
20
-4.74428
11
3.05863
21
-4.72178
0
LINE
8
BLACK
6
CONTINUOUS
10
3.05863
20
-4.72178
11
3.06238
21
-4.71428
0
LINE
8
BLACK
6
CONTINUOUS
10
3.06238
20
-4.71428
11
3.06613
21
-4.71053
0
LINE
8
BLACK
6
CONTINUOUS
10
3.06613
20
-4.71053
11
3.07363
21
-4.70678
0
LINE
8
BLACK
6
CONTINUOUS
10
3.07363
20
-4.70678
11
3.08863
21
-4.70678
0
LINE
8
BLACK
6
CONTINUOUS
10
3.08863
20
-4.70678
11
3.09613
21
-4.71053
0
LINE
8
BLACK
6
CONTINUOUS
10
3.12612
20
-4.78927
11
3.12987
21
-4.78552
0
LINE
8
BLACK
6
CONTINUOUS
10
3.12987
20
-4.78552
11
3.13737
21
-4.77427
0
LINE
8
BLACK
6
CONTINUOUS
10
3.13737
20
-4.77427
11
3.14112
21
-4.76677
0
LINE
8
BLACK
6
CONTINUOUS
10
3.14112
20
-4.76677
11
3.14487
21
-4.75552
0
LINE
8
BLACK
6
CONTINUOUS
10
3.14487
20
-4.75552
11
3.14862
21
-4.73678
0
LINE
8
BLACK
6
CONTINUOUS
10
3.14862
20
-4.73678
11
3.14862
21
-4.72178
0
LINE
8
BLACK
6
CONTINUOUS
10
3.14862
20
-4.72178
11
3.14487
21
-4.70303
0
LINE
8
BLACK
6
CONTINUOUS
10
3.14487
20
-4.70303
11
3.14112
21
-4.69178
0
LINE
8
BLACK
6
CONTINUOUS
10
3.14112
20
-4.69178
11
3.13737
21
-4.68428
0
LINE
8
BLACK
6
CONTINUOUS
10
3.13737
20
-4.68428
11
3.12987
21
-4.67303
0
LINE
8
BLACK
6
CONTINUOUS
10
3.12987
20
-4.67303
11
3.12612
21
-4.66928
  0
ENDSEC
  0
EOF
