%TF.GenerationSoftware,KiCad,Pcbnew,(6.0.7)*%
%TF.CreationDate,2022-10-27T18:37:50+02:00*%
%TF.ProjectId,skoosk backplate,736b6f6f-736b-4206-9261-636b706c6174,rev?*%
%TF.SameCoordinates,Original*%
%TF.FileFunction,Legend,Top*%
%TF.FilePolarity,Positive*%
%FSLAX46Y46*%
G04 Gerber Fmt 4.6, Leading zero omitted, Abs format (unit mm)*
G04 Created by KiCad (PCBNEW (6.0.7)) date 2022-10-27 18:37:50*
%MOMM*%
%LPD*%
G01*
G04 APERTURE LIST*
%ADD10C,0.150000*%
G04 APERTURE END LIST*
D10*
X3952976Y-16605952D02*
X3857738Y-16891666D01*
X3857738Y-17367857D01*
X3952976Y-17558333D01*
X4048214Y-17653571D01*
X4238690Y-17748809D01*
X4429166Y-17748809D01*
X4619642Y-17653571D01*
X4714880Y-17558333D01*
X4810119Y-17367857D01*
X4905357Y-16986904D01*
X5000595Y-16796428D01*
X5095833Y-16701190D01*
X5286309Y-16605952D01*
X5476785Y-16605952D01*
X5667261Y-16701190D01*
X5762500Y-16796428D01*
X5857738Y-16986904D01*
X5857738Y-17463095D01*
X5762500Y-17748809D01*
X3857738Y-18605952D02*
X5857738Y-18605952D01*
X3857738Y-19748809D02*
X5000595Y-18891666D01*
X5857738Y-19748809D02*
X4714880Y-18605952D01*
X5857738Y-20986904D02*
X5857738Y-21367857D01*
X5762500Y-21558333D01*
X5572023Y-21748809D01*
X5191071Y-21844047D01*
X4524404Y-21844047D01*
X4143452Y-21748809D01*
X3952976Y-21558333D01*
X3857738Y-21367857D01*
X3857738Y-20986904D01*
X3952976Y-20796428D01*
X4143452Y-20605952D01*
X4524404Y-20510714D01*
X5191071Y-20510714D01*
X5572023Y-20605952D01*
X5762500Y-20796428D01*
X5857738Y-20986904D01*
X5857738Y-23082142D02*
X5857738Y-23463095D01*
X5762500Y-23653571D01*
X5572023Y-23844047D01*
X5191071Y-23939285D01*
X4524404Y-23939285D01*
X4143452Y-23844047D01*
X3952976Y-23653571D01*
X3857738Y-23463095D01*
X3857738Y-23082142D01*
X3952976Y-22891666D01*
X4143452Y-22701190D01*
X4524404Y-22605952D01*
X5191071Y-22605952D01*
X5572023Y-22701190D01*
X5762500Y-22891666D01*
X5857738Y-23082142D01*
X3952976Y-24701190D02*
X3857738Y-24986904D01*
X3857738Y-25463095D01*
X3952976Y-25653571D01*
X4048214Y-25748809D01*
X4238690Y-25844047D01*
X4429166Y-25844047D01*
X4619642Y-25748809D01*
X4714880Y-25653571D01*
X4810119Y-25463095D01*
X4905357Y-25082142D01*
X5000595Y-24891666D01*
X5095833Y-24796428D01*
X5286309Y-24701190D01*
X5476785Y-24701190D01*
X5667261Y-24796428D01*
X5762500Y-24891666D01*
X5857738Y-25082142D01*
X5857738Y-25558333D01*
X5762499Y-25844047D01*
X3857738Y-26701190D02*
X5857738Y-26701190D01*
X3857738Y-27844047D02*
X5000595Y-26986904D01*
X5857738Y-27844047D02*
X4714880Y-26701190D01*
M02*
