%TF.GenerationSoftware,KiCad,Pcbnew,(6.0.7)*%
%TF.CreationDate,2023-01-10T10:00:50+01:00*%
%TF.ProjectId,skoosk switchplate 4 screwholes,736b6f6f-736b-4207-9377-69746368706c,rev?*%
%TF.SameCoordinates,Original*%
%TF.FileFunction,Profile,NP*%
%FSLAX46Y46*%
G04 Gerber Fmt 4.6, Leading zero omitted, Abs format (unit mm)*
G04 Created by KiCad (PCBNEW (6.0.7)) date 2023-01-10 10:00:50*
%MOMM*%
%LPD*%
G01*
G04 APERTURE LIST*
%TA.AperFunction,Profile*%
%ADD10C,0.200000*%
%TD*%
%TA.AperFunction,Profile*%
%ADD11C,0.100000*%
%TD*%
G04 APERTURE END LIST*
D10*
X218821552Y-66551005D02*
X232821552Y-66551005D01*
X83492256Y-66548548D02*
X97492256Y-66548548D01*
D11*
X119061612Y-9540408D02*
X119061612Y-68298125D01*
D10*
X83501612Y-14450125D02*
X83501612Y-28450125D01*
X194721552Y-66551005D02*
X194721552Y-52551005D01*
X232821205Y-47500069D02*
X232821205Y-33500069D01*
X21301612Y-71600125D02*
X7301612Y-71600125D01*
X251871552Y-52551005D02*
X237871552Y-52551005D01*
X59401612Y-28450125D02*
X59401612Y-14450125D01*
X270891000Y-85600125D02*
X270891000Y-71600125D01*
X256924949Y-28448548D02*
X270924949Y-28448548D01*
X21292256Y-66548548D02*
X21292256Y-52548548D01*
X251874949Y-14448548D02*
X237874949Y-14448548D01*
X149992266Y-85613107D02*
X156992266Y-85613107D01*
X194724949Y-28448548D02*
X194724949Y-14448548D01*
X237871205Y-47500069D02*
X251871205Y-47500069D01*
X59402943Y-47494159D02*
X59402943Y-33494159D01*
X83502943Y-33494159D02*
X83502943Y-47494159D01*
X175671552Y-52551005D02*
X161671552Y-52551005D01*
X64442256Y-66548548D02*
X78442256Y-66548548D01*
X21301612Y-14450125D02*
X7301612Y-14450125D01*
X179542266Y-71613107D02*
X165542266Y-71613107D01*
X59402943Y-33494159D02*
X45402943Y-33494159D01*
X26351612Y-28450125D02*
X40351612Y-28450125D01*
X161674949Y-14448548D02*
X161674949Y-28448548D01*
X194724949Y-14448548D02*
X180724949Y-14448548D01*
X188092266Y-70613107D02*
X188092266Y-85613107D01*
X26342256Y-66548548D02*
X40342256Y-66548548D01*
X40352943Y-47494159D02*
X40352943Y-33494159D01*
X26352943Y-33494159D02*
X26352943Y-47494159D01*
X194721552Y-52551005D02*
X180721552Y-52551005D01*
X218821552Y-52551005D02*
X218821552Y-66551005D01*
X58071612Y-71570125D02*
X58071612Y-85570125D01*
X28732862Y-85600125D02*
X42732862Y-85600125D01*
X179542266Y-85613107D02*
X179542266Y-71613107D01*
D11*
X3692026Y-91049974D02*
X274357212Y-91049992D01*
D10*
X256921205Y-47500069D02*
X270921205Y-47500069D01*
X7301612Y-85600125D02*
X21301612Y-85600125D01*
X116552943Y-33494159D02*
X102552943Y-33494159D01*
X232821552Y-66551005D02*
X232821552Y-52551005D01*
D11*
X119442612Y-68679125D02*
X158685612Y-68679125D01*
D10*
X180721205Y-33500069D02*
X180721205Y-47500069D01*
D11*
X158685612Y-68679112D02*
G75*
G03*
X159066612Y-68298125I-12J381012D01*
G01*
D10*
X256891000Y-71600125D02*
X256891000Y-85600125D01*
X165542266Y-71613107D02*
X165542266Y-85613107D01*
X116552943Y-47494159D02*
X116552943Y-33494159D01*
X21292256Y-52548548D02*
X7292256Y-52548548D01*
X58071612Y-85570125D02*
X72071612Y-85570125D01*
X78442256Y-52548548D02*
X64442256Y-52548548D01*
X156992266Y-85613107D02*
X156992266Y-70613107D01*
X83492256Y-52548548D02*
X83492256Y-66548548D01*
X165542266Y-85613107D02*
X179542266Y-85613107D01*
X45392256Y-52548548D02*
X45392256Y-66548548D01*
D11*
X274357212Y-91050012D02*
G75*
G03*
X275627212Y-89779992I-12J1270012D01*
G01*
D10*
X270891000Y-71600125D02*
X256891000Y-71600125D01*
X7302943Y-47494159D02*
X21302943Y-47494159D01*
X232821205Y-33500069D02*
X218821205Y-33500069D01*
X45402943Y-47494159D02*
X59402943Y-47494159D01*
X112584612Y-85570125D02*
X112584612Y-71570125D01*
X97492256Y-66548548D02*
X97492256Y-52548548D01*
X72071612Y-71570125D02*
X58071612Y-71570125D01*
D11*
X118680612Y-9159408D02*
X3692026Y-9153026D01*
D10*
X161671552Y-66551005D02*
X175671552Y-66551005D01*
X26342256Y-52548548D02*
X26342256Y-66548548D01*
X40351612Y-28450125D02*
X40351612Y-14450125D01*
X180721552Y-52551005D02*
X180721552Y-66551005D01*
X97501612Y-14450125D02*
X83501612Y-14450125D01*
X78452943Y-33494159D02*
X64452943Y-33494159D01*
X121134612Y-70570125D02*
X121134612Y-85570125D01*
X21301612Y-28450125D02*
X21301612Y-14450125D01*
X270921552Y-52551005D02*
X256921552Y-52551005D01*
X251871205Y-33500069D02*
X237871205Y-33500069D01*
X213771205Y-47500069D02*
X213771205Y-33500069D01*
X270924949Y-28448548D02*
X270924949Y-14448548D01*
X199771552Y-52551005D02*
X199771552Y-66551005D01*
X97502943Y-33494159D02*
X83502943Y-33494159D01*
X90034612Y-85570125D02*
X90034612Y-70570125D01*
X64452943Y-47494159D02*
X78452943Y-47494159D01*
X218821205Y-47500069D02*
X232821205Y-47500069D01*
X206106000Y-71570125D02*
X206106000Y-85570125D01*
X213774949Y-28448548D02*
X213774949Y-14448548D01*
X26351612Y-14450125D02*
X26351612Y-28450125D01*
X256891000Y-85600125D02*
X270891000Y-85600125D01*
X21301612Y-85600125D02*
X21301612Y-71600125D01*
X256921552Y-66551005D02*
X270921552Y-66551005D01*
X218821205Y-33500069D02*
X218821205Y-47500069D01*
X90034612Y-70570125D02*
X83034612Y-70570125D01*
X26352943Y-47494159D02*
X40352943Y-47494159D01*
X199771552Y-66551005D02*
X213771552Y-66551005D01*
X7302943Y-33494159D02*
X7302943Y-47494159D01*
X28732862Y-71600125D02*
X28732862Y-85600125D01*
X199771205Y-47500069D02*
X213771205Y-47500069D01*
X64452943Y-33494159D02*
X64452943Y-47494159D01*
X270921552Y-66551005D02*
X270921552Y-52551005D01*
X102552943Y-47494159D02*
X116552943Y-47494159D01*
X21302943Y-33494159D02*
X7302943Y-33494159D01*
X112584612Y-71570125D02*
X98584612Y-71570125D01*
X220106000Y-71570125D02*
X206106000Y-71570125D01*
D11*
X275627212Y-89779992D02*
X275580942Y-10423043D01*
D10*
X59392256Y-66548548D02*
X59392256Y-52548548D01*
X195092266Y-70613107D02*
X188092266Y-70613107D01*
X83034612Y-70570125D02*
X83034612Y-85570125D01*
X83501612Y-28450125D02*
X97501612Y-28450125D01*
X199771205Y-33500069D02*
X199771205Y-47500069D01*
X116542256Y-52548548D02*
X102542256Y-52548548D01*
X180724949Y-14448548D02*
X180724949Y-28448548D01*
X59392256Y-52548548D02*
X45392256Y-52548548D01*
X45392256Y-66548548D02*
X59392256Y-66548548D01*
X237871552Y-66551005D02*
X251871552Y-66551005D01*
X116551612Y-14450125D02*
X102551612Y-14450125D01*
D11*
X2422026Y-89779974D02*
G75*
G03*
X3692026Y-91049974I1269994J-6D01*
G01*
D10*
X45401612Y-14450125D02*
X45401612Y-28450125D01*
X40342256Y-66548548D02*
X40342256Y-52548548D01*
D11*
X159400408Y-9159408D02*
G75*
G03*
X159019408Y-9540408I-8J-380992D01*
G01*
D10*
X237874949Y-14448548D02*
X237874949Y-28448548D01*
X45402943Y-33494159D02*
X45402943Y-47494159D01*
D11*
X119061575Y-68298125D02*
G75*
G03*
X119442612Y-68679125I381025J25D01*
G01*
D10*
X218824949Y-28448548D02*
X232824949Y-28448548D01*
X213771552Y-52551005D02*
X199771552Y-52551005D01*
X180721205Y-47500069D02*
X194721205Y-47500069D01*
X42732862Y-71600125D02*
X28732862Y-71600125D01*
X175674949Y-28448548D02*
X175674949Y-14448548D01*
X194721205Y-33500069D02*
X180721205Y-33500069D01*
X175671552Y-66551005D02*
X175671552Y-52551005D01*
X256921552Y-52551005D02*
X256921552Y-66551005D01*
X116542256Y-66548548D02*
X116542256Y-52548548D01*
X7301612Y-28450125D02*
X21301612Y-28450125D01*
X7301612Y-14450125D02*
X7301612Y-28450125D01*
X232824949Y-14448548D02*
X218824949Y-14448548D01*
X199774949Y-14448548D02*
X199774949Y-28448548D01*
X116551612Y-28450125D02*
X116551612Y-14450125D01*
X121134612Y-85570125D02*
X128134612Y-85570125D01*
X256924949Y-14448548D02*
X256924949Y-28448548D01*
X237871552Y-52551005D02*
X237871552Y-66551005D01*
X64451612Y-28450125D02*
X78451612Y-28450125D01*
X188092266Y-85613107D02*
X195092266Y-85613107D01*
X237874949Y-28448548D02*
X251874949Y-28448548D01*
X175674949Y-14448548D02*
X161674949Y-14448548D01*
X128134612Y-70570125D02*
X121134612Y-70570125D01*
X206106000Y-85570125D02*
X220106000Y-85570125D01*
X21302943Y-47494159D02*
X21302943Y-33494159D01*
X249459750Y-71600125D02*
X235459750Y-71600125D01*
X180721552Y-66551005D02*
X194721552Y-66551005D01*
X149992266Y-70613107D02*
X149992266Y-85613107D01*
X256921205Y-33500069D02*
X256921205Y-47500069D01*
X161674949Y-28448548D02*
X175674949Y-28448548D01*
D11*
X3692026Y-9153026D02*
G75*
G03*
X2422026Y-10423026I-1J-1269999D01*
G01*
D10*
X220106000Y-85570125D02*
X220106000Y-71570125D01*
X218824949Y-14448548D02*
X218824949Y-28448548D01*
X102552943Y-33494159D02*
X102552943Y-47494159D01*
X156992266Y-70613107D02*
X149992266Y-70613107D01*
X98584612Y-71570125D02*
X98584612Y-85570125D01*
X78442256Y-66548548D02*
X78442256Y-52548548D01*
X64451612Y-14450125D02*
X64451612Y-28450125D01*
X7292256Y-66548548D02*
X21292256Y-66548548D01*
X251874949Y-28448548D02*
X251874949Y-14448548D01*
X232821552Y-52551005D02*
X218821552Y-52551005D01*
X102551612Y-28450125D02*
X116551612Y-28450125D01*
X72071612Y-85570125D02*
X72071612Y-71570125D01*
X235459750Y-71600125D02*
X235459750Y-85600125D01*
X161671205Y-47500069D02*
X175671205Y-47500069D01*
X213771552Y-66551005D02*
X213771552Y-52551005D01*
X249459750Y-85600125D02*
X249459750Y-71600125D01*
X251871205Y-47500069D02*
X251871205Y-33500069D01*
D11*
X119061592Y-9540408D02*
G75*
G03*
X118680612Y-9159408I-380992J8D01*
G01*
D10*
X213771205Y-33500069D02*
X199771205Y-33500069D01*
X83034612Y-85570125D02*
X90034612Y-85570125D01*
X59401612Y-14450125D02*
X45401612Y-14450125D01*
X128134612Y-85570125D02*
X128134612Y-70570125D01*
X270921205Y-33500069D02*
X256921205Y-33500069D01*
X97501612Y-28450125D02*
X97501612Y-14450125D01*
D11*
X275580957Y-10423043D02*
G75*
G03*
X274310942Y-9153043I-1269957J43D01*
G01*
D10*
X97492256Y-52548548D02*
X83492256Y-52548548D01*
X235459750Y-85600125D02*
X249459750Y-85600125D01*
X175671205Y-33500069D02*
X161671205Y-33500069D01*
X64442256Y-52548548D02*
X64442256Y-66548548D01*
X40342256Y-52548548D02*
X26342256Y-52548548D01*
X7292256Y-52548548D02*
X7292256Y-66548548D01*
X98584612Y-85570125D02*
X112584612Y-85570125D01*
X78451612Y-14450125D02*
X64451612Y-14450125D01*
X83502943Y-47494159D02*
X97502943Y-47494159D01*
X232824949Y-28448548D02*
X232824949Y-14448548D01*
X161671552Y-52551005D02*
X161671552Y-66551005D01*
X40352943Y-33494159D02*
X26352943Y-33494159D01*
X102542256Y-52548548D02*
X102542256Y-66548548D01*
X194721205Y-47500069D02*
X194721205Y-33500069D01*
X102542256Y-66548548D02*
X116542256Y-66548548D01*
X270924949Y-14448548D02*
X256924949Y-14448548D01*
X161671205Y-33500069D02*
X161671205Y-47500069D01*
X97502943Y-47494159D02*
X97502943Y-33494159D01*
D11*
X274310942Y-9153043D02*
X159400408Y-9159408D01*
D10*
X199774949Y-28448548D02*
X213774949Y-28448548D01*
X175671205Y-47500069D02*
X175671205Y-33500069D01*
X251871552Y-66551005D02*
X251871552Y-52551005D01*
X42732862Y-85600125D02*
X42732862Y-71600125D01*
X270921205Y-47500069D02*
X270921205Y-33500069D01*
D11*
X159066612Y-68298125D02*
X159019408Y-9540408D01*
D10*
X180724949Y-28448548D02*
X194724949Y-28448548D01*
X7301612Y-71600125D02*
X7301612Y-85600125D01*
X78452943Y-47494159D02*
X78452943Y-33494159D01*
D11*
X2422026Y-10423026D02*
X2422026Y-89779974D01*
D10*
X40351612Y-14450125D02*
X26351612Y-14450125D01*
X102551612Y-14450125D02*
X102551612Y-28450125D01*
X195092266Y-85613107D02*
X195092266Y-70613107D01*
X237871205Y-33500069D02*
X237871205Y-47500069D01*
X213774949Y-14448548D02*
X199774949Y-14448548D01*
X78451612Y-28450125D02*
X78451612Y-14450125D01*
X45401612Y-28450125D02*
X59401612Y-28450125D01*
M02*
