%TF.GenerationSoftware,KiCad,Pcbnew,(6.0.7)*%
%TF.CreationDate,2023-01-10T10:00:20+01:00*%
%TF.ProjectId,skoosk backplate 4 screwholes,736b6f6f-736b-4206-9261-636b706c6174,rev?*%
%TF.SameCoordinates,Original*%
%TF.FileFunction,Copper,L2,Bot*%
%TF.FilePolarity,Positive*%
%FSLAX46Y46*%
G04 Gerber Fmt 4.6, Leading zero omitted, Abs format (unit mm)*
G04 Created by KiCad (PCBNEW (6.0.7)) date 2023-01-10 10:00:20*
%MOMM*%
%LPD*%
G01*
G04 APERTURE LIST*
%TA.AperFunction,ComponentPad*%
%ADD10C,4.400000*%
%TD*%
G04 APERTURE END LIST*
D10*
%TO.P,H4,1,1*%
%TO.N,N/C*%
X273186700Y-11950000D03*
%TD*%
%TO.P,H1,1,1*%
%TO.N,N/C*%
X5207000Y-88265000D03*
%TD*%
%TO.P,H4,1,1*%
%TO.N,N/C*%
X273313700Y-88277000D03*
%TD*%
%TO.P,H1,1,1*%
%TO.N,N/C*%
X5080000Y-11938000D03*
%TD*%
%TA.AperFunction,NonConductor*%
G36*
X139086456Y-9154035D02*
G01*
X274305994Y-9154043D01*
X274315875Y-9154431D01*
X274423333Y-9162884D01*
X274424435Y-9162976D01*
X274484742Y-9168253D01*
X274505110Y-9170036D01*
X274523529Y-9173035D01*
X274621207Y-9196482D01*
X274623134Y-9196945D01*
X274626330Y-9197756D01*
X274710043Y-9220184D01*
X274725651Y-9225482D01*
X274819385Y-9264305D01*
X274824416Y-9266519D01*
X274903752Y-9303511D01*
X274916333Y-9310270D01*
X275002544Y-9363098D01*
X275008969Y-9367311D01*
X275080898Y-9417675D01*
X275090458Y-9425077D01*
X275167228Y-9490643D01*
X275174494Y-9497360D01*
X275236625Y-9559491D01*
X275243341Y-9566755D01*
X275308922Y-9643540D01*
X275316324Y-9653101D01*
X275366668Y-9725000D01*
X275370888Y-9731436D01*
X275423727Y-9817662D01*
X275430490Y-9830249D01*
X275467468Y-9909554D01*
X275469681Y-9914583D01*
X275508514Y-10008334D01*
X275513812Y-10023944D01*
X275536239Y-10107651D01*
X275537033Y-10110774D01*
X275560958Y-10210438D01*
X275563959Y-10228869D01*
X275571094Y-10310442D01*
X275571185Y-10311538D01*
X275579557Y-10417947D01*
X275579945Y-10427757D01*
X275580182Y-10834747D01*
X275560220Y-10902879D01*
X275506591Y-10949403D01*
X275436323Y-10959548D01*
X275371725Y-10930092D01*
X275340174Y-10888468D01*
X275296121Y-10794850D01*
X275296117Y-10794843D01*
X275294433Y-10791264D01*
X275132585Y-10536232D01*
X275120136Y-10521183D01*
X275043031Y-10427980D01*
X274940049Y-10303496D01*
X274719862Y-10096726D01*
X274703346Y-10084726D01*
X274478698Y-9921511D01*
X274478697Y-9921510D01*
X274475495Y-9919184D01*
X274466508Y-9914243D01*
X274214273Y-9775575D01*
X274214272Y-9775574D01*
X274210804Y-9773668D01*
X274207135Y-9772215D01*
X274207130Y-9772213D01*
X273933632Y-9663928D01*
X273933631Y-9663928D01*
X273929962Y-9662475D01*
X273637398Y-9587358D01*
X273337727Y-9549500D01*
X273035673Y-9549500D01*
X272736002Y-9587358D01*
X272443438Y-9662475D01*
X272439769Y-9663928D01*
X272439768Y-9663928D01*
X272166270Y-9772213D01*
X272166265Y-9772215D01*
X272162596Y-9773668D01*
X272159128Y-9775574D01*
X272159127Y-9775575D01*
X271906893Y-9914243D01*
X271897905Y-9919184D01*
X271894703Y-9921510D01*
X271894702Y-9921511D01*
X271670055Y-10084726D01*
X271653538Y-10096726D01*
X271433351Y-10303496D01*
X271330369Y-10427980D01*
X271253265Y-10521183D01*
X271240815Y-10536232D01*
X271078967Y-10791264D01*
X271077283Y-10794843D01*
X271077279Y-10794850D01*
X270954230Y-11056343D01*
X270950359Y-11064570D01*
X270857019Y-11351840D01*
X270800420Y-11648543D01*
X270781454Y-11950000D01*
X270800420Y-12251457D01*
X270857019Y-12548160D01*
X270950359Y-12835430D01*
X270952046Y-12839016D01*
X270952048Y-12839020D01*
X271077279Y-13105150D01*
X271077282Y-13105155D01*
X271078967Y-13108736D01*
X271240815Y-13363768D01*
X271433351Y-13596504D01*
X271653538Y-13803274D01*
X271897905Y-13980816D01*
X272162596Y-14126332D01*
X272166265Y-14127785D01*
X272166270Y-14127787D01*
X272413129Y-14225525D01*
X272443438Y-14237525D01*
X272736002Y-14312642D01*
X273035673Y-14350500D01*
X273337727Y-14350500D01*
X273637398Y-14312642D01*
X273929962Y-14237525D01*
X273960271Y-14225525D01*
X274207130Y-14127787D01*
X274207135Y-14127785D01*
X274210804Y-14126332D01*
X274475495Y-13980816D01*
X274719862Y-13803274D01*
X274940049Y-13596504D01*
X275132585Y-13363768D01*
X275294433Y-13108736D01*
X275341473Y-13008771D01*
X275388576Y-12955650D01*
X275456921Y-12936428D01*
X275524809Y-12957207D01*
X275570685Y-13011391D01*
X275581481Y-13062345D01*
X275624594Y-87004627D01*
X275604632Y-87072759D01*
X275551003Y-87119283D01*
X275480735Y-87129428D01*
X275416137Y-87099973D01*
X275392209Y-87072214D01*
X275261707Y-86866576D01*
X275259585Y-86863232D01*
X275247136Y-86848183D01*
X275201367Y-86792859D01*
X275067049Y-86630496D01*
X274846862Y-86423726D01*
X274830346Y-86411726D01*
X274605698Y-86248511D01*
X274605697Y-86248510D01*
X274602495Y-86246184D01*
X274580668Y-86234184D01*
X274341273Y-86102575D01*
X274341272Y-86102574D01*
X274337804Y-86100668D01*
X274334135Y-86099215D01*
X274334130Y-86099213D01*
X274060632Y-85990928D01*
X274060631Y-85990928D01*
X274056962Y-85989475D01*
X273764398Y-85914358D01*
X273464727Y-85876500D01*
X273162673Y-85876500D01*
X272863002Y-85914358D01*
X272570438Y-85989475D01*
X272566769Y-85990928D01*
X272566768Y-85990928D01*
X272293270Y-86099213D01*
X272293265Y-86099215D01*
X272289596Y-86100668D01*
X272286128Y-86102574D01*
X272286127Y-86102575D01*
X272046733Y-86234184D01*
X272024905Y-86246184D01*
X272021703Y-86248510D01*
X272021702Y-86248511D01*
X271797055Y-86411726D01*
X271780538Y-86423726D01*
X271560351Y-86630496D01*
X271426033Y-86792859D01*
X271380265Y-86848183D01*
X271367815Y-86863232D01*
X271205967Y-87118264D01*
X271204283Y-87121843D01*
X271204279Y-87121850D01*
X271081230Y-87383343D01*
X271077359Y-87391570D01*
X270984019Y-87678840D01*
X270927420Y-87975543D01*
X270908454Y-88277000D01*
X270927420Y-88578457D01*
X270984019Y-88875160D01*
X271077359Y-89162430D01*
X271079046Y-89166016D01*
X271079048Y-89166020D01*
X271204279Y-89432150D01*
X271204283Y-89432157D01*
X271205967Y-89435736D01*
X271367815Y-89690768D01*
X271560351Y-89923504D01*
X271780538Y-90130274D01*
X271783740Y-90132601D01*
X271783742Y-90132602D01*
X272005022Y-90293370D01*
X272024905Y-90307816D01*
X272028374Y-90309723D01*
X272028377Y-90309725D01*
X272166040Y-90385406D01*
X272289596Y-90453332D01*
X272293265Y-90454785D01*
X272293270Y-90454787D01*
X272557835Y-90559535D01*
X272570438Y-90564525D01*
X272863002Y-90639642D01*
X273162673Y-90677500D01*
X273464727Y-90677500D01*
X273764398Y-90639642D01*
X274056962Y-90564525D01*
X274069565Y-90559535D01*
X274334130Y-90454787D01*
X274334135Y-90454785D01*
X274337804Y-90453332D01*
X274461360Y-90385406D01*
X274599023Y-90309725D01*
X274599026Y-90309723D01*
X274602495Y-90307816D01*
X274622378Y-90293370D01*
X274843658Y-90132602D01*
X274843660Y-90132601D01*
X274846862Y-90130274D01*
X275067049Y-89923504D01*
X275259585Y-89690768D01*
X275393692Y-89479449D01*
X275447080Y-89432651D01*
X275517295Y-89422146D01*
X275582043Y-89451270D01*
X275620767Y-89510776D01*
X275626076Y-89546891D01*
X275626209Y-89775001D01*
X275625821Y-89784958D01*
X275617396Y-89892025D01*
X275617311Y-89893045D01*
X275614407Y-89926215D01*
X275610205Y-89974192D01*
X275607204Y-89992612D01*
X275583341Y-90092011D01*
X275582529Y-90095208D01*
X275560044Y-90179126D01*
X275554746Y-90194734D01*
X275515974Y-90288339D01*
X275513760Y-90293370D01*
X275476712Y-90372821D01*
X275469950Y-90385406D01*
X275417186Y-90471511D01*
X275412967Y-90477946D01*
X275362529Y-90549980D01*
X275355146Y-90559517D01*
X275296538Y-90628139D01*
X275289640Y-90636216D01*
X275282925Y-90643480D01*
X275220700Y-90705706D01*
X275213435Y-90712422D01*
X275136743Y-90777924D01*
X275127184Y-90785325D01*
X275055157Y-90835760D01*
X275048720Y-90839980D01*
X274962631Y-90892736D01*
X274950047Y-90899498D01*
X274870571Y-90936559D01*
X274865539Y-90938773D01*
X274771952Y-90977539D01*
X274756346Y-90982837D01*
X274672410Y-91005329D01*
X274669212Y-91006141D01*
X274569845Y-91029998D01*
X274551415Y-91033000D01*
X274469211Y-91040192D01*
X274468323Y-91040267D01*
X274383403Y-91046951D01*
X274362399Y-91048604D01*
X274352513Y-91048992D01*
X142765145Y-91048983D01*
X3696981Y-91048974D01*
X3687095Y-91048586D01*
X3578734Y-91040058D01*
X3577640Y-91039967D01*
X3536500Y-91036368D01*
X3497962Y-91032997D01*
X3479533Y-91029996D01*
X3410238Y-91013359D01*
X3379242Y-91005918D01*
X3376045Y-91005106D01*
X3293040Y-90982865D01*
X3277432Y-90977566D01*
X3183253Y-90938555D01*
X3178223Y-90936342D01*
X3099350Y-90899564D01*
X3086765Y-90892802D01*
X3059581Y-90876144D01*
X3000225Y-90839771D01*
X2993820Y-90835571D01*
X2922205Y-90785426D01*
X2912646Y-90778024D01*
X2835612Y-90712231D01*
X2828347Y-90705515D01*
X2766485Y-90643653D01*
X2759769Y-90636388D01*
X2693976Y-90559354D01*
X2686574Y-90549795D01*
X2672716Y-90530004D01*
X2636429Y-90478180D01*
X2632229Y-90471775D01*
X2595856Y-90412419D01*
X2579198Y-90385235D01*
X2572436Y-90372650D01*
X2535658Y-90293777D01*
X2533445Y-90288747D01*
X2494434Y-90194568D01*
X2489135Y-90178960D01*
X2466894Y-90095955D01*
X2466082Y-90092758D01*
X2442005Y-89992470D01*
X2439003Y-89974036D01*
X2432033Y-89894360D01*
X2431942Y-89893266D01*
X2423414Y-89784905D01*
X2423026Y-89775019D01*
X2423026Y-88265000D01*
X2801754Y-88265000D01*
X2820720Y-88566457D01*
X2877319Y-88863160D01*
X2970659Y-89150430D01*
X2972346Y-89154016D01*
X2972348Y-89154020D01*
X3097579Y-89420150D01*
X3097583Y-89420157D01*
X3099267Y-89423736D01*
X3261115Y-89678768D01*
X3263634Y-89681814D01*
X3263637Y-89681817D01*
X3319333Y-89749141D01*
X3453651Y-89911504D01*
X3673838Y-90118274D01*
X3677040Y-90120601D01*
X3677042Y-90120602D01*
X3757594Y-90179126D01*
X3918205Y-90295816D01*
X3921674Y-90297723D01*
X3921677Y-90297725D01*
X4179427Y-90439425D01*
X4182896Y-90441332D01*
X4186565Y-90442785D01*
X4186570Y-90442787D01*
X4396488Y-90525899D01*
X4463738Y-90552525D01*
X4756302Y-90627642D01*
X5055973Y-90665500D01*
X5358027Y-90665500D01*
X5657698Y-90627642D01*
X5950262Y-90552525D01*
X6017512Y-90525899D01*
X6227430Y-90442787D01*
X6227435Y-90442785D01*
X6231104Y-90441332D01*
X6234573Y-90439425D01*
X6492323Y-90297725D01*
X6492326Y-90297723D01*
X6495795Y-90295816D01*
X6656406Y-90179126D01*
X6736958Y-90120602D01*
X6736960Y-90120601D01*
X6740162Y-90118274D01*
X6960349Y-89911504D01*
X7094667Y-89749141D01*
X7150363Y-89681817D01*
X7150366Y-89681814D01*
X7152885Y-89678768D01*
X7314733Y-89423736D01*
X7316417Y-89420157D01*
X7316421Y-89420150D01*
X7441652Y-89154020D01*
X7441654Y-89154016D01*
X7443341Y-89150430D01*
X7536681Y-88863160D01*
X7593280Y-88566457D01*
X7612246Y-88265000D01*
X7593280Y-87963543D01*
X7536681Y-87666840D01*
X7443341Y-87379570D01*
X7441652Y-87375980D01*
X7316421Y-87109850D01*
X7316417Y-87109843D01*
X7314733Y-87106264D01*
X7152885Y-86851232D01*
X6960349Y-86618496D01*
X6740162Y-86411726D01*
X6495795Y-86234184D01*
X6231104Y-86088668D01*
X6227435Y-86087215D01*
X6227430Y-86087213D01*
X5953932Y-85978928D01*
X5953931Y-85978928D01*
X5950262Y-85977475D01*
X5657698Y-85902358D01*
X5358027Y-85864500D01*
X5055973Y-85864500D01*
X4756302Y-85902358D01*
X4463738Y-85977475D01*
X4460069Y-85978928D01*
X4460068Y-85978928D01*
X4186570Y-86087213D01*
X4186565Y-86087215D01*
X4182896Y-86088668D01*
X3918205Y-86234184D01*
X3673838Y-86411726D01*
X3453651Y-86618496D01*
X3261115Y-86851232D01*
X3099267Y-87106264D01*
X3097583Y-87109843D01*
X3097579Y-87109850D01*
X2972348Y-87375980D01*
X2970659Y-87379570D01*
X2877319Y-87666840D01*
X2820720Y-87963543D01*
X2801754Y-88265000D01*
X2423026Y-88265000D01*
X2423026Y-11946278D01*
X2424367Y-11941712D01*
X2423938Y-11937873D01*
X2674690Y-11937873D01*
X2674777Y-11938366D01*
X2693720Y-12239457D01*
X2750319Y-12536160D01*
X2843659Y-12823430D01*
X2845346Y-12827016D01*
X2845348Y-12827020D01*
X2970579Y-13093150D01*
X2970583Y-13093157D01*
X2972267Y-13096736D01*
X3134115Y-13351768D01*
X3136634Y-13354814D01*
X3136637Y-13354817D01*
X3192333Y-13422141D01*
X3326651Y-13584504D01*
X3546838Y-13791274D01*
X3550040Y-13793601D01*
X3550042Y-13793602D01*
X3566559Y-13805602D01*
X3791205Y-13968816D01*
X3794674Y-13970723D01*
X3794677Y-13970725D01*
X3816505Y-13982725D01*
X4055896Y-14114332D01*
X4059565Y-14115785D01*
X4059570Y-14115787D01*
X4333068Y-14224072D01*
X4336738Y-14225525D01*
X4629302Y-14300642D01*
X4928973Y-14338500D01*
X5231027Y-14338500D01*
X5530698Y-14300642D01*
X5823262Y-14225525D01*
X5826932Y-14224072D01*
X6100430Y-14115787D01*
X6100435Y-14115785D01*
X6104104Y-14114332D01*
X6343495Y-13982725D01*
X6365323Y-13970725D01*
X6365326Y-13970723D01*
X6368795Y-13968816D01*
X6593441Y-13805602D01*
X6609958Y-13793602D01*
X6609960Y-13793601D01*
X6613162Y-13791274D01*
X6833349Y-13584504D01*
X6967667Y-13422141D01*
X7023363Y-13354817D01*
X7023366Y-13354814D01*
X7025885Y-13351768D01*
X7187733Y-13096736D01*
X7189417Y-13093157D01*
X7189421Y-13093150D01*
X7314652Y-12827020D01*
X7314654Y-12827016D01*
X7316341Y-12823430D01*
X7409681Y-12536160D01*
X7466280Y-12239457D01*
X7485246Y-11938000D01*
X7466280Y-11636543D01*
X7409681Y-11339840D01*
X7316341Y-11052570D01*
X7314652Y-11048980D01*
X7189421Y-10782850D01*
X7189417Y-10782843D01*
X7187733Y-10779264D01*
X7025885Y-10524232D01*
X6833349Y-10291496D01*
X6613162Y-10084726D01*
X6539066Y-10030892D01*
X6371998Y-9909511D01*
X6371997Y-9909510D01*
X6368795Y-9907184D01*
X6259171Y-9846917D01*
X6107573Y-9763575D01*
X6107572Y-9763574D01*
X6104104Y-9761668D01*
X6100435Y-9760215D01*
X6100430Y-9760213D01*
X5826932Y-9651928D01*
X5826931Y-9651928D01*
X5823262Y-9650475D01*
X5530698Y-9575358D01*
X5231027Y-9537500D01*
X4928973Y-9537500D01*
X4629302Y-9575358D01*
X4336738Y-9650475D01*
X4333069Y-9651928D01*
X4333068Y-9651928D01*
X4059570Y-9760213D01*
X4059565Y-9760215D01*
X4055896Y-9761668D01*
X4052428Y-9763574D01*
X4052427Y-9763575D01*
X3900830Y-9846917D01*
X3791205Y-9907184D01*
X3788003Y-9909510D01*
X3788002Y-9909511D01*
X3620935Y-10030892D01*
X3546838Y-10084726D01*
X3326651Y-10291496D01*
X3134115Y-10524232D01*
X2972267Y-10779264D01*
X2970583Y-10782843D01*
X2970579Y-10782850D01*
X2845348Y-11048980D01*
X2843659Y-11052570D01*
X2750319Y-11339840D01*
X2693720Y-11636543D01*
X2692965Y-11648543D01*
X2674777Y-11937634D01*
X2674690Y-11937873D01*
X2423938Y-11937873D01*
X2423026Y-11929722D01*
X2423026Y-10427980D01*
X2423414Y-10418095D01*
X2423426Y-10417947D01*
X2431955Y-10309571D01*
X2432021Y-10308781D01*
X2439004Y-10228963D01*
X2442005Y-10210531D01*
X2442028Y-10210438D01*
X2466079Y-10110257D01*
X2466891Y-10107062D01*
X2489135Y-10024044D01*
X2494433Y-10008436D01*
X2533449Y-9914243D01*
X2535663Y-9909212D01*
X2537499Y-9905275D01*
X2572439Y-9830345D01*
X2579190Y-9817780D01*
X2632234Y-9731221D01*
X2636436Y-9724812D01*
X2679067Y-9663928D01*
X2686575Y-9653206D01*
X2693977Y-9643647D01*
X2759770Y-9566613D01*
X2766486Y-9559348D01*
X2828348Y-9497486D01*
X2835613Y-9490770D01*
X2912647Y-9424977D01*
X2922206Y-9417575D01*
X2944226Y-9402156D01*
X2993812Y-9367436D01*
X3000221Y-9363234D01*
X3086780Y-9310190D01*
X3099345Y-9303439D01*
X3178217Y-9266661D01*
X3183243Y-9264449D01*
X3277436Y-9225433D01*
X3293044Y-9220135D01*
X3376062Y-9197891D01*
X3379257Y-9197079D01*
X3386537Y-9195331D01*
X3479535Y-9173004D01*
X3497963Y-9170004D01*
X3577781Y-9163021D01*
X3578571Y-9162955D01*
X3687095Y-9154414D01*
X3696980Y-9154026D01*
X139086456Y-9154035D01*
G37*
%TD.AperFunction*%
M02*
