%TF.GenerationSoftware,KiCad,Pcbnew,(6.0.7)*%
%TF.CreationDate,2022-10-09T17:04:33+02:00*%
%TF.ProjectId,skoosk backplate,736b6f6f-736b-4206-9261-636b706c6174,rev?*%
%TF.SameCoordinates,Original*%
%TF.FileFunction,Copper,L2,Bot*%
%TF.FilePolarity,Positive*%
%FSLAX46Y46*%
G04 Gerber Fmt 4.6, Leading zero omitted, Abs format (unit mm)*
G04 Created by KiCad (PCBNEW (6.0.7)) date 2022-10-09 17:04:33*
%MOMM*%
%LPD*%
G01*
G04 APERTURE LIST*
%TA.AperFunction,ComponentPad*%
%ADD10C,5.400000*%
%TD*%
G04 APERTURE END LIST*
D10*
%TO.P,H1,1,1*%
%TO.N,GND*%
X5588000Y-14147800D03*
%TD*%
%TO.P,H2,1,1*%
%TO.N,GND*%
X81026000Y-14147800D03*
%TD*%
%TO.P,H7,1,1*%
%TO.N,GND*%
X206095600Y-86283800D03*
%TD*%
%TO.P,H3,1,1*%
%TO.N,GND*%
X197205600Y-14147800D03*
%TD*%
%TO.P,H8,1,1*%
%TO.N,GND*%
X272567400Y-86258400D03*
%TD*%
%TO.P,H6,1,1*%
%TO.N,GND*%
X72059800Y-86283800D03*
%TD*%
%TO.P,H4,1,1*%
%TO.N,GND*%
X272592800Y-14173200D03*
%TD*%
%TO.P,H5,1,1*%
%TO.N,GND*%
X5562600Y-86309200D03*
%TD*%
%TA.AperFunction,NonConductor*%
G36*
X78846675Y-11577502D02*
G01*
X78893168Y-11631158D01*
X78903272Y-11701432D01*
X78873778Y-11766012D01*
X78861551Y-11778302D01*
X78777593Y-11851802D01*
X78535672Y-12116738D01*
X78324792Y-12406990D01*
X78147580Y-12718940D01*
X78006245Y-13048699D01*
X77902549Y-13392158D01*
X77837784Y-13745035D01*
X77812757Y-14102932D01*
X77827781Y-14461388D01*
X77882668Y-14815936D01*
X77976734Y-15162156D01*
X78108806Y-15495733D01*
X78110461Y-15498845D01*
X78110463Y-15498850D01*
X78171421Y-15613494D01*
X78277239Y-15812509D01*
X78279224Y-15815407D01*
X78279230Y-15815418D01*
X78477942Y-16105629D01*
X78477947Y-16105635D01*
X78479933Y-16108536D01*
X78482236Y-16111204D01*
X78667952Y-16326358D01*
X78714361Y-16380124D01*
X78977602Y-16623887D01*
X78980428Y-16625970D01*
X78980431Y-16625973D01*
X79014883Y-16651373D01*
X79266375Y-16836789D01*
X79269412Y-16838543D01*
X79269416Y-16838545D01*
X79310369Y-16862189D01*
X79577080Y-17016175D01*
X79638439Y-17042982D01*
X79902622Y-17158401D01*
X79902632Y-17158405D01*
X79905844Y-17159808D01*
X79909201Y-17160847D01*
X79909206Y-17160849D01*
X80044744Y-17202805D01*
X80248570Y-17265900D01*
X80600987Y-17333127D01*
X80797571Y-17348253D01*
X80955203Y-17360382D01*
X80955204Y-17360382D01*
X80958700Y-17360651D01*
X81176001Y-17353063D01*
X81313738Y-17348253D01*
X81313743Y-17348253D01*
X81317253Y-17348130D01*
X81320734Y-17347616D01*
X81668683Y-17296236D01*
X81668689Y-17296235D01*
X81672175Y-17295720D01*
X81675579Y-17294821D01*
X81675582Y-17294820D01*
X82015652Y-17204969D01*
X82015653Y-17204969D01*
X82019043Y-17204073D01*
X82353534Y-17074333D01*
X82671478Y-16908116D01*
X82968913Y-16707493D01*
X83242131Y-16474967D01*
X83293601Y-16420157D01*
X83485316Y-16216002D01*
X83485320Y-16215997D01*
X83487727Y-16213434D01*
X83489832Y-16210620D01*
X83489838Y-16210613D01*
X83700530Y-15928974D01*
X83702639Y-15926155D01*
X83884189Y-15616710D01*
X84030115Y-15288956D01*
X84138596Y-14946979D01*
X84208282Y-14595041D01*
X84238303Y-14237528D01*
X84239556Y-14147800D01*
X84219529Y-13789588D01*
X84212589Y-13748557D01*
X84160286Y-13439322D01*
X84160285Y-13439318D01*
X84159697Y-13435841D01*
X84060806Y-13090969D01*
X84012662Y-12974162D01*
X83925427Y-12762513D01*
X83925423Y-12762505D01*
X83924089Y-12759268D01*
X83751250Y-12444875D01*
X83544443Y-12151707D01*
X83306245Y-11883419D01*
X83188204Y-11777134D01*
X83150966Y-11716690D01*
X83152318Y-11645706D01*
X83191832Y-11586722D01*
X83256962Y-11558464D01*
X83272516Y-11557500D01*
X194958154Y-11557500D01*
X195026275Y-11577502D01*
X195072768Y-11631158D01*
X195082872Y-11701432D01*
X195053378Y-11766012D01*
X195041151Y-11778302D01*
X194957193Y-11851802D01*
X194715272Y-12116738D01*
X194504392Y-12406990D01*
X194327180Y-12718940D01*
X194185845Y-13048699D01*
X194082149Y-13392158D01*
X194017384Y-13745035D01*
X193992357Y-14102932D01*
X194007381Y-14461388D01*
X194062268Y-14815936D01*
X194156334Y-15162156D01*
X194288406Y-15495733D01*
X194290061Y-15498845D01*
X194290063Y-15498850D01*
X194351021Y-15613494D01*
X194456839Y-15812509D01*
X194458824Y-15815407D01*
X194458830Y-15815418D01*
X194657542Y-16105629D01*
X194657547Y-16105635D01*
X194659533Y-16108536D01*
X194661836Y-16111204D01*
X194847552Y-16326358D01*
X194893961Y-16380124D01*
X195157202Y-16623887D01*
X195160028Y-16625970D01*
X195160031Y-16625973D01*
X195194483Y-16651373D01*
X195445975Y-16836789D01*
X195449012Y-16838543D01*
X195449016Y-16838545D01*
X195489969Y-16862189D01*
X195756680Y-17016175D01*
X195818039Y-17042982D01*
X196082222Y-17158401D01*
X196082232Y-17158405D01*
X196085444Y-17159808D01*
X196088801Y-17160847D01*
X196088806Y-17160849D01*
X196224344Y-17202805D01*
X196428170Y-17265900D01*
X196780587Y-17333127D01*
X196977171Y-17348253D01*
X197134803Y-17360382D01*
X197134804Y-17360382D01*
X197138300Y-17360651D01*
X197355601Y-17353063D01*
X197493338Y-17348253D01*
X197493343Y-17348253D01*
X197496853Y-17348130D01*
X197500334Y-17347616D01*
X197848283Y-17296236D01*
X197848289Y-17296235D01*
X197851775Y-17295720D01*
X197855179Y-17294821D01*
X197855182Y-17294820D01*
X198195252Y-17204969D01*
X198195253Y-17204969D01*
X198198643Y-17204073D01*
X198533134Y-17074333D01*
X198851078Y-16908116D01*
X199148513Y-16707493D01*
X199421731Y-16474967D01*
X199473201Y-16420157D01*
X199664916Y-16216002D01*
X199664920Y-16215997D01*
X199667327Y-16213434D01*
X199669432Y-16210620D01*
X199669438Y-16210613D01*
X199880130Y-15928974D01*
X199882239Y-15926155D01*
X200063789Y-15616710D01*
X200209715Y-15288956D01*
X200318196Y-14946979D01*
X200387882Y-14595041D01*
X200417903Y-14237528D01*
X200419156Y-14147800D01*
X200399129Y-13789588D01*
X200392189Y-13748557D01*
X200339886Y-13439322D01*
X200339885Y-13439318D01*
X200339297Y-13435841D01*
X200240406Y-13090969D01*
X200192262Y-12974162D01*
X200105027Y-12762513D01*
X200105023Y-12762505D01*
X200103689Y-12759268D01*
X199930850Y-12444875D01*
X199724043Y-12151707D01*
X199485845Y-11883419D01*
X199367804Y-11777134D01*
X199330566Y-11716690D01*
X199331918Y-11645706D01*
X199371432Y-11586722D01*
X199436562Y-11558464D01*
X199452116Y-11557500D01*
X270374368Y-11557500D01*
X270442489Y-11577502D01*
X270488982Y-11631158D01*
X270499086Y-11701432D01*
X270469592Y-11766012D01*
X270457364Y-11778303D01*
X270344393Y-11877202D01*
X270342018Y-11879803D01*
X270125666Y-12116738D01*
X270102472Y-12142138D01*
X269891592Y-12432390D01*
X269889850Y-12435456D01*
X269889849Y-12435458D01*
X269882750Y-12447954D01*
X269714380Y-12744340D01*
X269712992Y-12747579D01*
X269582488Y-13052068D01*
X269573045Y-13074099D01*
X269572028Y-13077468D01*
X269477018Y-13392158D01*
X269469349Y-13417558D01*
X269465355Y-13439322D01*
X269409246Y-13745035D01*
X269404584Y-13770435D01*
X269379557Y-14128332D01*
X269394581Y-14486788D01*
X269449468Y-14841336D01*
X269543534Y-15187556D01*
X269544827Y-15190821D01*
X269666784Y-15498850D01*
X269675606Y-15521133D01*
X269677261Y-15524245D01*
X269677263Y-15524250D01*
X269768304Y-15695473D01*
X269844039Y-15837909D01*
X269846024Y-15840807D01*
X269846030Y-15840818D01*
X270044742Y-16131029D01*
X270044747Y-16131035D01*
X270046733Y-16133936D01*
X270049036Y-16136604D01*
X270256932Y-16377454D01*
X270281161Y-16405524D01*
X270544402Y-16649287D01*
X270547228Y-16651370D01*
X270547231Y-16651373D01*
X270654711Y-16730614D01*
X270833175Y-16862189D01*
X270836212Y-16863943D01*
X270836216Y-16863945D01*
X270915549Y-16909748D01*
X271143880Y-17041575D01*
X271147101Y-17042982D01*
X271469422Y-17183801D01*
X271469432Y-17183805D01*
X271472644Y-17185208D01*
X271476001Y-17186247D01*
X271476006Y-17186249D01*
X271536481Y-17204969D01*
X271815370Y-17291300D01*
X272167787Y-17358527D01*
X272364371Y-17373653D01*
X272522003Y-17385782D01*
X272522004Y-17385782D01*
X272525500Y-17386051D01*
X272742801Y-17378463D01*
X272880538Y-17373653D01*
X272880543Y-17373653D01*
X272884053Y-17373530D01*
X272887534Y-17373016D01*
X273235483Y-17321636D01*
X273235489Y-17321635D01*
X273238975Y-17321120D01*
X273242379Y-17320221D01*
X273242382Y-17320220D01*
X273582452Y-17230369D01*
X273582453Y-17230369D01*
X273585843Y-17229473D01*
X273920334Y-17099733D01*
X274238278Y-16933516D01*
X274381681Y-16836789D01*
X274532797Y-16734860D01*
X274532799Y-16734859D01*
X274535713Y-16732893D01*
X274808931Y-16500367D01*
X274965251Y-16333904D01*
X275026463Y-16297939D01*
X275097402Y-16300776D01*
X275155547Y-16341517D01*
X275182435Y-16407225D01*
X275183100Y-16420157D01*
X275183100Y-84040154D01*
X275163098Y-84108275D01*
X275109442Y-84154768D01*
X275039168Y-84164872D01*
X274974588Y-84135378D01*
X274962888Y-84123820D01*
X274847645Y-83994019D01*
X274609236Y-83779354D01*
X274583644Y-83756311D01*
X274583641Y-83756309D01*
X274581026Y-83753954D01*
X274578176Y-83751913D01*
X274578169Y-83751908D01*
X274292163Y-83547148D01*
X274292160Y-83547146D01*
X274289309Y-83545105D01*
X273976130Y-83370075D01*
X273645392Y-83231046D01*
X273642023Y-83230055D01*
X273642019Y-83230053D01*
X273490154Y-83185357D01*
X273301218Y-83129750D01*
X273018304Y-83079864D01*
X272951358Y-83068060D01*
X272951356Y-83068060D01*
X272947898Y-83067450D01*
X272944387Y-83067229D01*
X272944386Y-83067229D01*
X272593353Y-83045143D01*
X272593347Y-83045143D01*
X272589835Y-83044922D01*
X272488446Y-83049881D01*
X272234999Y-83062276D01*
X272234991Y-83062277D01*
X272231492Y-83062448D01*
X272228024Y-83063010D01*
X272228021Y-83063010D01*
X271880811Y-83119246D01*
X271880808Y-83119247D01*
X271877336Y-83119809D01*
X271873949Y-83120755D01*
X271873943Y-83120756D01*
X271589806Y-83200089D01*
X271531781Y-83216290D01*
X271402782Y-83268409D01*
X271202398Y-83349369D01*
X271202394Y-83349371D01*
X271199134Y-83350688D01*
X271196047Y-83352357D01*
X271196043Y-83352359D01*
X271149067Y-83377759D01*
X270883542Y-83521328D01*
X270588937Y-83726083D01*
X270586295Y-83728396D01*
X270586291Y-83728399D01*
X270530423Y-83777308D01*
X270318993Y-83962402D01*
X270077072Y-84227338D01*
X269866192Y-84517590D01*
X269864450Y-84520656D01*
X269864449Y-84520658D01*
X269830241Y-84580875D01*
X269688980Y-84829540D01*
X269547645Y-85159299D01*
X269443949Y-85502758D01*
X269379184Y-85855635D01*
X269354157Y-86213532D01*
X269369181Y-86571988D01*
X269424068Y-86926536D01*
X269518134Y-87272756D01*
X269650206Y-87606333D01*
X269651861Y-87609445D01*
X269651863Y-87609450D01*
X269726326Y-87749494D01*
X269818639Y-87923109D01*
X269820624Y-87926007D01*
X269820630Y-87926018D01*
X270019342Y-88216229D01*
X270019347Y-88216235D01*
X270021333Y-88219136D01*
X270023636Y-88221804D01*
X270155728Y-88374834D01*
X270255761Y-88490724D01*
X270382849Y-88608408D01*
X270434278Y-88656032D01*
X270470671Y-88716992D01*
X270468328Y-88787950D01*
X270427995Y-88846377D01*
X270362476Y-88873723D01*
X270348685Y-88874482D01*
X208337734Y-88880301D01*
X208269612Y-88860305D01*
X208223114Y-88806654D01*
X208213004Y-88736381D01*
X208242491Y-88671797D01*
X208256060Y-88658347D01*
X208309058Y-88613242D01*
X208309059Y-88613241D01*
X208311731Y-88610967D01*
X208376942Y-88541524D01*
X208554916Y-88352002D01*
X208554920Y-88351997D01*
X208557327Y-88349434D01*
X208559432Y-88346620D01*
X208559438Y-88346613D01*
X208745200Y-88098299D01*
X208772239Y-88062155D01*
X208953789Y-87752710D01*
X209099715Y-87424956D01*
X209208196Y-87082979D01*
X209277882Y-86731041D01*
X209307903Y-86373528D01*
X209308802Y-86309200D01*
X209309126Y-86285978D01*
X209309126Y-86285966D01*
X209309156Y-86283800D01*
X209305228Y-86213532D01*
X209290549Y-85950988D01*
X209289129Y-85925588D01*
X209282189Y-85884557D01*
X209229886Y-85575322D01*
X209229885Y-85575318D01*
X209229297Y-85571841D01*
X209130406Y-85226969D01*
X209005496Y-84923913D01*
X208995027Y-84898513D01*
X208995023Y-84898505D01*
X208993689Y-84895268D01*
X208886457Y-84700213D01*
X208822543Y-84583954D01*
X208822540Y-84583950D01*
X208820850Y-84580875D01*
X208631961Y-84313107D01*
X208616079Y-84290593D01*
X208616078Y-84290591D01*
X208614043Y-84287707D01*
X208375845Y-84019419D01*
X208109226Y-83779354D01*
X208106376Y-83777313D01*
X208106369Y-83777308D01*
X207820363Y-83572548D01*
X207820360Y-83572546D01*
X207817509Y-83570505D01*
X207504330Y-83395475D01*
X207173592Y-83256446D01*
X207170223Y-83255455D01*
X207170219Y-83255453D01*
X207018354Y-83210757D01*
X206829418Y-83155150D01*
X206546504Y-83105264D01*
X206479558Y-83093460D01*
X206479556Y-83093460D01*
X206476098Y-83092850D01*
X206472587Y-83092629D01*
X206472586Y-83092629D01*
X206121553Y-83070543D01*
X206121547Y-83070543D01*
X206118035Y-83070322D01*
X206016646Y-83075281D01*
X205763199Y-83087676D01*
X205763191Y-83087677D01*
X205759692Y-83087848D01*
X205756224Y-83088410D01*
X205756221Y-83088410D01*
X205409011Y-83144646D01*
X205409008Y-83144647D01*
X205405536Y-83145209D01*
X205402149Y-83146155D01*
X205402143Y-83146156D01*
X205154345Y-83215343D01*
X205059981Y-83241690D01*
X204957218Y-83283209D01*
X204730598Y-83374769D01*
X204730594Y-83374771D01*
X204727334Y-83376088D01*
X204724247Y-83377757D01*
X204724243Y-83377759D01*
X204677267Y-83403159D01*
X204411742Y-83546728D01*
X204117137Y-83751483D01*
X203847193Y-83987802D01*
X203818323Y-84019419D01*
X203628466Y-84227338D01*
X203605272Y-84252738D01*
X203394392Y-84542990D01*
X203392650Y-84546056D01*
X203392649Y-84546058D01*
X203358441Y-84606275D01*
X203217180Y-84854940D01*
X203198505Y-84898513D01*
X203085288Y-85162668D01*
X203075845Y-85184699D01*
X203074828Y-85188068D01*
X202979818Y-85502758D01*
X202972149Y-85528158D01*
X202971513Y-85531625D01*
X202912046Y-85855635D01*
X202907384Y-85881035D01*
X202882357Y-86238932D01*
X202897381Y-86597388D01*
X202952268Y-86951936D01*
X203046334Y-87298156D01*
X203097811Y-87428172D01*
X203169584Y-87609450D01*
X203178406Y-87631733D01*
X203346839Y-87948509D01*
X203348824Y-87951407D01*
X203348830Y-87951418D01*
X203547542Y-88241629D01*
X203547547Y-88241635D01*
X203549533Y-88244536D01*
X203551836Y-88247204D01*
X203759732Y-88488054D01*
X203783961Y-88516124D01*
X203888838Y-88613241D01*
X203941786Y-88662271D01*
X203978179Y-88723231D01*
X203975836Y-88794189D01*
X203935503Y-88852616D01*
X203869984Y-88879962D01*
X203856189Y-88880721D01*
X74287155Y-88892879D01*
X74219032Y-88872883D01*
X74172534Y-88819232D01*
X74162424Y-88748959D01*
X74191911Y-88684375D01*
X74205480Y-88670925D01*
X74215649Y-88662271D01*
X74275931Y-88610967D01*
X74341142Y-88541524D01*
X74519116Y-88352002D01*
X74519120Y-88351997D01*
X74521527Y-88349434D01*
X74523632Y-88346620D01*
X74523638Y-88346613D01*
X74709400Y-88098299D01*
X74736439Y-88062155D01*
X74917989Y-87752710D01*
X75063915Y-87424956D01*
X75172396Y-87082979D01*
X75242082Y-86731041D01*
X75272103Y-86373528D01*
X75273002Y-86309200D01*
X75273326Y-86285978D01*
X75273326Y-86285966D01*
X75273356Y-86283800D01*
X75269428Y-86213532D01*
X75254749Y-85950988D01*
X75253329Y-85925588D01*
X75246389Y-85884557D01*
X75194086Y-85575322D01*
X75194085Y-85575318D01*
X75193497Y-85571841D01*
X75094606Y-85226969D01*
X74969696Y-84923913D01*
X74959227Y-84898513D01*
X74959223Y-84898505D01*
X74957889Y-84895268D01*
X74850657Y-84700213D01*
X74786743Y-84583954D01*
X74786740Y-84583950D01*
X74785050Y-84580875D01*
X74596161Y-84313107D01*
X74580279Y-84290593D01*
X74580278Y-84290591D01*
X74578243Y-84287707D01*
X74340045Y-84019419D01*
X74073426Y-83779354D01*
X74070576Y-83777313D01*
X74070569Y-83777308D01*
X73784563Y-83572548D01*
X73784560Y-83572546D01*
X73781709Y-83570505D01*
X73468530Y-83395475D01*
X73137792Y-83256446D01*
X73134423Y-83255455D01*
X73134419Y-83255453D01*
X72982554Y-83210757D01*
X72793618Y-83155150D01*
X72510704Y-83105264D01*
X72443758Y-83093460D01*
X72443756Y-83093460D01*
X72440298Y-83092850D01*
X72436787Y-83092629D01*
X72436786Y-83092629D01*
X72085753Y-83070543D01*
X72085747Y-83070543D01*
X72082235Y-83070322D01*
X71980846Y-83075281D01*
X71727399Y-83087676D01*
X71727391Y-83087677D01*
X71723892Y-83087848D01*
X71720424Y-83088410D01*
X71720421Y-83088410D01*
X71373211Y-83144646D01*
X71373208Y-83144647D01*
X71369736Y-83145209D01*
X71366349Y-83146155D01*
X71366343Y-83146156D01*
X71118545Y-83215343D01*
X71024181Y-83241690D01*
X70921418Y-83283209D01*
X70694798Y-83374769D01*
X70694794Y-83374771D01*
X70691534Y-83376088D01*
X70688447Y-83377757D01*
X70688443Y-83377759D01*
X70641467Y-83403159D01*
X70375942Y-83546728D01*
X70081337Y-83751483D01*
X69811393Y-83987802D01*
X69782523Y-84019419D01*
X69592666Y-84227338D01*
X69569472Y-84252738D01*
X69358592Y-84542990D01*
X69356850Y-84546056D01*
X69356849Y-84546058D01*
X69322641Y-84606275D01*
X69181380Y-84854940D01*
X69162705Y-84898513D01*
X69049488Y-85162668D01*
X69040045Y-85184699D01*
X69039028Y-85188068D01*
X68944018Y-85502758D01*
X68936349Y-85528158D01*
X68935713Y-85531625D01*
X68876246Y-85855635D01*
X68871584Y-85881035D01*
X68846557Y-86238932D01*
X68861581Y-86597388D01*
X68916468Y-86951936D01*
X69010534Y-87298156D01*
X69062011Y-87428172D01*
X69133784Y-87609450D01*
X69142606Y-87631733D01*
X69311039Y-87948509D01*
X69313024Y-87951407D01*
X69313030Y-87951418D01*
X69511742Y-88241629D01*
X69511747Y-88241635D01*
X69513733Y-88244536D01*
X69516036Y-88247204D01*
X69723932Y-88488054D01*
X69748161Y-88516124D01*
X69916273Y-88671797D01*
X69919567Y-88674847D01*
X69955959Y-88735807D01*
X69953616Y-88806765D01*
X69913282Y-88865192D01*
X69847764Y-88892538D01*
X69833976Y-88893297D01*
X7812471Y-88899117D01*
X7744348Y-88879121D01*
X7697850Y-88825470D01*
X7687740Y-88755197D01*
X7717227Y-88690613D01*
X7730796Y-88677163D01*
X7776058Y-88638642D01*
X7776059Y-88638641D01*
X7778731Y-88636367D01*
X7826435Y-88585567D01*
X8021916Y-88377402D01*
X8021920Y-88377397D01*
X8024327Y-88374834D01*
X8026432Y-88372020D01*
X8026438Y-88372013D01*
X8237130Y-88090374D01*
X8239239Y-88087555D01*
X8245968Y-88076087D01*
X8337546Y-87919994D01*
X8420789Y-87778110D01*
X8566715Y-87450356D01*
X8675196Y-87108379D01*
X8744882Y-86756441D01*
X8774903Y-86398928D01*
X8775228Y-86375712D01*
X8776126Y-86311378D01*
X8776126Y-86311366D01*
X8776156Y-86309200D01*
X8774615Y-86281628D01*
X8756325Y-85954501D01*
X8756129Y-85950988D01*
X8696297Y-85597241D01*
X8597406Y-85252369D01*
X8549262Y-85135562D01*
X8462027Y-84923913D01*
X8462023Y-84923905D01*
X8460689Y-84920668D01*
X8287850Y-84606275D01*
X8081043Y-84313107D01*
X7842845Y-84044819D01*
X7576226Y-83804754D01*
X7573376Y-83802713D01*
X7573369Y-83802708D01*
X7287363Y-83597948D01*
X7287360Y-83597946D01*
X7284509Y-83595905D01*
X6971330Y-83420875D01*
X6640592Y-83281846D01*
X6637223Y-83280855D01*
X6637219Y-83280853D01*
X6472620Y-83232409D01*
X6296418Y-83180550D01*
X6004864Y-83129141D01*
X5946558Y-83118860D01*
X5946556Y-83118860D01*
X5943098Y-83118250D01*
X5939587Y-83118029D01*
X5939586Y-83118029D01*
X5588553Y-83095943D01*
X5588547Y-83095943D01*
X5585035Y-83095722D01*
X5483646Y-83100681D01*
X5230199Y-83113076D01*
X5230191Y-83113077D01*
X5226692Y-83113248D01*
X5223224Y-83113810D01*
X5223221Y-83113810D01*
X4876011Y-83170046D01*
X4876008Y-83170047D01*
X4872536Y-83170609D01*
X4869149Y-83171555D01*
X4869143Y-83171556D01*
X4651194Y-83232409D01*
X4526981Y-83267090D01*
X4360657Y-83334289D01*
X4197598Y-83400169D01*
X4197594Y-83400171D01*
X4194334Y-83401488D01*
X4191247Y-83403157D01*
X4191243Y-83403159D01*
X4155299Y-83422594D01*
X3878742Y-83572128D01*
X3584137Y-83776883D01*
X3314193Y-84013202D01*
X3311818Y-84015803D01*
X3192711Y-84146241D01*
X3132006Y-84183058D01*
X3061034Y-84181210D01*
X3002327Y-84141286D01*
X2974524Y-84075959D01*
X2973666Y-84061237D01*
X2973692Y-83985483D01*
X2996015Y-17348253D01*
X2996335Y-16394472D01*
X3016360Y-16326358D01*
X3070031Y-16279883D01*
X3140308Y-16269803D01*
X3204879Y-16299317D01*
X3217716Y-16312183D01*
X3229952Y-16326358D01*
X3276361Y-16380124D01*
X3539602Y-16623887D01*
X3542428Y-16625970D01*
X3542431Y-16625973D01*
X3576883Y-16651373D01*
X3828375Y-16836789D01*
X3831412Y-16838543D01*
X3831416Y-16838545D01*
X3872369Y-16862189D01*
X4139080Y-17016175D01*
X4200439Y-17042982D01*
X4464622Y-17158401D01*
X4464632Y-17158405D01*
X4467844Y-17159808D01*
X4471201Y-17160847D01*
X4471206Y-17160849D01*
X4606744Y-17202805D01*
X4810570Y-17265900D01*
X5162987Y-17333127D01*
X5359571Y-17348253D01*
X5517203Y-17360382D01*
X5517204Y-17360382D01*
X5520700Y-17360651D01*
X5738001Y-17353063D01*
X5875738Y-17348253D01*
X5875743Y-17348253D01*
X5879253Y-17348130D01*
X5882734Y-17347616D01*
X6230683Y-17296236D01*
X6230689Y-17296235D01*
X6234175Y-17295720D01*
X6237579Y-17294821D01*
X6237582Y-17294820D01*
X6577652Y-17204969D01*
X6577653Y-17204969D01*
X6581043Y-17204073D01*
X6915534Y-17074333D01*
X7233478Y-16908116D01*
X7530913Y-16707493D01*
X7804131Y-16474967D01*
X7855601Y-16420157D01*
X8047316Y-16216002D01*
X8047320Y-16215997D01*
X8049727Y-16213434D01*
X8051832Y-16210620D01*
X8051838Y-16210613D01*
X8262530Y-15928974D01*
X8264639Y-15926155D01*
X8446189Y-15616710D01*
X8592115Y-15288956D01*
X8700596Y-14946979D01*
X8770282Y-14595041D01*
X8800303Y-14237528D01*
X8801556Y-14147800D01*
X8781529Y-13789588D01*
X8774589Y-13748557D01*
X8722286Y-13439322D01*
X8722285Y-13439318D01*
X8721697Y-13435841D01*
X8622806Y-13090969D01*
X8574662Y-12974162D01*
X8487427Y-12762513D01*
X8487423Y-12762505D01*
X8486089Y-12759268D01*
X8313250Y-12444875D01*
X8106443Y-12151707D01*
X7868245Y-11883419D01*
X7750204Y-11777134D01*
X7712966Y-11716690D01*
X7714318Y-11645706D01*
X7753832Y-11586722D01*
X7818962Y-11558464D01*
X7834516Y-11557500D01*
X78778554Y-11557500D01*
X78846675Y-11577502D01*
G37*
%TD.AperFunction*%
M02*
