M48
; DRILL file {KiCad (6.0.7)} date Tue Jan 10 09:53:28 2023
; FORMAT={-:-/ absolute / inch / decimal}
; #@! TF.CreationDate,2023-01-10T09:53:28+01:00
; #@! TF.GenerationSoftware,Kicad,Pcbnew,(6.0.7)
; #@! TF.FileFunction,Plated,1,2,PTH
FMAT,2
INCH
; #@! TA.AperFunction,Plated,PTH,ViaDrill
T1C0.0157
; #@! TA.AperFunction,Plated,PTH,ComponentDrill
T2C0.0315
; #@! TA.AperFunction,Plated,PTH,ComponentDrill
T3C0.0394
; #@! TA.AperFunction,Plated,PTH,ComponentDrill
T4C0.0430
; #@! TA.AperFunction,Plated,PTH,ComponentDrill
T5C0.0579
; #@! TA.AperFunction,Plated,PTH,ComponentDrill
T6C0.0591
%
G90
G05
T1
X4.5079Y-1.3373
X5.4427Y-1.911
X5.5403Y-1.7136
X5.7153Y-1.9787
X6.365Y-1.39
X6.42Y-1.395
T2
X4.75Y-0.535
X4.75Y-0.635
X4.75Y-0.735
X4.75Y-0.835
X4.75Y-0.935
X4.75Y-1.035
X4.75Y-1.135
X4.75Y-1.235
X4.75Y-1.335
X4.75Y-1.435
X4.75Y-1.535
X4.75Y-1.635
X4.75Y-1.735
X4.75Y-1.835
X4.75Y-1.935
X4.75Y-2.035
X4.75Y-2.135
X4.75Y-2.235
X4.75Y-2.335
X4.75Y-2.435
X4.75Y-2.535
X4.75Y-2.635
X5.05Y-0.535
X5.05Y-0.635
X5.05Y-0.735
X5.05Y-0.835
X5.05Y-0.935
X5.05Y-1.035
X5.05Y-1.135
X5.05Y-1.235
X5.05Y-1.335
X5.05Y-1.435
X5.05Y-1.535
X5.05Y-1.635
X5.05Y-1.735
X5.05Y-1.835
X5.05Y-1.935
X5.05Y-2.035
X5.05Y-2.135
X5.05Y-2.235
X5.05Y-2.335
X5.05Y-2.435
X5.05Y-2.535
X5.05Y-2.635
X5.34Y-2.64
X5.64Y-2.64
X5.9Y-0.535
X5.9Y-0.635
X5.9Y-0.735
X5.9Y-0.835
X5.9Y-0.935
X5.9Y-1.035
X5.9Y-1.135
X5.9Y-1.235
X5.9Y-1.335
X5.9Y-1.435
X5.9Y-1.535
X5.9Y-1.635
X5.9Y-1.735
X5.9Y-1.835
X5.9Y-1.935
X5.9Y-2.035
X5.9Y-2.135
X5.9Y-2.235
X5.9Y-2.335
X5.9Y-2.435
X5.9Y-2.535
X5.9Y-2.635
X6.2Y-0.535
X6.2Y-0.635
X6.2Y-0.735
X6.2Y-0.835
X6.2Y-0.935
X6.2Y-1.035
X6.2Y-1.135
X6.2Y-1.235
X6.2Y-1.335
X6.2Y-1.435
X6.2Y-1.535
X6.2Y-1.635
X6.2Y-1.735
X6.2Y-1.835
X6.2Y-1.935
X6.2Y-2.035
X6.2Y-2.135
X6.2Y-2.235
X6.2Y-2.335
X6.2Y-2.435
X6.2Y-2.535
X6.2Y-2.635
T3
X5.1847Y-2.1966
X5.1847Y-2.295
X5.1847Y-2.3934
X5.7556Y-2.1966
X5.7556Y-2.3934
T4
X5.175Y-0.5982
X5.175Y-0.6982
X5.175Y-0.7982
X5.175Y-0.8982
X5.175Y-0.9982
X5.175Y-1.0982
X5.175Y-1.1982
X5.175Y-1.2982
X5.175Y-1.3982
X5.175Y-1.4982
X5.175Y-1.5982
X5.175Y-1.6982
X5.775Y-0.5982
X5.775Y-0.6982
X5.775Y-0.7982
X5.775Y-0.8982
X5.775Y-0.9982
X5.775Y-1.0982
X5.775Y-1.1982
X5.775Y-1.2982
X5.775Y-1.3982
X5.775Y-1.4982
X5.775Y-1.5982
X5.775Y-1.6982
T5
X0.4125Y-0.745
X0.4125Y-1.495
X0.4125Y-2.245
X0.4125Y-2.995
X0.6625Y-0.645
X0.6625Y-1.395
X0.6625Y-2.145
X0.6625Y-2.895
X1.1625Y-0.745
X1.1625Y-1.495
X1.1625Y-2.245
X1.256Y-2.995
X1.4125Y-0.645
X1.4125Y-1.395
X1.4125Y-2.145
X1.506Y-2.895
X1.9125Y-0.745
X1.9125Y-1.495
X1.9125Y-2.245
X2.1625Y-0.645
X2.1625Y-1.395
X2.1625Y-2.145
X2.414Y-2.995
X2.6625Y-0.745
X2.6625Y-1.495
X2.6625Y-2.245
X2.664Y-2.895
X2.9125Y-0.645
X2.9125Y-1.395
X2.9125Y-2.145
X3.4125Y-0.745
X3.4125Y-1.495
X3.4125Y-2.245
X3.6625Y-0.645
X3.6625Y-1.395
X3.6625Y-2.145
X4.008Y-2.995
X4.1625Y-0.745
X4.1625Y-1.495
X4.1625Y-2.245
X4.258Y-2.895
X4.4125Y-0.645
X4.4125Y-1.395
X4.4125Y-2.145
X6.49Y-0.745
X6.49Y-1.495
X6.49Y-2.245
X6.6434Y-2.9952
X6.74Y-0.645
X6.74Y-1.395
X6.74Y-2.145
X6.8934Y-2.8952
X7.24Y-0.745
X7.24Y-1.495
X7.24Y-2.245
X7.49Y-0.645
X7.49Y-1.395
X7.49Y-2.145
X7.99Y-0.745
X7.99Y-1.495
X7.99Y-2.245
X8.237Y-2.995
X8.24Y-0.645
X8.24Y-1.395
X8.24Y-2.145
X8.487Y-2.895
X8.74Y-0.745
X8.74Y-1.495
X8.74Y-2.245
X8.99Y-0.645
X8.99Y-1.395
X8.99Y-2.145
X9.396Y-2.995
X9.49Y-0.745
X9.49Y-1.495
X9.49Y-2.245
X9.646Y-2.895
X9.74Y-0.645
X9.74Y-1.395
X9.74Y-2.145
X10.24Y-0.745
X10.24Y-1.495
X10.24Y-2.245
X10.24Y-2.995
X10.49Y-0.645
X10.49Y-1.395
X10.49Y-2.145
X10.49Y-2.895
T6
G00X5.4544Y-2.0745
M15
G01X5.5056Y-2.0745
M16
G05
G00X5.4544Y-2.5155
M15
G01X5.5056Y-2.5155
M16
G05
T0
M30
