%TF.GenerationSoftware,KiCad,Pcbnew,(6.0.7)*%
%TF.CreationDate,2023-01-10T09:57:21+01:00*%
%TF.ProjectId,skoosk pcb simple,736b6f6f-736b-4207-9063-622073696d70,rev?*%
%TF.SameCoordinates,Original*%
%TF.FileFunction,Legend,Top*%
%TF.FilePolarity,Positive*%
%FSLAX46Y46*%
G04 Gerber Fmt 4.6, Leading zero omitted, Abs format (unit mm)*
G04 Created by KiCad (PCBNEW (6.0.7)) date 2023-01-10 09:57:21*
%MOMM*%
%LPD*%
G01*
G04 APERTURE LIST*
%ADD10C,0.150000*%
%ADD11C,0.120000*%
%ADD12C,0.381000*%
%ADD13R,1.752600X1.752600*%
%ADD14C,1.752600*%
G04 APERTURE END LIST*
D10*
%TO.C,U1*%
X133013523Y-28256604D02*
X133013523Y-27456604D01*
X133204000Y-27456604D01*
X133318285Y-27494700D01*
X133394476Y-27570890D01*
X133432571Y-27647080D01*
X133470666Y-27799461D01*
X133470666Y-27913747D01*
X133432571Y-28066128D01*
X133394476Y-28142319D01*
X133318285Y-28218509D01*
X133204000Y-28256604D01*
X133013523Y-28256604D01*
X133965904Y-27456604D02*
X134042095Y-27456604D01*
X134118285Y-27494700D01*
X134156380Y-27532795D01*
X134194476Y-27608985D01*
X134232571Y-27761366D01*
X134232571Y-27951842D01*
X134194476Y-28104223D01*
X134156380Y-28180414D01*
X134118285Y-28218509D01*
X134042095Y-28256604D01*
X133965904Y-28256604D01*
X133889714Y-28218509D01*
X133851619Y-28180414D01*
X133813523Y-28104223D01*
X133775428Y-27951842D01*
X133775428Y-27761366D01*
X133813523Y-27608985D01*
X133851619Y-27532795D01*
X133889714Y-27494700D01*
X133965904Y-27456604D01*
X144202190Y-35457557D02*
X144316476Y-35495652D01*
X144354571Y-35533747D01*
X144392666Y-35609938D01*
X144392666Y-35724223D01*
X144354571Y-35800414D01*
X144316476Y-35838509D01*
X144240285Y-35876604D01*
X143935523Y-35876604D01*
X143935523Y-35076604D01*
X144202190Y-35076604D01*
X144278380Y-35114700D01*
X144316476Y-35152795D01*
X144354571Y-35228985D01*
X144354571Y-35305176D01*
X144316476Y-35381366D01*
X144278380Y-35419461D01*
X144202190Y-35457557D01*
X143935523Y-35457557D01*
X145154571Y-35876604D02*
X144697428Y-35876604D01*
X144926000Y-35876604D02*
X144926000Y-35076604D01*
X144849809Y-35190890D01*
X144773619Y-35267080D01*
X144697428Y-35305176D01*
X133280190Y-40537557D02*
X133394476Y-40575652D01*
X133432571Y-40613747D01*
X133470666Y-40689938D01*
X133470666Y-40804223D01*
X133432571Y-40880414D01*
X133394476Y-40918509D01*
X133318285Y-40956604D01*
X133013523Y-40956604D01*
X133013523Y-40156604D01*
X133280190Y-40156604D01*
X133356380Y-40194700D01*
X133394476Y-40232795D01*
X133432571Y-40308985D01*
X133432571Y-40385176D01*
X133394476Y-40461366D01*
X133356380Y-40499461D01*
X133280190Y-40537557D01*
X133013523Y-40537557D01*
X134156380Y-40423271D02*
X134156380Y-40956604D01*
X133965904Y-40118509D02*
X133775428Y-40689938D01*
X134270666Y-40689938D01*
X144259333Y-25297557D02*
X143992666Y-25297557D01*
X143992666Y-25716604D02*
X143992666Y-24916604D01*
X144373619Y-24916604D01*
X145021238Y-25183271D02*
X145021238Y-25716604D01*
X144830761Y-24878509D02*
X144640285Y-25449938D01*
X145135523Y-25449938D01*
X133013523Y-18096604D02*
X133013523Y-17296604D01*
X133204000Y-17296604D01*
X133318285Y-17334700D01*
X133394476Y-17410890D01*
X133432571Y-17487080D01*
X133470666Y-17639461D01*
X133470666Y-17753747D01*
X133432571Y-17906128D01*
X133394476Y-17982319D01*
X133318285Y-18058509D01*
X133204000Y-18096604D01*
X133013523Y-18096604D01*
X133775428Y-17372795D02*
X133813523Y-17334700D01*
X133889714Y-17296604D01*
X134080190Y-17296604D01*
X134156380Y-17334700D01*
X134194476Y-17372795D01*
X134232571Y-17448985D01*
X134232571Y-17525176D01*
X134194476Y-17639461D01*
X133737333Y-18096604D01*
X134232571Y-18096604D01*
X133302651Y-14756604D02*
X133759794Y-14756604D01*
X133531223Y-15556604D02*
X133531223Y-14756604D01*
X133950270Y-14756604D02*
X134483604Y-15556604D01*
X134483604Y-14756604D02*
X133950270Y-15556604D01*
X134940747Y-14756604D02*
X135016937Y-14756604D01*
X135093128Y-14794700D01*
X135131223Y-14832795D01*
X135169318Y-14908985D01*
X135207413Y-15061366D01*
X135207413Y-15251842D01*
X135169318Y-15404223D01*
X135131223Y-15480414D01*
X135093128Y-15518509D01*
X135016937Y-15556604D01*
X134940747Y-15556604D01*
X134864556Y-15518509D01*
X134826461Y-15480414D01*
X134788366Y-15404223D01*
X134750270Y-15251842D01*
X134750270Y-15061366D01*
X134788366Y-14908985D01*
X134826461Y-14832795D01*
X134864556Y-14794700D01*
X134940747Y-14756604D01*
X136121699Y-14718509D02*
X135435985Y-15747080D01*
X136388366Y-15556604D02*
X136388366Y-14756604D01*
X136578842Y-14756604D01*
X136693128Y-14794700D01*
X136769318Y-14870890D01*
X136807413Y-14947080D01*
X136845508Y-15099461D01*
X136845508Y-15213747D01*
X136807413Y-15366128D01*
X136769318Y-15442319D01*
X136693128Y-15518509D01*
X136578842Y-15556604D01*
X136388366Y-15556604D01*
X137112175Y-14756604D02*
X137607413Y-14756604D01*
X137340747Y-15061366D01*
X137455032Y-15061366D01*
X137531223Y-15099461D01*
X137569318Y-15137557D01*
X137607413Y-15213747D01*
X137607413Y-15404223D01*
X137569318Y-15480414D01*
X137531223Y-15518509D01*
X137455032Y-15556604D01*
X137226461Y-15556604D01*
X137150270Y-15518509D01*
X137112175Y-15480414D01*
X133280190Y-43077557D02*
X133394476Y-43115652D01*
X133432571Y-43153747D01*
X133470666Y-43229938D01*
X133470666Y-43344223D01*
X133432571Y-43420414D01*
X133394476Y-43458509D01*
X133318285Y-43496604D01*
X133013523Y-43496604D01*
X133013523Y-42696604D01*
X133280190Y-42696604D01*
X133356380Y-42734700D01*
X133394476Y-42772795D01*
X133432571Y-42848985D01*
X133432571Y-42925176D01*
X133394476Y-43001366D01*
X133356380Y-43039461D01*
X133280190Y-43077557D01*
X133013523Y-43077557D01*
X134194476Y-42696604D02*
X133813523Y-42696604D01*
X133775428Y-43077557D01*
X133813523Y-43039461D01*
X133889714Y-43001366D01*
X134080190Y-43001366D01*
X134156380Y-43039461D01*
X134194476Y-43077557D01*
X134232571Y-43153747D01*
X134232571Y-43344223D01*
X134194476Y-43420414D01*
X134156380Y-43458509D01*
X134080190Y-43496604D01*
X133889714Y-43496604D01*
X133813523Y-43458509D01*
X133775428Y-43420414D01*
X144202190Y-40537557D02*
X144316476Y-40575652D01*
X144354571Y-40613747D01*
X144392666Y-40689938D01*
X144392666Y-40804223D01*
X144354571Y-40880414D01*
X144316476Y-40918509D01*
X144240285Y-40956604D01*
X143935523Y-40956604D01*
X143935523Y-40156604D01*
X144202190Y-40156604D01*
X144278380Y-40194700D01*
X144316476Y-40232795D01*
X144354571Y-40308985D01*
X144354571Y-40385176D01*
X144316476Y-40461366D01*
X144278380Y-40499461D01*
X144202190Y-40537557D01*
X143935523Y-40537557D01*
X144697428Y-40232795D02*
X144735523Y-40194700D01*
X144811714Y-40156604D01*
X145002190Y-40156604D01*
X145078380Y-40194700D01*
X145116476Y-40232795D01*
X145154571Y-40308985D01*
X145154571Y-40385176D01*
X145116476Y-40499461D01*
X144659333Y-40956604D01*
X145154571Y-40956604D01*
X144259333Y-32917557D02*
X143992666Y-32917557D01*
X143992666Y-33336604D02*
X143992666Y-32536604D01*
X144373619Y-32536604D01*
X144602190Y-32536604D02*
X145135523Y-32536604D01*
X144792666Y-33336604D01*
X132994476Y-22414700D02*
X132918285Y-22376604D01*
X132804000Y-22376604D01*
X132689714Y-22414700D01*
X132613523Y-22490890D01*
X132575428Y-22567080D01*
X132537333Y-22719461D01*
X132537333Y-22833747D01*
X132575428Y-22986128D01*
X132613523Y-23062319D01*
X132689714Y-23138509D01*
X132804000Y-23176604D01*
X132880190Y-23176604D01*
X132994476Y-23138509D01*
X133032571Y-23100414D01*
X133032571Y-22833747D01*
X132880190Y-22833747D01*
X133375428Y-23176604D02*
X133375428Y-22376604D01*
X133832571Y-23176604D01*
X133832571Y-22376604D01*
X134213523Y-23176604D02*
X134213523Y-22376604D01*
X134404000Y-22376604D01*
X134518285Y-22414700D01*
X134594476Y-22490890D01*
X134632571Y-22567080D01*
X134670666Y-22719461D01*
X134670666Y-22833747D01*
X134632571Y-22986128D01*
X134594476Y-23062319D01*
X134518285Y-23138509D01*
X134404000Y-23176604D01*
X134213523Y-23176604D01*
X144202190Y-37997557D02*
X144316476Y-38035652D01*
X144354571Y-38073747D01*
X144392666Y-38149938D01*
X144392666Y-38264223D01*
X144354571Y-38340414D01*
X144316476Y-38378509D01*
X144240285Y-38416604D01*
X143935523Y-38416604D01*
X143935523Y-37616604D01*
X144202190Y-37616604D01*
X144278380Y-37654700D01*
X144316476Y-37692795D01*
X144354571Y-37768985D01*
X144354571Y-37845176D01*
X144316476Y-37921366D01*
X144278380Y-37959461D01*
X144202190Y-37997557D01*
X143935523Y-37997557D01*
X144659333Y-37616604D02*
X145154571Y-37616604D01*
X144887904Y-37921366D01*
X145002190Y-37921366D01*
X145078380Y-37959461D01*
X145116476Y-37997557D01*
X145154571Y-38073747D01*
X145154571Y-38264223D01*
X145116476Y-38340414D01*
X145078380Y-38378509D01*
X145002190Y-38416604D01*
X144773619Y-38416604D01*
X144697428Y-38378509D01*
X144659333Y-38340414D01*
X144259333Y-30377557D02*
X143992666Y-30377557D01*
X143992666Y-30796604D02*
X143992666Y-29996604D01*
X144373619Y-29996604D01*
X145021238Y-29996604D02*
X144868857Y-29996604D01*
X144792666Y-30034700D01*
X144754571Y-30072795D01*
X144678380Y-30187080D01*
X144640285Y-30339461D01*
X144640285Y-30644223D01*
X144678380Y-30720414D01*
X144716476Y-30758509D01*
X144792666Y-30796604D01*
X144945047Y-30796604D01*
X145021238Y-30758509D01*
X145059333Y-30720414D01*
X145097428Y-30644223D01*
X145097428Y-30453747D01*
X145059333Y-30377557D01*
X145021238Y-30339461D01*
X144945047Y-30301366D01*
X144792666Y-30301366D01*
X144716476Y-30339461D01*
X144678380Y-30377557D01*
X144640285Y-30453747D01*
X144264786Y-20568509D02*
X144379072Y-20606604D01*
X144569548Y-20606604D01*
X144645739Y-20568509D01*
X144683834Y-20530414D01*
X144721929Y-20454223D01*
X144721929Y-20378033D01*
X144683834Y-20301842D01*
X144645739Y-20263747D01*
X144569548Y-20225652D01*
X144417167Y-20187557D01*
X144340977Y-20149461D01*
X144302881Y-20111366D01*
X144264786Y-20035176D01*
X144264786Y-19958985D01*
X144302881Y-19882795D01*
X144340977Y-19844700D01*
X144417167Y-19806604D01*
X144607643Y-19806604D01*
X144721929Y-19844700D01*
X144950500Y-19806604D02*
X145407643Y-19806604D01*
X145179072Y-20606604D02*
X145179072Y-19806604D01*
X132994476Y-19874700D02*
X132918285Y-19836604D01*
X132804000Y-19836604D01*
X132689714Y-19874700D01*
X132613523Y-19950890D01*
X132575428Y-20027080D01*
X132537333Y-20179461D01*
X132537333Y-20293747D01*
X132575428Y-20446128D01*
X132613523Y-20522319D01*
X132689714Y-20598509D01*
X132804000Y-20636604D01*
X132880190Y-20636604D01*
X132994476Y-20598509D01*
X133032571Y-20560414D01*
X133032571Y-20293747D01*
X132880190Y-20293747D01*
X133375428Y-20636604D02*
X133375428Y-19836604D01*
X133832571Y-20636604D01*
X133832571Y-19836604D01*
X134213523Y-20636604D02*
X134213523Y-19836604D01*
X134404000Y-19836604D01*
X134518285Y-19874700D01*
X134594476Y-19950890D01*
X134632571Y-20027080D01*
X134670666Y-20179461D01*
X134670666Y-20293747D01*
X134632571Y-20446128D01*
X134594476Y-20522319D01*
X134518285Y-20598509D01*
X134404000Y-20636604D01*
X134213523Y-20636604D01*
X143973619Y-15556604D02*
X143706952Y-15175652D01*
X143516476Y-15556604D02*
X143516476Y-14756604D01*
X143821238Y-14756604D01*
X143897428Y-14794700D01*
X143935523Y-14832795D01*
X143973619Y-14908985D01*
X143973619Y-15023271D01*
X143935523Y-15099461D01*
X143897428Y-15137557D01*
X143821238Y-15175652D01*
X143516476Y-15175652D01*
X144278380Y-15328033D02*
X144659333Y-15328033D01*
X144202190Y-15556604D02*
X144468857Y-14756604D01*
X144735523Y-15556604D01*
X144926000Y-14756604D02*
X145116476Y-15556604D01*
X145268857Y-14985176D01*
X145421238Y-15556604D01*
X145611714Y-14756604D01*
X144259333Y-27837557D02*
X143992666Y-27837557D01*
X143992666Y-28256604D02*
X143992666Y-27456604D01*
X144373619Y-27456604D01*
X145059333Y-27456604D02*
X144678380Y-27456604D01*
X144640285Y-27837557D01*
X144678380Y-27799461D01*
X144754571Y-27761366D01*
X144945047Y-27761366D01*
X145021238Y-27799461D01*
X145059333Y-27837557D01*
X145097428Y-27913747D01*
X145097428Y-28104223D01*
X145059333Y-28180414D01*
X145021238Y-28218509D01*
X144945047Y-28256604D01*
X144754571Y-28256604D01*
X144678380Y-28218509D01*
X144640285Y-28180414D01*
X133013523Y-35876604D02*
X133013523Y-35076604D01*
X133204000Y-35076604D01*
X133318285Y-35114700D01*
X133394476Y-35190890D01*
X133432571Y-35267080D01*
X133470666Y-35419461D01*
X133470666Y-35533747D01*
X133432571Y-35686128D01*
X133394476Y-35762319D01*
X133318285Y-35838509D01*
X133204000Y-35876604D01*
X133013523Y-35876604D01*
X133737333Y-35076604D02*
X134270666Y-35076604D01*
X133927809Y-35876604D01*
X133013523Y-25716604D02*
X133013523Y-24916604D01*
X133204000Y-24916604D01*
X133318285Y-24954700D01*
X133394476Y-25030890D01*
X133432571Y-25107080D01*
X133470666Y-25259461D01*
X133470666Y-25373747D01*
X133432571Y-25526128D01*
X133394476Y-25602319D01*
X133318285Y-25678509D01*
X133204000Y-25716604D01*
X133013523Y-25716604D01*
X134232571Y-25716604D02*
X133775428Y-25716604D01*
X134004000Y-25716604D02*
X134004000Y-24916604D01*
X133927809Y-25030890D01*
X133851619Y-25107080D01*
X133775428Y-25145176D01*
X133470666Y-33260414D02*
X133432571Y-33298509D01*
X133318285Y-33336604D01*
X133242095Y-33336604D01*
X133127809Y-33298509D01*
X133051619Y-33222319D01*
X133013523Y-33146128D01*
X132975428Y-32993747D01*
X132975428Y-32879461D01*
X133013523Y-32727080D01*
X133051619Y-32650890D01*
X133127809Y-32574700D01*
X133242095Y-32536604D01*
X133318285Y-32536604D01*
X133432571Y-32574700D01*
X133470666Y-32612795D01*
X134156380Y-32536604D02*
X134004000Y-32536604D01*
X133927809Y-32574700D01*
X133889714Y-32612795D01*
X133813523Y-32727080D01*
X133775428Y-32879461D01*
X133775428Y-33184223D01*
X133813523Y-33260414D01*
X133851619Y-33298509D01*
X133927809Y-33336604D01*
X134080190Y-33336604D01*
X134156380Y-33298509D01*
X134194476Y-33260414D01*
X134232571Y-33184223D01*
X134232571Y-32993747D01*
X134194476Y-32917557D01*
X134156380Y-32879461D01*
X134080190Y-32841366D01*
X133927809Y-32841366D01*
X133851619Y-32879461D01*
X133813523Y-32917557D01*
X133775428Y-32993747D01*
X133051619Y-37997557D02*
X133318285Y-37997557D01*
X133432571Y-38416604D02*
X133051619Y-38416604D01*
X133051619Y-37616604D01*
X133432571Y-37616604D01*
X134118285Y-37616604D02*
X133965904Y-37616604D01*
X133889714Y-37654700D01*
X133851619Y-37692795D01*
X133775428Y-37807080D01*
X133737333Y-37959461D01*
X133737333Y-38264223D01*
X133775428Y-38340414D01*
X133813523Y-38378509D01*
X133889714Y-38416604D01*
X134042095Y-38416604D01*
X134118285Y-38378509D01*
X134156380Y-38340414D01*
X134194476Y-38264223D01*
X134194476Y-38073747D01*
X134156380Y-37997557D01*
X134118285Y-37959461D01*
X134042095Y-37921366D01*
X133889714Y-37921366D01*
X133813523Y-37959461D01*
X133775428Y-37997557D01*
X133737333Y-38073747D01*
X143916476Y-17334700D02*
X143840285Y-17296604D01*
X143726000Y-17296604D01*
X143611714Y-17334700D01*
X143535523Y-17410890D01*
X143497428Y-17487080D01*
X143459333Y-17639461D01*
X143459333Y-17753747D01*
X143497428Y-17906128D01*
X143535523Y-17982319D01*
X143611714Y-18058509D01*
X143726000Y-18096604D01*
X143802190Y-18096604D01*
X143916476Y-18058509D01*
X143954571Y-18020414D01*
X143954571Y-17753747D01*
X143802190Y-17753747D01*
X144297428Y-18096604D02*
X144297428Y-17296604D01*
X144754571Y-18096604D01*
X144754571Y-17296604D01*
X145135523Y-18096604D02*
X145135523Y-17296604D01*
X145326000Y-17296604D01*
X145440285Y-17334700D01*
X145516476Y-17410890D01*
X145554571Y-17487080D01*
X145592666Y-17639461D01*
X145592666Y-17753747D01*
X145554571Y-17906128D01*
X145516476Y-17982319D01*
X145440285Y-18058509D01*
X145326000Y-18096604D01*
X145135523Y-18096604D01*
X143459333Y-22376604D02*
X143726000Y-23176604D01*
X143992666Y-22376604D01*
X144716476Y-23100414D02*
X144678380Y-23138509D01*
X144564095Y-23176604D01*
X144487904Y-23176604D01*
X144373619Y-23138509D01*
X144297428Y-23062319D01*
X144259333Y-22986128D01*
X144221238Y-22833747D01*
X144221238Y-22719461D01*
X144259333Y-22567080D01*
X144297428Y-22490890D01*
X144373619Y-22414700D01*
X144487904Y-22376604D01*
X144564095Y-22376604D01*
X144678380Y-22414700D01*
X144716476Y-22452795D01*
X145516476Y-23100414D02*
X145478380Y-23138509D01*
X145364095Y-23176604D01*
X145287904Y-23176604D01*
X145173619Y-23138509D01*
X145097428Y-23062319D01*
X145059333Y-22986128D01*
X145021238Y-22833747D01*
X145021238Y-22719461D01*
X145059333Y-22567080D01*
X145097428Y-22490890D01*
X145173619Y-22414700D01*
X145287904Y-22376604D01*
X145364095Y-22376604D01*
X145478380Y-22414700D01*
X145516476Y-22452795D01*
X133013523Y-30796604D02*
X133013523Y-29996604D01*
X133204000Y-29996604D01*
X133318285Y-30034700D01*
X133394476Y-30110890D01*
X133432571Y-30187080D01*
X133470666Y-30339461D01*
X133470666Y-30453747D01*
X133432571Y-30606128D01*
X133394476Y-30682319D01*
X133318285Y-30758509D01*
X133204000Y-30796604D01*
X133013523Y-30796604D01*
X134156380Y-30263271D02*
X134156380Y-30796604D01*
X133965904Y-29958509D02*
X133775428Y-30529938D01*
X134270666Y-30529938D01*
X144202190Y-43077557D02*
X144316476Y-43115652D01*
X144354571Y-43153747D01*
X144392666Y-43229938D01*
X144392666Y-43344223D01*
X144354571Y-43420414D01*
X144316476Y-43458509D01*
X144240285Y-43496604D01*
X143935523Y-43496604D01*
X143935523Y-42696604D01*
X144202190Y-42696604D01*
X144278380Y-42734700D01*
X144316476Y-42772795D01*
X144354571Y-42848985D01*
X144354571Y-42925176D01*
X144316476Y-43001366D01*
X144278380Y-43039461D01*
X144202190Y-43077557D01*
X143935523Y-43077557D01*
X145078380Y-42696604D02*
X144926000Y-42696604D01*
X144849809Y-42734700D01*
X144811714Y-42772795D01*
X144735523Y-42887080D01*
X144697428Y-43039461D01*
X144697428Y-43344223D01*
X144735523Y-43420414D01*
X144773619Y-43458509D01*
X144849809Y-43496604D01*
X145002190Y-43496604D01*
X145078380Y-43458509D01*
X145116476Y-43420414D01*
X145154571Y-43344223D01*
X145154571Y-43153747D01*
X145116476Y-43077557D01*
X145078380Y-43039461D01*
X145002190Y-43001366D01*
X144849809Y-43001366D01*
X144773619Y-43039461D01*
X144735523Y-43077557D01*
X144697428Y-43153747D01*
%TO.C,SW1*%
X130784761Y-47434333D02*
X130832380Y-47291476D01*
X130832380Y-47053380D01*
X130784761Y-46958142D01*
X130737142Y-46910523D01*
X130641904Y-46862904D01*
X130546666Y-46862904D01*
X130451428Y-46910523D01*
X130403809Y-46958142D01*
X130356190Y-47053380D01*
X130308571Y-47243857D01*
X130260952Y-47339095D01*
X130213333Y-47386714D01*
X130118095Y-47434333D01*
X130022857Y-47434333D01*
X129927619Y-47386714D01*
X129880000Y-47339095D01*
X129832380Y-47243857D01*
X129832380Y-47005761D01*
X129880000Y-46862904D01*
X129832380Y-46529571D02*
X130832380Y-46291476D01*
X130118095Y-46101000D01*
X130832380Y-45910523D01*
X129832380Y-45672428D01*
X130832380Y-44767666D02*
X130832380Y-45339095D01*
X130832380Y-45053380D02*
X129832380Y-45053380D01*
X129975238Y-45148619D01*
X130070476Y-45243857D01*
X130118095Y-45339095D01*
D11*
%TO.C,D28*%
X125980000Y-52809000D02*
X125980000Y-50569000D01*
X126580000Y-52809000D02*
X126580000Y-50569000D01*
X126580000Y-50569000D02*
X122340000Y-50569000D01*
X125860000Y-52809000D02*
X125860000Y-50569000D01*
X122340000Y-52809000D02*
X126580000Y-52809000D01*
X127230000Y-51689000D02*
X126580000Y-51689000D01*
X125740000Y-52809000D02*
X125740000Y-50569000D01*
X121690000Y-51689000D02*
X122340000Y-51689000D01*
X122340000Y-50569000D02*
X122340000Y-52809000D01*
D12*
%TO.C,U1*%
X132715000Y-13924700D02*
X130175000Y-13924700D01*
X130175000Y-44404700D02*
X147955000Y-44404700D01*
X130175000Y-13924700D02*
X130175000Y-44404700D01*
X132715000Y-16464700D02*
X130175000Y-16464700D01*
X147955000Y-11384700D02*
X130175000Y-11384700D01*
X130175000Y-11384700D02*
X130175000Y-13924700D01*
X132715000Y-13924700D02*
X132715000Y-16464700D01*
X147955000Y-44404700D02*
X147955000Y-13924700D01*
X147955000Y-13924700D02*
X147955000Y-11384700D01*
G36*
X143996568Y-19904060D02*
G01*
X143496568Y-19904060D01*
X143496568Y-19804060D01*
X143996568Y-19804060D01*
X143996568Y-19904060D01*
G37*
D10*
X143996568Y-19904060D02*
X143496568Y-19904060D01*
X143496568Y-19804060D01*
X143996568Y-19804060D01*
X143996568Y-19904060D01*
G36*
X143996568Y-20104060D02*
G01*
X143896568Y-20104060D01*
X143896568Y-19804060D01*
X143996568Y-19804060D01*
X143996568Y-20104060D01*
G37*
X143996568Y-20104060D02*
X143896568Y-20104060D01*
X143896568Y-19804060D01*
X143996568Y-19804060D01*
X143996568Y-20104060D01*
G36*
X143796568Y-20304060D02*
G01*
X143696568Y-20304060D01*
X143696568Y-20204060D01*
X143796568Y-20204060D01*
X143796568Y-20304060D01*
G37*
X143796568Y-20304060D02*
X143696568Y-20304060D01*
X143696568Y-20204060D01*
X143796568Y-20204060D01*
X143796568Y-20304060D01*
G36*
X143596568Y-20604060D02*
G01*
X143496568Y-20604060D01*
X143496568Y-19804060D01*
X143596568Y-19804060D01*
X143596568Y-20604060D01*
G37*
X143596568Y-20604060D02*
X143496568Y-20604060D01*
X143496568Y-19804060D01*
X143596568Y-19804060D01*
X143596568Y-20604060D01*
G36*
X143996568Y-20604060D02*
G01*
X143896568Y-20604060D01*
X143896568Y-20404060D01*
X143996568Y-20404060D01*
X143996568Y-20604060D01*
G37*
X143996568Y-20604060D02*
X143896568Y-20604060D01*
X143896568Y-20404060D01*
X143996568Y-20404060D01*
X143996568Y-20604060D01*
D11*
%TO.C,D3*%
X125860000Y-19789000D02*
X125860000Y-17549000D01*
X122340000Y-17549000D02*
X122340000Y-19789000D01*
X121690000Y-18669000D02*
X122340000Y-18669000D01*
X127230000Y-18669000D02*
X126580000Y-18669000D01*
X126580000Y-19789000D02*
X126580000Y-17549000D01*
X125980000Y-19789000D02*
X125980000Y-17549000D01*
X125740000Y-19789000D02*
X125740000Y-17549000D01*
X126580000Y-17549000D02*
X122340000Y-17549000D01*
X122340000Y-19789000D02*
X126580000Y-19789000D01*
%TO.C,D14*%
X126580000Y-30249000D02*
X122340000Y-30249000D01*
X121690000Y-31369000D02*
X122340000Y-31369000D01*
X125860000Y-32489000D02*
X125860000Y-30249000D01*
X122340000Y-32489000D02*
X126580000Y-32489000D01*
X126580000Y-32489000D02*
X126580000Y-30249000D01*
X127230000Y-31369000D02*
X126580000Y-31369000D01*
X122340000Y-30249000D02*
X122340000Y-32489000D01*
X125740000Y-32489000D02*
X125740000Y-30249000D01*
X125980000Y-32489000D02*
X125980000Y-30249000D01*
%TO.C,D43*%
X150900000Y-61849000D02*
X151550000Y-61849000D01*
X151550000Y-62969000D02*
X155790000Y-62969000D01*
X155790000Y-60729000D02*
X151550000Y-60729000D01*
X152390000Y-60729000D02*
X152390000Y-62969000D01*
X156440000Y-61849000D02*
X155790000Y-61849000D01*
X151550000Y-60729000D02*
X151550000Y-62969000D01*
X152150000Y-60729000D02*
X152150000Y-62969000D01*
X155790000Y-62969000D02*
X155790000Y-60729000D01*
X152270000Y-60729000D02*
X152270000Y-62969000D01*
%TO.C,D2*%
X126580000Y-15009000D02*
X122340000Y-15009000D01*
X121690000Y-16129000D02*
X122340000Y-16129000D01*
X122340000Y-15009000D02*
X122340000Y-17249000D01*
X125860000Y-17249000D02*
X125860000Y-15009000D01*
X126580000Y-17249000D02*
X126580000Y-15009000D01*
X125740000Y-17249000D02*
X125740000Y-15009000D01*
X125980000Y-17249000D02*
X125980000Y-15009000D01*
X122340000Y-17249000D02*
X126580000Y-17249000D01*
X127230000Y-16129000D02*
X126580000Y-16129000D01*
%TO.C,D23*%
X152390000Y-30249000D02*
X152390000Y-32489000D01*
X151550000Y-32489000D02*
X155790000Y-32489000D01*
X155790000Y-32489000D02*
X155790000Y-30249000D01*
X151550000Y-30249000D02*
X151550000Y-32489000D01*
X152150000Y-30249000D02*
X152150000Y-32489000D01*
X150900000Y-31369000D02*
X151550000Y-31369000D01*
X152270000Y-30249000D02*
X152270000Y-32489000D01*
X156440000Y-31369000D02*
X155790000Y-31369000D01*
X155790000Y-30249000D02*
X151550000Y-30249000D01*
%TO.C,SW2*%
X133165000Y-62746000D02*
X144965000Y-62746000D01*
X139065000Y-57146000D02*
X139065000Y-56146000D01*
X138565000Y-56646000D02*
X139565000Y-56646000D01*
X142565000Y-50546000D02*
X144965000Y-50546000D01*
X134965000Y-64446000D02*
X134965000Y-63846000D01*
X144965000Y-58646000D02*
X144965000Y-62746000D01*
X133165000Y-58646000D02*
X133165000Y-62746000D01*
X137765000Y-50546000D02*
X140365000Y-50546000D01*
X144965000Y-50546000D02*
X144965000Y-54646000D01*
X134965000Y-63846000D02*
X135265000Y-64146000D01*
X133165000Y-54646000D02*
X133165000Y-50546000D01*
X135265000Y-64146000D02*
X134965000Y-64446000D01*
X133165000Y-50546000D02*
X135565000Y-50546000D01*
X142065000Y-56646000D02*
G75*
G03*
X142065000Y-56646000I-3000000J0D01*
G01*
%TO.C,D6*%
X122340000Y-27409000D02*
X126580000Y-27409000D01*
X126580000Y-27409000D02*
X126580000Y-25169000D01*
X125980000Y-27409000D02*
X125980000Y-25169000D01*
X125860000Y-27409000D02*
X125860000Y-25169000D01*
X121690000Y-26289000D02*
X122340000Y-26289000D01*
X122340000Y-25169000D02*
X122340000Y-27409000D01*
X127230000Y-26289000D02*
X126580000Y-26289000D01*
X126580000Y-25169000D02*
X122340000Y-25169000D01*
X125740000Y-27409000D02*
X125740000Y-25169000D01*
%TO.C,D34*%
X155790000Y-48029000D02*
X151550000Y-48029000D01*
X152390000Y-48029000D02*
X152390000Y-50269000D01*
X151550000Y-48029000D02*
X151550000Y-50269000D01*
X150900000Y-49149000D02*
X151550000Y-49149000D01*
X152270000Y-48029000D02*
X152270000Y-50269000D01*
X151550000Y-50269000D02*
X155790000Y-50269000D01*
X152150000Y-48029000D02*
X152150000Y-50269000D01*
X156440000Y-49149000D02*
X155790000Y-49149000D01*
X155790000Y-50269000D02*
X155790000Y-48029000D01*
%TO.C,SW1*%
X132710000Y-47431000D02*
X131380000Y-47431000D01*
X133980000Y-44771000D02*
X136580000Y-44771000D01*
X133980000Y-47431000D02*
X133980000Y-44771000D01*
X133980000Y-47431000D02*
X136580000Y-47431000D01*
X131380000Y-47431000D02*
X131380000Y-46101000D01*
X136580000Y-47431000D02*
X136580000Y-44771000D01*
%TO.C,D5*%
X127230000Y-23749000D02*
X126580000Y-23749000D01*
X122340000Y-22629000D02*
X122340000Y-24869000D01*
X126580000Y-22629000D02*
X122340000Y-22629000D01*
X126580000Y-24869000D02*
X126580000Y-22629000D01*
X125860000Y-24869000D02*
X125860000Y-22629000D01*
X121690000Y-23749000D02*
X122340000Y-23749000D01*
X125980000Y-24869000D02*
X125980000Y-22629000D01*
X125740000Y-24869000D02*
X125740000Y-22629000D01*
X122340000Y-24869000D02*
X126580000Y-24869000D01*
%TO.C,D40*%
X127230000Y-66929000D02*
X126580000Y-66929000D01*
X125740000Y-68049000D02*
X125740000Y-65809000D01*
X122340000Y-68049000D02*
X126580000Y-68049000D01*
X126580000Y-68049000D02*
X126580000Y-65809000D01*
X122340000Y-65809000D02*
X122340000Y-68049000D01*
X125860000Y-68049000D02*
X125860000Y-65809000D01*
X121690000Y-66929000D02*
X122340000Y-66929000D01*
X125980000Y-68049000D02*
X125980000Y-65809000D01*
X126580000Y-65809000D02*
X122340000Y-65809000D01*
%TO.C,D4*%
X125740000Y-22329000D02*
X125740000Y-20089000D01*
X121690000Y-21209000D02*
X122340000Y-21209000D01*
X127230000Y-21209000D02*
X126580000Y-21209000D01*
X126580000Y-22329000D02*
X126580000Y-20089000D01*
X122340000Y-22329000D02*
X126580000Y-22329000D01*
X122340000Y-20089000D02*
X122340000Y-22329000D01*
X125860000Y-22329000D02*
X125860000Y-20089000D01*
X126580000Y-20089000D02*
X122340000Y-20089000D01*
X125980000Y-22329000D02*
X125980000Y-20089000D01*
%TO.C,D24*%
X152150000Y-27709000D02*
X152150000Y-29949000D01*
X150900000Y-28829000D02*
X151550000Y-28829000D01*
X152390000Y-27709000D02*
X152390000Y-29949000D01*
X151550000Y-27709000D02*
X151550000Y-29949000D01*
X156440000Y-28829000D02*
X155790000Y-28829000D01*
X151550000Y-29949000D02*
X155790000Y-29949000D01*
X152270000Y-27709000D02*
X152270000Y-29949000D01*
X155790000Y-27709000D02*
X151550000Y-27709000D01*
X155790000Y-29949000D02*
X155790000Y-27709000D01*
%TO.C,D39*%
X125740000Y-65509000D02*
X125740000Y-63269000D01*
X126580000Y-63269000D02*
X122340000Y-63269000D01*
X122340000Y-63269000D02*
X122340000Y-65509000D01*
X121690000Y-64389000D02*
X122340000Y-64389000D01*
X122340000Y-65509000D02*
X126580000Y-65509000D01*
X127230000Y-64389000D02*
X126580000Y-64389000D01*
X126580000Y-65509000D02*
X126580000Y-63269000D01*
X125980000Y-65509000D02*
X125980000Y-63269000D01*
X125860000Y-65509000D02*
X125860000Y-63269000D01*
%TO.C,D27*%
X125980000Y-50269000D02*
X125980000Y-48029000D01*
X122340000Y-50269000D02*
X126580000Y-50269000D01*
X121690000Y-49149000D02*
X122340000Y-49149000D01*
X126580000Y-50269000D02*
X126580000Y-48029000D01*
X126580000Y-48029000D02*
X122340000Y-48029000D01*
X125860000Y-50269000D02*
X125860000Y-48029000D01*
X127230000Y-49149000D02*
X126580000Y-49149000D01*
X122340000Y-48029000D02*
X122340000Y-50269000D01*
X125740000Y-50269000D02*
X125740000Y-48029000D01*
%TO.C,D30*%
X125980000Y-57889000D02*
X125980000Y-55649000D01*
X126580000Y-55649000D02*
X122340000Y-55649000D01*
X125860000Y-57889000D02*
X125860000Y-55649000D01*
X122340000Y-55649000D02*
X122340000Y-57889000D01*
X126580000Y-57889000D02*
X126580000Y-55649000D01*
X122340000Y-57889000D02*
X126580000Y-57889000D01*
X127230000Y-56769000D02*
X126580000Y-56769000D01*
X121690000Y-56769000D02*
X122340000Y-56769000D01*
X125740000Y-57889000D02*
X125740000Y-55649000D01*
%TO.C,D22*%
X152390000Y-32789000D02*
X152390000Y-35029000D01*
X151550000Y-35029000D02*
X155790000Y-35029000D01*
X152150000Y-32789000D02*
X152150000Y-35029000D01*
X156440000Y-33909000D02*
X155790000Y-33909000D01*
X151550000Y-32789000D02*
X151550000Y-35029000D01*
X155790000Y-32789000D02*
X151550000Y-32789000D01*
X150900000Y-33909000D02*
X151550000Y-33909000D01*
X155790000Y-35029000D02*
X155790000Y-32789000D01*
X152270000Y-32789000D02*
X152270000Y-35029000D01*
%TO.C,D18*%
X125860000Y-42649000D02*
X125860000Y-40409000D01*
X122340000Y-40409000D02*
X122340000Y-42649000D01*
X125740000Y-42649000D02*
X125740000Y-40409000D01*
X125980000Y-42649000D02*
X125980000Y-40409000D01*
X121690000Y-41529000D02*
X122340000Y-41529000D01*
X126580000Y-42649000D02*
X126580000Y-40409000D01*
X126580000Y-40409000D02*
X122340000Y-40409000D01*
X122340000Y-42649000D02*
X126580000Y-42649000D01*
X127230000Y-41529000D02*
X126580000Y-41529000D01*
%TO.C,Gfront*%
G36*
X215857287Y-46529588D02*
G01*
X215974843Y-46436671D01*
X215984853Y-46428781D01*
X216118397Y-46316031D01*
X216225197Y-46211204D01*
X216292482Y-46127230D01*
X216304192Y-46105488D01*
X216325401Y-46049267D01*
X216365579Y-45936031D01*
X216422037Y-45773610D01*
X216492084Y-45569839D01*
X216573028Y-45332551D01*
X216662179Y-45069577D01*
X216756845Y-44788751D01*
X216770161Y-44749125D01*
X216867764Y-44459674D01*
X216962376Y-44181192D01*
X217050920Y-43922584D01*
X217130317Y-43692757D01*
X217197490Y-43500617D01*
X217249362Y-43355070D01*
X217282856Y-43265022D01*
X217284029Y-43262045D01*
X217392314Y-43008074D01*
X217522340Y-42733892D01*
X217662335Y-42462612D01*
X217800530Y-42217344D01*
X217887635Y-42076954D01*
X217938188Y-41999015D01*
X217981574Y-41935894D01*
X218025501Y-41883355D01*
X218077679Y-41837164D01*
X218145818Y-41793085D01*
X218237627Y-41746885D01*
X218360815Y-41694328D01*
X218523091Y-41631180D01*
X218732166Y-41553205D01*
X218864842Y-41504362D01*
X225511894Y-41504362D01*
X225628982Y-41531801D01*
X225790757Y-41567934D01*
X225987016Y-41610642D01*
X226207557Y-41657811D01*
X226442175Y-41707323D01*
X226680668Y-41757062D01*
X226912833Y-41804912D01*
X227128467Y-41848756D01*
X227317367Y-41886478D01*
X227469329Y-41915961D01*
X227574151Y-41935090D01*
X227620380Y-41941730D01*
X227707490Y-41935354D01*
X227835868Y-41914709D01*
X227980925Y-41883907D01*
X228013516Y-41875956D01*
X228203274Y-41828008D01*
X228337786Y-41790901D01*
X228428068Y-41758608D01*
X228485133Y-41725107D01*
X228519994Y-41684370D01*
X228543667Y-41630375D01*
X228561053Y-41576439D01*
X228607180Y-41424385D01*
X228631437Y-41324708D01*
X228634281Y-41265160D01*
X228616169Y-41233495D01*
X228577557Y-41217465D01*
X228574468Y-41216701D01*
X228470437Y-41195605D01*
X228311645Y-41168562D01*
X228111254Y-41137411D01*
X227882431Y-41103995D01*
X227638339Y-41070153D01*
X227392144Y-41037726D01*
X227157008Y-41008555D01*
X226946098Y-40984481D01*
X226825767Y-40972201D01*
X226578687Y-40948203D01*
X226389064Y-40931121D01*
X226246132Y-40923374D01*
X226139124Y-40927384D01*
X226057275Y-40945570D01*
X225989818Y-40980352D01*
X225925987Y-41034151D01*
X225855015Y-41109388D01*
X225766137Y-41208482D01*
X225763942Y-41210901D01*
X225661105Y-41325458D01*
X225579123Y-41419252D01*
X225526626Y-41482233D01*
X225511894Y-41504362D01*
X218864842Y-41504362D01*
X218995749Y-41456170D01*
X219062550Y-41431574D01*
X219256123Y-41357679D01*
X219449439Y-41279394D01*
X219622545Y-41205083D01*
X219755486Y-41143110D01*
X219777528Y-41131875D01*
X219904999Y-41068384D01*
X220002291Y-41032424D01*
X220098457Y-41017376D01*
X220222550Y-41016619D01*
X220275511Y-41018413D01*
X220470780Y-41022441D01*
X220610810Y-41014450D01*
X220708296Y-40990145D01*
X220775933Y-40945233D01*
X220826416Y-40875418D01*
X220852153Y-40823343D01*
X220892197Y-40720697D01*
X220935672Y-40586983D01*
X220978112Y-40439272D01*
X221015052Y-40294635D01*
X221042026Y-40170143D01*
X221054567Y-40082869D01*
X221053149Y-40054973D01*
X221040533Y-40065406D01*
X221019616Y-40129129D01*
X220995339Y-40230505D01*
X220968925Y-40342409D01*
X220944720Y-40423688D01*
X220929335Y-40454941D01*
X220888676Y-40455528D01*
X220795844Y-40448086D01*
X220666382Y-40434036D01*
X220570497Y-40422105D01*
X220391328Y-40401590D01*
X220175100Y-40381060D01*
X219953067Y-40363311D01*
X219808388Y-40353895D01*
X219384362Y-40329738D01*
X219093037Y-39958408D01*
X218984886Y-39823476D01*
X218889927Y-39710446D01*
X218816755Y-39629150D01*
X218773967Y-39589422D01*
X218768387Y-39587079D01*
X218719564Y-39601556D01*
X218636523Y-39637919D01*
X218601042Y-39655450D01*
X218533410Y-39684857D01*
X218457147Y-39704567D01*
X218357281Y-39716357D01*
X218218841Y-39722007D01*
X218029793Y-39723298D01*
X217861283Y-39721170D01*
X217716233Y-39715734D01*
X217609072Y-39707786D01*
X217554227Y-39698121D01*
X217551970Y-39696963D01*
X217497657Y-39626311D01*
X217453019Y-39491483D01*
X217423508Y-39328203D01*
X217399794Y-39154791D01*
X217560295Y-39023272D01*
X217720797Y-38891753D01*
X218018579Y-38948837D01*
X218203708Y-38982339D01*
X218332615Y-39000174D01*
X218415493Y-39002925D01*
X218462534Y-38991175D01*
X218479283Y-38975149D01*
X218458888Y-38947608D01*
X218386607Y-38898317D01*
X218273170Y-38832979D01*
X218129309Y-38757297D01*
X217965757Y-38676971D01*
X217793244Y-38597705D01*
X217666050Y-38543051D01*
X217431865Y-38445776D01*
X217375471Y-38516879D01*
X217270834Y-38644142D01*
X217150944Y-38782525D01*
X217024872Y-38922429D01*
X216901687Y-39054256D01*
X216790458Y-39168406D01*
X216700255Y-39255279D01*
X216640147Y-39305277D01*
X216622721Y-39313598D01*
X216567297Y-39309788D01*
X216459271Y-39299261D01*
X216310184Y-39283376D01*
X216131579Y-39263492D01*
X215934996Y-39240970D01*
X215731977Y-39217169D01*
X215534063Y-39193449D01*
X215352796Y-39171169D01*
X215199717Y-39151689D01*
X215086367Y-39136369D01*
X215024288Y-39126569D01*
X215016167Y-39124335D01*
X215008741Y-39087890D01*
X214996236Y-38995070D01*
X214980052Y-38857562D01*
X214961589Y-38687054D01*
X214948951Y-38563285D01*
X214929156Y-38378635D01*
X214909583Y-38220471D01*
X214891849Y-38100147D01*
X214877571Y-38029018D01*
X214870789Y-38014535D01*
X214838956Y-38038614D01*
X214775384Y-38102510D01*
X214692340Y-38193713D01*
X214669683Y-38219650D01*
X214578402Y-38316638D01*
X214496585Y-38388878D01*
X214439209Y-38423482D01*
X214431317Y-38424764D01*
X214376942Y-38409081D01*
X214273496Y-38365701D01*
X214131677Y-38300128D01*
X213962181Y-38217866D01*
X213775708Y-38124420D01*
X213582954Y-38025294D01*
X213394618Y-37925993D01*
X213221396Y-37832020D01*
X213073988Y-37748880D01*
X212963090Y-37682076D01*
X212899400Y-37637114D01*
X212897929Y-37635797D01*
X212830569Y-37560131D01*
X212744888Y-37443742D01*
X212654829Y-37306185D01*
X212612138Y-37234931D01*
X212516286Y-37063005D01*
X212398293Y-36841323D01*
X212264384Y-36582341D01*
X212120783Y-36298515D01*
X211973713Y-36002299D01*
X211829398Y-35706150D01*
X211694062Y-35422522D01*
X211573929Y-35163870D01*
X211541174Y-35091655D01*
X211461509Y-34916659D01*
X211389594Y-34762098D01*
X211330891Y-34639446D01*
X211290859Y-34560177D01*
X211277267Y-34537129D01*
X211241401Y-34504501D01*
X211159803Y-34436981D01*
X211040935Y-34341356D01*
X210893262Y-34224414D01*
X210725249Y-34092944D01*
X210666590Y-34047378D01*
X210088795Y-33599367D01*
X210089171Y-33439589D01*
X210094590Y-33259263D01*
X210113308Y-33132724D01*
X210150512Y-33045867D01*
X210211389Y-32984590D01*
X210269169Y-32950228D01*
X210369243Y-32910721D01*
X210456271Y-32895269D01*
X210478076Y-32897240D01*
X210534382Y-32915756D01*
X210640577Y-32955401D01*
X210783414Y-33011065D01*
X210949645Y-33077636D01*
X211023696Y-33107800D01*
X211189818Y-33174515D01*
X211332443Y-33229329D01*
X211440224Y-33268075D01*
X211501817Y-33286587D01*
X211511682Y-33287027D01*
X211534785Y-33256202D01*
X211591807Y-33177501D01*
X211677093Y-33058803D01*
X211784992Y-32907989D01*
X211909850Y-32732939D01*
X211997703Y-32609501D01*
X212150452Y-32395927D01*
X212270451Y-32231756D01*
X212363630Y-32110010D01*
X212435915Y-32023711D01*
X212493233Y-31965881D01*
X212541513Y-31929542D01*
X212586680Y-31907717D01*
X212596862Y-31904145D01*
X212678123Y-31882548D01*
X212746190Y-31885063D01*
X212829139Y-31915785D01*
X212893773Y-31947453D01*
X212987077Y-32002680D01*
X213048523Y-32054284D01*
X213062953Y-32080776D01*
X213051769Y-32124227D01*
X213020185Y-32223290D01*
X212971151Y-32369321D01*
X212907620Y-32553673D01*
X212832543Y-32767699D01*
X212748873Y-33002753D01*
X212735453Y-33040155D01*
X212407952Y-33951941D01*
X212548168Y-34371785D01*
X212588470Y-34488359D01*
X212645122Y-34646484D01*
X212714729Y-34837179D01*
X212793895Y-35051461D01*
X212879224Y-35280347D01*
X212967319Y-35514856D01*
X213054785Y-35746005D01*
X213138226Y-35964813D01*
X213214246Y-36162295D01*
X213279449Y-36329472D01*
X213330439Y-36457359D01*
X213363819Y-36536976D01*
X213375381Y-36559730D01*
X213415107Y-36583289D01*
X213506980Y-36631574D01*
X213641423Y-36699906D01*
X213808858Y-36783605D01*
X213999707Y-36877992D01*
X214204392Y-36978388D01*
X214413335Y-37080116D01*
X214616959Y-37178494D01*
X214805684Y-37268845D01*
X214969935Y-37346489D01*
X215100132Y-37406748D01*
X215186698Y-37444942D01*
X215191212Y-37446806D01*
X215362463Y-37517513D01*
X215481384Y-37562915D01*
X215560076Y-37580583D01*
X215610638Y-37568087D01*
X215645172Y-37522998D01*
X215675777Y-37442887D01*
X215708579Y-37342948D01*
X215745728Y-37232063D01*
X215767075Y-37148218D01*
X215766201Y-37081773D01*
X215736684Y-37023084D01*
X215672104Y-36962512D01*
X215566040Y-36890413D01*
X215412069Y-36797146D01*
X215301266Y-36731326D01*
X215179535Y-36660342D01*
X215084278Y-36603896D01*
X215010686Y-36552965D01*
X214953948Y-36498526D01*
X214909256Y-36431554D01*
X214871800Y-36343027D01*
X214836771Y-36223922D01*
X214799359Y-36065214D01*
X214754755Y-35857880D01*
X214700645Y-35604441D01*
X214654425Y-35395384D01*
X214609918Y-35203007D01*
X214570167Y-35039792D01*
X214538214Y-34918221D01*
X214517100Y-34850776D01*
X214516724Y-34849858D01*
X214459353Y-34767523D01*
X214352405Y-34666284D01*
X214238087Y-34578681D01*
X214111246Y-34487393D01*
X213953009Y-34371133D01*
X213786111Y-34246700D01*
X213669750Y-34158741D01*
X213336439Y-33904923D01*
X213336439Y-33738141D01*
X213340972Y-33634064D01*
X213364937Y-33569232D01*
X213423882Y-33514628D01*
X213474927Y-33479713D01*
X213577419Y-33424443D01*
X213674245Y-33392036D01*
X213705681Y-33388458D01*
X213767902Y-33405440D01*
X213877036Y-33452397D01*
X214021573Y-33523796D01*
X214189998Y-33614103D01*
X214276547Y-33662885D01*
X214479092Y-33776151D01*
X214629695Y-33853890D01*
X214733363Y-33898408D01*
X214795104Y-33912011D01*
X214810375Y-33908748D01*
X214851192Y-33870170D01*
X214919347Y-33787284D01*
X215004722Y-33672983D01*
X215081675Y-33563101D01*
X215318236Y-33216787D01*
X215520211Y-32924072D01*
X215690359Y-32681285D01*
X215831440Y-32484754D01*
X215946214Y-32330808D01*
X216037439Y-32215774D01*
X216107875Y-32135981D01*
X216160280Y-32087757D01*
X216197415Y-32067430D01*
X216206568Y-32066218D01*
X216269251Y-32082313D01*
X216369313Y-32123649D01*
X216485799Y-32179798D01*
X216597757Y-32240333D01*
X216684232Y-32294828D01*
X216713236Y-32318346D01*
X216726791Y-32376467D01*
X216709395Y-32488806D01*
X216663182Y-32649745D01*
X216590291Y-32853671D01*
X216492858Y-33094969D01*
X216373020Y-33368024D01*
X216232914Y-33667221D01*
X216088843Y-33958983D01*
X215968496Y-34195086D01*
X215874467Y-34380611D01*
X215804922Y-34527283D01*
X215758025Y-34646831D01*
X215731943Y-34750981D01*
X215724840Y-34851460D01*
X215734881Y-34959996D01*
X215760233Y-35088317D01*
X215799061Y-35248148D01*
X215849529Y-35451218D01*
X215853098Y-35465903D01*
X215894907Y-35643981D01*
X215929986Y-35804244D01*
X215955321Y-35932091D01*
X215967901Y-36012919D01*
X215968741Y-36026465D01*
X215982606Y-36072080D01*
X216027555Y-36138850D01*
X216108618Y-36232551D01*
X216230827Y-36358954D01*
X216399211Y-36523835D01*
X216417102Y-36541046D01*
X216561797Y-36679214D01*
X216690228Y-36800209D01*
X216794041Y-36896295D01*
X216864882Y-36959733D01*
X216893859Y-36982651D01*
X216933472Y-36973791D01*
X217024865Y-36942390D01*
X217156874Y-36892614D01*
X217318338Y-36828629D01*
X217439916Y-36778858D01*
X217957576Y-36564284D01*
X218188043Y-36255291D01*
X218298053Y-36104207D01*
X218407611Y-35947652D01*
X218500987Y-35808379D01*
X218543962Y-35740510D01*
X218605643Y-35634803D01*
X218642903Y-35550570D01*
X218661862Y-35463473D01*
X218668640Y-35349177D01*
X218669414Y-35241611D01*
X218669414Y-34948500D01*
X218878927Y-34780777D01*
X218994734Y-34691964D01*
X219079580Y-34643763D01*
X219153989Y-34631798D01*
X219238488Y-34651694D01*
X219323455Y-34686021D01*
X219369786Y-34707836D01*
X219405455Y-34734226D01*
X219432463Y-34774164D01*
X219452807Y-34836622D01*
X219468487Y-34930571D01*
X219481503Y-35064983D01*
X219493854Y-35248831D01*
X219507538Y-35491086D01*
X219509063Y-35518977D01*
X219530536Y-35912113D01*
X219322182Y-36242438D01*
X219239283Y-36376650D01*
X219172024Y-36490839D01*
X219127806Y-36572079D01*
X219113828Y-36606278D01*
X219141066Y-36646480D01*
X219164178Y-36659112D01*
X219216923Y-36658416D01*
X219323725Y-36641413D01*
X219472990Y-36610889D01*
X219653122Y-36569629D01*
X219852528Y-36520418D01*
X220059611Y-36466040D01*
X220262778Y-36409281D01*
X220450434Y-36352926D01*
X220486479Y-36341501D01*
X220815576Y-36236082D01*
X221122508Y-35766426D01*
X221244086Y-35578656D01*
X221368989Y-35382768D01*
X221485024Y-35198072D01*
X221580001Y-35043879D01*
X221607459Y-34998267D01*
X221693139Y-34857762D01*
X221761594Y-34763785D01*
X221830324Y-34703972D01*
X221916831Y-34665953D01*
X222038614Y-34637364D01*
X222145824Y-34617829D01*
X222208135Y-34610557D01*
X222248529Y-34625623D01*
X222281612Y-34676753D01*
X222321987Y-34777673D01*
X222325300Y-34786518D01*
X222363354Y-34893709D01*
X222388903Y-34976171D01*
X222395659Y-35008835D01*
X222388093Y-35045094D01*
X222363348Y-35102616D01*
X222318352Y-35186424D01*
X222250033Y-35301542D01*
X222155320Y-35452991D01*
X222031141Y-35645796D01*
X221874424Y-35884979D01*
X221683496Y-36173459D01*
X221101318Y-37050149D01*
X220816927Y-37143714D01*
X220554131Y-37230874D01*
X220275910Y-37324398D01*
X219989803Y-37421641D01*
X219703350Y-37519956D01*
X219424091Y-37616698D01*
X219159567Y-37709221D01*
X218917316Y-37794878D01*
X218704878Y-37871025D01*
X218529795Y-37935015D01*
X218399605Y-37984201D01*
X218321848Y-38015939D01*
X218303074Y-38025881D01*
X218262813Y-38080418D01*
X218212012Y-38168796D01*
X218194886Y-38202621D01*
X218163802Y-38270718D01*
X218153975Y-38318721D01*
X218174090Y-38351151D01*
X218232831Y-38372530D01*
X218338881Y-38387379D01*
X218500925Y-38400218D01*
X218585414Y-38405941D01*
X218777053Y-38418878D01*
X218916043Y-38433233D01*
X219017775Y-38457157D01*
X219097640Y-38498802D01*
X219171027Y-38566322D01*
X219253327Y-38667869D01*
X219359930Y-38811596D01*
X219365546Y-38819187D01*
X219466024Y-38952606D01*
X219552767Y-39063432D01*
X219617464Y-39141355D01*
X219651800Y-39176069D01*
X219654087Y-39176933D01*
X219695223Y-39179433D01*
X219791210Y-39186223D01*
X219928734Y-39196336D01*
X220094477Y-39208802D01*
X220136455Y-39211997D01*
X220407649Y-39240142D01*
X220624141Y-39278547D01*
X220782280Y-39326213D01*
X220878417Y-39382138D01*
X220906089Y-39422953D01*
X220921912Y-39475132D01*
X220951565Y-39573817D01*
X220989337Y-39699993D01*
X220999334Y-39733453D01*
X221036790Y-39851531D01*
X221067461Y-39934689D01*
X221086315Y-39969772D01*
X221089175Y-39968308D01*
X221124079Y-39962918D01*
X221207026Y-39976947D01*
X221321471Y-40007389D01*
X221345929Y-40014944D01*
X221467167Y-40050502D01*
X221636344Y-40096413D01*
X221834750Y-40147776D01*
X222043674Y-40199693D01*
X222139266Y-40222674D01*
X222339342Y-40268979D01*
X222509327Y-40304008D01*
X222662188Y-40328311D01*
X222810891Y-40342437D01*
X222968404Y-40346936D01*
X223147692Y-40342357D01*
X223361723Y-40329250D01*
X223623463Y-40308164D01*
X223797274Y-40292936D01*
X225426060Y-40169885D01*
X227010140Y-40094387D01*
X228553744Y-40066246D01*
X228685342Y-40066031D01*
X229864258Y-40065679D01*
X231898801Y-41130838D01*
X232444061Y-41416477D01*
X232931867Y-41672463D01*
X233365465Y-41900609D01*
X233748101Y-42102728D01*
X234083021Y-42280632D01*
X234373471Y-42436134D01*
X234622697Y-42571047D01*
X234833946Y-42687184D01*
X235010464Y-42786358D01*
X235155497Y-42870381D01*
X235272291Y-42941067D01*
X235364092Y-43000228D01*
X235434147Y-43049678D01*
X235485701Y-43091228D01*
X235522001Y-43126691D01*
X235546293Y-43157882D01*
X235555095Y-43172711D01*
X235569217Y-43218628D01*
X235595853Y-43324231D01*
X235633359Y-43482319D01*
X235680092Y-43685686D01*
X235734408Y-43927131D01*
X235794665Y-44199449D01*
X235859220Y-44495438D01*
X235900043Y-44684711D01*
X236041853Y-45342695D01*
X236170567Y-45935145D01*
X236286149Y-46461897D01*
X236388560Y-46922787D01*
X236477763Y-47317648D01*
X236553720Y-47646318D01*
X236616394Y-47908631D01*
X236665747Y-48104422D01*
X236701741Y-48233527D01*
X236724338Y-48295782D01*
X236726363Y-48299059D01*
X236755803Y-48337342D01*
X236823599Y-48423818D01*
X236925545Y-48553170D01*
X237057435Y-48720080D01*
X237215062Y-48919233D01*
X237394222Y-49145311D01*
X237590708Y-49392998D01*
X237800315Y-49656977D01*
X237858013Y-49729601D01*
X238945267Y-51097936D01*
X239857879Y-51275262D01*
X240124298Y-51328208D01*
X240391416Y-51383427D01*
X240644974Y-51437814D01*
X240870710Y-51488264D01*
X241054362Y-51531674D01*
X241157287Y-51558120D01*
X241544084Y-51663652D01*
X242167022Y-52129201D01*
X242463992Y-52349763D01*
X242735739Y-52548855D01*
X242977915Y-52723436D01*
X243186172Y-52870461D01*
X243356164Y-52986888D01*
X243483542Y-53069674D01*
X243563959Y-53115776D01*
X243589130Y-53124629D01*
X243628600Y-53116089D01*
X243728426Y-53091456D01*
X243882891Y-53052216D01*
X244086278Y-52999855D01*
X244332869Y-52935856D01*
X244616947Y-52861705D01*
X244932794Y-52778886D01*
X245274694Y-52688884D01*
X245636928Y-52593185D01*
X245713858Y-52572818D01*
X246078871Y-52476595D01*
X246424255Y-52386419D01*
X246744364Y-52303707D01*
X247033550Y-52229876D01*
X247286165Y-52166344D01*
X247496560Y-52114530D01*
X247659089Y-52075850D01*
X247768103Y-52051722D01*
X247817954Y-52043564D01*
X247820413Y-52044045D01*
X247826127Y-52085087D01*
X247826507Y-52184726D01*
X247822120Y-52333444D01*
X247813532Y-52521720D01*
X247801312Y-52740037D01*
X247786026Y-52978874D01*
X247768241Y-53228713D01*
X247748526Y-53480035D01*
X247727446Y-53723321D01*
X247708772Y-53917745D01*
X247645995Y-54472416D01*
X247566938Y-55065704D01*
X247474752Y-55678289D01*
X247372585Y-56290853D01*
X247263587Y-56884079D01*
X247150906Y-57438647D01*
X247089905Y-57714064D01*
X246997932Y-58115747D01*
X236893229Y-58111490D01*
X235909417Y-58111065D01*
X234991816Y-58110640D01*
X234138267Y-58110200D01*
X233346609Y-58109730D01*
X232614682Y-58109217D01*
X231940327Y-58108647D01*
X231321383Y-58108004D01*
X230755690Y-58107276D01*
X230241088Y-58106448D01*
X229775417Y-58105505D01*
X229356518Y-58104434D01*
X228982229Y-58103221D01*
X228650392Y-58101850D01*
X228358845Y-58100309D01*
X228105430Y-58098582D01*
X227887985Y-58096656D01*
X227704351Y-58094516D01*
X227552368Y-58092149D01*
X227429876Y-58089539D01*
X227334715Y-58086674D01*
X227264724Y-58083538D01*
X227217744Y-58080118D01*
X227191615Y-58076400D01*
X227184176Y-58072368D01*
X227193267Y-58068009D01*
X227216730Y-58063310D01*
X227252402Y-58058255D01*
X227298126Y-58052830D01*
X227335497Y-58048748D01*
X227559837Y-58023115D01*
X227731408Y-57998799D01*
X227865663Y-57972591D01*
X227978054Y-57941286D01*
X228084033Y-57901675D01*
X228121769Y-57885563D01*
X228226539Y-57840955D01*
X228381183Y-57776732D01*
X228572020Y-57698496D01*
X228785372Y-57611847D01*
X229007560Y-57522385D01*
X229061877Y-57500640D01*
X229514767Y-57313410D01*
X229944670Y-57123610D01*
X230344875Y-56934690D01*
X230708672Y-56750101D01*
X231029352Y-56573294D01*
X231300203Y-56407719D01*
X231514515Y-56256829D01*
X231574528Y-56208460D01*
X231677085Y-56122125D01*
X231044649Y-56144357D01*
X230833382Y-56151300D01*
X230571261Y-56159154D01*
X230275788Y-56167440D01*
X229964468Y-56175677D01*
X229654802Y-56183388D01*
X229420827Y-56188836D01*
X228429441Y-56211082D01*
X227218621Y-57397846D01*
X226268580Y-57395333D01*
X225949377Y-57393427D01*
X225587991Y-57389502D01*
X225209493Y-57383943D01*
X224838950Y-57377137D01*
X224501433Y-57369472D01*
X224378431Y-57366171D01*
X223438324Y-57339522D01*
X222840073Y-57097633D01*
X222530081Y-56971305D01*
X222280454Y-56867252D01*
X222087530Y-56783764D01*
X221947647Y-56719133D01*
X221857143Y-56671648D01*
X221812357Y-56639601D01*
X221809627Y-56621282D01*
X221814467Y-56618866D01*
X221944200Y-56570494D01*
X222111905Y-56506271D01*
X222308483Y-56429840D01*
X222524838Y-56344844D01*
X222751874Y-56254927D01*
X222980493Y-56163733D01*
X223201600Y-56074906D01*
X223406096Y-55992089D01*
X223584887Y-55918925D01*
X223728874Y-55859059D01*
X223828961Y-55816133D01*
X223876052Y-55793792D01*
X223878169Y-55792267D01*
X223891228Y-55745479D01*
X223864180Y-55709756D01*
X223815966Y-55682832D01*
X223713073Y-55637441D01*
X223565489Y-55577321D01*
X223383202Y-55506208D01*
X223176197Y-55427840D01*
X222954464Y-55345954D01*
X222727988Y-55264286D01*
X222506757Y-55186575D01*
X222300758Y-55116557D01*
X222134633Y-55062574D01*
X221753956Y-54942527D01*
X219624344Y-55562673D01*
X218369154Y-55300084D01*
X218071118Y-55237961D01*
X217781690Y-55178058D01*
X217510708Y-55122380D01*
X217268010Y-55072932D01*
X217063435Y-55031719D01*
X216906820Y-55000747D01*
X216813173Y-54982952D01*
X216681734Y-54957992D01*
X216581839Y-54936861D01*
X216527902Y-54922718D01*
X216522594Y-54919315D01*
X216555720Y-54905182D01*
X216645101Y-54869217D01*
X216783265Y-54814369D01*
X216962744Y-54743586D01*
X217176068Y-54659816D01*
X217415768Y-54566006D01*
X217598703Y-54494599D01*
X218664600Y-54078976D01*
X219273804Y-54130948D01*
X219422385Y-54143342D01*
X219630625Y-54160297D01*
X219890012Y-54181139D01*
X220192033Y-54205193D01*
X220528177Y-54231787D01*
X220889931Y-54260245D01*
X221268784Y-54289893D01*
X221656223Y-54320058D01*
X221917058Y-54340274D01*
X222318491Y-54371414D01*
X222727407Y-54403292D01*
X223133735Y-54435112D01*
X223527401Y-54466080D01*
X223898333Y-54495400D01*
X224236459Y-54522278D01*
X224531706Y-54545917D01*
X224774003Y-54565523D01*
X224874124Y-54573729D01*
X225150003Y-54596293D01*
X225369180Y-54613271D01*
X225543087Y-54624775D01*
X225683157Y-54630922D01*
X225800820Y-54631826D01*
X225907508Y-54627603D01*
X226014654Y-54618367D01*
X226133689Y-54604233D01*
X226258647Y-54587662D01*
X226435067Y-54563403D01*
X226592306Y-54540868D01*
X226715211Y-54522292D01*
X226788629Y-54509914D01*
X226796283Y-54508324D01*
X226844169Y-54472760D01*
X226905343Y-54393482D01*
X226972253Y-54285403D01*
X227037348Y-54163438D01*
X227093074Y-54042502D01*
X227131881Y-53937508D01*
X227146216Y-53863372D01*
X227136246Y-53836925D01*
X227072489Y-53814916D01*
X226950375Y-53785277D01*
X226779272Y-53749772D01*
X226568545Y-53710169D01*
X226327561Y-53668234D01*
X226065686Y-53625733D01*
X225814232Y-53587631D01*
X225457193Y-53533048D01*
X225122236Y-53476359D01*
X224792806Y-53414228D01*
X224452348Y-53343323D01*
X224084306Y-53260307D01*
X223672126Y-53161847D01*
X223542933Y-53130165D01*
X222754609Y-52935914D01*
X222344380Y-52977674D01*
X222222469Y-52989306D01*
X222041822Y-53005470D01*
X221811869Y-53025372D01*
X221542036Y-53048219D01*
X221241753Y-53073215D01*
X220920447Y-53099568D01*
X220587548Y-53126482D01*
X220395793Y-53141804D01*
X219940560Y-53177906D01*
X219546594Y-53209465D01*
X219207048Y-53237857D01*
X218915073Y-53264458D01*
X218663822Y-53290641D01*
X218446447Y-53317781D01*
X218256100Y-53347254D01*
X218085934Y-53380434D01*
X217929101Y-53418696D01*
X217778752Y-53463415D01*
X217628041Y-53515966D01*
X217470120Y-53577724D01*
X217298139Y-53650062D01*
X217105253Y-53734358D01*
X216884613Y-53831984D01*
X216823384Y-53859045D01*
X216633615Y-53942728D01*
X216463419Y-54017583D01*
X216323439Y-54078944D01*
X216224318Y-54122147D01*
X216176699Y-54142528D01*
X216176079Y-54142777D01*
X216161098Y-54129676D01*
X216184789Y-54065497D01*
X216222854Y-53993903D01*
X216274824Y-53901939D01*
X216350899Y-53766551D01*
X216441931Y-53604053D01*
X216538770Y-53430760D01*
X216566519Y-53381022D01*
X216814353Y-52936608D01*
X216870903Y-51996500D01*
X216886363Y-51723275D01*
X216900152Y-51448471D01*
X216911667Y-51186639D01*
X216920307Y-50952328D01*
X216925472Y-50760090D01*
X216926697Y-50646725D01*
X216925941Y-50237057D01*
X217122172Y-49662429D01*
X217192899Y-49452722D01*
X217242344Y-49298371D01*
X217272634Y-49190493D01*
X217285894Y-49120204D01*
X217284249Y-49078620D01*
X217269826Y-49056858D01*
X217267461Y-49055236D01*
X217218989Y-49031747D01*
X217119265Y-48988657D01*
X216980750Y-48931178D01*
X216815903Y-48864522D01*
X216728176Y-48829648D01*
X216498004Y-48733513D01*
X216297345Y-48636299D01*
X216111219Y-48528449D01*
X215924648Y-48400402D01*
X215722652Y-48242601D01*
X215490252Y-48045486D01*
X215465431Y-48023829D01*
X215329020Y-47915397D01*
X215184617Y-47826334D01*
X215008541Y-47742987D01*
X214904968Y-47700665D01*
X214557236Y-47563486D01*
X215134792Y-47103488D01*
X215326501Y-46950914D01*
X215519739Y-46797328D01*
X215644582Y-46698230D01*
X219599732Y-46698230D01*
X219629934Y-46731821D01*
X219703155Y-46799688D01*
X219809203Y-46893168D01*
X219937890Y-47003598D01*
X220079026Y-47122316D01*
X220222422Y-47240660D01*
X220357888Y-47349967D01*
X220464165Y-47433119D01*
X220703465Y-47616437D01*
X221553035Y-47656263D01*
X222112930Y-47680765D01*
X222665725Y-47701592D01*
X223204421Y-47718630D01*
X223722020Y-47731769D01*
X224211523Y-47740896D01*
X224665932Y-47745900D01*
X225078248Y-47746668D01*
X225441473Y-47743089D01*
X225748608Y-47735051D01*
X225933882Y-47726274D01*
X226095945Y-47715466D01*
X226197406Y-47705308D01*
X226245999Y-47694214D01*
X226249457Y-47680594D01*
X226224461Y-47666612D01*
X226168763Y-47644294D01*
X226059238Y-47602001D01*
X225906131Y-47543628D01*
X225719682Y-47473073D01*
X225510135Y-47394229D01*
X225386910Y-47348056D01*
X224891902Y-47161518D01*
X224452450Y-46993132D01*
X224070287Y-46843587D01*
X223747147Y-46713575D01*
X223484764Y-46603785D01*
X223284872Y-46514909D01*
X223233209Y-46490428D01*
X223092485Y-46425177D01*
X222989627Y-46387306D01*
X222902583Y-46371270D01*
X222809299Y-46371525D01*
X222771702Y-46374383D01*
X222683759Y-46381237D01*
X222539964Y-46391570D01*
X222352700Y-46404532D01*
X222134349Y-46419271D01*
X221897294Y-46434937D01*
X221763223Y-46443654D01*
X220726604Y-46529810D01*
X219753568Y-46649524D01*
X219661013Y-46667774D01*
X219606490Y-46688097D01*
X219599732Y-46698230D01*
X215644582Y-46698230D01*
X215701126Y-46653347D01*
X215857287Y-46529588D01*
G37*
G36*
X204454715Y-22950370D02*
G01*
X204591177Y-22970929D01*
X204865796Y-23051810D01*
X205092546Y-23179944D01*
X205276321Y-23359096D01*
X205422012Y-23593034D01*
X205435231Y-23620782D01*
X205477409Y-23720758D01*
X205503609Y-23814040D01*
X205517377Y-23922263D01*
X205522265Y-24067066D01*
X205522505Y-24152866D01*
X205519688Y-24302352D01*
X205512750Y-24427934D01*
X205502869Y-24512689D01*
X205495696Y-24537456D01*
X205455219Y-24557946D01*
X205360240Y-24571410D01*
X205205620Y-24578359D01*
X205070021Y-24579622D01*
X204670356Y-24579702D01*
X204680086Y-24297590D01*
X204682182Y-24145170D01*
X204673836Y-24040493D01*
X204652036Y-23963335D01*
X204621773Y-23906033D01*
X204510661Y-23781835D01*
X204359412Y-23706667D01*
X204162103Y-23677821D01*
X204121221Y-23677339D01*
X203887011Y-23710698D01*
X203674576Y-23802282D01*
X203492710Y-23943186D01*
X203350209Y-24124509D01*
X203255867Y-24337346D01*
X203218478Y-24572795D01*
X203218213Y-24591507D01*
X203221834Y-24710788D01*
X203240306Y-24789248D01*
X203283360Y-24854246D01*
X203328566Y-24901667D01*
X203446855Y-24988581D01*
X203619693Y-25072947D01*
X203713155Y-25108663D01*
X204021365Y-25219870D01*
X204271777Y-25315725D01*
X204472132Y-25400358D01*
X204630168Y-25477902D01*
X204753627Y-25552487D01*
X204850246Y-25628244D01*
X204927766Y-25709304D01*
X204986255Y-25788192D01*
X205119025Y-26046389D01*
X205187761Y-26328189D01*
X205192399Y-26633057D01*
X205132874Y-26960458D01*
X205129406Y-26973119D01*
X205047486Y-27220635D01*
X204944654Y-27429906D01*
X204807141Y-27624358D01*
X204636170Y-27812324D01*
X204393321Y-28030026D01*
X204142598Y-28194161D01*
X203862746Y-28318211D01*
X203809330Y-28336758D01*
X203607862Y-28386216D01*
X203369739Y-28417101D01*
X203124672Y-28427290D01*
X202902369Y-28414659D01*
X202842878Y-28405806D01*
X202568366Y-28326838D01*
X202321663Y-28196313D01*
X202112801Y-28021948D01*
X201951817Y-27811463D01*
X201880053Y-27665199D01*
X201840241Y-27548032D01*
X201816126Y-27428281D01*
X201804330Y-27282778D01*
X201801474Y-27126379D01*
X201803398Y-26974485D01*
X201809252Y-26843994D01*
X201818013Y-26752949D01*
X201824264Y-26724697D01*
X201842608Y-26698402D01*
X201880966Y-26681062D01*
X201951482Y-26670908D01*
X202066297Y-26666172D01*
X202233549Y-26665082D01*
X202619212Y-26665292D01*
X202621450Y-26964207D01*
X202631361Y-27166750D01*
X202661985Y-27317897D01*
X202719899Y-27433146D01*
X202811682Y-27527994D01*
X202882605Y-27579486D01*
X202972898Y-27631235D01*
X203066171Y-27662311D01*
X203187208Y-27679163D01*
X203289667Y-27685417D01*
X203440988Y-27688382D01*
X203553021Y-27677774D01*
X203654261Y-27648962D01*
X203741640Y-27611987D01*
X203944482Y-27489714D01*
X204117893Y-27328031D01*
X204255794Y-27138626D01*
X204352104Y-26933183D01*
X204400743Y-26723388D01*
X204395632Y-26520929D01*
X204365900Y-26412141D01*
X204329677Y-26332640D01*
X204281558Y-26262888D01*
X204214079Y-26198650D01*
X204119775Y-26135688D01*
X203991181Y-26069766D01*
X203820834Y-25996648D01*
X203601269Y-25912097D01*
X203325022Y-25811876D01*
X203280168Y-25795916D01*
X203021182Y-25689159D01*
X202821562Y-25572208D01*
X202672448Y-25439296D01*
X202610893Y-25360451D01*
X202506509Y-25178483D01*
X202445917Y-24992532D01*
X202422288Y-24778082D01*
X202421624Y-24680995D01*
X202459702Y-24346448D01*
X202561663Y-24031174D01*
X202724350Y-23741016D01*
X202944603Y-23481821D01*
X203171830Y-23292274D01*
X203467114Y-23120605D01*
X203788099Y-23004418D01*
X204121671Y-22946684D01*
X204454715Y-22950370D01*
G37*
G36*
X212560693Y-48802030D02*
G01*
X212648677Y-48827636D01*
X212780613Y-48868272D01*
X212946019Y-48920714D01*
X213115490Y-48975556D01*
X213309568Y-49037779D01*
X213553071Y-49114068D01*
X213829760Y-49199438D01*
X214123396Y-49288906D01*
X214417740Y-49377489D01*
X214652590Y-49447255D01*
X215609791Y-49729620D01*
X215608621Y-49863128D01*
X215605188Y-49937729D01*
X215596297Y-50067642D01*
X215582944Y-50240111D01*
X215566122Y-50442381D01*
X215546827Y-50661697D01*
X215543583Y-50697442D01*
X215522127Y-50938327D01*
X215507390Y-51124182D01*
X215499256Y-51268004D01*
X215497605Y-51382792D01*
X215502321Y-51481545D01*
X215513286Y-51577260D01*
X215530381Y-51682935D01*
X215534438Y-51705922D01*
X215581235Y-51990097D01*
X215609206Y-52211978D01*
X215618572Y-52374933D01*
X215609557Y-52482333D01*
X215588888Y-52530969D01*
X215542127Y-52572643D01*
X215452521Y-52641029D01*
X215334456Y-52725436D01*
X215243219Y-52787897D01*
X214943557Y-52989389D01*
X214654535Y-52732245D01*
X214537032Y-52629703D01*
X214437499Y-52546581D01*
X214367245Y-52492080D01*
X214338550Y-52475101D01*
X214307105Y-52498124D01*
X214235247Y-52562309D01*
X214130769Y-52660330D01*
X214001459Y-52784859D01*
X213855111Y-52928571D01*
X213832560Y-52950943D01*
X213353532Y-53426784D01*
X212977489Y-53464145D01*
X212810126Y-53481375D01*
X212655354Y-53498376D01*
X212533579Y-53512851D01*
X212477868Y-53520407D01*
X212401649Y-53528588D01*
X212360045Y-53512151D01*
X212334075Y-53455445D01*
X212315900Y-53386846D01*
X212303778Y-53308403D01*
X212291251Y-53173825D01*
X212279104Y-52995337D01*
X212268122Y-52785164D01*
X212259090Y-52555531D01*
X212255978Y-52453060D01*
X212249509Y-52162114D01*
X212247990Y-51908752D01*
X212252076Y-51672394D01*
X212262425Y-51432461D01*
X212279693Y-51168377D01*
X212304537Y-50859561D01*
X212308181Y-50817092D01*
X212329815Y-50574776D01*
X212354064Y-50317497D01*
X212379955Y-50054236D01*
X212406517Y-49793972D01*
X212432778Y-49545684D01*
X212457764Y-49318350D01*
X212480505Y-49120951D01*
X212500028Y-48962466D01*
X212515361Y-48851873D01*
X212525532Y-48798152D01*
X212527140Y-48794674D01*
X212560693Y-48802030D01*
G37*
G36*
X181382403Y-50263175D02*
G01*
X181382926Y-50218842D01*
X181393901Y-49568674D01*
X181411154Y-48972692D01*
X181435796Y-48416905D01*
X181468935Y-47887322D01*
X181511681Y-47369954D01*
X181565142Y-46850810D01*
X181630428Y-46315901D01*
X181708647Y-45751235D01*
X181769138Y-45347375D01*
X182034882Y-43841074D01*
X182366030Y-42352508D01*
X182761463Y-40883613D01*
X183220065Y-39436326D01*
X183740717Y-38012583D01*
X184322303Y-36614319D01*
X184963703Y-35243471D01*
X185663802Y-33901975D01*
X186421480Y-32591767D01*
X187235621Y-31314783D01*
X188105107Y-30072960D01*
X189028820Y-28868232D01*
X190005643Y-27702537D01*
X191034458Y-26577810D01*
X192114148Y-25495988D01*
X193243594Y-24459007D01*
X194378396Y-23503649D01*
X195586811Y-22572557D01*
X196833738Y-21696460D01*
X198116590Y-20876438D01*
X199432780Y-20113575D01*
X200779717Y-19408951D01*
X202154815Y-18763649D01*
X203555486Y-18178751D01*
X204979139Y-17655338D01*
X206423189Y-17194492D01*
X207885046Y-16797296D01*
X209362121Y-16464830D01*
X210851828Y-16198177D01*
X212327960Y-16001033D01*
X212691370Y-15961328D01*
X213016971Y-15927549D01*
X213314579Y-15899223D01*
X213594007Y-15875877D01*
X213865069Y-15857039D01*
X214137580Y-15842236D01*
X214421354Y-15830995D01*
X214726204Y-15822844D01*
X215061945Y-15817310D01*
X215438390Y-15813921D01*
X215865355Y-15812204D01*
X216259320Y-15811712D01*
X216718588Y-15811888D01*
X217118940Y-15813097D01*
X217469830Y-15815742D01*
X217780709Y-15820221D01*
X218061030Y-15826935D01*
X218320246Y-15836284D01*
X218567809Y-15848670D01*
X218813173Y-15864490D01*
X219065790Y-15884148D01*
X219335112Y-15908041D01*
X219630593Y-15936571D01*
X219934286Y-15967322D01*
X221456345Y-16157820D01*
X222964914Y-16414916D01*
X224457987Y-16737808D01*
X225933561Y-17125693D01*
X227389630Y-17577769D01*
X228824189Y-18093233D01*
X230235234Y-18671283D01*
X231620760Y-19311118D01*
X232978762Y-20011935D01*
X234307236Y-20772932D01*
X235604176Y-21593305D01*
X236867578Y-22472255D01*
X237642496Y-23053467D01*
X238742975Y-23941129D01*
X239821337Y-24887194D01*
X240868737Y-25882996D01*
X241876326Y-26919866D01*
X242835261Y-27989137D01*
X243526433Y-28818573D01*
X244457290Y-30027303D01*
X245334545Y-31277202D01*
X246156676Y-32565273D01*
X246922158Y-33888519D01*
X247629471Y-35243943D01*
X248277090Y-36628548D01*
X248863492Y-38039336D01*
X249387156Y-39473310D01*
X249846557Y-40927473D01*
X250051444Y-41660296D01*
X250412093Y-43139674D01*
X250707756Y-44637367D01*
X250938157Y-46149618D01*
X251103020Y-47672669D01*
X251202070Y-49202761D01*
X251235031Y-50736138D01*
X251201627Y-52269042D01*
X251101583Y-53797715D01*
X251009200Y-54713542D01*
X250800678Y-56238951D01*
X250526058Y-57749198D01*
X250186216Y-59242257D01*
X249782027Y-60716102D01*
X249314367Y-62168709D01*
X248784109Y-63598052D01*
X248192131Y-65002105D01*
X247539306Y-66378843D01*
X246826511Y-67726240D01*
X246054620Y-69042271D01*
X245224508Y-70324910D01*
X244337051Y-71572131D01*
X243393123Y-72781910D01*
X242995583Y-73260027D01*
X242410379Y-73930127D01*
X241778023Y-74615591D01*
X241112915Y-75302019D01*
X240429455Y-75975009D01*
X239742043Y-76620162D01*
X239065081Y-77223077D01*
X238838997Y-77416613D01*
X237644013Y-78383923D01*
X236411032Y-79294909D01*
X235142024Y-80148720D01*
X233838961Y-80944504D01*
X232503813Y-81681409D01*
X231138553Y-82358584D01*
X229745150Y-82975177D01*
X228325576Y-83530337D01*
X226881803Y-84023211D01*
X225415801Y-84452949D01*
X223929542Y-84818698D01*
X222424996Y-85119607D01*
X220904135Y-85354825D01*
X220290901Y-85430415D01*
X218876430Y-85563347D01*
X217460362Y-85638224D01*
X216029230Y-85655557D01*
X214977355Y-85632531D01*
X213447303Y-85543935D01*
X211927162Y-85388202D01*
X210418955Y-85166107D01*
X208924704Y-84878428D01*
X207446430Y-84525942D01*
X205986156Y-84109424D01*
X204545904Y-83629653D01*
X203127696Y-83087404D01*
X201733554Y-82483455D01*
X200365500Y-81818582D01*
X199025557Y-81093562D01*
X197715746Y-80309173D01*
X196438089Y-79466189D01*
X195194610Y-78565390D01*
X193987328Y-77607550D01*
X193901850Y-77536401D01*
X193123847Y-76864718D01*
X192342789Y-76147937D01*
X191572919Y-75400186D01*
X190828480Y-74635593D01*
X190123714Y-73868285D01*
X189625251Y-73294212D01*
X188658825Y-72099180D01*
X187747935Y-70866204D01*
X186893564Y-69597520D01*
X186096693Y-68295363D01*
X185358305Y-66961969D01*
X184679383Y-65599572D01*
X184060909Y-64210407D01*
X183503865Y-62796709D01*
X183009233Y-61360715D01*
X182577996Y-59904658D01*
X182211137Y-58430773D01*
X181909638Y-56941297D01*
X181674480Y-55438464D01*
X181631886Y-55107402D01*
X181565713Y-54547461D01*
X181510678Y-54022875D01*
X181466127Y-53520818D01*
X181431407Y-53028461D01*
X181405864Y-52532974D01*
X181388846Y-52021531D01*
X181379698Y-51481302D01*
X181378296Y-51058358D01*
X183111819Y-51058358D01*
X183158890Y-52547703D01*
X183238147Y-53671601D01*
X183401909Y-55155010D01*
X183632177Y-56625214D01*
X183927989Y-58080088D01*
X184288383Y-59517510D01*
X184712398Y-60935353D01*
X185199072Y-62331496D01*
X185747443Y-63703813D01*
X186356549Y-65050180D01*
X187025430Y-66368474D01*
X187753122Y-67656571D01*
X188538664Y-68912346D01*
X189381095Y-70133675D01*
X190279453Y-71318435D01*
X191232776Y-72464501D01*
X192240102Y-73569749D01*
X192254458Y-73584791D01*
X193323056Y-74657746D01*
X194422237Y-75670169D01*
X195554375Y-76623810D01*
X196721846Y-77520421D01*
X197927027Y-78361751D01*
X199172294Y-79149551D01*
X200460023Y-79885572D01*
X201627826Y-80490638D01*
X202983331Y-81122769D01*
X204364809Y-81692067D01*
X205769867Y-82197912D01*
X207196111Y-82639680D01*
X208641147Y-83016749D01*
X210102582Y-83328497D01*
X211578022Y-83574301D01*
X213065075Y-83753540D01*
X214561346Y-83865590D01*
X214618404Y-83868517D01*
X214772184Y-83874070D01*
X214982797Y-83878451D01*
X215240020Y-83881692D01*
X215533630Y-83883828D01*
X215853403Y-83884889D01*
X216189116Y-83884911D01*
X216530546Y-83883926D01*
X216867469Y-83881968D01*
X217189661Y-83879068D01*
X217486900Y-83875262D01*
X217748962Y-83870581D01*
X217965622Y-83865058D01*
X218126659Y-83858728D01*
X218156628Y-83857048D01*
X219635011Y-83737839D01*
X221078325Y-83562292D01*
X222491769Y-83329325D01*
X223880542Y-83037855D01*
X225249840Y-82686801D01*
X226604863Y-82275080D01*
X227850775Y-81839022D01*
X229239996Y-81286030D01*
X230595927Y-80674344D01*
X231917138Y-80005642D01*
X233202194Y-79281606D01*
X234449665Y-78503916D01*
X235658117Y-77674251D01*
X236826117Y-76794291D01*
X237952234Y-75865717D01*
X239035034Y-74890208D01*
X240073086Y-73869445D01*
X241064956Y-72805107D01*
X242009213Y-71698875D01*
X242904423Y-70552429D01*
X243749155Y-69367449D01*
X244541975Y-68145615D01*
X245281451Y-66888607D01*
X245966152Y-65598104D01*
X246594643Y-64275788D01*
X247165493Y-62923338D01*
X247677269Y-61542433D01*
X248128539Y-60134755D01*
X248517869Y-58701984D01*
X248843829Y-57245798D01*
X248851011Y-57209825D01*
X249042795Y-56164603D01*
X249197288Y-55137705D01*
X249315972Y-54113656D01*
X249400326Y-53076985D01*
X249451829Y-52012218D01*
X249471964Y-50903882D01*
X249472374Y-50714535D01*
X249459476Y-49667267D01*
X249419716Y-48667265D01*
X249351497Y-47698263D01*
X249253220Y-46743995D01*
X249123285Y-45788194D01*
X248960096Y-44814595D01*
X248822355Y-44099596D01*
X248490768Y-42630746D01*
X248095376Y-41186444D01*
X247636271Y-39766912D01*
X247113546Y-38372373D01*
X246527294Y-37003048D01*
X245877606Y-35659158D01*
X245164575Y-34340927D01*
X244388294Y-33048574D01*
X243916559Y-32322118D01*
X243201440Y-31290258D01*
X242463339Y-30304937D01*
X241693158Y-29355350D01*
X240881799Y-28430696D01*
X240020163Y-27520169D01*
X239146668Y-26658333D01*
X238049383Y-25656047D01*
X236910054Y-24706863D01*
X235730935Y-23811798D01*
X234514277Y-22971873D01*
X233262332Y-22188104D01*
X231977353Y-21461512D01*
X230661592Y-20793114D01*
X229317300Y-20183930D01*
X227946730Y-19634978D01*
X226552134Y-19147276D01*
X225135763Y-18721844D01*
X223699871Y-18359700D01*
X222246709Y-18061862D01*
X220778529Y-17829349D01*
X219297583Y-17663181D01*
X219250571Y-17659020D01*
X218636248Y-17612526D01*
X217981140Y-17576520D01*
X217302567Y-17551325D01*
X216617847Y-17537263D01*
X215944302Y-17534655D01*
X215299249Y-17543824D01*
X214700008Y-17565092D01*
X214567126Y-17571912D01*
X213044432Y-17688741D01*
X211539532Y-17871417D01*
X210053580Y-18119467D01*
X208587730Y-18432423D01*
X207143136Y-18809814D01*
X205720953Y-19251170D01*
X204322336Y-19756020D01*
X202948439Y-20323894D01*
X201600416Y-20954322D01*
X200279421Y-21646834D01*
X198986610Y-22400960D01*
X197723136Y-23216229D01*
X196490154Y-24092171D01*
X195288819Y-25028315D01*
X194380450Y-25794792D01*
X194148047Y-26002935D01*
X193878977Y-26252787D01*
X193582333Y-26535258D01*
X193267207Y-26841254D01*
X192942690Y-27161684D01*
X192617876Y-27487456D01*
X192301855Y-27809478D01*
X192003720Y-28118658D01*
X191732563Y-28405904D01*
X191497476Y-28662123D01*
X191373762Y-28801480D01*
X190388796Y-29980025D01*
X189464728Y-31189634D01*
X188601570Y-32430285D01*
X187799333Y-33701959D01*
X187058029Y-35004634D01*
X186377671Y-36338290D01*
X185758269Y-37702905D01*
X185199835Y-39098458D01*
X184702382Y-40524930D01*
X184592953Y-40869044D01*
X184190169Y-42272881D01*
X183850449Y-43700283D01*
X183574193Y-45147467D01*
X183361802Y-46610650D01*
X183213675Y-48086048D01*
X183130214Y-49569879D01*
X183111819Y-51058358D01*
X181378296Y-51058358D01*
X181377769Y-50899459D01*
X181382403Y-50263175D01*
G37*
G36*
X209943527Y-25731786D02*
G01*
X209962618Y-25621642D01*
X210086988Y-25196654D01*
X210273931Y-24790003D01*
X210518841Y-24407310D01*
X210817113Y-24054196D01*
X211164142Y-23736281D01*
X211555321Y-23459187D01*
X211883546Y-23277263D01*
X212286691Y-23109530D01*
X212693431Y-22999556D01*
X213097497Y-22946417D01*
X213492619Y-22949188D01*
X213872528Y-23006942D01*
X214230956Y-23118755D01*
X214561634Y-23283702D01*
X214858294Y-23500859D01*
X215100741Y-23752018D01*
X215311374Y-24063213D01*
X215463699Y-24403958D01*
X215557673Y-24768025D01*
X215593251Y-25149185D01*
X215570390Y-25541210D01*
X215489047Y-25937873D01*
X215349176Y-26332946D01*
X215150734Y-26720200D01*
X215122006Y-26767429D01*
X214920001Y-27047456D01*
X214666018Y-27326898D01*
X214374922Y-27593406D01*
X214061580Y-27834630D01*
X213740856Y-28038223D01*
X213427617Y-28191836D01*
X213388554Y-28207362D01*
X213026069Y-28321771D01*
X212643747Y-28396510D01*
X212262859Y-28428831D01*
X211904679Y-28415984D01*
X211837779Y-28407772D01*
X211457978Y-28322550D01*
X211105454Y-28178999D01*
X210786316Y-27981998D01*
X210506676Y-27736430D01*
X210272642Y-27447174D01*
X210090326Y-27119113D01*
X210027262Y-26961472D01*
X209974405Y-26760132D01*
X209938537Y-26514397D01*
X209920724Y-26246363D01*
X209920946Y-26200779D01*
X210696935Y-26200779D01*
X210745916Y-26520550D01*
X210851120Y-26815460D01*
X211008453Y-27079030D01*
X211213824Y-27304784D01*
X211463139Y-27486246D01*
X211752308Y-27616939D01*
X211832267Y-27641456D01*
X211981784Y-27668456D01*
X212175477Y-27682763D01*
X212390354Y-27684471D01*
X212603426Y-27673678D01*
X212791703Y-27650478D01*
X212857321Y-27637184D01*
X213191965Y-27526047D01*
X213521364Y-27355871D01*
X213834168Y-27135717D01*
X214119029Y-26874644D01*
X214364596Y-26581712D01*
X214548592Y-26287061D01*
X214678185Y-25986028D01*
X214763682Y-25667963D01*
X214803058Y-25348528D01*
X214794291Y-25043391D01*
X214742020Y-24788926D01*
X214645681Y-24541041D01*
X214517289Y-24330856D01*
X214340750Y-24132721D01*
X214314311Y-24107349D01*
X214059584Y-23911217D01*
X213776209Y-23772860D01*
X213470721Y-23691429D01*
X213149655Y-23666074D01*
X212819546Y-23695948D01*
X212486928Y-23780199D01*
X212158337Y-23917980D01*
X211840306Y-24108440D01*
X211539370Y-24350730D01*
X211402325Y-24485809D01*
X211146387Y-24785585D01*
X210952497Y-25084728D01*
X210815270Y-25393914D01*
X210729326Y-25723822D01*
X210708269Y-25862622D01*
X210696935Y-26200779D01*
X209920946Y-26200779D01*
X209922032Y-25978128D01*
X209943527Y-25731786D01*
G37*
G36*
X213490594Y-53848863D02*
G01*
X213592234Y-53918842D01*
X213734118Y-54028463D01*
X213918971Y-54179788D01*
X214149521Y-54374879D01*
X214283018Y-54489684D01*
X214432550Y-54621918D01*
X214531886Y-54717634D01*
X214585361Y-54781555D01*
X214597312Y-54818404D01*
X214591955Y-54826222D01*
X214532811Y-54860869D01*
X214426650Y-54912078D01*
X214290542Y-54972582D01*
X214141555Y-55035115D01*
X213996756Y-55092408D01*
X213873214Y-55137195D01*
X213826578Y-55152087D01*
X213720977Y-55179667D01*
X213648710Y-55182734D01*
X213578773Y-55159914D01*
X213536698Y-55139245D01*
X213458672Y-55090458D01*
X213417275Y-55030914D01*
X213395053Y-54933611D01*
X213392596Y-54916295D01*
X213383102Y-54812130D01*
X213376500Y-54669379D01*
X213372730Y-54502760D01*
X213371730Y-54326987D01*
X213373440Y-54156776D01*
X213377798Y-54006843D01*
X213384743Y-53891904D01*
X213394215Y-53826675D01*
X213397143Y-53819581D01*
X213426473Y-53816463D01*
X213490594Y-53848863D01*
G37*
G36*
X207180532Y-23009037D02*
G01*
X207298002Y-23015800D01*
X207364236Y-23028258D01*
X207387752Y-23047381D01*
X207388122Y-23050857D01*
X207381604Y-23093304D01*
X207363041Y-23195094D01*
X207333919Y-23348552D01*
X207295723Y-23546003D01*
X207249940Y-23779771D01*
X207198054Y-24042181D01*
X207141551Y-24325556D01*
X207136673Y-24349915D01*
X207080613Y-24632435D01*
X207029995Y-24892742D01*
X206986165Y-25123511D01*
X206950467Y-25317416D01*
X206924248Y-25467132D01*
X206908854Y-25565332D01*
X206905629Y-25604691D01*
X206906088Y-25605114D01*
X206933511Y-25581633D01*
X207004689Y-25514140D01*
X207115126Y-25407064D01*
X207260323Y-25264831D01*
X207435785Y-25091869D01*
X207637013Y-24892605D01*
X207859510Y-24671467D01*
X208098779Y-24432883D01*
X208225672Y-24306056D01*
X209524393Y-23006998D01*
X210543379Y-23006998D01*
X209217484Y-24314603D01*
X207891588Y-25622207D01*
X208600996Y-26869986D01*
X208755202Y-27141051D01*
X208901072Y-27397145D01*
X209034666Y-27631372D01*
X209152045Y-27836840D01*
X209249268Y-28006654D01*
X209322395Y-28133921D01*
X209367488Y-28211747D01*
X209377623Y-28228869D01*
X209444842Y-28339973D01*
X208495873Y-28339973D01*
X207904257Y-27297308D01*
X207766004Y-27054754D01*
X207637937Y-26832185D01*
X207524029Y-26636344D01*
X207428255Y-26473974D01*
X207354586Y-26351819D01*
X207306996Y-26276621D01*
X207289881Y-26254643D01*
X207258644Y-26277556D01*
X207189161Y-26340287D01*
X207091046Y-26433824D01*
X206973910Y-26549157D01*
X206947229Y-26575871D01*
X206627337Y-26897099D01*
X206484873Y-27609989D01*
X206342409Y-28322880D01*
X205947245Y-28332468D01*
X205552080Y-28342056D01*
X206618500Y-23006998D01*
X207003311Y-23006998D01*
X207180532Y-23009037D01*
G37*
G36*
X199407064Y-42538447D02*
G01*
X208219975Y-42538447D01*
X208224667Y-42558771D01*
X208242765Y-42561238D01*
X208270904Y-42548730D01*
X208265556Y-42538447D01*
X208224985Y-42534356D01*
X208219975Y-42538447D01*
X199407064Y-42538447D01*
X199410005Y-42504262D01*
X208117417Y-42504262D01*
X208122110Y-42524585D01*
X208140208Y-42527052D01*
X208168347Y-42514544D01*
X208162998Y-42504262D01*
X208122428Y-42500170D01*
X208117417Y-42504262D01*
X199410005Y-42504262D01*
X199412455Y-42475774D01*
X208037651Y-42475774D01*
X208054744Y-42492866D01*
X208071836Y-42475774D01*
X208054744Y-42458681D01*
X208037651Y-42475774D01*
X199412455Y-42475774D01*
X199415886Y-42435890D01*
X207946489Y-42435890D01*
X207951181Y-42456214D01*
X207969279Y-42458681D01*
X207997418Y-42446173D01*
X207992070Y-42435890D01*
X207951499Y-42431799D01*
X207946489Y-42435890D01*
X199415886Y-42435890D01*
X199418827Y-42401704D01*
X207843931Y-42401704D01*
X207848624Y-42422028D01*
X207866722Y-42424495D01*
X207894861Y-42411987D01*
X207889512Y-42401704D01*
X207848942Y-42397613D01*
X207843931Y-42401704D01*
X199418827Y-42401704D01*
X199421768Y-42367519D01*
X207741374Y-42367519D01*
X207746067Y-42387842D01*
X207764165Y-42390309D01*
X207792304Y-42377801D01*
X207786955Y-42367519D01*
X207746385Y-42363427D01*
X207741374Y-42367519D01*
X199421768Y-42367519D01*
X199553607Y-40834858D01*
X199742911Y-40151144D01*
X199815058Y-39888401D01*
X199894732Y-39594641D01*
X199974952Y-39295834D01*
X200048734Y-39017951D01*
X200094440Y-38843539D01*
X200146536Y-38648354D01*
X200194535Y-38478142D01*
X200235338Y-38343139D01*
X200265847Y-38253581D01*
X200282963Y-38219702D01*
X200283323Y-38219650D01*
X200324908Y-38238606D01*
X200409436Y-38289951D01*
X200524894Y-38365395D01*
X200659268Y-38456651D01*
X200800546Y-38555431D01*
X200936715Y-38653447D01*
X201055761Y-38742411D01*
X201145673Y-38814034D01*
X201149285Y-38817094D01*
X201271162Y-38940044D01*
X201385155Y-39099080D01*
X201480861Y-39267095D01*
X201641450Y-39571668D01*
X201522735Y-40100706D01*
X201470320Y-40336915D01*
X201412474Y-40601881D01*
X201355812Y-40865065D01*
X201306949Y-41095931D01*
X201301748Y-41120855D01*
X201199475Y-41611966D01*
X201387662Y-41890034D01*
X201478223Y-42021436D01*
X201563568Y-42141079D01*
X201630649Y-42230842D01*
X201653115Y-42258683D01*
X201730383Y-42349265D01*
X201752055Y-42339031D01*
X207661608Y-42339031D01*
X207678700Y-42356123D01*
X207695793Y-42339031D01*
X207678700Y-42321938D01*
X207661608Y-42339031D01*
X201752055Y-42339031D01*
X202482469Y-41994110D01*
X202696994Y-41894631D01*
X202895802Y-41805875D01*
X203069079Y-41731951D01*
X203207007Y-41676969D01*
X203299773Y-41645039D01*
X203331590Y-41638589D01*
X203386184Y-41644499D01*
X203500051Y-41661500D01*
X203665232Y-41688248D01*
X203873770Y-41723397D01*
X204117707Y-41765602D01*
X204389085Y-41813519D01*
X204679945Y-41865802D01*
X204733205Y-41875473D01*
X205459436Y-42003891D01*
X206124654Y-42113928D01*
X206727496Y-42205372D01*
X207266600Y-42278010D01*
X207464811Y-42301835D01*
X207557349Y-42306992D01*
X207611811Y-42299139D01*
X207618647Y-42289733D01*
X207639884Y-42254729D01*
X207707018Y-42180268D01*
X207814251Y-42071638D01*
X207955782Y-41934125D01*
X208125813Y-41773018D01*
X208318543Y-41593604D01*
X208528175Y-41401170D01*
X208748907Y-41201003D01*
X208974941Y-40998392D01*
X209200478Y-40798624D01*
X209419717Y-40606986D01*
X209626860Y-40428765D01*
X209816107Y-40269250D01*
X209981659Y-40133727D01*
X209995948Y-40122287D01*
X210196606Y-39971230D01*
X210437263Y-39804766D01*
X210696388Y-39637292D01*
X210947673Y-39485962D01*
X211507503Y-39162638D01*
X212139939Y-39167081D01*
X212397555Y-39171894D01*
X212694607Y-39182269D01*
X213002502Y-39196921D01*
X213292646Y-39214566D01*
X213438997Y-39225458D01*
X213659797Y-39242536D01*
X213870418Y-39257388D01*
X214056288Y-39269095D01*
X214202836Y-39276739D01*
X214294028Y-39279401D01*
X214482439Y-39279407D01*
X215602207Y-40400721D01*
X215522406Y-40515232D01*
X215466376Y-40592782D01*
X215382369Y-40705678D01*
X215284337Y-40835263D01*
X215232309Y-40903230D01*
X215094617Y-41088336D01*
X214942372Y-41303019D01*
X214787201Y-41530017D01*
X214640728Y-41752072D01*
X214514579Y-41951925D01*
X214432165Y-42091184D01*
X214358516Y-42208508D01*
X214298568Y-42270809D01*
X214247644Y-42287698D01*
X214195626Y-42278649D01*
X214087585Y-42253208D01*
X213933204Y-42213891D01*
X213742167Y-42163212D01*
X213524155Y-42103687D01*
X213325206Y-42048109D01*
X213055295Y-41972645D01*
X212770484Y-41894249D01*
X212488842Y-41817810D01*
X212228439Y-41748215D01*
X212007344Y-41690353D01*
X211923591Y-41668965D01*
X211714297Y-41616890D01*
X211555707Y-41580375D01*
X211432464Y-41557344D01*
X211329214Y-41545717D01*
X211230604Y-41543417D01*
X211121277Y-41548366D01*
X211063088Y-41552509D01*
X210840701Y-41579017D01*
X210654755Y-41625398D01*
X210533209Y-41671931D01*
X210417990Y-41719801D01*
X210257748Y-41783612D01*
X210071683Y-41855847D01*
X209878991Y-41928987D01*
X209832402Y-41946395D01*
X209640973Y-42018905D01*
X209451416Y-42092870D01*
X209282949Y-42160651D01*
X209154789Y-42214611D01*
X209131594Y-42224913D01*
X209009409Y-42284806D01*
X208875087Y-42358117D01*
X208742131Y-42436473D01*
X208624041Y-42511504D01*
X208534318Y-42574838D01*
X208486465Y-42618102D01*
X208482065Y-42627666D01*
X208488918Y-42646807D01*
X208512640Y-42674920D01*
X208557973Y-42715471D01*
X208629661Y-42771929D01*
X208732446Y-42847760D01*
X208871071Y-42946433D01*
X209050280Y-43071414D01*
X209274815Y-43226172D01*
X209549419Y-43414173D01*
X209677263Y-43501451D01*
X209950230Y-43688278D01*
X210236199Y-43885050D01*
X210522631Y-44083069D01*
X210796988Y-44273633D01*
X211046729Y-44448044D01*
X211259315Y-44597599D01*
X211356027Y-44666229D01*
X211993428Y-45120503D01*
X212239267Y-45500922D01*
X212349075Y-45676050D01*
X212420878Y-45803854D01*
X212458167Y-45891347D01*
X212464436Y-45945540D01*
X212463165Y-45950470D01*
X212439851Y-45997613D01*
X212385658Y-46094302D01*
X212305646Y-46231916D01*
X212204873Y-46401838D01*
X212088398Y-46595448D01*
X211980809Y-46772235D01*
X211520393Y-47524871D01*
X211486209Y-47831045D01*
X211467803Y-47986853D01*
X211448805Y-48132916D01*
X211432538Y-48244090D01*
X211428486Y-48267998D01*
X211404945Y-48398778D01*
X210859802Y-48248032D01*
X210677138Y-48196902D01*
X210518677Y-48151372D01*
X210395679Y-48114772D01*
X210319407Y-48090433D01*
X210299798Y-48082426D01*
X210297810Y-48044828D01*
X210302841Y-47952373D01*
X210313929Y-47818107D01*
X210330109Y-47655077D01*
X210334119Y-47617902D01*
X210383300Y-47168239D01*
X210244594Y-47109329D01*
X210164534Y-47076437D01*
X210035564Y-47024721D01*
X209872518Y-46960076D01*
X209690232Y-46888398D01*
X209593185Y-46850467D01*
X209080482Y-46650514D01*
X208670170Y-46722428D01*
X208463249Y-46758692D01*
X208222209Y-46800933D01*
X207980279Y-46843327D01*
X207811016Y-46872986D01*
X207362174Y-46951631D01*
X206785444Y-46807205D01*
X206568574Y-46753533D01*
X206348592Y-46700201D01*
X206144997Y-46651863D01*
X205977290Y-46613170D01*
X205906626Y-46597517D01*
X205770806Y-46566579D01*
X205661934Y-46538788D01*
X205596258Y-46518429D01*
X205584984Y-46512699D01*
X205575770Y-46471359D01*
X205565817Y-46370979D01*
X205555517Y-46220878D01*
X205545267Y-46030379D01*
X205535461Y-45808802D01*
X205526492Y-45565468D01*
X205518757Y-45309698D01*
X205512649Y-45050814D01*
X205508563Y-44798136D01*
X205507429Y-44680753D01*
X205504693Y-44467699D01*
X205499940Y-44267504D01*
X205493675Y-44094548D01*
X205486406Y-43963211D01*
X205479733Y-43894481D01*
X205460455Y-43798046D01*
X205429145Y-43747916D01*
X205368422Y-43722236D01*
X205336978Y-43714974D01*
X205275437Y-43707709D01*
X205154281Y-43698596D01*
X204982226Y-43688103D01*
X204767987Y-43676699D01*
X204520283Y-43664851D01*
X204247829Y-43653028D01*
X204003734Y-43643363D01*
X202790141Y-43597424D01*
X202570021Y-43788685D01*
X202488335Y-43860637D01*
X202364603Y-43970909D01*
X202207366Y-44111825D01*
X202025166Y-44275711D01*
X201826546Y-44454893D01*
X201620048Y-44641696D01*
X201561542Y-44694719D01*
X201353350Y-44883130D01*
X201149683Y-45066805D01*
X200959282Y-45237907D01*
X200790888Y-45388601D01*
X200653244Y-45511051D01*
X200555090Y-45597422D01*
X200536639Y-45613414D01*
X200300096Y-45817337D01*
X200221637Y-45662957D01*
X200101722Y-45491830D01*
X199925086Y-45329642D01*
X199703378Y-45185652D01*
X199499764Y-45089127D01*
X199217731Y-44974975D01*
X199219522Y-44836411D01*
X199222743Y-44777122D01*
X199231363Y-44656368D01*
X199244846Y-44480795D01*
X199262650Y-44257050D01*
X199284236Y-43991780D01*
X199309066Y-43691633D01*
X199336601Y-43363255D01*
X199366300Y-43013294D01*
X199387460Y-42766352D01*
X199400692Y-42612516D01*
X208413694Y-42612516D01*
X208430787Y-42629609D01*
X208447879Y-42612516D01*
X208430787Y-42595424D01*
X208413694Y-42612516D01*
X199400692Y-42612516D01*
X199404123Y-42572633D01*
X208322532Y-42572633D01*
X208327224Y-42592956D01*
X208345322Y-42595424D01*
X208373461Y-42582916D01*
X208368113Y-42572633D01*
X208327542Y-42568542D01*
X208322532Y-42572633D01*
X199404123Y-42572633D01*
X199407064Y-42538447D01*
G37*
G36*
X216165330Y-25731786D02*
G01*
X216184422Y-25621642D01*
X216308792Y-25196654D01*
X216495734Y-24790003D01*
X216740645Y-24407310D01*
X217038917Y-24054196D01*
X217385945Y-23736281D01*
X217777124Y-23459187D01*
X218105349Y-23277263D01*
X218508495Y-23109530D01*
X218915235Y-22999556D01*
X219319300Y-22946417D01*
X219714422Y-22949188D01*
X220094332Y-23006942D01*
X220452760Y-23118755D01*
X220783438Y-23283702D01*
X221080097Y-23500859D01*
X221322545Y-23752018D01*
X221533177Y-24063213D01*
X221685502Y-24403958D01*
X221779476Y-24768025D01*
X221815055Y-25149185D01*
X221792194Y-25541210D01*
X221710850Y-25937873D01*
X221570979Y-26332946D01*
X221372538Y-26720200D01*
X221343809Y-26767429D01*
X221141804Y-27047456D01*
X220887821Y-27326898D01*
X220596726Y-27593406D01*
X220283383Y-27834630D01*
X219962659Y-28038223D01*
X219649420Y-28191836D01*
X219610358Y-28207362D01*
X219247873Y-28321771D01*
X218865550Y-28396510D01*
X218484663Y-28428831D01*
X218126483Y-28415984D01*
X218059583Y-28407772D01*
X217679782Y-28322550D01*
X217327257Y-28178999D01*
X217008120Y-27981998D01*
X216728479Y-27736430D01*
X216494446Y-27447174D01*
X216312129Y-27119113D01*
X216249065Y-26961472D01*
X216196208Y-26760132D01*
X216160340Y-26514397D01*
X216142527Y-26246363D01*
X216142749Y-26200779D01*
X216918739Y-26200779D01*
X216967720Y-26520550D01*
X217072923Y-26815460D01*
X217230256Y-27079030D01*
X217435627Y-27304784D01*
X217684943Y-27486246D01*
X217974111Y-27616939D01*
X218054071Y-27641456D01*
X218203588Y-27668456D01*
X218397280Y-27682763D01*
X218612157Y-27684471D01*
X218825229Y-27673678D01*
X219013506Y-27650478D01*
X219079124Y-27637184D01*
X219413768Y-27526047D01*
X219743167Y-27355871D01*
X220055972Y-27135717D01*
X220340832Y-26874644D01*
X220586400Y-26581712D01*
X220770395Y-26287061D01*
X220899989Y-25986028D01*
X220985485Y-25667963D01*
X221024861Y-25348528D01*
X221016095Y-25043391D01*
X220963824Y-24788926D01*
X220867484Y-24541041D01*
X220739093Y-24330856D01*
X220562554Y-24132721D01*
X220536114Y-24107349D01*
X220281387Y-23911217D01*
X219998012Y-23772860D01*
X219692525Y-23691429D01*
X219371459Y-23666074D01*
X219041350Y-23695948D01*
X218708732Y-23780199D01*
X218380140Y-23917980D01*
X218062109Y-24108440D01*
X217761174Y-24350730D01*
X217624128Y-24485809D01*
X217368191Y-24785585D01*
X217174300Y-25084728D01*
X217037074Y-25393914D01*
X216951129Y-25723822D01*
X216930073Y-25862622D01*
X216918739Y-26200779D01*
X216142749Y-26200779D01*
X216143835Y-25978128D01*
X216165330Y-25731786D01*
G37*
G36*
X188699532Y-66071611D02*
G01*
X188021718Y-64787727D01*
X187404489Y-63473850D01*
X186849069Y-62131882D01*
X186706717Y-61756527D01*
X186630140Y-61547897D01*
X186549011Y-61322169D01*
X186466590Y-61088908D01*
X186386139Y-60857678D01*
X186310918Y-60638043D01*
X186244190Y-60439565D01*
X186189215Y-60271809D01*
X186149254Y-60144339D01*
X186127568Y-60066717D01*
X186124595Y-60049364D01*
X186158524Y-60048451D01*
X186259284Y-60047548D01*
X186425334Y-60046657D01*
X186655134Y-60045778D01*
X186947142Y-60044913D01*
X187299818Y-60044062D01*
X187711622Y-60043227D01*
X188181013Y-60042409D01*
X188706450Y-60041608D01*
X189286392Y-60040826D01*
X189919300Y-60040063D01*
X190603632Y-60039320D01*
X191337847Y-60038599D01*
X192120405Y-60037901D01*
X192949765Y-60037226D01*
X193824387Y-60036575D01*
X194742730Y-60035950D01*
X195703254Y-60035351D01*
X196704417Y-60034779D01*
X197744678Y-60034236D01*
X198822499Y-60033722D01*
X199936336Y-60033238D01*
X201084651Y-60032786D01*
X202265902Y-60032366D01*
X203478549Y-60031979D01*
X204721051Y-60031626D01*
X205991867Y-60031308D01*
X207289457Y-60031027D01*
X208612280Y-60030783D01*
X209958795Y-60030577D01*
X211327462Y-60030410D01*
X212716741Y-60030283D01*
X214125089Y-60030197D01*
X215550967Y-60030153D01*
X216293505Y-60030148D01*
X217727827Y-60030177D01*
X219145414Y-60030262D01*
X220544724Y-60030403D01*
X221924218Y-60030599D01*
X223282354Y-60030847D01*
X224617592Y-60031146D01*
X225928391Y-60031496D01*
X227213211Y-60031895D01*
X228470511Y-60032342D01*
X229698751Y-60032835D01*
X230896389Y-60033373D01*
X232061886Y-60033954D01*
X233193700Y-60034578D01*
X234290292Y-60035243D01*
X235350120Y-60035948D01*
X236371643Y-60036691D01*
X237353322Y-60037472D01*
X238293616Y-60038288D01*
X239190983Y-60039139D01*
X240043883Y-60040023D01*
X240850777Y-60040939D01*
X241610122Y-60041886D01*
X242320379Y-60042862D01*
X242980007Y-60043865D01*
X243587465Y-60044896D01*
X244141213Y-60045952D01*
X244639709Y-60047032D01*
X245081414Y-60048135D01*
X245464787Y-60049259D01*
X245788287Y-60050403D01*
X246050373Y-60051566D01*
X246249506Y-60052747D01*
X246384144Y-60053944D01*
X246452746Y-60055156D01*
X246461811Y-60055787D01*
X246449352Y-60118484D01*
X246415473Y-60236589D01*
X246363153Y-60401637D01*
X246295369Y-60605165D01*
X246215100Y-60838710D01*
X246125321Y-61093808D01*
X246029012Y-61361996D01*
X245929149Y-61634809D01*
X245828711Y-61903785D01*
X245730674Y-62160460D01*
X245640973Y-62388963D01*
X245069064Y-63731653D01*
X244439505Y-65039631D01*
X243754040Y-66311461D01*
X243014413Y-67545708D01*
X242222367Y-68740934D01*
X241379646Y-69895702D01*
X240487993Y-71008578D01*
X239549153Y-72078122D01*
X238564868Y-73102900D01*
X237536882Y-74081475D01*
X236466939Y-75012410D01*
X235356781Y-75894269D01*
X234208154Y-76725614D01*
X233022800Y-77505011D01*
X231802463Y-78231021D01*
X230548886Y-78902209D01*
X229263813Y-79517138D01*
X227948988Y-80074371D01*
X226606154Y-80572473D01*
X225237054Y-81010006D01*
X223843433Y-81385533D01*
X222427033Y-81697619D01*
X222138583Y-81752780D01*
X221291456Y-81898956D01*
X220435464Y-82022663D01*
X219550462Y-82126571D01*
X218737785Y-82203233D01*
X218585368Y-82213424D01*
X218377363Y-82223331D01*
X218122938Y-82232811D01*
X217831258Y-82241721D01*
X217511491Y-82249916D01*
X217172803Y-82257254D01*
X216824361Y-82263589D01*
X216475330Y-82268780D01*
X216134877Y-82272682D01*
X215812170Y-82275152D01*
X215516373Y-82276046D01*
X215256655Y-82275220D01*
X215042180Y-82272531D01*
X214882117Y-82267835D01*
X214823519Y-82264559D01*
X214729350Y-82257949D01*
X214583636Y-82247930D01*
X214403050Y-82235638D01*
X214204266Y-82222212D01*
X214105618Y-82215587D01*
X212656719Y-82084475D01*
X211220383Y-81886744D01*
X209798680Y-81623341D01*
X208393682Y-81295208D01*
X207007462Y-80903289D01*
X205642090Y-80448530D01*
X204299638Y-79931873D01*
X202982178Y-79354264D01*
X201691780Y-78716646D01*
X200430518Y-78019963D01*
X199200462Y-77265160D01*
X198003683Y-76453181D01*
X196842254Y-75584970D01*
X195718246Y-74661470D01*
X194633730Y-73683627D01*
X193970098Y-73038510D01*
X192954499Y-71974539D01*
X191992135Y-70869160D01*
X191084231Y-69724275D01*
X190232013Y-68541787D01*
X189584844Y-67550506D01*
X211973546Y-67550506D01*
X212312118Y-68137735D01*
X212417834Y-68319886D01*
X212513529Y-68482498D01*
X212593425Y-68615937D01*
X212651745Y-68710569D01*
X212682714Y-68756759D01*
X212684479Y-68758753D01*
X212730532Y-68770421D01*
X212837576Y-68779009D01*
X212998288Y-68784239D01*
X213205348Y-68785834D01*
X213369211Y-68784696D01*
X213571688Y-68783425D01*
X213748490Y-68784552D01*
X213889130Y-68787824D01*
X213983123Y-68792989D01*
X214019984Y-68799796D01*
X214020154Y-68800332D01*
X214004469Y-68836354D01*
X213960837Y-68922445D01*
X213894392Y-69048839D01*
X213810269Y-69205770D01*
X213713604Y-69383472D01*
X213712482Y-69385519D01*
X213615626Y-69563837D01*
X213531283Y-69721970D01*
X213464601Y-69850029D01*
X213420727Y-69938127D01*
X213404812Y-69976375D01*
X213404811Y-69976441D01*
X213420850Y-70011918D01*
X213464965Y-70095958D01*
X213531153Y-70217852D01*
X213613408Y-70366890D01*
X213705727Y-70532364D01*
X213802107Y-70703563D01*
X213896542Y-70869779D01*
X213983030Y-71020302D01*
X214055566Y-71144423D01*
X214108146Y-71231432D01*
X214110518Y-71235212D01*
X214128574Y-71261211D01*
X214151637Y-71280508D01*
X214189015Y-71293947D01*
X214250018Y-71302375D01*
X214343953Y-71306636D01*
X214480131Y-71307578D01*
X214667859Y-71306045D01*
X214863089Y-71303583D01*
X215566800Y-71294347D01*
X215903397Y-70713189D01*
X216007888Y-70534729D01*
X216101546Y-70378453D01*
X216178807Y-70253350D01*
X216234106Y-70168407D01*
X216261878Y-70132610D01*
X216263253Y-70132032D01*
X216287632Y-70159669D01*
X216342122Y-70236772D01*
X216420917Y-70354627D01*
X216518212Y-70504521D01*
X216628202Y-70677742D01*
X216650443Y-70713189D01*
X217014376Y-71294347D01*
X217771201Y-71303541D01*
X218528027Y-71312735D01*
X218863660Y-70671105D01*
X218963999Y-70478381D01*
X219053371Y-70305002D01*
X219126932Y-70160504D01*
X219179838Y-70054426D01*
X219207246Y-69996306D01*
X219209822Y-69989464D01*
X219197103Y-69948267D01*
X219155378Y-69857897D01*
X219089753Y-69728432D01*
X219005335Y-69569953D01*
X218909026Y-69395732D01*
X218811605Y-69220724D01*
X218727970Y-69067146D01*
X218663133Y-68944481D01*
X218622106Y-68862210D01*
X218609899Y-68829815D01*
X218609917Y-68829797D01*
X218646256Y-68824901D01*
X218740309Y-68818461D01*
X218881451Y-68811032D01*
X219059057Y-68803165D01*
X219262500Y-68795414D01*
X219287131Y-68794553D01*
X219952130Y-68771525D01*
X220319251Y-68165777D01*
X220429519Y-67982054D01*
X220526537Y-67816999D01*
X220605012Y-67679899D01*
X220659652Y-67580042D01*
X220685163Y-67526714D01*
X220686372Y-67521599D01*
X220670299Y-67481388D01*
X220625422Y-67391241D01*
X220556749Y-67260644D01*
X220469293Y-67099084D01*
X220368063Y-66916047D01*
X220341281Y-66868205D01*
X219996189Y-66253242D01*
X218507091Y-66234858D01*
X218860892Y-65619515D01*
X218966988Y-65433390D01*
X219060342Y-65266556D01*
X219135882Y-65128332D01*
X219188535Y-65028039D01*
X219213228Y-64974996D01*
X219214443Y-64969986D01*
X219197917Y-64931109D01*
X219152007Y-64842884D01*
X219081975Y-64714907D01*
X218993084Y-64556773D01*
X218890595Y-64378078D01*
X218877014Y-64354643D01*
X218539835Y-63773485D01*
X217775620Y-63764567D01*
X217011406Y-63755649D01*
X216652455Y-64319612D01*
X216541208Y-64493055D01*
X216442236Y-64644816D01*
X216361387Y-64766136D01*
X216304505Y-64848257D01*
X216277440Y-64882421D01*
X216276412Y-64882883D01*
X216254267Y-64854820D01*
X216202715Y-64777067D01*
X216127453Y-64658604D01*
X216034181Y-64508412D01*
X215928596Y-64335472D01*
X215918801Y-64319292D01*
X215578283Y-63756393D01*
X214876137Y-63756699D01*
X214173990Y-63757006D01*
X213380912Y-64974202D01*
X213696498Y-65604530D01*
X214012085Y-66234858D01*
X212706809Y-66269044D01*
X212340177Y-66909775D01*
X211973546Y-67550506D01*
X189584844Y-67550506D01*
X189436705Y-67323598D01*
X188699532Y-66071611D01*
G37*
G36*
X200111888Y-53802839D02*
G01*
X200100742Y-53546960D01*
X200090977Y-53319265D01*
X200082955Y-53128344D01*
X200077039Y-52982787D01*
X200073590Y-52891183D01*
X200072840Y-52864259D01*
X200072375Y-52791910D01*
X200474057Y-52872393D01*
X200638560Y-52905574D01*
X200784319Y-52935378D01*
X200894877Y-52958413D01*
X200951872Y-52970836D01*
X201009592Y-52969283D01*
X201064358Y-52926134D01*
X201116108Y-52855662D01*
X201204211Y-52722528D01*
X201017683Y-52433386D01*
X200916714Y-52273291D01*
X200800575Y-52083655D01*
X200687571Y-51894557D01*
X200635561Y-51805452D01*
X200545800Y-51652436D01*
X200457318Y-51505827D01*
X200381969Y-51385053D01*
X200341932Y-51324169D01*
X200243897Y-51181679D01*
X200782025Y-50670365D01*
X201055898Y-50411570D01*
X201284455Y-50198820D01*
X201470527Y-50029617D01*
X201616943Y-49901459D01*
X201726534Y-49811847D01*
X201802131Y-49758282D01*
X201832940Y-49742169D01*
X201885655Y-49727710D01*
X201994656Y-49702520D01*
X202149117Y-49668935D01*
X202338211Y-49629291D01*
X202551113Y-49585921D01*
X202636305Y-49568890D01*
X203371298Y-49422733D01*
X203897863Y-48897884D01*
X204424428Y-48373034D01*
X204667042Y-48444040D01*
X204766973Y-48474294D01*
X204919906Y-48521887D01*
X205113825Y-48583015D01*
X205336710Y-48653877D01*
X205576545Y-48730671D01*
X205764299Y-48791160D01*
X205999421Y-48866383D01*
X206218164Y-48934973D01*
X206410565Y-48993916D01*
X206566661Y-49040197D01*
X206676488Y-49070802D01*
X206726827Y-49082358D01*
X206832446Y-49084735D01*
X206995939Y-49072225D01*
X207208804Y-49046341D01*
X207462538Y-49008593D01*
X207748641Y-48960494D01*
X208058611Y-48903557D01*
X208383944Y-48839293D01*
X208716141Y-48769214D01*
X209046699Y-48694834D01*
X209367115Y-48617662D01*
X209433349Y-48600982D01*
X210025682Y-48450564D01*
X210057238Y-48533564D01*
X210082633Y-48635615D01*
X210089656Y-48708349D01*
X210093526Y-48759302D01*
X210104318Y-48871481D01*
X210121319Y-49038166D01*
X210143815Y-49252640D01*
X210171094Y-49508182D01*
X210202440Y-49798076D01*
X210237141Y-50115602D01*
X210274482Y-50454042D01*
X210288688Y-50581988D01*
X210486858Y-52363841D01*
X210656845Y-52633132D01*
X210762203Y-52804019D01*
X210834153Y-52932961D01*
X210878650Y-53033916D01*
X210901648Y-53120843D01*
X210909102Y-53207700D01*
X210909252Y-53224813D01*
X210909252Y-53355965D01*
X210695591Y-53376741D01*
X210595351Y-53384815D01*
X210441148Y-53395147D01*
X210247322Y-53406873D01*
X210028211Y-53419132D01*
X209798152Y-53431062D01*
X209764030Y-53432748D01*
X209480482Y-53446702D01*
X209257217Y-53458532D01*
X209086241Y-53469763D01*
X208959562Y-53481918D01*
X208869189Y-53496524D01*
X208807129Y-53515105D01*
X208765391Y-53539186D01*
X208735982Y-53570291D01*
X208710909Y-53609947D01*
X208695712Y-53636582D01*
X208618781Y-53770658D01*
X208490598Y-53717233D01*
X208352710Y-53656121D01*
X208201117Y-53581129D01*
X208024666Y-53486279D01*
X207812201Y-53365593D01*
X207577915Y-53228135D01*
X207372306Y-53108824D01*
X207133884Y-52974531D01*
X206890928Y-52840971D01*
X206671717Y-52723862D01*
X206653128Y-52714150D01*
X206454648Y-52609320D01*
X206245717Y-52496651D01*
X206048307Y-52388132D01*
X205884390Y-52295751D01*
X205851571Y-52276787D01*
X205528613Y-52088888D01*
X204885824Y-52111966D01*
X204684749Y-52118432D01*
X204509397Y-52122634D01*
X204370309Y-52124437D01*
X204278026Y-52123708D01*
X204243090Y-52120313D01*
X204243034Y-52120118D01*
X204267556Y-52095121D01*
X204333196Y-52036976D01*
X204428062Y-51955721D01*
X204540263Y-51861392D01*
X204657909Y-51764026D01*
X204769109Y-51673657D01*
X204820517Y-51632701D01*
X204822462Y-51612943D01*
X204792649Y-51576843D01*
X204726271Y-51520750D01*
X204618523Y-51441013D01*
X204464598Y-51333979D01*
X204259690Y-51195997D01*
X204148731Y-51122281D01*
X203548323Y-50724626D01*
X203288882Y-50746771D01*
X203100111Y-50764591D01*
X202889129Y-50787336D01*
X202668125Y-50813382D01*
X202449286Y-50841111D01*
X202244800Y-50868899D01*
X202066856Y-50895127D01*
X201927639Y-50918172D01*
X201839339Y-50936415D01*
X201820940Y-50942029D01*
X201730383Y-50977183D01*
X201901311Y-51130859D01*
X201984069Y-51204273D01*
X202106279Y-51311404D01*
X202255523Y-51441426D01*
X202419383Y-51583516D01*
X202550840Y-51697042D01*
X203029441Y-52109550D01*
X203342403Y-52790588D01*
X203293047Y-53010607D01*
X203269716Y-53124156D01*
X203256527Y-53207937D01*
X203256216Y-53243138D01*
X203291847Y-53247867D01*
X203388800Y-53256396D01*
X203540162Y-53268223D01*
X203739019Y-53282850D01*
X203978456Y-53299775D01*
X204251560Y-53318499D01*
X204551417Y-53338522D01*
X204790876Y-53354165D01*
X206313010Y-53452680D01*
X206500162Y-53591615D01*
X206585507Y-53650498D01*
X206718176Y-53736476D01*
X206886429Y-53842204D01*
X207078528Y-53960334D01*
X207282734Y-54083521D01*
X207353936Y-54125904D01*
X208020558Y-54521259D01*
X208533344Y-54594972D01*
X208750951Y-54627343D01*
X208994820Y-54665479D01*
X209256323Y-54707855D01*
X209526834Y-54752945D01*
X209797723Y-54799224D01*
X210060365Y-54845168D01*
X210306132Y-54889251D01*
X210526396Y-54929947D01*
X210712530Y-54965732D01*
X210855906Y-54995080D01*
X210947898Y-55016466D01*
X210979412Y-55027402D01*
X210989747Y-55068315D01*
X211003354Y-55167599D01*
X211019231Y-55315385D01*
X211036370Y-55501806D01*
X211053766Y-55716995D01*
X211064168Y-55859488D01*
X211120461Y-56662853D01*
X211604803Y-57141453D01*
X211795937Y-57333456D01*
X211942977Y-57489026D01*
X212053289Y-57616750D01*
X212134237Y-57725211D01*
X212193190Y-57822994D01*
X212198775Y-57833714D01*
X212308404Y-58047375D01*
X202975732Y-58047375D01*
X202913760Y-57902086D01*
X202864510Y-57779903D01*
X202819775Y-57658358D01*
X202811239Y-57633061D01*
X202793644Y-57586770D01*
X202768623Y-57548016D01*
X202726693Y-57510960D01*
X202658368Y-57469761D01*
X202554167Y-57418580D01*
X202404604Y-57351577D01*
X202233444Y-57277269D01*
X202033815Y-57190164D01*
X201883570Y-57121000D01*
X201768990Y-57061395D01*
X201676354Y-57002970D01*
X201591945Y-56937345D01*
X201502042Y-56856140D01*
X201428621Y-56785661D01*
X201177649Y-56529134D01*
X200936664Y-56254199D01*
X200693018Y-55945685D01*
X200453890Y-55616670D01*
X200174798Y-55220017D01*
X200135971Y-54346466D01*
X201201180Y-54346466D01*
X201209632Y-54533289D01*
X201232088Y-54699947D01*
X201270655Y-54862366D01*
X201327438Y-55036468D01*
X201400116Y-55227052D01*
X201465310Y-55391377D01*
X201522024Y-55534644D01*
X201565168Y-55643978D01*
X201589658Y-55706506D01*
X201592602Y-55714199D01*
X201617578Y-55753678D01*
X201625096Y-55756931D01*
X201649798Y-55730237D01*
X201701609Y-55658961D01*
X201771103Y-55556311D01*
X201801961Y-55509084D01*
X201933857Y-55300709D01*
X202054241Y-55101955D01*
X202158760Y-54920832D01*
X202243060Y-54765352D01*
X202302790Y-54643526D01*
X202333597Y-54563365D01*
X202332210Y-54533135D01*
X202227127Y-54473900D01*
X202100326Y-54363280D01*
X201961161Y-54210790D01*
X201818987Y-54025948D01*
X201783315Y-53974692D01*
X201629049Y-53750822D01*
X201507558Y-53583446D01*
X201414549Y-53471609D01*
X201345731Y-53414352D01*
X201296812Y-53410720D01*
X201263499Y-53459755D01*
X201241501Y-53560500D01*
X201226525Y-53711999D01*
X201217871Y-53848628D01*
X201204629Y-54123554D01*
X201201180Y-54346466D01*
X200135971Y-54346466D01*
X200124052Y-54078312D01*
X200111888Y-53802839D01*
G37*
G36*
X212466904Y-55153425D02*
G01*
X212551386Y-55184972D01*
X212673102Y-55235463D01*
X212819674Y-55299952D01*
X212831744Y-55305405D01*
X212993063Y-55376992D01*
X213165488Y-55450460D01*
X213353563Y-55527466D01*
X213561833Y-55609666D01*
X213794844Y-55698715D01*
X214057140Y-55796269D01*
X214353266Y-55903985D01*
X214687767Y-56023518D01*
X215065188Y-56156524D01*
X215490074Y-56304659D01*
X215966970Y-56469579D01*
X216500420Y-56652939D01*
X216994313Y-56822002D01*
X217492368Y-56990505D01*
X217959874Y-57145219D01*
X218390504Y-57284143D01*
X218777934Y-57405273D01*
X219115841Y-57506609D01*
X219397899Y-57586149D01*
X219464052Y-57603730D01*
X219784141Y-57689884D01*
X220069508Y-57771568D01*
X220314823Y-57846988D01*
X220514753Y-57914348D01*
X220663968Y-57971852D01*
X220757136Y-58017706D01*
X220788929Y-58049860D01*
X220755277Y-58055513D01*
X220656450Y-58060664D01*
X220495643Y-58065279D01*
X220276053Y-58069324D01*
X220000873Y-58072763D01*
X219673300Y-58075564D01*
X219296528Y-58077690D01*
X218873753Y-58079108D01*
X218408170Y-58079784D01*
X218011338Y-58079769D01*
X215233748Y-58077978D01*
X214908983Y-57687963D01*
X214584219Y-57297947D01*
X214149463Y-57194061D01*
X213983891Y-57155177D01*
X213841111Y-57122918D01*
X213734924Y-57100312D01*
X213679130Y-57090384D01*
X213675776Y-57090175D01*
X213621373Y-57067397D01*
X213527860Y-57004352D01*
X213404619Y-56908970D01*
X213261031Y-56789184D01*
X213106480Y-56652925D01*
X212950346Y-56508123D01*
X212802012Y-56362712D01*
X212741071Y-56299991D01*
X212402095Y-55944953D01*
X212409736Y-55552689D01*
X212413962Y-55396297D01*
X212419688Y-55266838D01*
X212426137Y-55178506D01*
X212432037Y-55145765D01*
X212466904Y-55153425D01*
G37*
G36*
X185089577Y-48758238D02*
G01*
X185248720Y-48769459D01*
X185456919Y-48786999D01*
X185720963Y-48810617D01*
X185980572Y-48834046D01*
X186255634Y-48858413D01*
X186533324Y-48882350D01*
X186798954Y-48904640D01*
X187037837Y-48924065D01*
X187235285Y-48939406D01*
X187355282Y-48948039D01*
X187782604Y-48976840D01*
X188859454Y-49533624D01*
X189936305Y-50090407D01*
X190688391Y-50186087D01*
X190899315Y-50213460D01*
X191164483Y-50248729D01*
X191470464Y-50290058D01*
X191803826Y-50335614D01*
X192151138Y-50383561D01*
X192498967Y-50432065D01*
X192807906Y-50475607D01*
X194175336Y-50669446D01*
X195235093Y-51080114D01*
X195703010Y-51261836D01*
X196149324Y-51435948D01*
X196570052Y-51600858D01*
X196961210Y-51754972D01*
X197318816Y-51896697D01*
X197638886Y-52024438D01*
X197917437Y-52136603D01*
X198150486Y-52231598D01*
X198334049Y-52307829D01*
X198464145Y-52363703D01*
X198536789Y-52397626D01*
X198551148Y-52406791D01*
X198559079Y-52447927D01*
X198571453Y-52547422D01*
X198587259Y-52695480D01*
X198605486Y-52882307D01*
X198625123Y-53098107D01*
X198638280Y-53250661D01*
X198658135Y-53481877D01*
X198676162Y-53674303D01*
X198694582Y-53840527D01*
X198715616Y-53993138D01*
X198741483Y-54144725D01*
X198774405Y-54307875D01*
X198816603Y-54495178D01*
X198870297Y-54719220D01*
X198937707Y-54992592D01*
X198964791Y-55101609D01*
X199036629Y-55390131D01*
X199093815Y-55622473D01*
X199137575Y-55808960D01*
X199169135Y-55959913D01*
X199189721Y-56085658D01*
X199200558Y-56196516D01*
X199202875Y-56302810D01*
X199197895Y-56414865D01*
X199186846Y-56543002D01*
X199170954Y-56697546D01*
X199163201Y-56772124D01*
X199154649Y-56876696D01*
X199163963Y-56936966D01*
X199201990Y-56976641D01*
X199275326Y-57017233D01*
X199368346Y-57082148D01*
X199481468Y-57186339D01*
X199604967Y-57317695D01*
X199729114Y-57464105D01*
X199844185Y-57613459D01*
X199940452Y-57753648D01*
X200008188Y-57872560D01*
X200037668Y-57958087D01*
X200038189Y-57967055D01*
X200038189Y-58047375D01*
X185580259Y-58047375D01*
X185546265Y-57919179D01*
X185530272Y-57850760D01*
X185503242Y-57726032D01*
X185467423Y-57555758D01*
X185425059Y-57350697D01*
X185378398Y-57121611D01*
X185341099Y-56936339D01*
X185098759Y-55579402D01*
X184918026Y-54231848D01*
X184797874Y-52882106D01*
X184737275Y-51518606D01*
X184735201Y-50129777D01*
X184735461Y-50116285D01*
X184741401Y-49841223D01*
X184748076Y-49582966D01*
X184755161Y-49350822D01*
X184762330Y-49154101D01*
X184769260Y-49002110D01*
X184775625Y-48904159D01*
X184778707Y-48877052D01*
X184784600Y-48837232D01*
X184792014Y-48805432D01*
X184807741Y-48781410D01*
X184838570Y-48764923D01*
X184891292Y-48755727D01*
X184972697Y-48753579D01*
X185089577Y-48758238D01*
G37*
G36*
X227384301Y-23009037D02*
G01*
X227501770Y-23015800D01*
X227568005Y-23028258D01*
X227591521Y-23047381D01*
X227591890Y-23050857D01*
X227585372Y-23093304D01*
X227566810Y-23195094D01*
X227537688Y-23348552D01*
X227499492Y-23546003D01*
X227453708Y-23779771D01*
X227401822Y-24042181D01*
X227345320Y-24325556D01*
X227340442Y-24349915D01*
X227284382Y-24632435D01*
X227233764Y-24892742D01*
X227189933Y-25123511D01*
X227154235Y-25317416D01*
X227128016Y-25467132D01*
X227112622Y-25565332D01*
X227109398Y-25604691D01*
X227109857Y-25605114D01*
X227137279Y-25581633D01*
X227208457Y-25514140D01*
X227318894Y-25407064D01*
X227464092Y-25264831D01*
X227639554Y-25091869D01*
X227840782Y-24892605D01*
X228063279Y-24671467D01*
X228302548Y-24432883D01*
X228429441Y-24306056D01*
X229728161Y-23006998D01*
X230181291Y-23006998D01*
X230366912Y-23007949D01*
X230494548Y-23011639D01*
X230574570Y-23019327D01*
X230617350Y-23032270D01*
X230633257Y-23051725D01*
X230634420Y-23061952D01*
X230610727Y-23095895D01*
X230542676Y-23172943D01*
X230434811Y-23288417D01*
X230291674Y-23437636D01*
X230117808Y-23615920D01*
X229917757Y-23818591D01*
X229696063Y-24040968D01*
X229457270Y-24278372D01*
X229365013Y-24369556D01*
X228095605Y-25622207D01*
X228804889Y-26869986D01*
X228959071Y-27141057D01*
X229104919Y-27397156D01*
X229238493Y-27631387D01*
X229355854Y-27836857D01*
X229453062Y-28006671D01*
X229526178Y-28133935D01*
X229571261Y-28211755D01*
X229581392Y-28228869D01*
X229648611Y-28339973D01*
X228699642Y-28339973D01*
X228108025Y-27297308D01*
X227969772Y-27054754D01*
X227841705Y-26832185D01*
X227727798Y-26636344D01*
X227632023Y-26473974D01*
X227558354Y-26351819D01*
X227510765Y-26276621D01*
X227493649Y-26254643D01*
X227462412Y-26277556D01*
X227392930Y-26340287D01*
X227294814Y-26433824D01*
X227177679Y-26549157D01*
X227150998Y-26575871D01*
X226831105Y-26897099D01*
X226688642Y-27609989D01*
X226546178Y-28322880D01*
X226151013Y-28332468D01*
X225755849Y-28342056D01*
X226822269Y-23006998D01*
X227207080Y-23006998D01*
X227384301Y-23009037D01*
G37*
G36*
X224658483Y-22950370D02*
G01*
X224794946Y-22970929D01*
X225069564Y-23051810D01*
X225296315Y-23179944D01*
X225480089Y-23359096D01*
X225625780Y-23593034D01*
X225638999Y-23620782D01*
X225681178Y-23720758D01*
X225707377Y-23814040D01*
X225721146Y-23922263D01*
X225726033Y-24067066D01*
X225726274Y-24152866D01*
X225723457Y-24302352D01*
X225716518Y-24427934D01*
X225706638Y-24512689D01*
X225699465Y-24537456D01*
X225658987Y-24557946D01*
X225564008Y-24571410D01*
X225409388Y-24578359D01*
X225273789Y-24579622D01*
X224874124Y-24579702D01*
X224883854Y-24297590D01*
X224885950Y-24145170D01*
X224877604Y-24040493D01*
X224855805Y-23963335D01*
X224825541Y-23906033D01*
X224714429Y-23781835D01*
X224563181Y-23706667D01*
X224365872Y-23677821D01*
X224324989Y-23677339D01*
X224090779Y-23710698D01*
X223878344Y-23802282D01*
X223696479Y-23943186D01*
X223553978Y-24124509D01*
X223459635Y-24337346D01*
X223422246Y-24572795D01*
X223421982Y-24591507D01*
X223425603Y-24710788D01*
X223444074Y-24789248D01*
X223487129Y-24854246D01*
X223532334Y-24901667D01*
X223650623Y-24988581D01*
X223823462Y-25072947D01*
X223916924Y-25108663D01*
X224225133Y-25219870D01*
X224475546Y-25315725D01*
X224675900Y-25400358D01*
X224833937Y-25477902D01*
X224957395Y-25552487D01*
X225054014Y-25628244D01*
X225131535Y-25709304D01*
X225190024Y-25788192D01*
X225322794Y-26046389D01*
X225391530Y-26328189D01*
X225396168Y-26633057D01*
X225336642Y-26960458D01*
X225333174Y-26973119D01*
X225251255Y-27220635D01*
X225148423Y-27429906D01*
X225010910Y-27624358D01*
X224839939Y-27812324D01*
X224597089Y-28030026D01*
X224346366Y-28194161D01*
X224066514Y-28318211D01*
X224013099Y-28336758D01*
X223811630Y-28386216D01*
X223573508Y-28417101D01*
X223328441Y-28427290D01*
X223106138Y-28414659D01*
X223046646Y-28405806D01*
X222772135Y-28326838D01*
X222525431Y-28196313D01*
X222316570Y-28021948D01*
X222155586Y-27811463D01*
X222083821Y-27665199D01*
X222044010Y-27548032D01*
X222019895Y-27428281D01*
X222008098Y-27282778D01*
X222005243Y-27126379D01*
X222007167Y-26974485D01*
X222013021Y-26843994D01*
X222021781Y-26752949D01*
X222028032Y-26724697D01*
X222046376Y-26698402D01*
X222084735Y-26681062D01*
X222155250Y-26670908D01*
X222270066Y-26666172D01*
X222437318Y-26665082D01*
X222822980Y-26665292D01*
X222825219Y-26964207D01*
X222835130Y-27166750D01*
X222865754Y-27317897D01*
X222923668Y-27433146D01*
X223015450Y-27527994D01*
X223086373Y-27579486D01*
X223176666Y-27631235D01*
X223269939Y-27662311D01*
X223390977Y-27679163D01*
X223493436Y-27685417D01*
X223644757Y-27688382D01*
X223756789Y-27677774D01*
X223858030Y-27648962D01*
X223945408Y-27611987D01*
X224148250Y-27489714D01*
X224321662Y-27328031D01*
X224459563Y-27138626D01*
X224555873Y-26933183D01*
X224604512Y-26723388D01*
X224599400Y-26520929D01*
X224569668Y-26412141D01*
X224533446Y-26332640D01*
X224485327Y-26262888D01*
X224417848Y-26198650D01*
X224323543Y-26135688D01*
X224194950Y-26069766D01*
X224024603Y-25996648D01*
X223805038Y-25912097D01*
X223528790Y-25811876D01*
X223483936Y-25795916D01*
X223224950Y-25689159D01*
X223025331Y-25572208D01*
X222876217Y-25439296D01*
X222814662Y-25360451D01*
X222710278Y-25178483D01*
X222649686Y-24992532D01*
X222626057Y-24778082D01*
X222625392Y-24680995D01*
X222663471Y-24346448D01*
X222765432Y-24031174D01*
X222928118Y-23741016D01*
X223148372Y-23481821D01*
X223375598Y-23292274D01*
X223670883Y-23120605D01*
X223991868Y-23004418D01*
X224325439Y-22946684D01*
X224658483Y-22950370D01*
G37*
G36*
X198732255Y-46564160D02*
G01*
X198934912Y-46566926D01*
X199157472Y-46571654D01*
X199389674Y-46577947D01*
X199621258Y-46585406D01*
X199841963Y-46593630D01*
X200041529Y-46602222D01*
X200209697Y-46610781D01*
X200336204Y-46618910D01*
X200410791Y-46626210D01*
X200426364Y-46630036D01*
X200436319Y-46669044D01*
X200450987Y-46763152D01*
X200468908Y-46899368D01*
X200488619Y-47064699D01*
X200508661Y-47246155D01*
X200527572Y-47430741D01*
X200543891Y-47605467D01*
X200556156Y-47757341D01*
X200560363Y-47821525D01*
X200573043Y-48039416D01*
X200079050Y-48556518D01*
X199913736Y-48731789D01*
X199716938Y-48944031D01*
X199502025Y-49178606D01*
X199282361Y-49420878D01*
X199071312Y-49656211D01*
X198951263Y-49791520D01*
X198785157Y-49978988D01*
X198632682Y-50149777D01*
X198499980Y-50297109D01*
X198393199Y-50414202D01*
X198318482Y-50494277D01*
X198281976Y-50530554D01*
X198280453Y-50531643D01*
X198234524Y-50544720D01*
X198134534Y-50565024D01*
X197994097Y-50590030D01*
X197826823Y-50617212D01*
X197781931Y-50624124D01*
X197579534Y-50654275D01*
X197389890Y-50680863D01*
X197195535Y-50706101D01*
X196979011Y-50732202D01*
X196722854Y-50761379D01*
X196534151Y-50782239D01*
X196490361Y-50784766D01*
X196445555Y-50779562D01*
X196392274Y-50762511D01*
X196323056Y-50729493D01*
X196230439Y-50676390D01*
X196106962Y-50599086D01*
X195945163Y-50493460D01*
X195737581Y-50355397D01*
X195628229Y-50282247D01*
X195398759Y-50129814D01*
X195164000Y-49976019D01*
X194937096Y-49829317D01*
X194731188Y-49698164D01*
X194559419Y-49591015D01*
X194465914Y-49534455D01*
X194072779Y-49301650D01*
X192974370Y-49111367D01*
X192668522Y-49057616D01*
X192348768Y-49000057D01*
X192030833Y-48941614D01*
X191730444Y-48885215D01*
X191463326Y-48833786D01*
X191245207Y-48790253D01*
X191213804Y-48783780D01*
X191009008Y-48741624D01*
X190826755Y-48704699D01*
X190677760Y-48675126D01*
X190572736Y-48655029D01*
X190522400Y-48646530D01*
X190520311Y-48646387D01*
X190506513Y-48629987D01*
X190511517Y-48623755D01*
X190549671Y-48617041D01*
X190648411Y-48607810D01*
X190800017Y-48596560D01*
X190996769Y-48583793D01*
X191230949Y-48570008D01*
X191494837Y-48555706D01*
X191780714Y-48541385D01*
X191790634Y-48540908D01*
X192119149Y-48524458D01*
X192462584Y-48506034D01*
X192805971Y-48486524D01*
X193134338Y-48466816D01*
X193432718Y-48447797D01*
X193686140Y-48430354D01*
X193802813Y-48421608D01*
X194558420Y-48362612D01*
X194725828Y-48477283D01*
X194832783Y-48552149D01*
X194969600Y-48650128D01*
X195111403Y-48753361D01*
X195151048Y-48782575D01*
X195408859Y-48973196D01*
X195831543Y-48944630D01*
X195958777Y-48934155D01*
X196130336Y-48917283D01*
X196337029Y-48895156D01*
X196569665Y-48868921D01*
X196819054Y-48839721D01*
X197076003Y-48808700D01*
X197331322Y-48777003D01*
X197575820Y-48745775D01*
X197800305Y-48716160D01*
X197995587Y-48689302D01*
X198152475Y-48666346D01*
X198261777Y-48648436D01*
X198314303Y-48636717D01*
X198317298Y-48635112D01*
X198309307Y-48597959D01*
X198261177Y-48509832D01*
X198172429Y-48369972D01*
X198042582Y-48177620D01*
X197888432Y-47956508D01*
X197679388Y-47659853D01*
X197796548Y-47435079D01*
X197867002Y-47310152D01*
X197963078Y-47153432D01*
X198070112Y-46988374D01*
X198140068Y-46885637D01*
X198366430Y-46560969D01*
X198732255Y-46564160D01*
G37*
%TO.C,D21*%
X151550000Y-37569000D02*
X155790000Y-37569000D01*
X152270000Y-35329000D02*
X152270000Y-37569000D01*
X155790000Y-35329000D02*
X151550000Y-35329000D01*
X152390000Y-35329000D02*
X152390000Y-37569000D01*
X155790000Y-37569000D02*
X155790000Y-35329000D01*
X151550000Y-35329000D02*
X151550000Y-37569000D01*
X150900000Y-36449000D02*
X151550000Y-36449000D01*
X156440000Y-36449000D02*
X155790000Y-36449000D01*
X152150000Y-35329000D02*
X152150000Y-37569000D01*
%TO.C,D36*%
X152270000Y-42949000D02*
X152270000Y-45189000D01*
X156440000Y-44069000D02*
X155790000Y-44069000D01*
X155790000Y-42949000D02*
X151550000Y-42949000D01*
X151550000Y-45189000D02*
X155790000Y-45189000D01*
X151550000Y-42949000D02*
X151550000Y-45189000D01*
X150900000Y-44069000D02*
X151550000Y-44069000D01*
X155790000Y-45189000D02*
X155790000Y-42949000D01*
X152150000Y-42949000D02*
X152150000Y-45189000D01*
X152390000Y-42949000D02*
X152390000Y-45189000D01*
%TO.C,D31*%
X155790000Y-57889000D02*
X155790000Y-55649000D01*
X152270000Y-55649000D02*
X152270000Y-57889000D01*
X150900000Y-56769000D02*
X151550000Y-56769000D01*
X155790000Y-55649000D02*
X151550000Y-55649000D01*
X152390000Y-55649000D02*
X152390000Y-57889000D01*
X152150000Y-55649000D02*
X152150000Y-57889000D01*
X151550000Y-57889000D02*
X155790000Y-57889000D01*
X156440000Y-56769000D02*
X155790000Y-56769000D01*
X151550000Y-55649000D02*
X151550000Y-57889000D01*
%TO.C,D32*%
X152390000Y-53109000D02*
X152390000Y-55349000D01*
X150900000Y-54229000D02*
X151550000Y-54229000D01*
X152150000Y-53109000D02*
X152150000Y-55349000D01*
X155790000Y-55349000D02*
X155790000Y-53109000D01*
X151550000Y-55349000D02*
X155790000Y-55349000D01*
X152270000Y-53109000D02*
X152270000Y-55349000D01*
X156440000Y-54229000D02*
X155790000Y-54229000D01*
X151550000Y-53109000D02*
X151550000Y-55349000D01*
X155790000Y-53109000D02*
X151550000Y-53109000D01*
%TO.C,D35*%
X156440000Y-46609000D02*
X155790000Y-46609000D01*
X152270000Y-45489000D02*
X152270000Y-47729000D01*
X150900000Y-46609000D02*
X151550000Y-46609000D01*
X155790000Y-47729000D02*
X155790000Y-45489000D01*
X151550000Y-45489000D02*
X151550000Y-47729000D01*
X152390000Y-45489000D02*
X152390000Y-47729000D01*
X151550000Y-47729000D02*
X155790000Y-47729000D01*
X155790000Y-45489000D02*
X151550000Y-45489000D01*
X152150000Y-45489000D02*
X152150000Y-47729000D01*
%TO.C,D12*%
X151550000Y-14709000D02*
X155790000Y-14709000D01*
X152150000Y-12469000D02*
X152150000Y-14709000D01*
X155790000Y-12469000D02*
X151550000Y-12469000D01*
X152390000Y-12469000D02*
X152390000Y-14709000D01*
X155790000Y-14709000D02*
X155790000Y-12469000D01*
X152270000Y-12469000D02*
X152270000Y-14709000D01*
X150900000Y-13589000D02*
X151550000Y-13589000D01*
X156440000Y-13589000D02*
X155790000Y-13589000D01*
X151550000Y-12469000D02*
X151550000Y-14709000D01*
%TO.C,D9*%
X155790000Y-20089000D02*
X151550000Y-20089000D01*
X151550000Y-20089000D02*
X151550000Y-22329000D01*
X152390000Y-20089000D02*
X152390000Y-22329000D01*
X152270000Y-20089000D02*
X152270000Y-22329000D01*
X151550000Y-22329000D02*
X155790000Y-22329000D01*
X152150000Y-20089000D02*
X152150000Y-22329000D01*
X155790000Y-22329000D02*
X155790000Y-20089000D01*
X150900000Y-21209000D02*
X151550000Y-21209000D01*
X156440000Y-21209000D02*
X155790000Y-21209000D01*
%TO.C,D15*%
X125740000Y-35029000D02*
X125740000Y-32789000D01*
X127230000Y-33909000D02*
X126580000Y-33909000D01*
X121690000Y-33909000D02*
X122340000Y-33909000D01*
X122340000Y-32789000D02*
X122340000Y-35029000D01*
X126580000Y-32789000D02*
X122340000Y-32789000D01*
X122340000Y-35029000D02*
X126580000Y-35029000D01*
X125860000Y-35029000D02*
X125860000Y-32789000D01*
X125980000Y-35029000D02*
X125980000Y-32789000D01*
X126580000Y-35029000D02*
X126580000Y-32789000D01*
%TO.C,D51*%
X137926000Y-65936000D02*
X137926000Y-68176000D01*
X137326000Y-65936000D02*
X137326000Y-68176000D01*
X136676000Y-67056000D02*
X137326000Y-67056000D01*
X137326000Y-68176000D02*
X141566000Y-68176000D01*
X142216000Y-67056000D02*
X141566000Y-67056000D01*
X138046000Y-65936000D02*
X138046000Y-68176000D01*
X141566000Y-65936000D02*
X137326000Y-65936000D01*
X141566000Y-68176000D02*
X141566000Y-65936000D01*
X138166000Y-65936000D02*
X138166000Y-68176000D01*
%TO.C,D7*%
X150900000Y-26289000D02*
X151550000Y-26289000D01*
X155790000Y-25169000D02*
X151550000Y-25169000D01*
X152150000Y-25169000D02*
X152150000Y-27409000D01*
X156440000Y-26289000D02*
X155790000Y-26289000D01*
X152390000Y-25169000D02*
X152390000Y-27409000D01*
X151550000Y-27409000D02*
X155790000Y-27409000D01*
X155790000Y-27409000D02*
X155790000Y-25169000D01*
X151550000Y-25169000D02*
X151550000Y-27409000D01*
X152270000Y-25169000D02*
X152270000Y-27409000D01*
%TO.C,D33*%
X150900000Y-51689000D02*
X151550000Y-51689000D01*
X151550000Y-50569000D02*
X151550000Y-52809000D01*
X152150000Y-50569000D02*
X152150000Y-52809000D01*
X156440000Y-51689000D02*
X155790000Y-51689000D01*
X152390000Y-50569000D02*
X152390000Y-52809000D01*
X151550000Y-52809000D02*
X155790000Y-52809000D01*
X155790000Y-50569000D02*
X151550000Y-50569000D01*
X155790000Y-52809000D02*
X155790000Y-50569000D01*
X152270000Y-50569000D02*
X152270000Y-52809000D01*
%TO.C,D17*%
X122340000Y-37869000D02*
X122340000Y-40109000D01*
X122340000Y-40109000D02*
X126580000Y-40109000D01*
X126580000Y-40109000D02*
X126580000Y-37869000D01*
X126580000Y-37869000D02*
X122340000Y-37869000D01*
X125740000Y-40109000D02*
X125740000Y-37869000D01*
X121690000Y-38989000D02*
X122340000Y-38989000D01*
X125980000Y-40109000D02*
X125980000Y-37869000D01*
X127230000Y-38989000D02*
X126580000Y-38989000D01*
X125860000Y-40109000D02*
X125860000Y-37869000D01*
%TO.C,D16*%
X122340000Y-37569000D02*
X126580000Y-37569000D01*
X121690000Y-36449000D02*
X122340000Y-36449000D01*
X125740000Y-37569000D02*
X125740000Y-35329000D01*
X126580000Y-37569000D02*
X126580000Y-35329000D01*
X122340000Y-35329000D02*
X122340000Y-37569000D01*
X125860000Y-37569000D02*
X125860000Y-35329000D01*
X127230000Y-36449000D02*
X126580000Y-36449000D01*
X125980000Y-37569000D02*
X125980000Y-35329000D01*
X126580000Y-35329000D02*
X122340000Y-35329000D01*
%TO.C,D42*%
X151550000Y-65509000D02*
X155790000Y-65509000D01*
X152150000Y-63269000D02*
X152150000Y-65509000D01*
X152390000Y-63269000D02*
X152390000Y-65509000D01*
X156440000Y-64389000D02*
X155790000Y-64389000D01*
X152270000Y-63269000D02*
X152270000Y-65509000D01*
X150900000Y-64389000D02*
X151550000Y-64389000D01*
X155790000Y-63269000D02*
X151550000Y-63269000D01*
X151550000Y-63269000D02*
X151550000Y-65509000D01*
X155790000Y-65509000D02*
X155790000Y-63269000D01*
%TO.C,D11*%
X152150000Y-15009000D02*
X152150000Y-17249000D01*
X152270000Y-15009000D02*
X152270000Y-17249000D01*
X152390000Y-15009000D02*
X152390000Y-17249000D01*
X156440000Y-16129000D02*
X155790000Y-16129000D01*
X151550000Y-15009000D02*
X151550000Y-17249000D01*
X155790000Y-15009000D02*
X151550000Y-15009000D01*
X151550000Y-17249000D02*
X155790000Y-17249000D01*
X155790000Y-17249000D02*
X155790000Y-15009000D01*
X150900000Y-16129000D02*
X151550000Y-16129000D01*
%TO.C,D25*%
X125860000Y-45189000D02*
X125860000Y-42949000D01*
X127230000Y-44069000D02*
X126580000Y-44069000D01*
X121690000Y-44069000D02*
X122340000Y-44069000D01*
X125980000Y-45189000D02*
X125980000Y-42949000D01*
X122340000Y-45189000D02*
X126580000Y-45189000D01*
X126580000Y-42949000D02*
X122340000Y-42949000D01*
X122340000Y-42949000D02*
X122340000Y-45189000D01*
X126580000Y-45189000D02*
X126580000Y-42949000D01*
X125740000Y-45189000D02*
X125740000Y-42949000D01*
%TO.C,D19*%
X150900000Y-41529000D02*
X151550000Y-41529000D01*
X152150000Y-40409000D02*
X152150000Y-42649000D01*
X156440000Y-41529000D02*
X155790000Y-41529000D01*
X155790000Y-42649000D02*
X155790000Y-40409000D01*
X151550000Y-40409000D02*
X151550000Y-42649000D01*
X151550000Y-42649000D02*
X155790000Y-42649000D01*
X155790000Y-40409000D02*
X151550000Y-40409000D01*
X152390000Y-40409000D02*
X152390000Y-42649000D01*
X152270000Y-40409000D02*
X152270000Y-42649000D01*
%TO.C,D8*%
X155790000Y-22629000D02*
X151550000Y-22629000D01*
X152390000Y-22629000D02*
X152390000Y-24869000D01*
X152150000Y-22629000D02*
X152150000Y-24869000D01*
X152270000Y-22629000D02*
X152270000Y-24869000D01*
X151550000Y-24869000D02*
X155790000Y-24869000D01*
X150900000Y-23749000D02*
X151550000Y-23749000D01*
X151550000Y-22629000D02*
X151550000Y-24869000D01*
X155790000Y-24869000D02*
X155790000Y-22629000D01*
X156440000Y-23749000D02*
X155790000Y-23749000D01*
%TO.C,D44*%
X151550000Y-60429000D02*
X155790000Y-60429000D01*
X152270000Y-58189000D02*
X152270000Y-60429000D01*
X156440000Y-59309000D02*
X155790000Y-59309000D01*
X150900000Y-59309000D02*
X151550000Y-59309000D01*
X152390000Y-58189000D02*
X152390000Y-60429000D01*
X152150000Y-58189000D02*
X152150000Y-60429000D01*
X151550000Y-58189000D02*
X151550000Y-60429000D01*
X155790000Y-58189000D02*
X151550000Y-58189000D01*
X155790000Y-60429000D02*
X155790000Y-58189000D01*
%TO.C,D20*%
X151550000Y-40109000D02*
X155790000Y-40109000D01*
X152150000Y-37869000D02*
X152150000Y-40109000D01*
X150900000Y-38989000D02*
X151550000Y-38989000D01*
X156440000Y-38989000D02*
X155790000Y-38989000D01*
X155790000Y-40109000D02*
X155790000Y-37869000D01*
X152270000Y-37869000D02*
X152270000Y-40109000D01*
X151550000Y-37869000D02*
X151550000Y-40109000D01*
X152390000Y-37869000D02*
X152390000Y-40109000D01*
X155790000Y-37869000D02*
X151550000Y-37869000D01*
%TO.C,D26*%
X126580000Y-47729000D02*
X126580000Y-45489000D01*
X125860000Y-47729000D02*
X125860000Y-45489000D01*
X125740000Y-47729000D02*
X125740000Y-45489000D01*
X121690000Y-46609000D02*
X122340000Y-46609000D01*
X125980000Y-47729000D02*
X125980000Y-45489000D01*
X127230000Y-46609000D02*
X126580000Y-46609000D01*
X126580000Y-45489000D02*
X122340000Y-45489000D01*
X122340000Y-47729000D02*
X126580000Y-47729000D01*
X122340000Y-45489000D02*
X122340000Y-47729000D01*
%TO.C,D1*%
X127230000Y-13589000D02*
X126580000Y-13589000D01*
X122340000Y-14709000D02*
X126580000Y-14709000D01*
X125740000Y-14709000D02*
X125740000Y-12469000D01*
X125860000Y-14709000D02*
X125860000Y-12469000D01*
X122340000Y-12469000D02*
X122340000Y-14709000D01*
X126580000Y-14709000D02*
X126580000Y-12469000D01*
X121690000Y-13589000D02*
X122340000Y-13589000D01*
X126580000Y-12469000D02*
X122340000Y-12469000D01*
X125980000Y-14709000D02*
X125980000Y-12469000D01*
%TO.C,D13*%
X125980000Y-29949000D02*
X125980000Y-27709000D01*
X122340000Y-29949000D02*
X126580000Y-29949000D01*
X126580000Y-27709000D02*
X122340000Y-27709000D01*
X127230000Y-28829000D02*
X126580000Y-28829000D01*
X121690000Y-28829000D02*
X122340000Y-28829000D01*
X125860000Y-29949000D02*
X125860000Y-27709000D01*
X122340000Y-27709000D02*
X122340000Y-29949000D01*
X126580000Y-29949000D02*
X126580000Y-27709000D01*
X125740000Y-29949000D02*
X125740000Y-27709000D01*
%TO.C,D29*%
X126580000Y-53109000D02*
X122340000Y-53109000D01*
X126580000Y-55349000D02*
X126580000Y-53109000D01*
X125980000Y-55349000D02*
X125980000Y-53109000D01*
X122340000Y-53109000D02*
X122340000Y-55349000D01*
X121690000Y-54229000D02*
X122340000Y-54229000D01*
X125860000Y-55349000D02*
X125860000Y-53109000D01*
X125740000Y-55349000D02*
X125740000Y-53109000D01*
X127230000Y-54229000D02*
X126580000Y-54229000D01*
X122340000Y-55349000D02*
X126580000Y-55349000D01*
%TO.C,D10*%
X152150000Y-17549000D02*
X152150000Y-19789000D01*
X152390000Y-17549000D02*
X152390000Y-19789000D01*
X150900000Y-18669000D02*
X151550000Y-18669000D01*
X151550000Y-17549000D02*
X151550000Y-19789000D01*
X152270000Y-17549000D02*
X152270000Y-19789000D01*
X156440000Y-18669000D02*
X155790000Y-18669000D01*
X151550000Y-19789000D02*
X155790000Y-19789000D01*
X155790000Y-17549000D02*
X151550000Y-17549000D01*
X155790000Y-19789000D02*
X155790000Y-17549000D01*
%TO.C,D41*%
X155790000Y-65809000D02*
X151550000Y-65809000D01*
X156440000Y-66929000D02*
X155790000Y-66929000D01*
X152150000Y-65809000D02*
X152150000Y-68049000D01*
X152270000Y-65809000D02*
X152270000Y-68049000D01*
X151550000Y-68049000D02*
X155790000Y-68049000D01*
X151550000Y-65809000D02*
X151550000Y-68049000D01*
X152390000Y-65809000D02*
X152390000Y-68049000D01*
X150900000Y-66929000D02*
X151550000Y-66929000D01*
X155790000Y-68049000D02*
X155790000Y-65809000D01*
%TO.C,D37*%
X126580000Y-58189000D02*
X122340000Y-58189000D01*
X121690000Y-59309000D02*
X122340000Y-59309000D01*
X122340000Y-58189000D02*
X122340000Y-60429000D01*
X126580000Y-60429000D02*
X126580000Y-58189000D01*
X125980000Y-60429000D02*
X125980000Y-58189000D01*
X125860000Y-60429000D02*
X125860000Y-58189000D01*
X125740000Y-60429000D02*
X125740000Y-58189000D01*
X122340000Y-60429000D02*
X126580000Y-60429000D01*
X127230000Y-59309000D02*
X126580000Y-59309000D01*
%TO.C,D38*%
X121690000Y-61849000D02*
X122340000Y-61849000D01*
X122340000Y-60729000D02*
X122340000Y-62969000D01*
X126580000Y-62969000D02*
X126580000Y-60729000D01*
X125860000Y-62969000D02*
X125860000Y-60729000D01*
X125980000Y-62969000D02*
X125980000Y-60729000D01*
X125740000Y-62969000D02*
X125740000Y-60729000D01*
X126580000Y-60729000D02*
X122340000Y-60729000D01*
X127230000Y-61849000D02*
X126580000Y-61849000D01*
X122340000Y-62969000D02*
X126580000Y-62969000D01*
%TD*%
D13*
%TO.C,U1*%
X131445000Y-15194700D03*
D14*
X131445000Y-17734700D03*
X131445000Y-20274700D03*
X131445000Y-22814700D03*
X131445000Y-25354700D03*
X131445000Y-27894700D03*
X131445000Y-30434700D03*
X131445000Y-32974700D03*
X131445000Y-35514700D03*
X131445000Y-38054700D03*
X131445000Y-40594700D03*
X131445000Y-43134700D03*
X146685000Y-43134700D03*
X146685000Y-40594700D03*
X146685000Y-38054700D03*
X146685000Y-35514700D03*
X146685000Y-32974700D03*
X146685000Y-30434700D03*
X146685000Y-27894700D03*
X146685000Y-25354700D03*
X146685000Y-22814700D03*
X146685000Y-20274700D03*
X146685000Y-17734700D03*
X146685000Y-15194700D03*
%TD*%
M02*
