M48
; DRILL file {KiCad (6.0.7)} date Sun Oct  9 17:02:45 2022
; FORMAT={-:-/ absolute / inch / decimal}
; #@! TF.CreationDate,2022-10-09T17:02:45+02:00
; #@! TF.GenerationSoftware,Kicad,Pcbnew,(6.0.7)
; #@! TF.FileFunction,NonPlated,1,2,NPTH
FMAT,2
INCH
; #@! TA.AperFunction,NonPlated,NPTH,ComponentDrill
T1C0.0689
; #@! TA.AperFunction,NonPlated,NPTH,ComponentDrill
T2C0.1200
; #@! TA.AperFunction,NonPlated,NPTH,ComponentDrill
T3C0.1570
%
G90
G05
T1
X0.364Y-0.845
X0.364Y-1.595
X0.365Y-2.345
X0.365Y-3.095
X0.764Y-0.845
X0.764Y-1.595
X0.765Y-2.345
X0.765Y-3.095
X1.115Y-0.845
X1.115Y-1.595
X1.115Y-2.345
X1.21Y-3.095
X1.515Y-0.845
X1.515Y-1.595
X1.515Y-2.345
X1.61Y-3.095
X1.865Y-0.845
X1.865Y-1.595
X1.865Y-2.345
X2.265Y-0.845
X2.265Y-1.595
X2.265Y-2.345
X2.365Y-3.095
X2.615Y-0.845
X2.615Y-1.595
X2.615Y-2.345
X2.765Y-3.095
X3.015Y-0.845
X3.015Y-1.595
X3.015Y-2.345
X3.365Y-0.845
X3.365Y-1.595
X3.365Y-2.345
X3.765Y-0.845
X3.765Y-1.595
X3.765Y-2.345
X3.96Y-3.095
X4.115Y-0.845
X4.115Y-1.595
X4.115Y-2.345
X4.36Y-3.095
X4.515Y-0.845
X4.515Y-1.595
X4.515Y-2.345
X6.44Y-0.845
X6.44Y-1.595
X6.44Y-2.345
X6.595Y-3.095
X6.84Y-0.845
X6.84Y-1.595
X6.84Y-2.345
X6.995Y-3.095
X7.19Y-0.845
X7.19Y-1.595
X7.19Y-2.345
X7.59Y-0.845
X7.59Y-1.595
X7.59Y-2.345
X7.94Y-0.845
X7.94Y-1.595
X7.94Y-2.345
X8.19Y-3.095
X8.34Y-0.845
X8.34Y-1.595
X8.34Y-2.345
X8.59Y-3.095
X8.69Y-0.845
X8.69Y-1.595
X8.69Y-2.345
X9.09Y-0.845
X9.09Y-1.595
X9.09Y-2.345
X9.345Y-3.095
X9.44Y-0.845
X9.44Y-1.595
X9.44Y-2.345
X9.745Y-3.095
X9.84Y-0.845
X9.84Y-1.595
X9.84Y-2.345
X10.19Y-0.845
X10.19Y-1.595
X10.19Y-2.344
X10.19Y-3.095
X10.59Y-0.845
X10.59Y-1.595
X10.59Y-2.344
X10.59Y-3.095
T2
X3.41Y-2.82
X4.91Y-2.82
X6.045Y-2.82
X7.545Y-2.82
T3
X0.564Y-0.845
X0.564Y-1.595
X0.565Y-2.345
X0.565Y-3.095
X1.315Y-0.845
X1.315Y-1.595
X1.315Y-2.345
X1.41Y-3.095
X2.065Y-0.845
X2.065Y-1.595
X2.065Y-2.345
X2.565Y-3.095
X2.815Y-0.845
X2.815Y-1.595
X2.815Y-2.345
X3.41Y-3.42
X3.565Y-0.845
X3.565Y-1.595
X3.565Y-2.345
X4.16Y-3.095
X4.315Y-0.845
X4.315Y-1.595
X4.315Y-2.345
X4.91Y-3.42
X6.045Y-3.42
X6.64Y-0.845
X6.64Y-1.595
X6.64Y-2.345
X6.795Y-3.095
X7.39Y-0.845
X7.39Y-1.595
X7.39Y-2.345
X7.545Y-3.42
X8.14Y-0.845
X8.14Y-1.595
X8.14Y-2.345
X8.39Y-3.095
X8.89Y-0.845
X8.89Y-1.595
X8.89Y-2.345
X9.545Y-3.095
X9.64Y-0.845
X9.64Y-1.595
X9.64Y-2.345
X10.39Y-0.845
X10.39Y-1.595
X10.39Y-2.344
X10.39Y-3.095
T0
M30
