%TF.GenerationSoftware,KiCad,Pcbnew,(6.0.7)*%
%TF.CreationDate,2023-01-10T10:05:43+01:00*%
%TF.ProjectId,skoosk switchplate 8 screwholes,736b6f6f-736b-4207-9377-69746368706c,rev?*%
%TF.SameCoordinates,Original*%
%TF.FileFunction,Copper,L2,Bot*%
%TF.FilePolarity,Positive*%
%FSLAX46Y46*%
G04 Gerber Fmt 4.6, Leading zero omitted, Abs format (unit mm)*
G04 Created by KiCad (PCBNEW (6.0.7)) date 2023-01-10 10:05:44*
%MOMM*%
%LPD*%
G01*
G04 APERTURE LIST*
%TA.AperFunction,ComponentPad*%
%ADD10C,4.400000*%
%TD*%
G04 APERTURE END LIST*
D10*
%TO.P,H2,1,1*%
%TO.N,N/C*%
X115887500Y-91537469D03*
%TD*%
%TO.P,H3,1,1*%
%TO.N,N/C*%
X162369692Y-8481252D03*
%TD*%
%TO.P,H4,1,1*%
%TO.N,N/C*%
X273177000Y-8509000D03*
%TD*%
%TO.P,H1,1,1*%
%TO.N,N/C*%
X5207000Y-91567000D03*
%TD*%
%TO.P,H4,1,1*%
%TO.N,N/C*%
X273304000Y-91567000D03*
%TD*%
%TO.P,H1,1,1*%
%TO.N,N/C*%
X4953000Y-8509000D03*
%TD*%
%TO.P,H2,1,1*%
%TO.N,N/C*%
X115887500Y-8509000D03*
%TD*%
%TO.P,H3,1,1*%
%TO.N,N/C*%
X162689708Y-91391033D03*
%TD*%
%TA.AperFunction,NonConductor*%
G36*
X274324935Y-5970388D02*
G01*
X274433342Y-5978912D01*
X274434266Y-5978989D01*
X274465536Y-5981722D01*
X274514073Y-5985966D01*
X274532506Y-5988967D01*
X274591495Y-6003125D01*
X274632792Y-6013037D01*
X274635921Y-6013831D01*
X274719007Y-6036089D01*
X274734600Y-6041382D01*
X274828798Y-6080397D01*
X274833829Y-6082610D01*
X274912696Y-6119383D01*
X274925282Y-6126146D01*
X275011804Y-6179164D01*
X275018240Y-6183383D01*
X275089845Y-6233519D01*
X275099397Y-6240914D01*
X275176445Y-6306719D01*
X275183699Y-6313425D01*
X275245575Y-6375301D01*
X275252281Y-6382555D01*
X275318086Y-6459603D01*
X275325481Y-6469155D01*
X275375617Y-6540760D01*
X275379836Y-6547196D01*
X275432854Y-6633718D01*
X275439616Y-6646301D01*
X275443646Y-6654945D01*
X275476390Y-6725171D01*
X275478603Y-6730202D01*
X275517618Y-6824400D01*
X275522911Y-6839993D01*
X275545169Y-6923079D01*
X275545967Y-6926225D01*
X275570033Y-7026494D01*
X275573034Y-7044927D01*
X275580004Y-7124648D01*
X275580095Y-7125745D01*
X275588614Y-7234091D01*
X275589002Y-7243913D01*
X275589198Y-7695014D01*
X275569226Y-7763144D01*
X275515590Y-7809660D01*
X275445321Y-7819794D01*
X275380727Y-7790329D01*
X275343885Y-7735570D01*
X275308271Y-7630654D01*
X275308271Y-7630653D01*
X275306945Y-7626748D01*
X275173566Y-7356282D01*
X275098512Y-7243955D01*
X275008318Y-7108970D01*
X275008314Y-7108965D01*
X275006025Y-7105539D01*
X275003311Y-7102445D01*
X275003307Y-7102439D01*
X274809898Y-6881900D01*
X274807189Y-6878811D01*
X274745206Y-6824453D01*
X274583561Y-6682693D01*
X274583555Y-6682689D01*
X274580461Y-6679975D01*
X274577035Y-6677686D01*
X274577030Y-6677682D01*
X274333151Y-6514728D01*
X274329718Y-6512434D01*
X274326019Y-6510610D01*
X274326014Y-6510607D01*
X274187166Y-6442135D01*
X274059252Y-6379055D01*
X274048193Y-6375301D01*
X273777604Y-6283448D01*
X273777600Y-6283447D01*
X273773691Y-6282120D01*
X273769647Y-6281316D01*
X273769641Y-6281314D01*
X273481959Y-6224090D01*
X273481953Y-6224089D01*
X273477920Y-6223287D01*
X273473815Y-6223018D01*
X273473808Y-6223017D01*
X273454164Y-6221730D01*
X273387498Y-6197316D01*
X273344614Y-6140734D01*
X273339127Y-6069950D01*
X273372781Y-6007436D01*
X273434889Y-5973041D01*
X273462405Y-5970000D01*
X274315058Y-5970000D01*
X274324935Y-5970388D01*
G37*
%TD.AperFunction*%
%TA.AperFunction,NonConductor*%
G36*
X4735716Y-5990002D02*
G01*
X4782209Y-6043658D01*
X4792313Y-6113932D01*
X4762819Y-6178512D01*
X4703093Y-6216896D01*
X4675836Y-6221730D01*
X4656192Y-6223017D01*
X4656185Y-6223018D01*
X4652080Y-6223287D01*
X4648047Y-6224089D01*
X4648041Y-6224090D01*
X4360359Y-6281314D01*
X4360353Y-6281316D01*
X4356309Y-6282120D01*
X4352400Y-6283447D01*
X4352396Y-6283448D01*
X4081807Y-6375301D01*
X4070748Y-6379055D01*
X3942834Y-6442135D01*
X3803986Y-6510607D01*
X3803981Y-6510610D01*
X3800282Y-6512434D01*
X3796849Y-6514728D01*
X3552970Y-6677682D01*
X3552965Y-6677686D01*
X3549539Y-6679975D01*
X3546445Y-6682689D01*
X3546439Y-6682693D01*
X3384794Y-6824453D01*
X3322811Y-6878811D01*
X3320102Y-6881900D01*
X3126693Y-7102439D01*
X3126689Y-7102445D01*
X3123975Y-7105539D01*
X3121686Y-7108965D01*
X3121682Y-7108970D01*
X3031488Y-7243955D01*
X2956434Y-7356282D01*
X2823055Y-7626748D01*
X2821729Y-7630653D01*
X2821729Y-7630654D01*
X2757525Y-7819794D01*
X2726120Y-7912309D01*
X2725316Y-7916353D01*
X2725314Y-7916359D01*
X2672605Y-8181345D01*
X2639697Y-8244254D01*
X2578002Y-8279386D01*
X2507108Y-8275586D01*
X2449522Y-8234060D01*
X2423527Y-8167993D01*
X2423026Y-8156763D01*
X2423026Y-7243955D01*
X2423414Y-7234070D01*
X2423981Y-7226866D01*
X2431986Y-7125160D01*
X2432047Y-7124425D01*
X2438996Y-7044975D01*
X2441997Y-7026543D01*
X2466140Y-6925978D01*
X2466929Y-6922870D01*
X2489123Y-6840042D01*
X2494416Y-6824453D01*
X2533494Y-6730113D01*
X2535707Y-6725083D01*
X2572411Y-6646370D01*
X2579174Y-6633783D01*
X2632281Y-6547122D01*
X2636499Y-6540688D01*
X2686538Y-6469226D01*
X2693929Y-6459680D01*
X2694004Y-6459593D01*
X2759828Y-6382523D01*
X2766544Y-6375259D01*
X2828287Y-6313516D01*
X2835552Y-6306800D01*
X2912695Y-6240914D01*
X2922254Y-6233512D01*
X2993717Y-6183473D01*
X3000154Y-6179253D01*
X3086816Y-6126147D01*
X3099401Y-6119385D01*
X3178094Y-6082691D01*
X3183125Y-6080477D01*
X3277478Y-6041395D01*
X3293084Y-6036098D01*
X3375825Y-6013927D01*
X3378991Y-6013122D01*
X3459705Y-5993745D01*
X3479570Y-5988976D01*
X3498002Y-5985974D01*
X3576953Y-5979067D01*
X3578048Y-5978976D01*
X3687171Y-5970388D01*
X3697057Y-5970000D01*
X4667595Y-5970000D01*
X4735716Y-5990002D01*
G37*
%TD.AperFunction*%
%TA.AperFunction,NonConductor*%
G36*
X275571352Y-92496041D02*
G01*
X275616229Y-92551056D01*
X275626109Y-92599911D01*
X275626160Y-92716014D01*
X275626210Y-92832018D01*
X275625822Y-92841955D01*
X275617339Y-92949750D01*
X275617282Y-92950433D01*
X275610216Y-93031149D01*
X275607218Y-93049559D01*
X275583257Y-93149364D01*
X275582464Y-93152485D01*
X275579226Y-93164569D01*
X275560066Y-93236074D01*
X275554768Y-93251679D01*
X275515901Y-93345515D01*
X275513688Y-93350546D01*
X275495558Y-93389426D01*
X275476746Y-93429768D01*
X275469987Y-93442348D01*
X275417111Y-93528634D01*
X275412912Y-93535038D01*
X275391658Y-93565393D01*
X275362583Y-93606916D01*
X275355181Y-93616475D01*
X275289570Y-93693296D01*
X275282855Y-93700561D01*
X275220769Y-93762648D01*
X275213503Y-93769364D01*
X275136682Y-93834975D01*
X275127124Y-93842376D01*
X275055267Y-93892692D01*
X275048830Y-93896912D01*
X274962565Y-93949776D01*
X274949981Y-93956538D01*
X274870761Y-93993480D01*
X274865749Y-93995686D01*
X274771880Y-94034569D01*
X274756284Y-94039862D01*
X274672697Y-94062260D01*
X274669548Y-94063060D01*
X274621840Y-94074514D01*
X274569792Y-94087010D01*
X274551362Y-94090012D01*
X274527382Y-94092111D01*
X274470039Y-94097128D01*
X274469324Y-94097188D01*
X274362294Y-94105612D01*
X274352409Y-94106000D01*
X273589405Y-94106000D01*
X273521284Y-94085998D01*
X273474791Y-94032342D01*
X273464687Y-93962068D01*
X273494181Y-93897488D01*
X273553907Y-93859104D01*
X273581164Y-93854270D01*
X273600808Y-93852983D01*
X273600815Y-93852982D01*
X273604920Y-93852713D01*
X273608953Y-93851911D01*
X273608959Y-93851910D01*
X273896641Y-93794686D01*
X273896647Y-93794684D01*
X273900691Y-93793880D01*
X273904600Y-93792553D01*
X273904604Y-93792552D01*
X274182346Y-93698271D01*
X274182347Y-93698271D01*
X274186252Y-93696945D01*
X274349429Y-93616475D01*
X274453014Y-93565393D01*
X274453019Y-93565390D01*
X274456718Y-93563566D01*
X274518471Y-93522304D01*
X274704030Y-93398318D01*
X274704035Y-93398314D01*
X274707461Y-93396025D01*
X274710555Y-93393311D01*
X274710561Y-93393307D01*
X274931100Y-93199898D01*
X274934189Y-93197189D01*
X275063644Y-93049575D01*
X275130307Y-92973561D01*
X275130311Y-92973555D01*
X275133025Y-92970461D01*
X275146333Y-92950545D01*
X275298272Y-92723151D01*
X275300566Y-92719718D01*
X275387103Y-92544238D01*
X275435171Y-92491989D01*
X275503857Y-92474022D01*
X275571352Y-92496041D01*
G37*
%TD.AperFunction*%
%TA.AperFunction,NonConductor*%
G36*
X115670216Y-5990002D02*
G01*
X115716709Y-6043658D01*
X115726813Y-6113932D01*
X115697319Y-6178512D01*
X115637593Y-6216896D01*
X115610336Y-6221730D01*
X115590692Y-6223017D01*
X115590685Y-6223018D01*
X115586580Y-6223287D01*
X115582547Y-6224089D01*
X115582541Y-6224090D01*
X115294859Y-6281314D01*
X115294853Y-6281316D01*
X115290809Y-6282120D01*
X115286900Y-6283447D01*
X115286896Y-6283448D01*
X115016307Y-6375301D01*
X115005248Y-6379055D01*
X114877334Y-6442135D01*
X114738486Y-6510607D01*
X114738481Y-6510610D01*
X114734782Y-6512434D01*
X114731349Y-6514728D01*
X114487470Y-6677682D01*
X114487465Y-6677686D01*
X114484039Y-6679975D01*
X114480945Y-6682689D01*
X114480939Y-6682693D01*
X114319294Y-6824453D01*
X114257311Y-6878811D01*
X114254602Y-6881900D01*
X114061193Y-7102439D01*
X114061189Y-7102445D01*
X114058475Y-7105539D01*
X114056186Y-7108965D01*
X114056182Y-7108970D01*
X113965988Y-7243955D01*
X113890934Y-7356282D01*
X113757555Y-7626748D01*
X113756229Y-7630653D01*
X113756229Y-7630654D01*
X113692025Y-7819794D01*
X113660620Y-7912309D01*
X113659816Y-7916353D01*
X113659814Y-7916359D01*
X113606489Y-8184444D01*
X113601787Y-8208080D01*
X113582064Y-8509000D01*
X113582334Y-8513119D01*
X113600686Y-8793116D01*
X113601787Y-8809920D01*
X113602589Y-8813953D01*
X113602590Y-8813959D01*
X113659814Y-9101641D01*
X113660620Y-9105691D01*
X113661947Y-9109600D01*
X113661948Y-9109604D01*
X113712051Y-9257201D01*
X113757555Y-9391252D01*
X113759379Y-9394950D01*
X113875424Y-9630266D01*
X113890934Y-9661718D01*
X113893228Y-9665151D01*
X114042006Y-9887813D01*
X114058475Y-9912461D01*
X114061189Y-9915555D01*
X114061193Y-9915561D01*
X114235352Y-10114150D01*
X114257311Y-10139189D01*
X114260400Y-10141898D01*
X114480939Y-10335307D01*
X114480945Y-10335311D01*
X114484039Y-10338025D01*
X114487465Y-10340314D01*
X114487470Y-10340318D01*
X114675033Y-10465643D01*
X114734782Y-10505566D01*
X114738481Y-10507390D01*
X114738486Y-10507393D01*
X114877334Y-10575865D01*
X115005248Y-10638945D01*
X115009153Y-10640271D01*
X115009154Y-10640271D01*
X115286896Y-10734552D01*
X115286900Y-10734553D01*
X115290809Y-10735880D01*
X115294853Y-10736684D01*
X115294859Y-10736686D01*
X115582541Y-10793910D01*
X115582547Y-10793911D01*
X115586580Y-10794713D01*
X115590685Y-10794982D01*
X115590692Y-10794983D01*
X115883381Y-10814166D01*
X115887500Y-10814436D01*
X115891619Y-10814166D01*
X116184308Y-10794983D01*
X116184315Y-10794982D01*
X116188420Y-10794713D01*
X116192453Y-10793911D01*
X116192459Y-10793910D01*
X116480141Y-10736686D01*
X116480147Y-10736684D01*
X116484191Y-10735880D01*
X116488100Y-10734553D01*
X116488104Y-10734552D01*
X116765846Y-10640271D01*
X116765847Y-10640271D01*
X116769752Y-10638945D01*
X116897666Y-10575865D01*
X117036514Y-10507393D01*
X117036519Y-10507390D01*
X117040218Y-10505566D01*
X117099967Y-10465643D01*
X117287530Y-10340318D01*
X117287535Y-10340314D01*
X117290961Y-10338025D01*
X117294055Y-10335311D01*
X117294061Y-10335307D01*
X117514600Y-10141898D01*
X117517689Y-10139189D01*
X117539648Y-10114150D01*
X117713807Y-9915561D01*
X117713811Y-9915555D01*
X117716525Y-9912461D01*
X117732995Y-9887813D01*
X117881772Y-9665151D01*
X117884066Y-9661718D01*
X117899577Y-9630266D01*
X118015621Y-9394950D01*
X118017445Y-9391252D01*
X118062949Y-9257201D01*
X118113052Y-9109604D01*
X118113053Y-9109600D01*
X118114380Y-9105691D01*
X118115186Y-9101641D01*
X118172410Y-8813959D01*
X118172411Y-8813953D01*
X118173213Y-8809920D01*
X118174315Y-8793116D01*
X118192666Y-8513119D01*
X118192936Y-8509000D01*
X118173213Y-8208080D01*
X118168512Y-8184444D01*
X118115186Y-7916359D01*
X118115184Y-7916353D01*
X118114380Y-7912309D01*
X118082976Y-7819794D01*
X118018771Y-7630654D01*
X118018771Y-7630653D01*
X118017445Y-7626748D01*
X117884066Y-7356282D01*
X117809012Y-7243955D01*
X117718818Y-7108970D01*
X117718814Y-7108965D01*
X117716525Y-7105539D01*
X117713811Y-7102445D01*
X117713807Y-7102439D01*
X117520398Y-6881900D01*
X117517689Y-6878811D01*
X117455706Y-6824453D01*
X117294061Y-6682693D01*
X117294055Y-6682689D01*
X117290961Y-6679975D01*
X117287535Y-6677686D01*
X117287530Y-6677682D01*
X117043651Y-6514728D01*
X117040218Y-6512434D01*
X117036519Y-6510610D01*
X117036514Y-6510607D01*
X116897666Y-6442135D01*
X116769752Y-6379055D01*
X116758693Y-6375301D01*
X116488104Y-6283448D01*
X116488100Y-6283447D01*
X116484191Y-6282120D01*
X116480147Y-6281316D01*
X116480141Y-6281314D01*
X116192459Y-6224090D01*
X116192453Y-6224089D01*
X116188420Y-6223287D01*
X116184315Y-6223018D01*
X116184308Y-6223017D01*
X116164664Y-6221730D01*
X116097998Y-6197316D01*
X116055114Y-6140734D01*
X116049627Y-6069950D01*
X116083281Y-6007436D01*
X116145389Y-5973041D01*
X116172905Y-5970000D01*
X118669562Y-5970000D01*
X118686015Y-5971079D01*
X118700912Y-5973041D01*
X118713924Y-5974755D01*
X118717161Y-5975224D01*
X118767708Y-5983222D01*
X118796238Y-5991267D01*
X118796301Y-5991293D01*
X118826222Y-6003688D01*
X118835199Y-6007827D01*
X118847170Y-6013927D01*
X118871185Y-6026165D01*
X118890684Y-6038469D01*
X118917685Y-6059189D01*
X118930071Y-6070052D01*
X118940416Y-6080397D01*
X118957763Y-6097745D01*
X118968630Y-6110138D01*
X118989345Y-6137137D01*
X119001646Y-6156634D01*
X119019981Y-6192619D01*
X119024123Y-6201604D01*
X119036551Y-6231609D01*
X119044591Y-6260117D01*
X119052488Y-6309981D01*
X119052961Y-6313247D01*
X119056748Y-6342018D01*
X119057826Y-6358455D01*
X119060612Y-68297927D01*
X119056832Y-68297927D01*
X119056868Y-68298179D01*
X119057279Y-68298125D01*
X119070414Y-68397851D01*
X119108913Y-68490779D01*
X119170150Y-68570576D01*
X119249954Y-68631806D01*
X119342885Y-68670295D01*
X119351069Y-68671372D01*
X119351072Y-68671373D01*
X119442612Y-68683421D01*
X119442565Y-68683777D01*
X119442810Y-68683810D01*
X119442810Y-68680125D01*
X158685414Y-68680125D01*
X158685414Y-68683855D01*
X158685666Y-68683820D01*
X158685612Y-68683408D01*
X158777146Y-68671355D01*
X158777147Y-68671355D01*
X158785331Y-68670277D01*
X158878254Y-68631787D01*
X158958049Y-68570559D01*
X159019280Y-68490765D01*
X159057774Y-68397843D01*
X159070908Y-68298125D01*
X159071239Y-68298169D01*
X159071272Y-68297925D01*
X159067612Y-68297927D01*
X159066563Y-66551005D01*
X161670470Y-66551005D01*
X161670552Y-66551203D01*
X161670787Y-66551770D01*
X161671552Y-66552087D01*
X161671750Y-66552005D01*
X175671354Y-66552005D01*
X175671552Y-66552087D01*
X175672317Y-66551770D01*
X175672552Y-66551203D01*
X175672634Y-66551005D01*
X180720470Y-66551005D01*
X180720552Y-66551203D01*
X180720787Y-66551770D01*
X180721552Y-66552087D01*
X180721750Y-66552005D01*
X194721354Y-66552005D01*
X194721552Y-66552087D01*
X194722317Y-66551770D01*
X194722552Y-66551203D01*
X194722634Y-66551005D01*
X199770470Y-66551005D01*
X199770552Y-66551203D01*
X199770787Y-66551770D01*
X199771552Y-66552087D01*
X199771750Y-66552005D01*
X213771354Y-66552005D01*
X213771552Y-66552087D01*
X213772317Y-66551770D01*
X213772552Y-66551203D01*
X213772634Y-66551005D01*
X218820470Y-66551005D01*
X218820552Y-66551203D01*
X218820787Y-66551770D01*
X218821552Y-66552087D01*
X218821750Y-66552005D01*
X232821354Y-66552005D01*
X232821552Y-66552087D01*
X232822317Y-66551770D01*
X232822552Y-66551203D01*
X232822634Y-66551005D01*
X237870470Y-66551005D01*
X237870552Y-66551203D01*
X237870787Y-66551770D01*
X237871552Y-66552087D01*
X237871750Y-66552005D01*
X251871354Y-66552005D01*
X251871552Y-66552087D01*
X251872317Y-66551770D01*
X251872552Y-66551203D01*
X251872634Y-66551005D01*
X256920470Y-66551005D01*
X256920552Y-66551203D01*
X256920787Y-66551770D01*
X256921552Y-66552087D01*
X256921750Y-66552005D01*
X270921354Y-66552005D01*
X270921552Y-66552087D01*
X270922317Y-66551770D01*
X270922552Y-66551203D01*
X270922634Y-66551005D01*
X270922552Y-66550807D01*
X270922552Y-52551203D01*
X270922634Y-52551005D01*
X270922317Y-52550240D01*
X270921750Y-52550005D01*
X270921552Y-52549923D01*
X270921354Y-52550005D01*
X256921750Y-52550005D01*
X256921552Y-52549923D01*
X256921354Y-52550005D01*
X256920787Y-52550240D01*
X256920470Y-52551005D01*
X256920552Y-52551203D01*
X256920552Y-66550807D01*
X256920470Y-66551005D01*
X251872634Y-66551005D01*
X251872552Y-66550807D01*
X251872552Y-52551203D01*
X251872634Y-52551005D01*
X251872317Y-52550240D01*
X251871750Y-52550005D01*
X251871552Y-52549923D01*
X251871354Y-52550005D01*
X237871750Y-52550005D01*
X237871552Y-52549923D01*
X237871354Y-52550005D01*
X237870787Y-52550240D01*
X237870470Y-52551005D01*
X237870552Y-52551203D01*
X237870552Y-66550807D01*
X237870470Y-66551005D01*
X232822634Y-66551005D01*
X232822552Y-66550807D01*
X232822552Y-52551203D01*
X232822634Y-52551005D01*
X232822317Y-52550240D01*
X232821750Y-52550005D01*
X232821552Y-52549923D01*
X232821354Y-52550005D01*
X218821750Y-52550005D01*
X218821552Y-52549923D01*
X218821354Y-52550005D01*
X218820787Y-52550240D01*
X218820470Y-52551005D01*
X218820552Y-52551203D01*
X218820552Y-66550807D01*
X218820470Y-66551005D01*
X213772634Y-66551005D01*
X213772552Y-66550807D01*
X213772552Y-52551203D01*
X213772634Y-52551005D01*
X213772317Y-52550240D01*
X213771750Y-52550005D01*
X213771552Y-52549923D01*
X213771354Y-52550005D01*
X199771750Y-52550005D01*
X199771552Y-52549923D01*
X199771354Y-52550005D01*
X199770787Y-52550240D01*
X199770470Y-52551005D01*
X199770552Y-52551203D01*
X199770552Y-66550807D01*
X199770470Y-66551005D01*
X194722634Y-66551005D01*
X194722552Y-66550807D01*
X194722552Y-52551203D01*
X194722634Y-52551005D01*
X194722317Y-52550240D01*
X194721750Y-52550005D01*
X194721552Y-52549923D01*
X194721354Y-52550005D01*
X180721750Y-52550005D01*
X180721552Y-52549923D01*
X180721354Y-52550005D01*
X180720787Y-52550240D01*
X180720470Y-52551005D01*
X180720552Y-52551203D01*
X180720552Y-66550807D01*
X180720470Y-66551005D01*
X175672634Y-66551005D01*
X175672552Y-66550807D01*
X175672552Y-52551203D01*
X175672634Y-52551005D01*
X175672317Y-52550240D01*
X175671750Y-52550005D01*
X175671552Y-52549923D01*
X175671354Y-52550005D01*
X161671750Y-52550005D01*
X161671552Y-52549923D01*
X161671354Y-52550005D01*
X161670787Y-52550240D01*
X161670470Y-52551005D01*
X161670552Y-52551203D01*
X161670552Y-66550807D01*
X161670470Y-66551005D01*
X159066563Y-66551005D01*
X159055119Y-47500069D01*
X161670123Y-47500069D01*
X161670205Y-47500267D01*
X161670440Y-47500834D01*
X161671205Y-47501151D01*
X161671403Y-47501069D01*
X175671007Y-47501069D01*
X175671205Y-47501151D01*
X175671970Y-47500834D01*
X175672205Y-47500267D01*
X175672287Y-47500069D01*
X180720123Y-47500069D01*
X180720205Y-47500267D01*
X180720440Y-47500834D01*
X180721205Y-47501151D01*
X180721403Y-47501069D01*
X194721007Y-47501069D01*
X194721205Y-47501151D01*
X194721970Y-47500834D01*
X194722205Y-47500267D01*
X194722287Y-47500069D01*
X199770123Y-47500069D01*
X199770205Y-47500267D01*
X199770440Y-47500834D01*
X199771205Y-47501151D01*
X199771403Y-47501069D01*
X213771007Y-47501069D01*
X213771205Y-47501151D01*
X213771970Y-47500834D01*
X213772205Y-47500267D01*
X213772287Y-47500069D01*
X218820123Y-47500069D01*
X218820205Y-47500267D01*
X218820440Y-47500834D01*
X218821205Y-47501151D01*
X218821403Y-47501069D01*
X232821007Y-47501069D01*
X232821205Y-47501151D01*
X232821970Y-47500834D01*
X232822205Y-47500267D01*
X232822287Y-47500069D01*
X237870123Y-47500069D01*
X237870205Y-47500267D01*
X237870440Y-47500834D01*
X237871205Y-47501151D01*
X237871403Y-47501069D01*
X251871007Y-47501069D01*
X251871205Y-47501151D01*
X251871970Y-47500834D01*
X251872205Y-47500267D01*
X251872287Y-47500069D01*
X256920123Y-47500069D01*
X256920205Y-47500267D01*
X256920440Y-47500834D01*
X256921205Y-47501151D01*
X256921403Y-47501069D01*
X270921007Y-47501069D01*
X270921205Y-47501151D01*
X270921970Y-47500834D01*
X270922205Y-47500267D01*
X270922287Y-47500069D01*
X270922205Y-47499871D01*
X270922205Y-33500267D01*
X270922287Y-33500069D01*
X270921970Y-33499304D01*
X270921403Y-33499069D01*
X270921205Y-33498987D01*
X270921007Y-33499069D01*
X256921403Y-33499069D01*
X256921205Y-33498987D01*
X256921007Y-33499069D01*
X256920440Y-33499304D01*
X256920123Y-33500069D01*
X256920205Y-33500267D01*
X256920205Y-47499871D01*
X256920123Y-47500069D01*
X251872287Y-47500069D01*
X251872205Y-47499871D01*
X251872205Y-33500267D01*
X251872287Y-33500069D01*
X251871970Y-33499304D01*
X251871403Y-33499069D01*
X251871205Y-33498987D01*
X251871007Y-33499069D01*
X237871403Y-33499069D01*
X237871205Y-33498987D01*
X237871007Y-33499069D01*
X237870440Y-33499304D01*
X237870123Y-33500069D01*
X237870205Y-33500267D01*
X237870205Y-47499871D01*
X237870123Y-47500069D01*
X232822287Y-47500069D01*
X232822205Y-47499871D01*
X232822205Y-33500267D01*
X232822287Y-33500069D01*
X232821970Y-33499304D01*
X232821403Y-33499069D01*
X232821205Y-33498987D01*
X232821007Y-33499069D01*
X218821403Y-33499069D01*
X218821205Y-33498987D01*
X218821007Y-33499069D01*
X218820440Y-33499304D01*
X218820123Y-33500069D01*
X218820205Y-33500267D01*
X218820205Y-47499871D01*
X218820123Y-47500069D01*
X213772287Y-47500069D01*
X213772205Y-47499871D01*
X213772205Y-33500267D01*
X213772287Y-33500069D01*
X213771970Y-33499304D01*
X213771403Y-33499069D01*
X213771205Y-33498987D01*
X213771007Y-33499069D01*
X199771403Y-33499069D01*
X199771205Y-33498987D01*
X199771007Y-33499069D01*
X199770440Y-33499304D01*
X199770123Y-33500069D01*
X199770205Y-33500267D01*
X199770205Y-47499871D01*
X199770123Y-47500069D01*
X194722287Y-47500069D01*
X194722205Y-47499871D01*
X194722205Y-33500267D01*
X194722287Y-33500069D01*
X194721970Y-33499304D01*
X194721403Y-33499069D01*
X194721205Y-33498987D01*
X194721007Y-33499069D01*
X180721403Y-33499069D01*
X180721205Y-33498987D01*
X180721007Y-33499069D01*
X180720440Y-33499304D01*
X180720123Y-33500069D01*
X180720205Y-33500267D01*
X180720205Y-47499871D01*
X180720123Y-47500069D01*
X175672287Y-47500069D01*
X175672205Y-47499871D01*
X175672205Y-33500267D01*
X175672287Y-33500069D01*
X175671970Y-33499304D01*
X175671403Y-33499069D01*
X175671205Y-33498987D01*
X175671007Y-33499069D01*
X161671403Y-33499069D01*
X161671205Y-33498987D01*
X161671007Y-33499069D01*
X161670440Y-33499304D01*
X161670123Y-33500069D01*
X161670205Y-33500267D01*
X161670205Y-47499871D01*
X161670123Y-47500069D01*
X159055119Y-47500069D01*
X159043675Y-28448548D01*
X161673867Y-28448548D01*
X161673949Y-28448746D01*
X161674184Y-28449313D01*
X161674949Y-28449630D01*
X161675147Y-28449548D01*
X175674751Y-28449548D01*
X175674949Y-28449630D01*
X175675714Y-28449313D01*
X175675949Y-28448746D01*
X175676031Y-28448548D01*
X180723867Y-28448548D01*
X180723949Y-28448746D01*
X180724184Y-28449313D01*
X180724949Y-28449630D01*
X180725147Y-28449548D01*
X194724751Y-28449548D01*
X194724949Y-28449630D01*
X194725714Y-28449313D01*
X194725949Y-28448746D01*
X194726031Y-28448548D01*
X199773867Y-28448548D01*
X199773949Y-28448746D01*
X199774184Y-28449313D01*
X199774949Y-28449630D01*
X199775147Y-28449548D01*
X213774751Y-28449548D01*
X213774949Y-28449630D01*
X213775714Y-28449313D01*
X213775949Y-28448746D01*
X213776031Y-28448548D01*
X218823867Y-28448548D01*
X218823949Y-28448746D01*
X218824184Y-28449313D01*
X218824949Y-28449630D01*
X218825147Y-28449548D01*
X232824751Y-28449548D01*
X232824949Y-28449630D01*
X232825714Y-28449313D01*
X232825949Y-28448746D01*
X232826031Y-28448548D01*
X237873867Y-28448548D01*
X237873949Y-28448746D01*
X237874184Y-28449313D01*
X237874949Y-28449630D01*
X237875147Y-28449548D01*
X251874751Y-28449548D01*
X251874949Y-28449630D01*
X251875714Y-28449313D01*
X251875949Y-28448746D01*
X251876031Y-28448548D01*
X256923867Y-28448548D01*
X256923949Y-28448746D01*
X256924184Y-28449313D01*
X256924949Y-28449630D01*
X256925147Y-28449548D01*
X270924751Y-28449548D01*
X270924949Y-28449630D01*
X270925714Y-28449313D01*
X270925949Y-28448746D01*
X270926031Y-28448548D01*
X270925949Y-28448350D01*
X270925949Y-14448746D01*
X270926031Y-14448548D01*
X270925714Y-14447783D01*
X270925147Y-14447548D01*
X270924949Y-14447466D01*
X270924751Y-14447548D01*
X256925147Y-14447548D01*
X256924949Y-14447466D01*
X256924751Y-14447548D01*
X256924184Y-14447783D01*
X256923867Y-14448548D01*
X256923949Y-14448746D01*
X256923949Y-28448350D01*
X256923867Y-28448548D01*
X251876031Y-28448548D01*
X251875949Y-28448350D01*
X251875949Y-14448746D01*
X251876031Y-14448548D01*
X251875714Y-14447783D01*
X251875147Y-14447548D01*
X251874949Y-14447466D01*
X251874751Y-14447548D01*
X237875147Y-14447548D01*
X237874949Y-14447466D01*
X237874751Y-14447548D01*
X237874184Y-14447783D01*
X237873867Y-14448548D01*
X237873949Y-14448746D01*
X237873949Y-28448350D01*
X237873867Y-28448548D01*
X232826031Y-28448548D01*
X232825949Y-28448350D01*
X232825949Y-14448746D01*
X232826031Y-14448548D01*
X232825714Y-14447783D01*
X232825147Y-14447548D01*
X232824949Y-14447466D01*
X232824751Y-14447548D01*
X218825147Y-14447548D01*
X218824949Y-14447466D01*
X218824751Y-14447548D01*
X218824184Y-14447783D01*
X218823867Y-14448548D01*
X218823949Y-14448746D01*
X218823949Y-28448350D01*
X218823867Y-28448548D01*
X213776031Y-28448548D01*
X213775949Y-28448350D01*
X213775949Y-14448746D01*
X213776031Y-14448548D01*
X213775714Y-14447783D01*
X213775147Y-14447548D01*
X213774949Y-14447466D01*
X213774751Y-14447548D01*
X199775147Y-14447548D01*
X199774949Y-14447466D01*
X199774751Y-14447548D01*
X199774184Y-14447783D01*
X199773867Y-14448548D01*
X199773949Y-14448746D01*
X199773949Y-28448350D01*
X199773867Y-28448548D01*
X194726031Y-28448548D01*
X194725949Y-28448350D01*
X194725949Y-14448746D01*
X194726031Y-14448548D01*
X194725714Y-14447783D01*
X194725147Y-14447548D01*
X194724949Y-14447466D01*
X194724751Y-14447548D01*
X180725147Y-14447548D01*
X180724949Y-14447466D01*
X180724751Y-14447548D01*
X180724184Y-14447783D01*
X180723867Y-14448548D01*
X180723949Y-14448746D01*
X180723949Y-28448350D01*
X180723867Y-28448548D01*
X175676031Y-28448548D01*
X175675949Y-28448350D01*
X175675949Y-14448746D01*
X175676031Y-14448548D01*
X175675714Y-14447783D01*
X175675147Y-14447548D01*
X175674949Y-14447466D01*
X175674751Y-14447548D01*
X161675147Y-14447548D01*
X161674949Y-14447466D01*
X161674751Y-14447548D01*
X161674184Y-14447783D01*
X161673867Y-14448548D01*
X161673949Y-14448746D01*
X161673949Y-28448350D01*
X161673867Y-28448548D01*
X159043675Y-28448548D01*
X159030405Y-6358297D01*
X159031483Y-6341775D01*
X159035109Y-6314232D01*
X159035582Y-6310970D01*
X159039941Y-6283448D01*
X159043653Y-6260009D01*
X159051691Y-6231507D01*
X159063956Y-6201896D01*
X159068094Y-6192921D01*
X159068248Y-6192619D01*
X159086646Y-6156511D01*
X159098948Y-6137013D01*
X159108185Y-6124976D01*
X159119459Y-6110283D01*
X159130326Y-6097893D01*
X159158293Y-6069926D01*
X159170683Y-6059059D01*
X159193720Y-6041382D01*
X159197416Y-6038546D01*
X159216911Y-6026246D01*
X159253322Y-6007693D01*
X159262296Y-6003556D01*
X159291907Y-5991291D01*
X159320409Y-5983253D01*
X159346838Y-5979067D01*
X159371370Y-5975182D01*
X159374632Y-5974709D01*
X159402215Y-5971078D01*
X159418658Y-5970000D01*
X161923334Y-5970000D01*
X161991455Y-5990002D01*
X162037948Y-6043658D01*
X162048052Y-6113932D01*
X162018558Y-6178512D01*
X161958832Y-6216896D01*
X161947916Y-6219579D01*
X161777051Y-6253566D01*
X161777045Y-6253568D01*
X161773001Y-6254372D01*
X161769092Y-6255699D01*
X161769088Y-6255700D01*
X161491346Y-6349981D01*
X161487440Y-6351307D01*
X161424053Y-6382566D01*
X161220678Y-6482859D01*
X161220673Y-6482862D01*
X161216974Y-6484686D01*
X161175446Y-6512434D01*
X160969662Y-6649934D01*
X160969657Y-6649938D01*
X160966231Y-6652227D01*
X160963137Y-6654941D01*
X160963131Y-6654945D01*
X160769906Y-6824400D01*
X160739503Y-6851063D01*
X160736794Y-6854152D01*
X160543385Y-7074691D01*
X160543381Y-7074697D01*
X160540667Y-7077791D01*
X160538378Y-7081217D01*
X160538374Y-7081222D01*
X160508625Y-7125745D01*
X160373126Y-7328534D01*
X160371302Y-7332233D01*
X160371299Y-7332238D01*
X160302827Y-7471086D01*
X160239747Y-7599000D01*
X160238421Y-7602905D01*
X160238421Y-7602906D01*
X160184028Y-7763144D01*
X160142812Y-7884561D01*
X160142008Y-7888605D01*
X160142006Y-7888611D01*
X160137293Y-7912309D01*
X160083979Y-8180332D01*
X160083710Y-8184437D01*
X160083709Y-8184444D01*
X160065672Y-8459654D01*
X160064256Y-8481252D01*
X160064526Y-8485371D01*
X160082920Y-8766013D01*
X160083979Y-8782172D01*
X160084781Y-8786205D01*
X160084782Y-8786211D01*
X160092645Y-8825739D01*
X160142812Y-9077943D01*
X160239747Y-9363504D01*
X160373126Y-9633970D01*
X160540667Y-9884713D01*
X160543381Y-9887807D01*
X160543385Y-9887813D01*
X160565001Y-9912461D01*
X160739503Y-10111441D01*
X160742592Y-10114150D01*
X160963131Y-10307559D01*
X160963137Y-10307563D01*
X160966231Y-10310277D01*
X160969657Y-10312566D01*
X160969662Y-10312570D01*
X161157225Y-10437895D01*
X161216974Y-10477818D01*
X161220673Y-10479642D01*
X161220678Y-10479645D01*
X161273241Y-10505566D01*
X161487440Y-10611197D01*
X161491345Y-10612523D01*
X161491346Y-10612523D01*
X161769088Y-10706804D01*
X161769092Y-10706805D01*
X161773001Y-10708132D01*
X161777045Y-10708936D01*
X161777051Y-10708938D01*
X162064733Y-10766162D01*
X162064739Y-10766163D01*
X162068772Y-10766965D01*
X162072877Y-10767234D01*
X162072884Y-10767235D01*
X162365573Y-10786418D01*
X162369692Y-10786688D01*
X162373811Y-10786418D01*
X162666500Y-10767235D01*
X162666507Y-10767234D01*
X162670612Y-10766965D01*
X162674645Y-10766163D01*
X162674651Y-10766162D01*
X162962333Y-10708938D01*
X162962339Y-10708936D01*
X162966383Y-10708132D01*
X162970292Y-10706805D01*
X162970296Y-10706804D01*
X163248038Y-10612523D01*
X163248039Y-10612523D01*
X163251944Y-10611197D01*
X163466143Y-10505566D01*
X163518706Y-10479645D01*
X163518711Y-10479642D01*
X163522410Y-10477818D01*
X163582159Y-10437895D01*
X163769722Y-10312570D01*
X163769727Y-10312566D01*
X163773153Y-10310277D01*
X163776247Y-10307563D01*
X163776253Y-10307559D01*
X163996792Y-10114150D01*
X163999881Y-10111441D01*
X164174383Y-9912461D01*
X164195999Y-9887813D01*
X164196003Y-9887807D01*
X164198717Y-9884713D01*
X164366258Y-9633970D01*
X164499637Y-9363504D01*
X164596572Y-9077943D01*
X164646739Y-8825739D01*
X164654602Y-8786211D01*
X164654603Y-8786205D01*
X164655405Y-8782172D01*
X164656465Y-8766013D01*
X164674858Y-8485371D01*
X164675128Y-8481252D01*
X164673712Y-8459654D01*
X164655675Y-8184444D01*
X164655674Y-8184437D01*
X164655405Y-8180332D01*
X164602092Y-7912309D01*
X164597378Y-7888611D01*
X164597376Y-7888605D01*
X164596572Y-7884561D01*
X164555357Y-7763144D01*
X164500963Y-7602906D01*
X164500963Y-7602905D01*
X164499637Y-7599000D01*
X164436557Y-7471086D01*
X164368085Y-7332238D01*
X164368082Y-7332233D01*
X164366258Y-7328534D01*
X164230759Y-7125745D01*
X164201010Y-7081222D01*
X164201006Y-7081217D01*
X164198717Y-7077791D01*
X164196003Y-7074697D01*
X164195999Y-7074691D01*
X164002590Y-6854152D01*
X163999881Y-6851063D01*
X163969478Y-6824400D01*
X163776253Y-6654945D01*
X163776247Y-6654941D01*
X163773153Y-6652227D01*
X163769727Y-6649938D01*
X163769722Y-6649934D01*
X163563938Y-6512434D01*
X163522410Y-6484686D01*
X163518711Y-6482862D01*
X163518706Y-6482859D01*
X163315331Y-6382566D01*
X163251944Y-6351307D01*
X163248038Y-6349981D01*
X162970296Y-6255700D01*
X162970292Y-6255699D01*
X162966383Y-6254372D01*
X162962339Y-6253568D01*
X162962333Y-6253566D01*
X162791468Y-6219579D01*
X162728559Y-6186671D01*
X162693427Y-6124976D01*
X162697227Y-6054082D01*
X162738753Y-5996496D01*
X162804820Y-5970501D01*
X162816050Y-5970000D01*
X272891595Y-5970000D01*
X272959716Y-5990002D01*
X273006209Y-6043658D01*
X273016313Y-6113932D01*
X272986819Y-6178512D01*
X272927093Y-6216896D01*
X272899836Y-6221730D01*
X272880192Y-6223017D01*
X272880185Y-6223018D01*
X272876080Y-6223287D01*
X272872047Y-6224089D01*
X272872041Y-6224090D01*
X272584359Y-6281314D01*
X272584353Y-6281316D01*
X272580309Y-6282120D01*
X272576400Y-6283447D01*
X272576396Y-6283448D01*
X272305807Y-6375301D01*
X272294748Y-6379055D01*
X272166834Y-6442135D01*
X272027986Y-6510607D01*
X272027981Y-6510610D01*
X272024282Y-6512434D01*
X272020849Y-6514728D01*
X271776970Y-6677682D01*
X271776965Y-6677686D01*
X271773539Y-6679975D01*
X271770445Y-6682689D01*
X271770439Y-6682693D01*
X271608794Y-6824453D01*
X271546811Y-6878811D01*
X271544102Y-6881900D01*
X271350693Y-7102439D01*
X271350689Y-7102445D01*
X271347975Y-7105539D01*
X271345686Y-7108965D01*
X271345682Y-7108970D01*
X271255488Y-7243955D01*
X271180434Y-7356282D01*
X271047055Y-7626748D01*
X271045729Y-7630653D01*
X271045729Y-7630654D01*
X270981525Y-7819794D01*
X270950120Y-7912309D01*
X270949316Y-7916353D01*
X270949314Y-7916359D01*
X270895989Y-8184444D01*
X270891287Y-8208080D01*
X270871564Y-8509000D01*
X270871834Y-8513119D01*
X270890186Y-8793116D01*
X270891287Y-8809920D01*
X270892089Y-8813953D01*
X270892090Y-8813959D01*
X270949314Y-9101641D01*
X270950120Y-9105691D01*
X270951447Y-9109600D01*
X270951448Y-9109604D01*
X271001551Y-9257201D01*
X271047055Y-9391252D01*
X271048879Y-9394950D01*
X271164924Y-9630266D01*
X271180434Y-9661718D01*
X271182728Y-9665151D01*
X271331506Y-9887813D01*
X271347975Y-9912461D01*
X271350689Y-9915555D01*
X271350693Y-9915561D01*
X271524852Y-10114150D01*
X271546811Y-10139189D01*
X271549900Y-10141898D01*
X271770439Y-10335307D01*
X271770445Y-10335311D01*
X271773539Y-10338025D01*
X271776965Y-10340314D01*
X271776970Y-10340318D01*
X271964533Y-10465643D01*
X272024282Y-10505566D01*
X272027981Y-10507390D01*
X272027986Y-10507393D01*
X272166834Y-10575865D01*
X272294748Y-10638945D01*
X272298653Y-10640271D01*
X272298654Y-10640271D01*
X272576396Y-10734552D01*
X272576400Y-10734553D01*
X272580309Y-10735880D01*
X272584353Y-10736684D01*
X272584359Y-10736686D01*
X272872041Y-10793910D01*
X272872047Y-10793911D01*
X272876080Y-10794713D01*
X272880185Y-10794982D01*
X272880192Y-10794983D01*
X273172881Y-10814166D01*
X273177000Y-10814436D01*
X273181119Y-10814166D01*
X273473808Y-10794983D01*
X273473815Y-10794982D01*
X273477920Y-10794713D01*
X273481953Y-10793911D01*
X273481959Y-10793910D01*
X273769641Y-10736686D01*
X273769647Y-10736684D01*
X273773691Y-10735880D01*
X273777600Y-10734553D01*
X273777604Y-10734552D01*
X274055346Y-10640271D01*
X274055347Y-10640271D01*
X274059252Y-10638945D01*
X274187166Y-10575865D01*
X274326014Y-10507393D01*
X274326019Y-10507390D01*
X274329718Y-10505566D01*
X274389467Y-10465643D01*
X274577030Y-10340318D01*
X274577035Y-10340314D01*
X274580461Y-10338025D01*
X274583555Y-10335311D01*
X274583561Y-10335307D01*
X274804100Y-10141898D01*
X274807189Y-10139189D01*
X274829148Y-10114150D01*
X275003307Y-9915561D01*
X275003311Y-9915555D01*
X275006025Y-9912461D01*
X275022495Y-9887813D01*
X275171272Y-9665151D01*
X275173566Y-9661718D01*
X275189077Y-9630266D01*
X275305121Y-9394950D01*
X275306945Y-9391252D01*
X275344592Y-9280346D01*
X275385429Y-9222271D01*
X275451182Y-9195493D01*
X275520974Y-9208514D01*
X275572648Y-9257201D01*
X275589905Y-9320794D01*
X275598222Y-28451207D01*
X275625210Y-90532156D01*
X275605238Y-90600286D01*
X275551602Y-90646802D01*
X275481333Y-90656936D01*
X275416739Y-90627471D01*
X275386204Y-90587939D01*
X275302393Y-90417986D01*
X275302390Y-90417981D01*
X275300566Y-90414282D01*
X275133025Y-90163539D01*
X275130311Y-90160445D01*
X275130307Y-90160439D01*
X274936898Y-89939900D01*
X274934189Y-89936811D01*
X274904038Y-89910369D01*
X274710561Y-89740693D01*
X274710555Y-89740689D01*
X274707461Y-89737975D01*
X274704035Y-89735686D01*
X274704030Y-89735682D01*
X274460151Y-89572728D01*
X274456718Y-89570434D01*
X274453019Y-89568610D01*
X274453014Y-89568607D01*
X274314166Y-89500135D01*
X274186252Y-89437055D01*
X274099257Y-89407524D01*
X273904604Y-89341448D01*
X273904600Y-89341447D01*
X273900691Y-89340120D01*
X273896647Y-89339316D01*
X273896641Y-89339314D01*
X273608959Y-89282090D01*
X273608953Y-89282089D01*
X273604920Y-89281287D01*
X273600815Y-89281018D01*
X273600808Y-89281017D01*
X273308119Y-89261834D01*
X273304000Y-89261564D01*
X273299881Y-89261834D01*
X273007192Y-89281017D01*
X273007185Y-89281018D01*
X273003080Y-89281287D01*
X272999047Y-89282089D01*
X272999041Y-89282090D01*
X272711359Y-89339314D01*
X272711353Y-89339316D01*
X272707309Y-89340120D01*
X272703400Y-89341447D01*
X272703396Y-89341448D01*
X272508743Y-89407524D01*
X272421748Y-89437055D01*
X272293834Y-89500135D01*
X272154986Y-89568607D01*
X272154981Y-89568610D01*
X272151282Y-89570434D01*
X272147849Y-89572728D01*
X271903970Y-89735682D01*
X271903965Y-89735686D01*
X271900539Y-89737975D01*
X271897445Y-89740689D01*
X271897439Y-89740693D01*
X271703962Y-89910369D01*
X271673811Y-89936811D01*
X271671102Y-89939900D01*
X271477693Y-90160439D01*
X271477689Y-90160445D01*
X271474975Y-90163539D01*
X271307434Y-90414282D01*
X271174055Y-90684748D01*
X271172729Y-90688653D01*
X271172729Y-90688654D01*
X271085770Y-90944828D01*
X271077120Y-90970309D01*
X271076316Y-90974353D01*
X271076314Y-90974359D01*
X271024965Y-91232510D01*
X271018287Y-91266080D01*
X270998564Y-91567000D01*
X271018287Y-91867920D01*
X271019089Y-91871953D01*
X271019090Y-91871959D01*
X271072024Y-92138073D01*
X271077120Y-92163691D01*
X271078447Y-92167600D01*
X271078448Y-92167604D01*
X271165286Y-92423419D01*
X271174055Y-92449252D01*
X271307434Y-92719718D01*
X271309728Y-92723151D01*
X271461668Y-92950545D01*
X271474975Y-92970461D01*
X271477689Y-92973555D01*
X271477693Y-92973561D01*
X271544356Y-93049575D01*
X271673811Y-93197189D01*
X271676900Y-93199898D01*
X271897439Y-93393307D01*
X271897445Y-93393311D01*
X271900539Y-93396025D01*
X271903965Y-93398314D01*
X271903970Y-93398318D01*
X272089529Y-93522304D01*
X272151282Y-93563566D01*
X272154981Y-93565390D01*
X272154986Y-93565393D01*
X272258571Y-93616475D01*
X272421748Y-93696945D01*
X272425653Y-93698271D01*
X272425654Y-93698271D01*
X272703396Y-93792552D01*
X272703400Y-93792553D01*
X272707309Y-93793880D01*
X272711353Y-93794684D01*
X272711359Y-93794686D01*
X272999041Y-93851910D01*
X272999047Y-93851911D01*
X273003080Y-93852713D01*
X273007185Y-93852982D01*
X273007192Y-93852983D01*
X273026836Y-93854270D01*
X273093502Y-93878684D01*
X273136386Y-93935266D01*
X273141873Y-94006050D01*
X273108219Y-94068564D01*
X273046111Y-94102959D01*
X273018595Y-94106000D01*
X5492405Y-94106000D01*
X5424284Y-94085998D01*
X5377791Y-94032342D01*
X5367687Y-93962068D01*
X5397181Y-93897488D01*
X5456907Y-93859104D01*
X5484164Y-93854270D01*
X5503808Y-93852983D01*
X5503815Y-93852982D01*
X5507920Y-93852713D01*
X5511953Y-93851911D01*
X5511959Y-93851910D01*
X5799641Y-93794686D01*
X5799647Y-93794684D01*
X5803691Y-93793880D01*
X5807600Y-93792553D01*
X5807604Y-93792552D01*
X6085346Y-93698271D01*
X6085347Y-93698271D01*
X6089252Y-93696945D01*
X6252429Y-93616475D01*
X6356014Y-93565393D01*
X6356019Y-93565390D01*
X6359718Y-93563566D01*
X6421471Y-93522304D01*
X6607030Y-93398318D01*
X6607035Y-93398314D01*
X6610461Y-93396025D01*
X6613555Y-93393311D01*
X6613561Y-93393307D01*
X6834100Y-93199898D01*
X6837189Y-93197189D01*
X6966644Y-93049575D01*
X7033307Y-92973561D01*
X7033311Y-92973555D01*
X7036025Y-92970461D01*
X7049333Y-92950545D01*
X7201272Y-92723151D01*
X7203566Y-92719718D01*
X7336945Y-92449252D01*
X7345714Y-92423419D01*
X7432552Y-92167604D01*
X7432553Y-92167600D01*
X7433880Y-92163691D01*
X7438976Y-92138073D01*
X7491910Y-91871959D01*
X7491911Y-91871953D01*
X7492713Y-91867920D01*
X7512436Y-91567000D01*
X7510500Y-91537469D01*
X113582064Y-91537469D01*
X113601787Y-91838389D01*
X113602589Y-91842422D01*
X113602590Y-91842428D01*
X113632270Y-91991637D01*
X113660620Y-92134160D01*
X113661947Y-92138069D01*
X113661948Y-92138073D01*
X113709102Y-92276983D01*
X113757555Y-92419721D01*
X113890934Y-92690187D01*
X113893228Y-92693620D01*
X113988900Y-92836803D01*
X114058475Y-92940930D01*
X114061189Y-92944024D01*
X114061193Y-92944030D01*
X114254602Y-93164569D01*
X114257311Y-93167658D01*
X114260400Y-93170367D01*
X114480939Y-93363776D01*
X114480945Y-93363780D01*
X114484039Y-93366494D01*
X114487465Y-93368783D01*
X114487470Y-93368787D01*
X114578663Y-93429720D01*
X114734782Y-93534035D01*
X114738481Y-93535859D01*
X114738486Y-93535862D01*
X114840941Y-93586387D01*
X115005248Y-93667414D01*
X115009153Y-93668740D01*
X115009154Y-93668740D01*
X115286896Y-93763021D01*
X115286900Y-93763022D01*
X115290809Y-93764349D01*
X115294853Y-93765153D01*
X115294859Y-93765155D01*
X115582541Y-93822379D01*
X115582547Y-93822380D01*
X115586580Y-93823182D01*
X115590685Y-93823451D01*
X115590692Y-93823452D01*
X115865902Y-93841489D01*
X115879979Y-93842412D01*
X115883381Y-93842635D01*
X115887500Y-93842905D01*
X115891619Y-93842635D01*
X115895022Y-93842412D01*
X115909098Y-93841489D01*
X116184308Y-93823452D01*
X116184315Y-93823451D01*
X116188420Y-93823182D01*
X116192453Y-93822380D01*
X116192459Y-93822379D01*
X116480141Y-93765155D01*
X116480147Y-93765153D01*
X116484191Y-93764349D01*
X116488100Y-93763022D01*
X116488104Y-93763021D01*
X116765846Y-93668740D01*
X116765847Y-93668740D01*
X116769752Y-93667414D01*
X116934059Y-93586387D01*
X117036514Y-93535862D01*
X117036519Y-93535859D01*
X117040218Y-93534035D01*
X117196337Y-93429720D01*
X117287530Y-93368787D01*
X117287535Y-93368783D01*
X117290961Y-93366494D01*
X117294055Y-93363780D01*
X117294061Y-93363776D01*
X117514600Y-93170367D01*
X117517689Y-93167658D01*
X117520398Y-93164569D01*
X117713807Y-92944030D01*
X117713811Y-92944024D01*
X117716525Y-92940930D01*
X117786101Y-92836803D01*
X117881772Y-92693620D01*
X117884066Y-92690187D01*
X118017445Y-92419721D01*
X118065898Y-92276983D01*
X118113052Y-92138073D01*
X118113053Y-92138069D01*
X118114380Y-92134160D01*
X118142730Y-91991637D01*
X118172410Y-91842428D01*
X118172411Y-91842422D01*
X118173213Y-91838389D01*
X118192936Y-91537469D01*
X118183338Y-91391033D01*
X160384272Y-91391033D01*
X160384542Y-91395152D01*
X160394140Y-91541588D01*
X160403995Y-91691953D01*
X160404797Y-91695986D01*
X160404798Y-91695992D01*
X160462022Y-91983674D01*
X160462828Y-91987724D01*
X160464155Y-91991633D01*
X160464156Y-91991637D01*
X160521186Y-92159641D01*
X160559763Y-92273285D01*
X160693142Y-92543751D01*
X160860683Y-92794494D01*
X160863397Y-92797588D01*
X160863401Y-92797594D01*
X161017721Y-92973561D01*
X161059519Y-93021222D01*
X161062608Y-93023931D01*
X161283147Y-93217340D01*
X161283153Y-93217344D01*
X161286247Y-93220058D01*
X161289673Y-93222347D01*
X161289678Y-93222351D01*
X161333499Y-93251631D01*
X161536990Y-93387599D01*
X161540689Y-93389423D01*
X161540694Y-93389426D01*
X161588733Y-93413116D01*
X161807456Y-93520978D01*
X161811361Y-93522304D01*
X161811362Y-93522304D01*
X162089104Y-93616585D01*
X162089108Y-93616586D01*
X162093017Y-93617913D01*
X162097061Y-93618717D01*
X162097067Y-93618719D01*
X162384749Y-93675943D01*
X162384755Y-93675944D01*
X162388788Y-93676746D01*
X162392893Y-93677015D01*
X162392900Y-93677016D01*
X162685589Y-93696199D01*
X162689708Y-93696469D01*
X162693827Y-93696199D01*
X162986516Y-93677016D01*
X162986523Y-93677015D01*
X162990628Y-93676746D01*
X162994661Y-93675944D01*
X162994667Y-93675943D01*
X163282349Y-93618719D01*
X163282355Y-93618717D01*
X163286399Y-93617913D01*
X163290308Y-93616586D01*
X163290312Y-93616585D01*
X163568054Y-93522304D01*
X163568055Y-93522304D01*
X163571960Y-93520978D01*
X163790683Y-93413116D01*
X163838722Y-93389426D01*
X163838727Y-93389423D01*
X163842426Y-93387599D01*
X164045917Y-93251631D01*
X164089738Y-93222351D01*
X164089743Y-93222347D01*
X164093169Y-93220058D01*
X164096263Y-93217344D01*
X164096269Y-93217340D01*
X164316808Y-93023931D01*
X164319897Y-93021222D01*
X164361695Y-92973561D01*
X164516015Y-92797594D01*
X164516019Y-92797588D01*
X164518733Y-92794494D01*
X164686274Y-92543751D01*
X164819653Y-92273285D01*
X164858230Y-92159641D01*
X164915260Y-91991637D01*
X164915261Y-91991633D01*
X164916588Y-91987724D01*
X164917394Y-91983674D01*
X164974618Y-91695992D01*
X164974619Y-91695986D01*
X164975421Y-91691953D01*
X164985277Y-91541588D01*
X164994874Y-91395152D01*
X164995144Y-91391033D01*
X164975421Y-91090113D01*
X164951591Y-90970309D01*
X164917394Y-90798392D01*
X164917392Y-90798386D01*
X164916588Y-90794342D01*
X164869362Y-90655217D01*
X164820979Y-90512687D01*
X164820979Y-90512686D01*
X164819653Y-90508781D01*
X164686274Y-90238315D01*
X164518733Y-89987572D01*
X164516019Y-89984478D01*
X164516015Y-89984472D01*
X164322606Y-89763933D01*
X164319897Y-89760844D01*
X164105393Y-89572728D01*
X164096269Y-89564726D01*
X164096263Y-89564722D01*
X164093169Y-89562008D01*
X164089743Y-89559719D01*
X164089738Y-89559715D01*
X163845859Y-89396761D01*
X163842426Y-89394467D01*
X163838727Y-89392643D01*
X163838722Y-89392640D01*
X163670704Y-89309783D01*
X163571960Y-89261088D01*
X163568054Y-89259762D01*
X163290312Y-89165481D01*
X163290308Y-89165480D01*
X163286399Y-89164153D01*
X163282355Y-89163349D01*
X163282349Y-89163347D01*
X162994667Y-89106123D01*
X162994661Y-89106122D01*
X162990628Y-89105320D01*
X162986523Y-89105051D01*
X162986516Y-89105050D01*
X162693827Y-89085867D01*
X162689708Y-89085597D01*
X162685589Y-89085867D01*
X162392900Y-89105050D01*
X162392893Y-89105051D01*
X162388788Y-89105320D01*
X162384755Y-89106122D01*
X162384749Y-89106123D01*
X162097067Y-89163347D01*
X162097061Y-89163349D01*
X162093017Y-89164153D01*
X162089108Y-89165480D01*
X162089104Y-89165481D01*
X161811362Y-89259762D01*
X161807456Y-89261088D01*
X161708712Y-89309783D01*
X161540694Y-89392640D01*
X161540689Y-89392643D01*
X161536990Y-89394467D01*
X161533557Y-89396761D01*
X161289678Y-89559715D01*
X161289673Y-89559719D01*
X161286247Y-89562008D01*
X161283153Y-89564722D01*
X161283147Y-89564726D01*
X161274023Y-89572728D01*
X161059519Y-89760844D01*
X161056810Y-89763933D01*
X160863401Y-89984472D01*
X160863397Y-89984478D01*
X160860683Y-89987572D01*
X160693142Y-90238315D01*
X160559763Y-90508781D01*
X160558437Y-90512686D01*
X160558437Y-90512687D01*
X160510055Y-90655217D01*
X160462828Y-90794342D01*
X160462024Y-90798386D01*
X160462022Y-90798392D01*
X160427826Y-90970309D01*
X160403995Y-91090113D01*
X160384272Y-91391033D01*
X118183338Y-91391033D01*
X118173483Y-91240661D01*
X118173482Y-91240654D01*
X118173213Y-91236549D01*
X118143282Y-91086074D01*
X118115186Y-90944828D01*
X118115184Y-90944822D01*
X118114380Y-90940778D01*
X118066047Y-90798392D01*
X118018771Y-90659123D01*
X118018771Y-90659122D01*
X118017445Y-90655217D01*
X117884066Y-90384751D01*
X117783927Y-90234882D01*
X117718818Y-90137439D01*
X117718814Y-90137434D01*
X117716525Y-90134008D01*
X117713811Y-90130914D01*
X117713807Y-90130908D01*
X117520398Y-89910369D01*
X117517689Y-89907280D01*
X117354234Y-89763933D01*
X117294061Y-89711162D01*
X117294055Y-89711158D01*
X117290961Y-89708444D01*
X117287535Y-89706155D01*
X117287530Y-89706151D01*
X117099967Y-89580826D01*
X117040218Y-89540903D01*
X117036519Y-89539079D01*
X117036514Y-89539076D01*
X116897666Y-89470604D01*
X116769752Y-89407524D01*
X116765846Y-89406198D01*
X116488104Y-89311917D01*
X116488100Y-89311916D01*
X116484191Y-89310589D01*
X116480147Y-89309785D01*
X116480141Y-89309783D01*
X116192459Y-89252559D01*
X116192453Y-89252558D01*
X116188420Y-89251756D01*
X116184315Y-89251487D01*
X116184308Y-89251486D01*
X115891619Y-89232303D01*
X115887500Y-89232033D01*
X115883381Y-89232303D01*
X115590692Y-89251486D01*
X115590685Y-89251487D01*
X115586580Y-89251756D01*
X115582547Y-89252558D01*
X115582541Y-89252559D01*
X115294859Y-89309783D01*
X115294853Y-89309785D01*
X115290809Y-89310589D01*
X115286900Y-89311916D01*
X115286896Y-89311917D01*
X115009154Y-89406198D01*
X115005248Y-89407524D01*
X114877334Y-89470604D01*
X114738486Y-89539076D01*
X114738481Y-89539079D01*
X114734782Y-89540903D01*
X114675033Y-89580826D01*
X114487470Y-89706151D01*
X114487465Y-89706155D01*
X114484039Y-89708444D01*
X114480945Y-89711158D01*
X114480939Y-89711162D01*
X114420766Y-89763933D01*
X114257311Y-89907280D01*
X114254602Y-89910369D01*
X114061193Y-90130908D01*
X114061189Y-90130914D01*
X114058475Y-90134008D01*
X114056186Y-90137434D01*
X114056182Y-90137439D01*
X113991073Y-90234882D01*
X113890934Y-90384751D01*
X113757555Y-90655217D01*
X113756229Y-90659122D01*
X113756229Y-90659123D01*
X113708954Y-90798392D01*
X113660620Y-90940778D01*
X113659816Y-90944822D01*
X113659814Y-90944828D01*
X113631719Y-91086074D01*
X113601787Y-91236549D01*
X113601518Y-91240654D01*
X113601517Y-91240661D01*
X113591662Y-91391033D01*
X113582064Y-91537469D01*
X7510500Y-91537469D01*
X7492713Y-91266080D01*
X7486036Y-91232510D01*
X7434686Y-90974359D01*
X7434684Y-90974353D01*
X7433880Y-90970309D01*
X7425231Y-90944828D01*
X7338271Y-90688654D01*
X7338271Y-90688653D01*
X7336945Y-90684748D01*
X7203566Y-90414282D01*
X7036025Y-90163539D01*
X7033311Y-90160445D01*
X7033307Y-90160439D01*
X6839898Y-89939900D01*
X6837189Y-89936811D01*
X6807038Y-89910369D01*
X6613561Y-89740693D01*
X6613555Y-89740689D01*
X6610461Y-89737975D01*
X6607035Y-89735686D01*
X6607030Y-89735682D01*
X6363151Y-89572728D01*
X6359718Y-89570434D01*
X6356019Y-89568610D01*
X6356014Y-89568607D01*
X6217166Y-89500135D01*
X6089252Y-89437055D01*
X6002257Y-89407524D01*
X5807604Y-89341448D01*
X5807600Y-89341447D01*
X5803691Y-89340120D01*
X5799647Y-89339316D01*
X5799641Y-89339314D01*
X5511959Y-89282090D01*
X5511953Y-89282089D01*
X5507920Y-89281287D01*
X5503815Y-89281018D01*
X5503808Y-89281017D01*
X5211119Y-89261834D01*
X5207000Y-89261564D01*
X5202881Y-89261834D01*
X4910192Y-89281017D01*
X4910185Y-89281018D01*
X4906080Y-89281287D01*
X4902047Y-89282089D01*
X4902041Y-89282090D01*
X4614359Y-89339314D01*
X4614353Y-89339316D01*
X4610309Y-89340120D01*
X4606400Y-89341447D01*
X4606396Y-89341448D01*
X4411743Y-89407524D01*
X4324748Y-89437055D01*
X4196834Y-89500135D01*
X4057986Y-89568607D01*
X4057981Y-89568610D01*
X4054282Y-89570434D01*
X4050849Y-89572728D01*
X3806970Y-89735682D01*
X3806965Y-89735686D01*
X3803539Y-89737975D01*
X3800445Y-89740689D01*
X3800439Y-89740693D01*
X3606962Y-89910369D01*
X3576811Y-89936811D01*
X3574102Y-89939900D01*
X3380693Y-90160439D01*
X3380689Y-90160445D01*
X3377975Y-90163539D01*
X3210434Y-90414282D01*
X3077055Y-90684748D01*
X3075729Y-90688653D01*
X3075729Y-90688654D01*
X2988770Y-90944828D01*
X2980120Y-90970309D01*
X2979316Y-90974353D01*
X2979314Y-90974359D01*
X2927965Y-91232510D01*
X2921287Y-91266080D01*
X2901564Y-91567000D01*
X2921287Y-91867920D01*
X2922089Y-91871953D01*
X2922090Y-91871959D01*
X2975024Y-92138073D01*
X2980120Y-92163691D01*
X2981447Y-92167600D01*
X2981448Y-92167604D01*
X3068286Y-92423419D01*
X3077055Y-92449252D01*
X3210434Y-92719718D01*
X3212728Y-92723151D01*
X3364668Y-92950545D01*
X3377975Y-92970461D01*
X3380689Y-92973555D01*
X3380693Y-92973561D01*
X3447356Y-93049575D01*
X3576811Y-93197189D01*
X3579900Y-93199898D01*
X3800439Y-93393307D01*
X3800445Y-93393311D01*
X3803539Y-93396025D01*
X3806965Y-93398314D01*
X3806970Y-93398318D01*
X3992529Y-93522304D01*
X4054282Y-93563566D01*
X4057981Y-93565390D01*
X4057986Y-93565393D01*
X4161571Y-93616475D01*
X4324748Y-93696945D01*
X4328653Y-93698271D01*
X4328654Y-93698271D01*
X4606396Y-93792552D01*
X4606400Y-93792553D01*
X4610309Y-93793880D01*
X4614353Y-93794684D01*
X4614359Y-93794686D01*
X4902041Y-93851910D01*
X4902047Y-93851911D01*
X4906080Y-93852713D01*
X4910185Y-93852982D01*
X4910192Y-93852983D01*
X4929836Y-93854270D01*
X4996502Y-93878684D01*
X5039386Y-93935266D01*
X5044873Y-94006050D01*
X5011219Y-94068564D01*
X4949111Y-94102959D01*
X4921595Y-94106000D01*
X3696981Y-94106000D01*
X3687095Y-94105612D01*
X3579008Y-94097105D01*
X3577911Y-94097013D01*
X3526242Y-94092492D01*
X3497926Y-94090014D01*
X3479506Y-94087015D01*
X3413928Y-94071271D01*
X3379446Y-94062993D01*
X3376250Y-94062181D01*
X3293000Y-94039875D01*
X3277393Y-94034577D01*
X3277369Y-94034567D01*
X3183360Y-93995628D01*
X3178374Y-93993434D01*
X3099302Y-93956563D01*
X3086719Y-93949801D01*
X3000328Y-93896861D01*
X2993892Y-93892641D01*
X2922157Y-93842412D01*
X2912597Y-93835010D01*
X2835666Y-93769305D01*
X2828401Y-93762589D01*
X2766430Y-93700618D01*
X2759714Y-93693353D01*
X2694014Y-93616428D01*
X2686612Y-93606869D01*
X2636389Y-93535143D01*
X2632170Y-93528708D01*
X2597486Y-93472110D01*
X2579219Y-93442302D01*
X2572459Y-93429720D01*
X2535604Y-93350683D01*
X2533390Y-93345652D01*
X2494445Y-93251631D01*
X2489147Y-93236023D01*
X2466840Y-93152770D01*
X2466029Y-93149576D01*
X2442009Y-93049531D01*
X2439009Y-93031112D01*
X2431960Y-92950545D01*
X2431891Y-92949716D01*
X2430930Y-92937499D01*
X2423414Y-92842006D01*
X2423026Y-92832120D01*
X2423026Y-85613107D01*
X149991184Y-85613107D01*
X149991266Y-85613305D01*
X149991501Y-85613872D01*
X149992266Y-85614189D01*
X149992464Y-85614107D01*
X156992068Y-85614107D01*
X156992266Y-85614189D01*
X156993031Y-85613872D01*
X156993266Y-85613305D01*
X156993348Y-85613107D01*
X165541184Y-85613107D01*
X165541266Y-85613305D01*
X165541501Y-85613872D01*
X165542266Y-85614189D01*
X165542464Y-85614107D01*
X179542068Y-85614107D01*
X179542266Y-85614189D01*
X179543031Y-85613872D01*
X179543266Y-85613305D01*
X179543348Y-85613107D01*
X188091184Y-85613107D01*
X188091266Y-85613305D01*
X188091501Y-85613872D01*
X188092266Y-85614189D01*
X188092464Y-85614107D01*
X195092068Y-85614107D01*
X195092266Y-85614189D01*
X195093031Y-85613872D01*
X195093266Y-85613305D01*
X195093348Y-85613107D01*
X195093266Y-85612909D01*
X195093266Y-85600125D01*
X235458668Y-85600125D01*
X235458750Y-85600323D01*
X235458985Y-85600890D01*
X235459750Y-85601207D01*
X235459948Y-85601125D01*
X249459552Y-85601125D01*
X249459750Y-85601207D01*
X249460515Y-85600890D01*
X249460750Y-85600323D01*
X249460832Y-85600125D01*
X256889918Y-85600125D01*
X256890000Y-85600323D01*
X256890235Y-85600890D01*
X256891000Y-85601207D01*
X256891198Y-85601125D01*
X270890802Y-85601125D01*
X270891000Y-85601207D01*
X270891765Y-85600890D01*
X270892000Y-85600323D01*
X270892082Y-85600125D01*
X270892000Y-85599927D01*
X270892000Y-71600323D01*
X270892082Y-71600125D01*
X270891765Y-71599360D01*
X270891198Y-71599125D01*
X270891000Y-71599043D01*
X270890802Y-71599125D01*
X256891198Y-71599125D01*
X256891000Y-71599043D01*
X256890802Y-71599125D01*
X256890235Y-71599360D01*
X256889918Y-71600125D01*
X256890000Y-71600323D01*
X256890000Y-85599927D01*
X256889918Y-85600125D01*
X249460832Y-85600125D01*
X249460750Y-85599927D01*
X249460750Y-71600323D01*
X249460832Y-71600125D01*
X249460515Y-71599360D01*
X249459948Y-71599125D01*
X249459750Y-71599043D01*
X249459552Y-71599125D01*
X235459948Y-71599125D01*
X235459750Y-71599043D01*
X235459552Y-71599125D01*
X235458985Y-71599360D01*
X235458668Y-71600125D01*
X235458750Y-71600323D01*
X235458750Y-85599927D01*
X235458668Y-85600125D01*
X195093266Y-85600125D01*
X195093266Y-85570125D01*
X206104918Y-85570125D01*
X206105000Y-85570323D01*
X206105235Y-85570890D01*
X206106000Y-85571207D01*
X206106198Y-85571125D01*
X220105802Y-85571125D01*
X220106000Y-85571207D01*
X220106765Y-85570890D01*
X220107000Y-85570323D01*
X220107082Y-85570125D01*
X220107000Y-85569927D01*
X220107000Y-71570323D01*
X220107082Y-71570125D01*
X220106765Y-71569360D01*
X220106198Y-71569125D01*
X220106000Y-71569043D01*
X220105802Y-71569125D01*
X206106198Y-71569125D01*
X206106000Y-71569043D01*
X206105802Y-71569125D01*
X206105235Y-71569360D01*
X206104918Y-71570125D01*
X206105000Y-71570323D01*
X206105000Y-85569927D01*
X206104918Y-85570125D01*
X195093266Y-85570125D01*
X195093266Y-70613305D01*
X195093348Y-70613107D01*
X195093031Y-70612342D01*
X195092464Y-70612107D01*
X195092266Y-70612025D01*
X195092068Y-70612107D01*
X188092464Y-70612107D01*
X188092266Y-70612025D01*
X188092068Y-70612107D01*
X188091501Y-70612342D01*
X188091184Y-70613107D01*
X188091266Y-70613305D01*
X188091266Y-85612909D01*
X188091184Y-85613107D01*
X179543348Y-85613107D01*
X179543266Y-85612909D01*
X179543266Y-71613305D01*
X179543348Y-71613107D01*
X179543031Y-71612342D01*
X179542464Y-71612107D01*
X179542266Y-71612025D01*
X179542068Y-71612107D01*
X165542464Y-71612107D01*
X165542266Y-71612025D01*
X165542068Y-71612107D01*
X165541501Y-71612342D01*
X165541184Y-71613107D01*
X165541266Y-71613305D01*
X165541266Y-85612909D01*
X165541184Y-85613107D01*
X156993348Y-85613107D01*
X156993266Y-85612909D01*
X156993266Y-70613305D01*
X156993348Y-70613107D01*
X156993031Y-70612342D01*
X156992464Y-70612107D01*
X156992266Y-70612025D01*
X156992068Y-70612107D01*
X149992464Y-70612107D01*
X149992266Y-70612025D01*
X149992068Y-70612107D01*
X149991501Y-70612342D01*
X149991184Y-70613107D01*
X149991266Y-70613305D01*
X149991266Y-85612909D01*
X149991184Y-85613107D01*
X2423026Y-85613107D01*
X2423026Y-85600125D01*
X7300530Y-85600125D01*
X7300612Y-85600323D01*
X7300847Y-85600890D01*
X7301612Y-85601207D01*
X7301810Y-85601125D01*
X21301414Y-85601125D01*
X21301612Y-85601207D01*
X21302377Y-85600890D01*
X21302612Y-85600323D01*
X21302694Y-85600125D01*
X28731780Y-85600125D01*
X28731862Y-85600323D01*
X28732097Y-85600890D01*
X28732862Y-85601207D01*
X28733060Y-85601125D01*
X42732664Y-85601125D01*
X42732862Y-85601207D01*
X42733627Y-85600890D01*
X42733862Y-85600323D01*
X42733944Y-85600125D01*
X42733862Y-85599927D01*
X42733862Y-85570125D01*
X58070530Y-85570125D01*
X58070612Y-85570323D01*
X58070847Y-85570890D01*
X58071612Y-85571207D01*
X58071810Y-85571125D01*
X72071414Y-85571125D01*
X72071612Y-85571207D01*
X72072377Y-85570890D01*
X72072612Y-85570323D01*
X72072694Y-85570125D01*
X83033530Y-85570125D01*
X83033612Y-85570323D01*
X83033847Y-85570890D01*
X83034612Y-85571207D01*
X83034810Y-85571125D01*
X90034414Y-85571125D01*
X90034612Y-85571207D01*
X90035377Y-85570890D01*
X90035612Y-85570323D01*
X90035694Y-85570125D01*
X98583530Y-85570125D01*
X98583612Y-85570323D01*
X98583847Y-85570890D01*
X98584612Y-85571207D01*
X98584810Y-85571125D01*
X112584414Y-85571125D01*
X112584612Y-85571207D01*
X112585377Y-85570890D01*
X112585612Y-85570323D01*
X112585694Y-85570125D01*
X121133530Y-85570125D01*
X121133612Y-85570323D01*
X121133847Y-85570890D01*
X121134612Y-85571207D01*
X121134810Y-85571125D01*
X128134414Y-85571125D01*
X128134612Y-85571207D01*
X128135377Y-85570890D01*
X128135612Y-85570323D01*
X128135694Y-85570125D01*
X128135612Y-85569927D01*
X128135612Y-70570323D01*
X128135694Y-70570125D01*
X128135377Y-70569360D01*
X128134810Y-70569125D01*
X128134612Y-70569043D01*
X128134414Y-70569125D01*
X121134810Y-70569125D01*
X121134612Y-70569043D01*
X121134414Y-70569125D01*
X121133847Y-70569360D01*
X121133530Y-70570125D01*
X121133612Y-70570323D01*
X121133612Y-85569927D01*
X121133530Y-85570125D01*
X112585694Y-85570125D01*
X112585612Y-85569927D01*
X112585612Y-71570323D01*
X112585694Y-71570125D01*
X112585377Y-71569360D01*
X112584810Y-71569125D01*
X112584612Y-71569043D01*
X112584414Y-71569125D01*
X98584810Y-71569125D01*
X98584612Y-71569043D01*
X98584414Y-71569125D01*
X98583847Y-71569360D01*
X98583530Y-71570125D01*
X98583612Y-71570323D01*
X98583612Y-85569927D01*
X98583530Y-85570125D01*
X90035694Y-85570125D01*
X90035612Y-85569927D01*
X90035612Y-70570323D01*
X90035694Y-70570125D01*
X90035377Y-70569360D01*
X90034810Y-70569125D01*
X90034612Y-70569043D01*
X90034414Y-70569125D01*
X83034810Y-70569125D01*
X83034612Y-70569043D01*
X83034414Y-70569125D01*
X83033847Y-70569360D01*
X83033530Y-70570125D01*
X83033612Y-70570323D01*
X83033612Y-85569927D01*
X83033530Y-85570125D01*
X72072694Y-85570125D01*
X72072612Y-85569927D01*
X72072612Y-71570323D01*
X72072694Y-71570125D01*
X72072377Y-71569360D01*
X72071810Y-71569125D01*
X72071612Y-71569043D01*
X72071414Y-71569125D01*
X58071810Y-71569125D01*
X58071612Y-71569043D01*
X58071414Y-71569125D01*
X58070847Y-71569360D01*
X58070530Y-71570125D01*
X58070612Y-71570323D01*
X58070612Y-85569927D01*
X58070530Y-85570125D01*
X42733862Y-85570125D01*
X42733862Y-71600323D01*
X42733944Y-71600125D01*
X42733627Y-71599360D01*
X42733060Y-71599125D01*
X42732862Y-71599043D01*
X42732664Y-71599125D01*
X28733060Y-71599125D01*
X28732862Y-71599043D01*
X28732664Y-71599125D01*
X28732097Y-71599360D01*
X28731780Y-71600125D01*
X28731862Y-71600323D01*
X28731862Y-85599927D01*
X28731780Y-85600125D01*
X21302694Y-85600125D01*
X21302612Y-85599927D01*
X21302612Y-71600323D01*
X21302694Y-71600125D01*
X21302377Y-71599360D01*
X21301810Y-71599125D01*
X21301612Y-71599043D01*
X21301414Y-71599125D01*
X7301810Y-71599125D01*
X7301612Y-71599043D01*
X7301414Y-71599125D01*
X7300847Y-71599360D01*
X7300530Y-71600125D01*
X7300612Y-71600323D01*
X7300612Y-85599927D01*
X7300530Y-85600125D01*
X2423026Y-85600125D01*
X2423026Y-66548548D01*
X7291174Y-66548548D01*
X7291256Y-66548746D01*
X7291491Y-66549313D01*
X7292256Y-66549630D01*
X7292454Y-66549548D01*
X21292058Y-66549548D01*
X21292256Y-66549630D01*
X21293021Y-66549313D01*
X21293256Y-66548746D01*
X21293338Y-66548548D01*
X26341174Y-66548548D01*
X26341256Y-66548746D01*
X26341491Y-66549313D01*
X26342256Y-66549630D01*
X26342454Y-66549548D01*
X40342058Y-66549548D01*
X40342256Y-66549630D01*
X40343021Y-66549313D01*
X40343256Y-66548746D01*
X40343338Y-66548548D01*
X45391174Y-66548548D01*
X45391256Y-66548746D01*
X45391491Y-66549313D01*
X45392256Y-66549630D01*
X45392454Y-66549548D01*
X59392058Y-66549548D01*
X59392256Y-66549630D01*
X59393021Y-66549313D01*
X59393256Y-66548746D01*
X59393338Y-66548548D01*
X64441174Y-66548548D01*
X64441256Y-66548746D01*
X64441491Y-66549313D01*
X64442256Y-66549630D01*
X64442454Y-66549548D01*
X78442058Y-66549548D01*
X78442256Y-66549630D01*
X78443021Y-66549313D01*
X78443256Y-66548746D01*
X78443338Y-66548548D01*
X83491174Y-66548548D01*
X83491256Y-66548746D01*
X83491491Y-66549313D01*
X83492256Y-66549630D01*
X83492454Y-66549548D01*
X97492058Y-66549548D01*
X97492256Y-66549630D01*
X97493021Y-66549313D01*
X97493256Y-66548746D01*
X97493338Y-66548548D01*
X102541174Y-66548548D01*
X102541256Y-66548746D01*
X102541491Y-66549313D01*
X102542256Y-66549630D01*
X102542454Y-66549548D01*
X116542058Y-66549548D01*
X116542256Y-66549630D01*
X116543021Y-66549313D01*
X116543256Y-66548746D01*
X116543338Y-66548548D01*
X116543256Y-66548350D01*
X116543256Y-52548746D01*
X116543338Y-52548548D01*
X116543021Y-52547783D01*
X116542454Y-52547548D01*
X116542256Y-52547466D01*
X116542058Y-52547548D01*
X102542454Y-52547548D01*
X102542256Y-52547466D01*
X102542058Y-52547548D01*
X102541491Y-52547783D01*
X102541174Y-52548548D01*
X102541256Y-52548746D01*
X102541256Y-66548350D01*
X102541174Y-66548548D01*
X97493338Y-66548548D01*
X97493256Y-66548350D01*
X97493256Y-52548746D01*
X97493338Y-52548548D01*
X97493021Y-52547783D01*
X97492454Y-52547548D01*
X97492256Y-52547466D01*
X97492058Y-52547548D01*
X83492454Y-52547548D01*
X83492256Y-52547466D01*
X83492058Y-52547548D01*
X83491491Y-52547783D01*
X83491174Y-52548548D01*
X83491256Y-52548746D01*
X83491256Y-66548350D01*
X83491174Y-66548548D01*
X78443338Y-66548548D01*
X78443256Y-66548350D01*
X78443256Y-52548746D01*
X78443338Y-52548548D01*
X78443021Y-52547783D01*
X78442454Y-52547548D01*
X78442256Y-52547466D01*
X78442058Y-52547548D01*
X64442454Y-52547548D01*
X64442256Y-52547466D01*
X64442058Y-52547548D01*
X64441491Y-52547783D01*
X64441174Y-52548548D01*
X64441256Y-52548746D01*
X64441256Y-66548350D01*
X64441174Y-66548548D01*
X59393338Y-66548548D01*
X59393256Y-66548350D01*
X59393256Y-52548746D01*
X59393338Y-52548548D01*
X59393021Y-52547783D01*
X59392454Y-52547548D01*
X59392256Y-52547466D01*
X59392058Y-52547548D01*
X45392454Y-52547548D01*
X45392256Y-52547466D01*
X45392058Y-52547548D01*
X45391491Y-52547783D01*
X45391174Y-52548548D01*
X45391256Y-52548746D01*
X45391256Y-66548350D01*
X45391174Y-66548548D01*
X40343338Y-66548548D01*
X40343256Y-66548350D01*
X40343256Y-52548746D01*
X40343338Y-52548548D01*
X40343021Y-52547783D01*
X40342454Y-52547548D01*
X40342256Y-52547466D01*
X40342058Y-52547548D01*
X26342454Y-52547548D01*
X26342256Y-52547466D01*
X26342058Y-52547548D01*
X26341491Y-52547783D01*
X26341174Y-52548548D01*
X26341256Y-52548746D01*
X26341256Y-66548350D01*
X26341174Y-66548548D01*
X21293338Y-66548548D01*
X21293256Y-66548350D01*
X21293256Y-52548746D01*
X21293338Y-52548548D01*
X21293021Y-52547783D01*
X21292454Y-52547548D01*
X21292256Y-52547466D01*
X21292058Y-52547548D01*
X7292454Y-52547548D01*
X7292256Y-52547466D01*
X7292058Y-52547548D01*
X7291491Y-52547783D01*
X7291174Y-52548548D01*
X7291256Y-52548746D01*
X7291256Y-66548350D01*
X7291174Y-66548548D01*
X2423026Y-66548548D01*
X2423026Y-47494159D01*
X7301861Y-47494159D01*
X7301943Y-47494357D01*
X7302178Y-47494924D01*
X7302943Y-47495241D01*
X7303141Y-47495159D01*
X21302745Y-47495159D01*
X21302943Y-47495241D01*
X21303708Y-47494924D01*
X21303943Y-47494357D01*
X21304025Y-47494159D01*
X26351861Y-47494159D01*
X26351943Y-47494357D01*
X26352178Y-47494924D01*
X26352943Y-47495241D01*
X26353141Y-47495159D01*
X40352745Y-47495159D01*
X40352943Y-47495241D01*
X40353708Y-47494924D01*
X40353943Y-47494357D01*
X40354025Y-47494159D01*
X45401861Y-47494159D01*
X45401943Y-47494357D01*
X45402178Y-47494924D01*
X45402943Y-47495241D01*
X45403141Y-47495159D01*
X59402745Y-47495159D01*
X59402943Y-47495241D01*
X59403708Y-47494924D01*
X59403943Y-47494357D01*
X59404025Y-47494159D01*
X64451861Y-47494159D01*
X64451943Y-47494357D01*
X64452178Y-47494924D01*
X64452943Y-47495241D01*
X64453141Y-47495159D01*
X78452745Y-47495159D01*
X78452943Y-47495241D01*
X78453708Y-47494924D01*
X78453943Y-47494357D01*
X78454025Y-47494159D01*
X83501861Y-47494159D01*
X83501943Y-47494357D01*
X83502178Y-47494924D01*
X83502943Y-47495241D01*
X83503141Y-47495159D01*
X97502745Y-47495159D01*
X97502943Y-47495241D01*
X97503708Y-47494924D01*
X97503943Y-47494357D01*
X97504025Y-47494159D01*
X102551861Y-47494159D01*
X102551943Y-47494357D01*
X102552178Y-47494924D01*
X102552943Y-47495241D01*
X102553141Y-47495159D01*
X116552745Y-47495159D01*
X116552943Y-47495241D01*
X116553708Y-47494924D01*
X116553943Y-47494357D01*
X116554025Y-47494159D01*
X116553943Y-47493961D01*
X116553943Y-33494357D01*
X116554025Y-33494159D01*
X116553708Y-33493394D01*
X116553141Y-33493159D01*
X116552943Y-33493077D01*
X116552745Y-33493159D01*
X102553141Y-33493159D01*
X102552943Y-33493077D01*
X102552745Y-33493159D01*
X102552178Y-33493394D01*
X102551861Y-33494159D01*
X102551943Y-33494357D01*
X102551943Y-47493961D01*
X102551861Y-47494159D01*
X97504025Y-47494159D01*
X97503943Y-47493961D01*
X97503943Y-33494357D01*
X97504025Y-33494159D01*
X97503708Y-33493394D01*
X97503141Y-33493159D01*
X97502943Y-33493077D01*
X97502745Y-33493159D01*
X83503141Y-33493159D01*
X83502943Y-33493077D01*
X83502745Y-33493159D01*
X83502178Y-33493394D01*
X83501861Y-33494159D01*
X83501943Y-33494357D01*
X83501943Y-47493961D01*
X83501861Y-47494159D01*
X78454025Y-47494159D01*
X78453943Y-47493961D01*
X78453943Y-33494357D01*
X78454025Y-33494159D01*
X78453708Y-33493394D01*
X78453141Y-33493159D01*
X78452943Y-33493077D01*
X78452745Y-33493159D01*
X64453141Y-33493159D01*
X64452943Y-33493077D01*
X64452745Y-33493159D01*
X64452178Y-33493394D01*
X64451861Y-33494159D01*
X64451943Y-33494357D01*
X64451943Y-47493961D01*
X64451861Y-47494159D01*
X59404025Y-47494159D01*
X59403943Y-47493961D01*
X59403943Y-33494357D01*
X59404025Y-33494159D01*
X59403708Y-33493394D01*
X59403141Y-33493159D01*
X59402943Y-33493077D01*
X59402745Y-33493159D01*
X45403141Y-33493159D01*
X45402943Y-33493077D01*
X45402745Y-33493159D01*
X45402178Y-33493394D01*
X45401861Y-33494159D01*
X45401943Y-33494357D01*
X45401943Y-47493961D01*
X45401861Y-47494159D01*
X40354025Y-47494159D01*
X40353943Y-47493961D01*
X40353943Y-33494357D01*
X40354025Y-33494159D01*
X40353708Y-33493394D01*
X40353141Y-33493159D01*
X40352943Y-33493077D01*
X40352745Y-33493159D01*
X26353141Y-33493159D01*
X26352943Y-33493077D01*
X26352745Y-33493159D01*
X26352178Y-33493394D01*
X26351861Y-33494159D01*
X26351943Y-33494357D01*
X26351943Y-47493961D01*
X26351861Y-47494159D01*
X21304025Y-47494159D01*
X21303943Y-47493961D01*
X21303943Y-33494357D01*
X21304025Y-33494159D01*
X21303708Y-33493394D01*
X21303141Y-33493159D01*
X21302943Y-33493077D01*
X21302745Y-33493159D01*
X7303141Y-33493159D01*
X7302943Y-33493077D01*
X7302745Y-33493159D01*
X7302178Y-33493394D01*
X7301861Y-33494159D01*
X7301943Y-33494357D01*
X7301943Y-47493961D01*
X7301861Y-47494159D01*
X2423026Y-47494159D01*
X2423026Y-28450125D01*
X7300530Y-28450125D01*
X7300612Y-28450323D01*
X7300847Y-28450890D01*
X7301612Y-28451207D01*
X7301810Y-28451125D01*
X21301414Y-28451125D01*
X21301612Y-28451207D01*
X21302377Y-28450890D01*
X21302612Y-28450323D01*
X21302694Y-28450125D01*
X26350530Y-28450125D01*
X26350612Y-28450323D01*
X26350847Y-28450890D01*
X26351612Y-28451207D01*
X26351810Y-28451125D01*
X40351414Y-28451125D01*
X40351612Y-28451207D01*
X40352377Y-28450890D01*
X40352612Y-28450323D01*
X40352694Y-28450125D01*
X45400530Y-28450125D01*
X45400612Y-28450323D01*
X45400847Y-28450890D01*
X45401612Y-28451207D01*
X45401810Y-28451125D01*
X59401414Y-28451125D01*
X59401612Y-28451207D01*
X59402377Y-28450890D01*
X59402612Y-28450323D01*
X59402694Y-28450125D01*
X64450530Y-28450125D01*
X64450612Y-28450323D01*
X64450847Y-28450890D01*
X64451612Y-28451207D01*
X64451810Y-28451125D01*
X78451414Y-28451125D01*
X78451612Y-28451207D01*
X78452377Y-28450890D01*
X78452612Y-28450323D01*
X78452694Y-28450125D01*
X83500530Y-28450125D01*
X83500612Y-28450323D01*
X83500847Y-28450890D01*
X83501612Y-28451207D01*
X83501810Y-28451125D01*
X97501414Y-28451125D01*
X97501612Y-28451207D01*
X97502377Y-28450890D01*
X97502612Y-28450323D01*
X97502694Y-28450125D01*
X102550530Y-28450125D01*
X102550612Y-28450323D01*
X102550847Y-28450890D01*
X102551612Y-28451207D01*
X102551810Y-28451125D01*
X116551414Y-28451125D01*
X116551612Y-28451207D01*
X116552377Y-28450890D01*
X116552612Y-28450323D01*
X116552694Y-28450125D01*
X116552612Y-28449927D01*
X116552612Y-14450323D01*
X116552694Y-14450125D01*
X116552377Y-14449360D01*
X116551810Y-14449125D01*
X116551612Y-14449043D01*
X116551414Y-14449125D01*
X102551810Y-14449125D01*
X102551612Y-14449043D01*
X102551414Y-14449125D01*
X102550847Y-14449360D01*
X102550530Y-14450125D01*
X102550612Y-14450323D01*
X102550612Y-28449927D01*
X102550530Y-28450125D01*
X97502694Y-28450125D01*
X97502612Y-28449927D01*
X97502612Y-14450323D01*
X97502694Y-14450125D01*
X97502377Y-14449360D01*
X97501810Y-14449125D01*
X97501612Y-14449043D01*
X97501414Y-14449125D01*
X83501810Y-14449125D01*
X83501612Y-14449043D01*
X83501414Y-14449125D01*
X83500847Y-14449360D01*
X83500530Y-14450125D01*
X83500612Y-14450323D01*
X83500612Y-28449927D01*
X83500530Y-28450125D01*
X78452694Y-28450125D01*
X78452612Y-28449927D01*
X78452612Y-14450323D01*
X78452694Y-14450125D01*
X78452377Y-14449360D01*
X78451810Y-14449125D01*
X78451612Y-14449043D01*
X78451414Y-14449125D01*
X64451810Y-14449125D01*
X64451612Y-14449043D01*
X64451414Y-14449125D01*
X64450847Y-14449360D01*
X64450530Y-14450125D01*
X64450612Y-14450323D01*
X64450612Y-28449927D01*
X64450530Y-28450125D01*
X59402694Y-28450125D01*
X59402612Y-28449927D01*
X59402612Y-14450323D01*
X59402694Y-14450125D01*
X59402377Y-14449360D01*
X59401810Y-14449125D01*
X59401612Y-14449043D01*
X59401414Y-14449125D01*
X45401810Y-14449125D01*
X45401612Y-14449043D01*
X45401414Y-14449125D01*
X45400847Y-14449360D01*
X45400530Y-14450125D01*
X45400612Y-14450323D01*
X45400612Y-28449927D01*
X45400530Y-28450125D01*
X40352694Y-28450125D01*
X40352612Y-28449927D01*
X40352612Y-14450323D01*
X40352694Y-14450125D01*
X40352377Y-14449360D01*
X40351810Y-14449125D01*
X40351612Y-14449043D01*
X40351414Y-14449125D01*
X26351810Y-14449125D01*
X26351612Y-14449043D01*
X26351414Y-14449125D01*
X26350847Y-14449360D01*
X26350530Y-14450125D01*
X26350612Y-14450323D01*
X26350612Y-28449927D01*
X26350530Y-28450125D01*
X21302694Y-28450125D01*
X21302612Y-28449927D01*
X21302612Y-14450323D01*
X21302694Y-14450125D01*
X21302377Y-14449360D01*
X21301810Y-14449125D01*
X21301612Y-14449043D01*
X21301414Y-14449125D01*
X7301810Y-14449125D01*
X7301612Y-14449043D01*
X7301414Y-14449125D01*
X7300847Y-14449360D01*
X7300530Y-14450125D01*
X7300612Y-14450323D01*
X7300612Y-28449927D01*
X7300530Y-28450125D01*
X2423026Y-28450125D01*
X2423026Y-8861237D01*
X2443028Y-8793116D01*
X2496684Y-8746623D01*
X2566958Y-8736519D01*
X2631538Y-8766013D01*
X2669922Y-8825739D01*
X2672605Y-8836655D01*
X2720601Y-9077943D01*
X2726120Y-9105691D01*
X2727447Y-9109600D01*
X2727448Y-9109604D01*
X2777551Y-9257201D01*
X2823055Y-9391252D01*
X2824879Y-9394950D01*
X2940924Y-9630266D01*
X2956434Y-9661718D01*
X2958728Y-9665151D01*
X3107506Y-9887813D01*
X3123975Y-9912461D01*
X3126689Y-9915555D01*
X3126693Y-9915561D01*
X3300852Y-10114150D01*
X3322811Y-10139189D01*
X3325900Y-10141898D01*
X3546439Y-10335307D01*
X3546445Y-10335311D01*
X3549539Y-10338025D01*
X3552965Y-10340314D01*
X3552970Y-10340318D01*
X3740533Y-10465643D01*
X3800282Y-10505566D01*
X3803981Y-10507390D01*
X3803986Y-10507393D01*
X3942834Y-10575865D01*
X4070748Y-10638945D01*
X4074653Y-10640271D01*
X4074654Y-10640271D01*
X4352396Y-10734552D01*
X4352400Y-10734553D01*
X4356309Y-10735880D01*
X4360353Y-10736684D01*
X4360359Y-10736686D01*
X4648041Y-10793910D01*
X4648047Y-10793911D01*
X4652080Y-10794713D01*
X4656185Y-10794982D01*
X4656192Y-10794983D01*
X4948881Y-10814166D01*
X4953000Y-10814436D01*
X4957119Y-10814166D01*
X5249808Y-10794983D01*
X5249815Y-10794982D01*
X5253920Y-10794713D01*
X5257953Y-10793911D01*
X5257959Y-10793910D01*
X5545641Y-10736686D01*
X5545647Y-10736684D01*
X5549691Y-10735880D01*
X5553600Y-10734553D01*
X5553604Y-10734552D01*
X5831346Y-10640271D01*
X5831347Y-10640271D01*
X5835252Y-10638945D01*
X5963166Y-10575865D01*
X6102014Y-10507393D01*
X6102019Y-10507390D01*
X6105718Y-10505566D01*
X6165467Y-10465643D01*
X6353030Y-10340318D01*
X6353035Y-10340314D01*
X6356461Y-10338025D01*
X6359555Y-10335311D01*
X6359561Y-10335307D01*
X6580100Y-10141898D01*
X6583189Y-10139189D01*
X6605148Y-10114150D01*
X6779307Y-9915561D01*
X6779311Y-9915555D01*
X6782025Y-9912461D01*
X6798495Y-9887813D01*
X6947272Y-9665151D01*
X6949566Y-9661718D01*
X6965077Y-9630266D01*
X7081121Y-9394950D01*
X7082945Y-9391252D01*
X7128449Y-9257201D01*
X7178552Y-9109604D01*
X7178553Y-9109600D01*
X7179880Y-9105691D01*
X7180686Y-9101641D01*
X7237910Y-8813959D01*
X7237911Y-8813953D01*
X7238713Y-8809920D01*
X7239815Y-8793116D01*
X7258166Y-8513119D01*
X7258436Y-8509000D01*
X7238713Y-8208080D01*
X7234012Y-8184444D01*
X7180686Y-7916359D01*
X7180684Y-7916353D01*
X7179880Y-7912309D01*
X7148476Y-7819794D01*
X7084271Y-7630654D01*
X7084271Y-7630653D01*
X7082945Y-7626748D01*
X6949566Y-7356282D01*
X6874512Y-7243955D01*
X6784318Y-7108970D01*
X6784314Y-7108965D01*
X6782025Y-7105539D01*
X6779311Y-7102445D01*
X6779307Y-7102439D01*
X6585898Y-6881900D01*
X6583189Y-6878811D01*
X6521206Y-6824453D01*
X6359561Y-6682693D01*
X6359555Y-6682689D01*
X6356461Y-6679975D01*
X6353035Y-6677686D01*
X6353030Y-6677682D01*
X6109151Y-6514728D01*
X6105718Y-6512434D01*
X6102019Y-6510610D01*
X6102014Y-6510607D01*
X5963166Y-6442135D01*
X5835252Y-6379055D01*
X5824193Y-6375301D01*
X5553604Y-6283448D01*
X5553600Y-6283447D01*
X5549691Y-6282120D01*
X5545647Y-6281316D01*
X5545641Y-6281314D01*
X5257959Y-6224090D01*
X5257953Y-6224089D01*
X5253920Y-6223287D01*
X5249815Y-6223018D01*
X5249808Y-6223017D01*
X5230164Y-6221730D01*
X5163498Y-6197316D01*
X5120614Y-6140734D01*
X5115127Y-6069950D01*
X5148781Y-6007436D01*
X5210889Y-5973041D01*
X5238405Y-5970000D01*
X115602095Y-5970000D01*
X115670216Y-5990002D01*
G37*
%TD.AperFunction*%
M02*
