%TF.GenerationSoftware,KiCad,Pcbnew,(6.0.7)*%
%TF.CreationDate,2022-11-26T03:08:02+01:00*%
%TF.ProjectId,skoosk pcb no leds rgb,736b6f6f-736b-4207-9063-62206e6f206c,rev?*%
%TF.SameCoordinates,Original*%
%TF.FileFunction,Soldermask,Top*%
%TF.FilePolarity,Negative*%
%FSLAX46Y46*%
G04 Gerber Fmt 4.6, Leading zero omitted, Abs format (unit mm)*
G04 Created by KiCad (PCBNEW (6.0.7)) date 2022-11-26 03:08:02*
%MOMM*%
%LPD*%
G01*
G04 APERTURE LIST*
%ADD10R,1.600000X1.600000*%
%ADD11O,1.600000X1.600000*%
%ADD12C,1.750000*%
%ADD13C,3.987800*%
%ADD14R,1.752600X1.752600*%
%ADD15C,1.752600*%
%ADD16C,3.048000*%
%ADD17R,2.000000X2.000000*%
%ADD18C,2.000000*%
%ADD19R,2.000000X3.200000*%
%ADD20R,0.850000X0.850000*%
%ADD21O,0.850000X0.850000*%
G04 APERTURE END LIST*
D10*
%TO.C,D28*%
X128270000Y-51689000D03*
D11*
X120650000Y-51689000D03*
%TD*%
D12*
%TO.C,MX30*%
X114617500Y-59563000D03*
X104457500Y-59563000D03*
D13*
X109537500Y-59563000D03*
%TD*%
D14*
%TO.C,U1*%
X131445000Y-15194700D03*
D15*
X131445000Y-17734700D03*
X131445000Y-20274700D03*
X131445000Y-22814700D03*
X131445000Y-25354700D03*
X131445000Y-27894700D03*
X131445000Y-30434700D03*
X131445000Y-32974700D03*
X131445000Y-35514700D03*
X131445000Y-38054700D03*
X131445000Y-40594700D03*
X131445000Y-43134700D03*
X146685000Y-43134700D03*
X146685000Y-40594700D03*
X146685000Y-38054700D03*
X146685000Y-35514700D03*
X146685000Y-32974700D03*
X146685000Y-30434700D03*
X146685000Y-27894700D03*
X146685000Y-25354700D03*
X146685000Y-22814700D03*
X146685000Y-20274700D03*
X146685000Y-17734700D03*
X146685000Y-15194700D03*
%TD*%
D12*
%TO.C,MX16*%
X76517500Y-40513000D03*
D13*
X71437500Y-40513000D03*
D12*
X66357500Y-40513000D03*
%TD*%
D10*
%TO.C,D3*%
X128270000Y-18669000D03*
D11*
X120650000Y-18669000D03*
%TD*%
D13*
%TO.C,MX14*%
X33337500Y-40513000D03*
D12*
X28257500Y-40513000D03*
X38417500Y-40513000D03*
%TD*%
D13*
%TO.C,MX44*%
X263906000Y-78613000D03*
D12*
X268986000Y-78613000D03*
X258826000Y-78613000D03*
%TD*%
%TO.C,MX28*%
X76517500Y-59563000D03*
X66357500Y-59563000D03*
D13*
X71437500Y-59563000D03*
%TD*%
D10*
%TO.C,D14*%
X128270000Y-31369000D03*
D11*
X120650000Y-31369000D03*
%TD*%
D10*
%TO.C,D43*%
X149860000Y-61849000D03*
D11*
X157480000Y-61849000D03*
%TD*%
D16*
%TO.C,MX41*%
X153501100Y-85604000D03*
X191601100Y-85604000D03*
D13*
X172551100Y-78619000D03*
X191601100Y-70364000D03*
X153501100Y-70364000D03*
D12*
X167471100Y-78619000D03*
X177631100Y-78619000D03*
%TD*%
D10*
%TO.C,D2*%
X128270000Y-16129000D03*
D11*
X120650000Y-16129000D03*
%TD*%
D10*
%TO.C,D23*%
X149860000Y-31369000D03*
D11*
X157480000Y-31369000D03*
%TD*%
D12*
%TO.C,MX35*%
X239776000Y-59563000D03*
D13*
X244856000Y-59563000D03*
D12*
X249936000Y-59563000D03*
%TD*%
%TO.C,MX24*%
X258826000Y-40513000D03*
X268986000Y-40513000D03*
D13*
X263906000Y-40513000D03*
%TD*%
%TO.C,MX43*%
X242468400Y-78613000D03*
D12*
X237388400Y-78613000D03*
X247548400Y-78613000D03*
%TD*%
D17*
%TO.C,SW2*%
X136692000Y-63062500D03*
D18*
X141692000Y-63062500D03*
X139192000Y-63062500D03*
D19*
X133592000Y-55562500D03*
X144792000Y-55562500D03*
D18*
X141692000Y-48562500D03*
X136692000Y-48562500D03*
%TD*%
D10*
%TO.C,D6*%
X128270000Y-26289000D03*
D11*
X120650000Y-26289000D03*
%TD*%
D13*
%TO.C,MX26*%
X33337500Y-59563000D03*
D12*
X28257500Y-59563000D03*
X38417500Y-59563000D03*
%TD*%
D10*
%TO.C,D34*%
X149860000Y-49149000D03*
D11*
X157480000Y-49149000D03*
%TD*%
D12*
%TO.C,MX7*%
X173736000Y-21463000D03*
D13*
X168656000Y-21463000D03*
D12*
X163576000Y-21463000D03*
%TD*%
D20*
%TO.C,SW1*%
X131971257Y-45811315D03*
D21*
X132971257Y-45811315D03*
%TD*%
D13*
%TO.C,MX5*%
X90487500Y-21463000D03*
D12*
X95567500Y-21463000D03*
X85407500Y-21463000D03*
%TD*%
D10*
%TO.C,D5*%
X128270000Y-23749000D03*
D11*
X120650000Y-23749000D03*
%TD*%
D13*
%TO.C,MX15*%
X52387500Y-40513000D03*
D12*
X57467500Y-40513000D03*
X47307500Y-40513000D03*
%TD*%
D10*
%TO.C,D40*%
X128270000Y-66929000D03*
D11*
X120650000Y-66929000D03*
%TD*%
D10*
%TO.C,D4*%
X128270000Y-21209000D03*
D11*
X120650000Y-21209000D03*
%TD*%
D10*
%TO.C,D24*%
X149860000Y-28829000D03*
D11*
X157480000Y-28829000D03*
%TD*%
D12*
%TO.C,MX18*%
X104457500Y-40513000D03*
D13*
X109537500Y-40513000D03*
D12*
X114617500Y-40513000D03*
%TD*%
%TO.C,MX21*%
X211836000Y-40513000D03*
X201676000Y-40513000D03*
D13*
X206756000Y-40513000D03*
%TD*%
D10*
%TO.C,D39*%
X128270000Y-64389000D03*
D11*
X120650000Y-64389000D03*
%TD*%
D13*
%TO.C,MX11*%
X244856000Y-21463000D03*
D12*
X249936000Y-21463000D03*
X239776000Y-21463000D03*
%TD*%
D10*
%TO.C,D27*%
X128270000Y-49149000D03*
D11*
X120650000Y-49149000D03*
%TD*%
D10*
%TO.C,D30*%
X128270000Y-56769000D03*
D11*
X120650000Y-56769000D03*
%TD*%
D10*
%TO.C,D22*%
X149860000Y-33909000D03*
D11*
X157480000Y-33909000D03*
%TD*%
D10*
%TO.C,D18*%
X128270000Y-41529000D03*
D11*
X120650000Y-41529000D03*
%TD*%
D13*
%TO.C,MX40*%
X105613200Y-78613000D03*
X86563200Y-70358000D03*
D16*
X124663200Y-85598000D03*
X86563200Y-85598000D03*
D12*
X100533200Y-78613000D03*
D13*
X124663200Y-70358000D03*
D12*
X110693200Y-78613000D03*
%TD*%
D10*
%TO.C,D21*%
X149860000Y-36449000D03*
D11*
X157480000Y-36449000D03*
%TD*%
D10*
%TO.C,D36*%
X149860000Y-44069000D03*
D11*
X157480000Y-44069000D03*
%TD*%
D13*
%TO.C,MX10*%
X225806000Y-21463000D03*
D12*
X220726000Y-21463000D03*
X230886000Y-21463000D03*
%TD*%
D10*
%TO.C,D31*%
X149860000Y-56769000D03*
D11*
X157480000Y-56769000D03*
%TD*%
D10*
%TO.C,D32*%
X149860000Y-54229000D03*
D11*
X157480000Y-54229000D03*
%TD*%
D13*
%TO.C,MX4*%
X71437500Y-21463000D03*
D12*
X76517500Y-21463000D03*
X66357500Y-21463000D03*
%TD*%
%TO.C,MX32*%
X182626000Y-59563000D03*
D13*
X187706000Y-59563000D03*
D12*
X192786000Y-59563000D03*
%TD*%
%TO.C,MX22*%
X230886000Y-40513000D03*
D13*
X225806000Y-40513000D03*
D12*
X220726000Y-40513000D03*
%TD*%
D10*
%TO.C,D35*%
X149860000Y-46609000D03*
D11*
X157480000Y-46609000D03*
%TD*%
D10*
%TO.C,D12*%
X149860000Y-13589000D03*
D11*
X157480000Y-13589000D03*
%TD*%
D12*
%TO.C,MX27*%
X47307500Y-59563000D03*
X57467500Y-59563000D03*
D13*
X52387500Y-59563000D03*
%TD*%
D12*
%TO.C,MX36*%
X258826000Y-59563000D03*
X268986000Y-59563000D03*
D13*
X263906000Y-59563000D03*
%TD*%
D10*
%TO.C,D9*%
X149860000Y-21209000D03*
D11*
X157480000Y-21209000D03*
%TD*%
D13*
%TO.C,MX20*%
X187706000Y-40513000D03*
D12*
X182626000Y-40513000D03*
X192786000Y-40513000D03*
%TD*%
D10*
%TO.C,D15*%
X128270000Y-33909000D03*
D11*
X120650000Y-33909000D03*
%TD*%
D10*
%TO.C,D51*%
X135636000Y-67056000D03*
D11*
X143256000Y-67056000D03*
%TD*%
D10*
%TO.C,D7*%
X149860000Y-26289000D03*
D11*
X157480000Y-26289000D03*
%TD*%
D12*
%TO.C,MX25*%
X9207500Y-59563000D03*
X19367500Y-59563000D03*
D13*
X14287500Y-59563000D03*
%TD*%
D10*
%TO.C,D33*%
X149860000Y-51689000D03*
D11*
X157480000Y-51689000D03*
%TD*%
D10*
%TO.C,D17*%
X128270000Y-38989000D03*
D11*
X120650000Y-38989000D03*
%TD*%
D10*
%TO.C,D16*%
X128270000Y-36449000D03*
D11*
X120650000Y-36449000D03*
%TD*%
D12*
%TO.C,MX42*%
X218109800Y-78613000D03*
D13*
X213029800Y-78613000D03*
D12*
X207949800Y-78613000D03*
%TD*%
%TO.C,MX33*%
X201676000Y-59563000D03*
D13*
X206756000Y-59563000D03*
D12*
X211836000Y-59563000D03*
%TD*%
%TO.C,MX38*%
X40792400Y-78613000D03*
D13*
X35712400Y-78613000D03*
D12*
X30632400Y-78613000D03*
%TD*%
D13*
%TO.C,MX13*%
X14287500Y-40513000D03*
D12*
X9207500Y-40513000D03*
X19367500Y-40513000D03*
%TD*%
D10*
%TO.C,D42*%
X149860000Y-64389000D03*
D11*
X157480000Y-64389000D03*
%TD*%
D12*
%TO.C,MX6*%
X104457500Y-21463000D03*
D13*
X109537500Y-21463000D03*
D12*
X114617500Y-21463000D03*
%TD*%
%TO.C,MX3*%
X47307500Y-21463000D03*
X57467500Y-21463000D03*
D13*
X52387500Y-21463000D03*
%TD*%
D12*
%TO.C,MX2*%
X38417500Y-21463000D03*
D13*
X33337500Y-21463000D03*
D12*
X28257500Y-21463000D03*
%TD*%
%TO.C,MX17*%
X85407500Y-40513000D03*
X95567500Y-40513000D03*
D13*
X90487500Y-40513000D03*
%TD*%
D10*
%TO.C,D11*%
X149860000Y-16129000D03*
D11*
X157480000Y-16129000D03*
%TD*%
D12*
%TO.C,MX1*%
X19367500Y-21463000D03*
X9207500Y-21463000D03*
D13*
X14287500Y-21463000D03*
%TD*%
D10*
%TO.C,D25*%
X128270000Y-44069000D03*
D11*
X120650000Y-44069000D03*
%TD*%
D13*
%TO.C,MX37*%
X14287500Y-78613000D03*
D12*
X9207500Y-78613000D03*
X19367500Y-78613000D03*
%TD*%
%TO.C,MX39*%
X60045600Y-78613000D03*
X70205600Y-78613000D03*
D13*
X65125600Y-78613000D03*
%TD*%
D10*
%TO.C,D19*%
X149860000Y-41529000D03*
D11*
X157480000Y-41529000D03*
%TD*%
D10*
%TO.C,D8*%
X149860000Y-23749000D03*
D11*
X157480000Y-23749000D03*
%TD*%
D13*
%TO.C,MX23*%
X244856000Y-40513000D03*
D12*
X239776000Y-40513000D03*
X249936000Y-40513000D03*
%TD*%
D10*
%TO.C,D44*%
X149860000Y-59309000D03*
D11*
X157480000Y-59309000D03*
%TD*%
D12*
%TO.C,MX9*%
X201676000Y-21463000D03*
D13*
X206756000Y-21463000D03*
D12*
X211836000Y-21463000D03*
%TD*%
D10*
%TO.C,D20*%
X149860000Y-38989000D03*
D11*
X157480000Y-38989000D03*
%TD*%
D12*
%TO.C,MX34*%
X230886000Y-59563000D03*
X220726000Y-59563000D03*
D13*
X225806000Y-59563000D03*
%TD*%
D10*
%TO.C,D26*%
X128270000Y-46609000D03*
D11*
X120650000Y-46609000D03*
%TD*%
D10*
%TO.C,D1*%
X128270000Y-13589000D03*
D11*
X120650000Y-13589000D03*
%TD*%
D10*
%TO.C,D13*%
X128270000Y-28829000D03*
D11*
X120650000Y-28829000D03*
%TD*%
D12*
%TO.C,MX19*%
X173736000Y-40513000D03*
D13*
X168656000Y-40513000D03*
D12*
X163576000Y-40513000D03*
%TD*%
D10*
%TO.C,D29*%
X128270000Y-54229000D03*
D11*
X120650000Y-54229000D03*
%TD*%
D12*
%TO.C,MX12*%
X268986000Y-21463000D03*
X258826000Y-21463000D03*
D13*
X263906000Y-21463000D03*
%TD*%
D10*
%TO.C,D10*%
X149860000Y-18669000D03*
D11*
X157480000Y-18669000D03*
%TD*%
D10*
%TO.C,D41*%
X149860000Y-66929000D03*
D11*
X157480000Y-66929000D03*
%TD*%
D12*
%TO.C,MX31*%
X163576000Y-59563000D03*
X173736000Y-59563000D03*
D13*
X168656000Y-59563000D03*
%TD*%
D10*
%TO.C,D37*%
X128270000Y-59309000D03*
D11*
X120650000Y-59309000D03*
%TD*%
D12*
%TO.C,MX29*%
X95567500Y-59563000D03*
X85407500Y-59563000D03*
D13*
X90487500Y-59563000D03*
%TD*%
%TO.C,MX8*%
X187706000Y-21463000D03*
D12*
X182626000Y-21463000D03*
X192786000Y-21463000D03*
%TD*%
D10*
%TO.C,D38*%
X128270000Y-61849000D03*
D11*
X120650000Y-61849000D03*
%TD*%
M02*
