M48
; DRILL file {KiCad (6.0.7)} date Sun Oct  9 17:02:45 2022
; FORMAT={-:-/ absolute / inch / decimal}
; #@! TF.CreationDate,2022-10-09T17:02:45+02:00
; #@! TF.GenerationSoftware,Kicad,Pcbnew,(6.0.7)
; #@! TF.FileFunction,Plated,1,2,PTH
FMAT,2
INCH
; #@! TA.AperFunction,Plated,PTH,ViaDrill
T1C0.0157
; #@! TA.AperFunction,Plated,PTH,ComponentDrill
T2C0.0276
; #@! TA.AperFunction,Plated,PTH,ComponentDrill
T3C0.0315
; #@! TA.AperFunction,Plated,PTH,ComponentDrill
T4C0.0394
; #@! TA.AperFunction,Plated,PTH,ComponentDrill
T5C0.0430
; #@! TA.AperFunction,Plated,PTH,ComponentDrill
T6C0.0579
; #@! TA.AperFunction,Plated,PTH,ComponentDrill
T7C0.0591
; #@! TA.AperFunction,Plated,PTH,ComponentDrill
T8C0.1063
%
G90
G05
T1
X4.6083Y-1.4752
X5.4713Y-1.9938
X5.4743Y-1.9188
X5.525Y-1.7002
X5.585Y-1.9506
X5.7046Y-1.9399
X5.7668Y-2.0583
T2
X5.555Y-1.8
X5.755Y-1.8
T3
X4.75Y-0.535
X4.75Y-0.635
X4.75Y-0.735
X4.75Y-0.835
X4.75Y-0.935
X4.75Y-1.035
X4.75Y-1.135
X4.75Y-1.235
X4.75Y-1.335
X4.75Y-1.435
X4.75Y-1.535
X4.75Y-1.635
X4.75Y-1.735
X4.75Y-1.835
X4.75Y-1.935
X4.75Y-2.035
X4.75Y-2.135
X4.75Y-2.235
X4.75Y-2.335
X4.75Y-2.435
X4.75Y-2.535
X4.75Y-2.635
X5.05Y-0.535
X5.05Y-0.635
X5.05Y-0.735
X5.05Y-0.835
X5.05Y-0.935
X5.05Y-1.035
X5.05Y-1.135
X5.05Y-1.235
X5.05Y-1.335
X5.05Y-1.435
X5.05Y-1.535
X5.05Y-1.635
X5.05Y-1.735
X5.05Y-1.835
X5.05Y-1.935
X5.05Y-2.035
X5.05Y-2.135
X5.05Y-2.235
X5.05Y-2.335
X5.05Y-2.435
X5.05Y-2.535
X5.05Y-2.635
X5.34Y-2.64
X5.64Y-2.64
X5.9Y-0.535
X5.9Y-0.635
X5.9Y-0.735
X5.9Y-0.835
X5.9Y-0.935
X5.9Y-1.035
X5.9Y-1.135
X5.9Y-1.235
X5.9Y-1.335
X5.9Y-1.435
X5.9Y-1.535
X5.9Y-1.635
X5.9Y-1.735
X5.9Y-1.835
X5.9Y-1.935
X5.9Y-2.035
X5.9Y-2.135
X5.9Y-2.235
X5.9Y-2.335
X5.9Y-2.435
X5.9Y-2.535
X5.9Y-2.635
X6.2Y-0.535
X6.2Y-0.635
X6.2Y-0.735
X6.2Y-0.835
X6.2Y-0.935
X6.2Y-1.035
X6.2Y-1.135
X6.2Y-1.235
X6.2Y-1.335
X6.2Y-1.435
X6.2Y-1.535
X6.2Y-1.635
X6.2Y-1.735
X6.2Y-1.835
X6.2Y-1.935
X6.2Y-2.035
X6.2Y-2.135
X6.2Y-2.235
X6.2Y-2.335
X6.2Y-2.435
X6.2Y-2.535
X6.2Y-2.635
T4
X5.1847Y-2.1966
X5.1847Y-2.295
X5.1847Y-2.3934
X5.7556Y-2.1966
X5.7556Y-2.3934
T5
X5.175Y-0.5982
X5.175Y-0.6982
X5.175Y-0.7982
X5.175Y-0.8982
X5.175Y-0.9982
X5.175Y-1.0982
X5.175Y-1.1982
X5.175Y-1.2982
X5.175Y-1.3982
X5.175Y-1.4982
X5.175Y-1.5982
X5.175Y-1.6982
X5.775Y-0.5982
X5.775Y-0.6982
X5.775Y-0.7982
X5.775Y-0.8982
X5.775Y-0.9982
X5.775Y-1.0982
X5.775Y-1.1982
X5.775Y-1.2982
X5.775Y-1.3982
X5.775Y-1.4982
X5.775Y-1.5982
X5.775Y-1.6982
T6
X0.414Y-0.745
X0.414Y-1.495
X0.415Y-2.245
X0.415Y-2.995
X0.664Y-0.645
X0.664Y-1.395
X0.665Y-2.145
X0.665Y-2.895
X1.165Y-0.745
X1.165Y-1.495
X1.165Y-2.245
X1.26Y-2.995
X1.415Y-0.645
X1.415Y-1.395
X1.415Y-2.145
X1.51Y-2.895
X1.915Y-0.745
X1.915Y-1.495
X1.915Y-2.245
X2.165Y-0.645
X2.165Y-1.395
X2.165Y-2.145
X2.415Y-2.995
X2.665Y-0.745
X2.665Y-1.495
X2.665Y-2.245
X2.665Y-2.895
X2.915Y-0.645
X2.915Y-1.395
X2.915Y-2.145
X3.415Y-0.745
X3.415Y-1.495
X3.415Y-2.245
X3.665Y-0.645
X3.665Y-1.395
X3.665Y-2.145
X4.01Y-2.995
X4.165Y-0.745
X4.165Y-1.495
X4.165Y-2.245
X4.26Y-2.895
X4.415Y-0.645
X4.415Y-1.395
X4.415Y-2.145
X6.49Y-0.745
X6.49Y-1.495
X6.49Y-2.245
X6.645Y-2.995
X6.74Y-0.645
X6.74Y-1.395
X6.74Y-2.145
X6.895Y-2.895
X7.24Y-0.745
X7.24Y-1.495
X7.24Y-2.245
X7.49Y-0.645
X7.49Y-1.395
X7.49Y-2.145
X7.99Y-0.745
X7.99Y-1.495
X7.99Y-2.245
X8.24Y-0.645
X8.24Y-1.395
X8.24Y-2.145
X8.24Y-2.995
X8.49Y-2.895
X8.74Y-0.745
X8.74Y-1.495
X8.74Y-2.245
X8.99Y-0.645
X8.99Y-1.395
X8.99Y-2.145
X9.395Y-2.995
X9.49Y-0.745
X9.49Y-1.495
X9.49Y-2.245
X9.645Y-2.895
X9.74Y-0.645
X9.74Y-1.395
X9.74Y-2.145
X10.24Y-0.745
X10.24Y-1.495
X10.24Y-2.244
X10.24Y-2.995
X10.49Y-0.645
X10.49Y-1.395
X10.49Y-2.144
X10.49Y-2.895
T8
X0.219Y-3.398
X0.22Y-0.557
X2.837Y-3.397
X3.19Y-0.557
X7.764Y-0.557
X8.114Y-3.397
X10.731Y-3.396
X10.732Y-0.558
T7
G00X5.4544Y-2.0745
M15
G01X5.5056Y-2.0745
M16
G05
G00X5.4544Y-2.5155
M15
G01X5.5056Y-2.5155
M16
G05
T0
M30
