%TF.GenerationSoftware,KiCad,Pcbnew,(6.0.7)*%
%TF.CreationDate,2022-10-09T17:02:24+02:00*%
%TF.ProjectId,skoosk,736b6f6f-736b-42e6-9b69-6361645f7063,rev?*%
%TF.SameCoordinates,Original*%
%TF.FileFunction,Soldermask,Bot*%
%TF.FilePolarity,Negative*%
%FSLAX46Y46*%
G04 Gerber Fmt 4.6, Leading zero omitted, Abs format (unit mm)*
G04 Created by KiCad (PCBNEW (6.0.7)) date 2022-10-09 17:02:24*
%MOMM*%
%LPD*%
G01*
G04 APERTURE LIST*
%ADD10R,1.600000X1.600000*%
%ADD11O,1.600000X1.600000*%
%ADD12C,1.750000*%
%ADD13C,3.987800*%
%ADD14C,2.250000*%
%ADD15R,1.752600X1.752600*%
%ADD16C,1.752600*%
%ADD17C,3.048000*%
%ADD18R,2.000000X2.000000*%
%ADD19C,2.000000*%
%ADD20R,3.200000X2.000000*%
%ADD21C,5.400000*%
%ADD22C,1.400000*%
%ADD23O,1.400000X1.400000*%
G04 APERTURE END LIST*
D10*
%TO.C,D28*%
X128270000Y-51689000D03*
D11*
X120650000Y-51689000D03*
%TD*%
D12*
%TO.C,MX30*%
X114681000Y-59563000D03*
X104521000Y-59563000D03*
D13*
X109601000Y-59563000D03*
D14*
X105791000Y-57023000D03*
X112141000Y-54483000D03*
%TD*%
D15*
%TO.C,U1*%
X131445000Y-15194700D03*
D16*
X131445000Y-17734700D03*
X131445000Y-20274700D03*
X131445000Y-22814700D03*
X131445000Y-25354700D03*
X131445000Y-27894700D03*
X131445000Y-30434700D03*
X131445000Y-32974700D03*
X131445000Y-35514700D03*
X131445000Y-38054700D03*
X131445000Y-40594700D03*
X131445000Y-43134700D03*
X146685000Y-43134700D03*
X146685000Y-40594700D03*
X146685000Y-38054700D03*
X146685000Y-35514700D03*
X146685000Y-32974700D03*
X146685000Y-30434700D03*
X146685000Y-27894700D03*
X146685000Y-25354700D03*
X146685000Y-22814700D03*
X146685000Y-20274700D03*
X146685000Y-17734700D03*
X146685000Y-15194700D03*
%TD*%
D12*
%TO.C,MX16*%
X76581000Y-40513000D03*
D13*
X71501000Y-40513000D03*
D12*
X66421000Y-40513000D03*
D14*
X67691000Y-37973000D03*
X74041000Y-35433000D03*
%TD*%
D10*
%TO.C,D3*%
X128270000Y-18669000D03*
D11*
X120650000Y-18669000D03*
%TD*%
D13*
%TO.C,MX14*%
X33401000Y-40513000D03*
D12*
X28321000Y-40513000D03*
X38481000Y-40513000D03*
D14*
X29591000Y-37973000D03*
X35941000Y-35433000D03*
%TD*%
D13*
%TO.C,MX44*%
X263906000Y-78613000D03*
D12*
X268986000Y-78613000D03*
X258826000Y-78613000D03*
D14*
X260096000Y-76073000D03*
X266446000Y-73533000D03*
%TD*%
D12*
%TO.C,MX28*%
X76581000Y-59563000D03*
X66421000Y-59563000D03*
D13*
X71501000Y-59563000D03*
D14*
X67691000Y-57023000D03*
X74041000Y-54483000D03*
%TD*%
D10*
%TO.C,D14*%
X128270000Y-31369000D03*
D11*
X120650000Y-31369000D03*
%TD*%
D10*
%TO.C,D43*%
X149860000Y-61849000D03*
D11*
X157480000Y-61849000D03*
%TD*%
D13*
%TO.C,MX41*%
X191643000Y-86868000D03*
X172593000Y-78613000D03*
D12*
X177673000Y-78613000D03*
D13*
X153543000Y-86868000D03*
D17*
X191643000Y-71628000D03*
D12*
X167513000Y-78613000D03*
D17*
X153543000Y-71628000D03*
D14*
X168783000Y-76073000D03*
X175133000Y-73533000D03*
%TD*%
D10*
%TO.C,D2*%
X128270000Y-16129000D03*
D11*
X120650000Y-16129000D03*
%TD*%
D10*
%TO.C,D23*%
X149860000Y-31369000D03*
D11*
X157480000Y-31369000D03*
%TD*%
D12*
%TO.C,MX35*%
X239776000Y-59563000D03*
D13*
X244856000Y-59563000D03*
D12*
X249936000Y-59563000D03*
D14*
X241046000Y-57023000D03*
X247396000Y-54483000D03*
%TD*%
D12*
%TO.C,MX24*%
X258826000Y-40513000D03*
X268986000Y-40513000D03*
D13*
X263906000Y-40513000D03*
D14*
X260096000Y-37973000D03*
X266446000Y-35433000D03*
%TD*%
D13*
%TO.C,MX43*%
X242443000Y-78613000D03*
D12*
X237363000Y-78613000D03*
X247523000Y-78613000D03*
D14*
X238633000Y-76073000D03*
X244983000Y-73533000D03*
%TD*%
D18*
%TO.C,SW2*%
X131692000Y-55793000D03*
D19*
X131692000Y-60793000D03*
X131692000Y-58293000D03*
D20*
X139192000Y-52693000D03*
X139192000Y-63893000D03*
D19*
X146192000Y-60793000D03*
X146192000Y-55793000D03*
%TD*%
D21*
%TO.C,H1*%
X5588000Y-14147800D03*
%TD*%
D10*
%TO.C,D6*%
X128270000Y-26289000D03*
D11*
X120650000Y-26289000D03*
%TD*%
D13*
%TO.C,MX26*%
X33401000Y-59563000D03*
D12*
X28321000Y-59563000D03*
X38481000Y-59563000D03*
D14*
X29591000Y-57023000D03*
X35941000Y-54483000D03*
%TD*%
D21*
%TO.C,H2*%
X81026000Y-14147800D03*
%TD*%
D10*
%TO.C,D34*%
X149860000Y-49149000D03*
D11*
X157480000Y-49149000D03*
%TD*%
D12*
%TO.C,MX7*%
X173736000Y-21463000D03*
D13*
X168656000Y-21463000D03*
D12*
X163576000Y-21463000D03*
D14*
X164846000Y-18923000D03*
X171196000Y-16383000D03*
%TD*%
D13*
%TO.C,MX5*%
X90551000Y-21463000D03*
D12*
X95631000Y-21463000D03*
X85471000Y-21463000D03*
D14*
X86741000Y-18923000D03*
X93091000Y-16383000D03*
%TD*%
D10*
%TO.C,D5*%
X128270000Y-23749000D03*
D11*
X120650000Y-23749000D03*
%TD*%
D13*
%TO.C,MX15*%
X52451000Y-40513000D03*
D12*
X57531000Y-40513000D03*
X47371000Y-40513000D03*
D14*
X48641000Y-37973000D03*
X54991000Y-35433000D03*
%TD*%
D10*
%TO.C,D40*%
X128270000Y-66929000D03*
D11*
X120650000Y-66929000D03*
%TD*%
D10*
%TO.C,D4*%
X128270000Y-21209000D03*
D11*
X120650000Y-21209000D03*
%TD*%
D10*
%TO.C,D24*%
X149860000Y-28829000D03*
D11*
X157480000Y-28829000D03*
%TD*%
D12*
%TO.C,MX18*%
X104521000Y-40513000D03*
D13*
X109601000Y-40513000D03*
D12*
X114681000Y-40513000D03*
D14*
X105791000Y-37973000D03*
X112141000Y-35433000D03*
%TD*%
D21*
%TO.C,H7*%
X206095600Y-86283800D03*
%TD*%
D12*
%TO.C,MX21*%
X211836000Y-40513000D03*
X201676000Y-40513000D03*
D13*
X206756000Y-40513000D03*
D14*
X202946000Y-37973000D03*
X209296000Y-35433000D03*
%TD*%
D10*
%TO.C,D39*%
X128270000Y-64389000D03*
D11*
X120650000Y-64389000D03*
%TD*%
D13*
%TO.C,MX11*%
X244856000Y-21463000D03*
D12*
X249936000Y-21463000D03*
X239776000Y-21463000D03*
D14*
X241046000Y-18923000D03*
X247396000Y-16383000D03*
%TD*%
D10*
%TO.C,D27*%
X128270000Y-49149000D03*
D11*
X120650000Y-49149000D03*
%TD*%
D10*
%TO.C,D30*%
X128270000Y-56769000D03*
D11*
X120650000Y-56769000D03*
%TD*%
D10*
%TO.C,D22*%
X149860000Y-33909000D03*
D11*
X157480000Y-33909000D03*
%TD*%
D10*
%TO.C,D18*%
X128270000Y-41529000D03*
D11*
X120650000Y-41529000D03*
%TD*%
D12*
%TO.C,MX40*%
X110744000Y-78613000D03*
X100584000Y-78613000D03*
D13*
X105664000Y-78613000D03*
X86614000Y-86868000D03*
D17*
X86614000Y-71628000D03*
D13*
X124714000Y-86868000D03*
D17*
X124714000Y-71628000D03*
D14*
X101854000Y-76073000D03*
X108204000Y-73533000D03*
%TD*%
D10*
%TO.C,D21*%
X149860000Y-36449000D03*
D11*
X157480000Y-36449000D03*
%TD*%
D10*
%TO.C,D36*%
X149860000Y-44069000D03*
D11*
X157480000Y-44069000D03*
%TD*%
D13*
%TO.C,MX10*%
X225806000Y-21463000D03*
D12*
X220726000Y-21463000D03*
X230886000Y-21463000D03*
D14*
X221996000Y-18923000D03*
X228346000Y-16383000D03*
%TD*%
D10*
%TO.C,D31*%
X149860000Y-56769000D03*
D11*
X157480000Y-56769000D03*
%TD*%
D10*
%TO.C,D32*%
X149860000Y-54229000D03*
D11*
X157480000Y-54229000D03*
%TD*%
D13*
%TO.C,MX4*%
X71501000Y-21463000D03*
D12*
X76581000Y-21463000D03*
X66421000Y-21463000D03*
D14*
X67691000Y-18923000D03*
X74041000Y-16383000D03*
%TD*%
D21*
%TO.C,H3*%
X197205600Y-14147800D03*
%TD*%
D12*
%TO.C,MX32*%
X182626000Y-59563000D03*
D13*
X187706000Y-59563000D03*
D12*
X192786000Y-59563000D03*
D14*
X183896000Y-57023000D03*
X190246000Y-54483000D03*
%TD*%
D12*
%TO.C,MX22*%
X230886000Y-40513000D03*
D13*
X225806000Y-40513000D03*
D12*
X220726000Y-40513000D03*
D14*
X221996000Y-37973000D03*
X228346000Y-35433000D03*
%TD*%
D22*
%TO.C,Rrgb1*%
X146177000Y-45720000D03*
D23*
X141097000Y-45720000D03*
%TD*%
D10*
%TO.C,D35*%
X149860000Y-46609000D03*
D11*
X157480000Y-46609000D03*
%TD*%
D10*
%TO.C,D12*%
X149860000Y-13589000D03*
D11*
X157480000Y-13589000D03*
%TD*%
D21*
%TO.C,H8*%
X272567400Y-86258400D03*
%TD*%
D12*
%TO.C,MX27*%
X47371000Y-59563000D03*
X57531000Y-59563000D03*
D13*
X52451000Y-59563000D03*
D14*
X48641000Y-57023000D03*
X54991000Y-54483000D03*
%TD*%
D12*
%TO.C,MX36*%
X258826000Y-59537600D03*
X268986000Y-59537600D03*
D13*
X263906000Y-59537600D03*
D14*
X260096000Y-56997600D03*
X266446000Y-54457600D03*
%TD*%
D10*
%TO.C,D9*%
X149860000Y-21209000D03*
D11*
X157480000Y-21209000D03*
%TD*%
D13*
%TO.C,MX20*%
X187706000Y-40513000D03*
D12*
X182626000Y-40513000D03*
X192786000Y-40513000D03*
D14*
X183896000Y-37973000D03*
X190246000Y-35433000D03*
%TD*%
D10*
%TO.C,D15*%
X128270000Y-33909000D03*
D11*
X120650000Y-33909000D03*
%TD*%
D10*
%TO.C,D51*%
X135636000Y-67056000D03*
D11*
X143256000Y-67056000D03*
%TD*%
D10*
%TO.C,D7*%
X149860000Y-26289000D03*
D11*
X157480000Y-26289000D03*
%TD*%
D12*
%TO.C,MX25*%
X9271000Y-59563000D03*
X19431000Y-59563000D03*
D13*
X14351000Y-59563000D03*
D14*
X10541000Y-57023000D03*
X16891000Y-54483000D03*
%TD*%
D10*
%TO.C,D33*%
X149860000Y-51689000D03*
D11*
X157480000Y-51689000D03*
%TD*%
D10*
%TO.C,D17*%
X128270000Y-38989000D03*
D11*
X120650000Y-38989000D03*
%TD*%
D10*
%TO.C,D16*%
X128270000Y-36449000D03*
D11*
X120650000Y-36449000D03*
%TD*%
D12*
%TO.C,MX42*%
X218186000Y-78613000D03*
D13*
X213106000Y-78613000D03*
D12*
X208026000Y-78613000D03*
D14*
X209296000Y-76073000D03*
X215646000Y-73533000D03*
%TD*%
D12*
%TO.C,MX33*%
X201676000Y-59563000D03*
D13*
X206756000Y-59563000D03*
D12*
X211836000Y-59563000D03*
D14*
X202946000Y-57023000D03*
X209296000Y-54483000D03*
%TD*%
D12*
%TO.C,MX38*%
X40894000Y-78613000D03*
D13*
X35814000Y-78613000D03*
D12*
X30734000Y-78613000D03*
D14*
X32004000Y-76073000D03*
X38354000Y-73533000D03*
%TD*%
D13*
%TO.C,MX13*%
X14325600Y-40513000D03*
D12*
X9245600Y-40513000D03*
X19405600Y-40513000D03*
D14*
X10515600Y-37973000D03*
X16865600Y-35433000D03*
%TD*%
D10*
%TO.C,D42*%
X149860000Y-64389000D03*
D11*
X157480000Y-64389000D03*
%TD*%
D12*
%TO.C,MX6*%
X104521000Y-21463000D03*
D13*
X109601000Y-21463000D03*
D12*
X114681000Y-21463000D03*
D14*
X105791000Y-18923000D03*
X112141000Y-16383000D03*
%TD*%
D12*
%TO.C,MX3*%
X47371000Y-21463000D03*
X57531000Y-21463000D03*
D13*
X52451000Y-21463000D03*
D14*
X48641000Y-18923000D03*
X54991000Y-16383000D03*
%TD*%
D21*
%TO.C,H6*%
X72059800Y-86283800D03*
%TD*%
D12*
%TO.C,MX2*%
X38481000Y-21463000D03*
D13*
X33401000Y-21463000D03*
D12*
X28321000Y-21463000D03*
D14*
X29591000Y-18923000D03*
X35941000Y-16383000D03*
%TD*%
D12*
%TO.C,MX17*%
X85471000Y-40513000D03*
X95631000Y-40513000D03*
D13*
X90551000Y-40513000D03*
D14*
X86741000Y-37973000D03*
X93091000Y-35433000D03*
%TD*%
D10*
%TO.C,D11*%
X149860000Y-16129000D03*
D11*
X157480000Y-16129000D03*
%TD*%
D12*
%TO.C,MX1*%
X19405600Y-21463000D03*
X9245600Y-21463000D03*
D13*
X14325600Y-21463000D03*
D14*
X10515600Y-18923000D03*
X16865600Y-16383000D03*
%TD*%
D10*
%TO.C,D25*%
X128270000Y-44069000D03*
D11*
X120650000Y-44069000D03*
%TD*%
D13*
%TO.C,MX37*%
X14351000Y-78613000D03*
D12*
X9271000Y-78613000D03*
X19431000Y-78613000D03*
D14*
X10541000Y-76073000D03*
X16891000Y-73533000D03*
%TD*%
D12*
%TO.C,MX39*%
X60071000Y-78613000D03*
X70231000Y-78613000D03*
D13*
X65151000Y-78613000D03*
D14*
X61341000Y-76073000D03*
X67691000Y-73533000D03*
%TD*%
D10*
%TO.C,D19*%
X149860000Y-41529000D03*
D11*
X157480000Y-41529000D03*
%TD*%
D10*
%TO.C,D8*%
X149860000Y-23749000D03*
D11*
X157480000Y-23749000D03*
%TD*%
D21*
%TO.C,H4*%
X272592800Y-14173200D03*
%TD*%
D13*
%TO.C,MX23*%
X244856000Y-40513000D03*
D12*
X239776000Y-40513000D03*
X249936000Y-40513000D03*
D14*
X241046000Y-37973000D03*
X247396000Y-35433000D03*
%TD*%
D10*
%TO.C,D44*%
X149860000Y-59309000D03*
D11*
X157480000Y-59309000D03*
%TD*%
D12*
%TO.C,MX9*%
X201676000Y-21463000D03*
D13*
X206756000Y-21463000D03*
D12*
X211836000Y-21463000D03*
D14*
X202946000Y-18923000D03*
X209296000Y-16383000D03*
%TD*%
D10*
%TO.C,D20*%
X149860000Y-38989000D03*
D11*
X157480000Y-38989000D03*
%TD*%
D12*
%TO.C,MX34*%
X230886000Y-59563000D03*
X220726000Y-59563000D03*
D13*
X225806000Y-59563000D03*
D14*
X221996000Y-57023000D03*
X228346000Y-54483000D03*
%TD*%
D10*
%TO.C,D26*%
X128270000Y-46609000D03*
D11*
X120650000Y-46609000D03*
%TD*%
D10*
%TO.C,D1*%
X128270000Y-13589000D03*
D11*
X120650000Y-13589000D03*
%TD*%
D10*
%TO.C,D13*%
X128270000Y-28829000D03*
D11*
X120650000Y-28829000D03*
%TD*%
D12*
%TO.C,MX19*%
X173736000Y-40513000D03*
D13*
X168656000Y-40513000D03*
D12*
X163576000Y-40513000D03*
D14*
X164846000Y-37973000D03*
X171196000Y-35433000D03*
%TD*%
D10*
%TO.C,D29*%
X128270000Y-54229000D03*
D11*
X120650000Y-54229000D03*
%TD*%
D12*
%TO.C,MX12*%
X268986000Y-21463000D03*
X258826000Y-21463000D03*
D13*
X263906000Y-21463000D03*
D14*
X260096000Y-18923000D03*
X266446000Y-16383000D03*
%TD*%
D10*
%TO.C,D10*%
X149860000Y-18669000D03*
D11*
X157480000Y-18669000D03*
%TD*%
D10*
%TO.C,D41*%
X149860000Y-66929000D03*
D11*
X157480000Y-66929000D03*
%TD*%
D12*
%TO.C,MX31*%
X163576000Y-59563000D03*
X173736000Y-59563000D03*
D13*
X168656000Y-59563000D03*
D14*
X164846000Y-57023000D03*
X171196000Y-54483000D03*
%TD*%
D10*
%TO.C,D37*%
X128270000Y-59309000D03*
D11*
X120650000Y-59309000D03*
%TD*%
D12*
%TO.C,MX29*%
X95631000Y-59563000D03*
X85471000Y-59563000D03*
D13*
X90551000Y-59563000D03*
D14*
X86741000Y-57023000D03*
X93091000Y-54483000D03*
%TD*%
D13*
%TO.C,MX8*%
X187706000Y-21463000D03*
D12*
X182626000Y-21463000D03*
X192786000Y-21463000D03*
D14*
X183896000Y-18923000D03*
X190246000Y-16383000D03*
%TD*%
D21*
%TO.C,H5*%
X5562600Y-86309200D03*
%TD*%
D10*
%TO.C,D38*%
X128270000Y-61849000D03*
D11*
X120650000Y-61849000D03*
%TD*%
M02*
