M48
; DRILL file {KiCad (6.0.7)} date Wed Oct 26 18:45:43 2022
; FORMAT={-:-/ absolute / inch / decimal}
; #@! TF.CreationDate,2022-10-26T18:45:43+02:00
; #@! TF.GenerationSoftware,Kicad,Pcbnew,(6.0.7)
; #@! TF.FileFunction,NonPlated,1,2,NPTH
FMAT,2
INCH
; #@! TA.AperFunction,NonPlated,NPTH,ComponentDrill
T1C0.0689
; #@! TA.AperFunction,NonPlated,NPTH,ComponentDrill
T2C0.1200
; #@! TA.AperFunction,NonPlated,NPTH,ComponentDrill
T3C0.1570
%
G90
G05
T1
X0.3625Y-0.845
X0.3625Y-1.595
X0.3625Y-2.345
X0.3625Y-3.095
X0.7625Y-0.845
X0.7625Y-1.595
X0.7625Y-2.345
X0.7625Y-3.095
X1.1125Y-0.845
X1.1125Y-1.595
X1.1125Y-2.345
X1.206Y-3.095
X1.5125Y-0.845
X1.5125Y-1.595
X1.5125Y-2.345
X1.606Y-3.095
X1.8625Y-0.845
X1.8625Y-1.595
X1.8625Y-2.345
X2.2625Y-0.845
X2.2625Y-1.595
X2.2625Y-2.345
X2.364Y-3.095
X2.6125Y-0.845
X2.6125Y-1.595
X2.6125Y-2.345
X2.764Y-3.095
X3.0125Y-0.845
X3.0125Y-1.595
X3.0125Y-2.345
X3.3625Y-0.845
X3.3625Y-1.595
X3.3625Y-2.345
X3.7625Y-0.845
X3.7625Y-1.595
X3.7625Y-2.345
X3.958Y-3.095
X4.1125Y-0.845
X4.1125Y-1.595
X4.1125Y-2.345
X4.358Y-3.095
X4.5125Y-0.845
X4.5125Y-1.595
X4.5125Y-2.345
X6.44Y-0.845
X6.44Y-1.595
X6.44Y-2.345
X6.5934Y-3.0952
X6.84Y-0.845
X6.84Y-1.595
X6.84Y-2.345
X6.9934Y-3.0952
X7.19Y-0.845
X7.19Y-1.595
X7.19Y-2.345
X7.59Y-0.845
X7.59Y-1.595
X7.59Y-2.345
X7.94Y-0.845
X7.94Y-1.595
X7.94Y-2.345
X8.187Y-3.095
X8.34Y-0.845
X8.34Y-1.595
X8.34Y-2.345
X8.587Y-3.095
X8.69Y-0.845
X8.69Y-1.595
X8.69Y-2.345
X9.09Y-0.845
X9.09Y-1.595
X9.09Y-2.345
X9.346Y-3.095
X9.44Y-0.845
X9.44Y-1.595
X9.44Y-2.345
X9.746Y-3.095
X9.84Y-0.845
X9.84Y-1.595
X9.84Y-2.345
X10.19Y-0.845
X10.19Y-1.595
X10.19Y-2.345
X10.19Y-3.095
X10.59Y-0.845
X10.59Y-1.595
X10.59Y-2.345
X10.59Y-3.095
T2
X3.408Y-3.37
X4.908Y-3.37
X6.0434Y-3.3702
X7.5434Y-3.3702
T3
X0.5625Y-0.845
X0.5625Y-1.595
X0.5625Y-2.345
X0.5625Y-3.095
X1.3125Y-0.845
X1.3125Y-1.595
X1.3125Y-2.345
X1.406Y-3.095
X2.0625Y-0.845
X2.0625Y-1.595
X2.0625Y-2.345
X2.564Y-3.095
X2.8125Y-0.845
X2.8125Y-1.595
X2.8125Y-2.345
X3.408Y-2.77
X3.5625Y-0.845
X3.5625Y-1.595
X3.5625Y-2.345
X4.158Y-3.095
X4.3125Y-0.845
X4.3125Y-1.595
X4.3125Y-2.345
X4.908Y-2.77
X6.0434Y-2.7702
X6.64Y-0.845
X6.64Y-1.595
X6.64Y-2.345
X6.7934Y-3.0952
X7.39Y-0.845
X7.39Y-1.595
X7.39Y-2.345
X7.5434Y-2.7702
X8.14Y-0.845
X8.14Y-1.595
X8.14Y-2.345
X8.387Y-3.095
X8.89Y-0.845
X8.89Y-1.595
X8.89Y-2.345
X9.546Y-3.095
X9.64Y-0.845
X9.64Y-1.595
X9.64Y-2.345
X10.39Y-0.845
X10.39Y-1.595
X10.39Y-2.345
X10.39Y-3.095
T0
M30
