%TF.GenerationSoftware,KiCad,Pcbnew,(6.0.7)*%
%TF.CreationDate,2022-11-26T03:04:16+01:00*%
%TF.ProjectId,skoosk pcb no leds rgb,736b6f6f-736b-4207-9063-62206e6f206c,rev?*%
%TF.SameCoordinates,Original*%
%TF.FileFunction,Soldermask,Bot*%
%TF.FilePolarity,Negative*%
%FSLAX46Y46*%
G04 Gerber Fmt 4.6, Leading zero omitted, Abs format (unit mm)*
G04 Created by KiCad (PCBNEW (6.0.7)) date 2022-11-26 03:04:16*
%MOMM*%
%LPD*%
G01*
G04 APERTURE LIST*
%ADD10C,2.000000*%
%ADD11R,2.000000X3.200000*%
%ADD12R,2.000000X2.000000*%
%ADD13O,0.850000X0.850000*%
%ADD14R,0.850000X0.850000*%
%ADD15O,1.600000X1.600000*%
%ADD16R,1.600000X1.600000*%
%ADD17C,2.250000*%
%ADD18C,3.987800*%
%ADD19C,1.750000*%
%ADD20C,1.752600*%
%ADD21R,1.752600X1.752600*%
%ADD22C,3.048000*%
G04 APERTURE END LIST*
D10*
%TO.C,SW2*%
X136692000Y-48562500D03*
X141692000Y-48562500D03*
D11*
X144792000Y-55562500D03*
X133592000Y-55562500D03*
D10*
X139192000Y-63062500D03*
X141692000Y-63062500D03*
D12*
X136692000Y-63062500D03*
%TD*%
D13*
%TO.C,SW1*%
X132971257Y-45811315D03*
D14*
X131971257Y-45811315D03*
%TD*%
D15*
%TO.C,D28*%
X120650000Y-51689000D03*
D16*
X128270000Y-51689000D03*
%TD*%
D17*
%TO.C,MX30*%
X112077500Y-54483000D03*
X105727500Y-57023000D03*
D18*
X109537500Y-59563000D03*
D19*
X104457500Y-59563000D03*
X114617500Y-59563000D03*
%TD*%
D20*
%TO.C,U1*%
X146685000Y-15194700D03*
X146685000Y-17734700D03*
X146685000Y-20274700D03*
X146685000Y-22814700D03*
X146685000Y-25354700D03*
X146685000Y-27894700D03*
X146685000Y-30434700D03*
X146685000Y-32974700D03*
X146685000Y-35514700D03*
X146685000Y-38054700D03*
X146685000Y-40594700D03*
X146685000Y-43134700D03*
X131445000Y-43134700D03*
X131445000Y-40594700D03*
X131445000Y-38054700D03*
X131445000Y-35514700D03*
X131445000Y-32974700D03*
X131445000Y-30434700D03*
X131445000Y-27894700D03*
X131445000Y-25354700D03*
X131445000Y-22814700D03*
X131445000Y-20274700D03*
X131445000Y-17734700D03*
D21*
X131445000Y-15194700D03*
%TD*%
D17*
%TO.C,MX16*%
X73977500Y-35433000D03*
X67627500Y-37973000D03*
D19*
X66357500Y-40513000D03*
D18*
X71437500Y-40513000D03*
D19*
X76517500Y-40513000D03*
%TD*%
D15*
%TO.C,D3*%
X120650000Y-18669000D03*
D16*
X128270000Y-18669000D03*
%TD*%
D17*
%TO.C,MX14*%
X35877500Y-35433000D03*
X29527500Y-37973000D03*
D19*
X38417500Y-40513000D03*
X28257500Y-40513000D03*
D18*
X33337500Y-40513000D03*
%TD*%
D17*
%TO.C,MX44*%
X266446000Y-73533000D03*
X260096000Y-76073000D03*
D19*
X258826000Y-78613000D03*
X268986000Y-78613000D03*
D18*
X263906000Y-78613000D03*
%TD*%
D17*
%TO.C,MX28*%
X73977500Y-54483000D03*
X67627500Y-57023000D03*
D18*
X71437500Y-59563000D03*
D19*
X66357500Y-59563000D03*
X76517500Y-59563000D03*
%TD*%
D15*
%TO.C,D14*%
X120650000Y-31369000D03*
D16*
X128270000Y-31369000D03*
%TD*%
D15*
%TO.C,D43*%
X157480000Y-61849000D03*
D16*
X149860000Y-61849000D03*
%TD*%
D17*
%TO.C,MX41*%
X175091100Y-73539000D03*
X168741100Y-76079000D03*
D19*
X177631100Y-78619000D03*
X167471100Y-78619000D03*
D18*
X153501100Y-70364000D03*
X191601100Y-70364000D03*
X172551100Y-78619000D03*
D22*
X191601100Y-85604000D03*
X153501100Y-85604000D03*
%TD*%
D15*
%TO.C,D2*%
X120650000Y-16129000D03*
D16*
X128270000Y-16129000D03*
%TD*%
D15*
%TO.C,D23*%
X157480000Y-31369000D03*
D16*
X149860000Y-31369000D03*
%TD*%
D17*
%TO.C,MX35*%
X247396000Y-54483000D03*
X241046000Y-57023000D03*
D19*
X249936000Y-59563000D03*
D18*
X244856000Y-59563000D03*
D19*
X239776000Y-59563000D03*
%TD*%
D17*
%TO.C,MX24*%
X266446000Y-35433000D03*
X260096000Y-37973000D03*
D18*
X263906000Y-40513000D03*
D19*
X268986000Y-40513000D03*
X258826000Y-40513000D03*
%TD*%
D17*
%TO.C,MX43*%
X245008400Y-73533000D03*
X238658400Y-76073000D03*
D19*
X247548400Y-78613000D03*
X237388400Y-78613000D03*
D18*
X242468400Y-78613000D03*
%TD*%
D15*
%TO.C,D6*%
X120650000Y-26289000D03*
D16*
X128270000Y-26289000D03*
%TD*%
D17*
%TO.C,MX26*%
X35877500Y-54483000D03*
X29527500Y-57023000D03*
D19*
X38417500Y-59563000D03*
X28257500Y-59563000D03*
D18*
X33337500Y-59563000D03*
%TD*%
D15*
%TO.C,D34*%
X157480000Y-49149000D03*
D16*
X149860000Y-49149000D03*
%TD*%
D17*
%TO.C,MX7*%
X171196000Y-16383000D03*
X164846000Y-18923000D03*
D19*
X163576000Y-21463000D03*
D18*
X168656000Y-21463000D03*
D19*
X173736000Y-21463000D03*
%TD*%
D17*
%TO.C,MX5*%
X93027500Y-16383000D03*
X86677500Y-18923000D03*
D19*
X85407500Y-21463000D03*
X95567500Y-21463000D03*
D18*
X90487500Y-21463000D03*
%TD*%
D15*
%TO.C,D5*%
X120650000Y-23749000D03*
D16*
X128270000Y-23749000D03*
%TD*%
D17*
%TO.C,MX15*%
X54927500Y-35433000D03*
X48577500Y-37973000D03*
D19*
X47307500Y-40513000D03*
X57467500Y-40513000D03*
D18*
X52387500Y-40513000D03*
%TD*%
D15*
%TO.C,D40*%
X120650000Y-66929000D03*
D16*
X128270000Y-66929000D03*
%TD*%
D15*
%TO.C,D4*%
X120650000Y-21209000D03*
D16*
X128270000Y-21209000D03*
%TD*%
D15*
%TO.C,D24*%
X157480000Y-28829000D03*
D16*
X149860000Y-28829000D03*
%TD*%
D17*
%TO.C,MX18*%
X112077500Y-35433000D03*
X105727500Y-37973000D03*
D19*
X114617500Y-40513000D03*
D18*
X109537500Y-40513000D03*
D19*
X104457500Y-40513000D03*
%TD*%
D17*
%TO.C,MX21*%
X209296000Y-35433000D03*
X202946000Y-37973000D03*
D18*
X206756000Y-40513000D03*
D19*
X201676000Y-40513000D03*
X211836000Y-40513000D03*
%TD*%
D15*
%TO.C,D39*%
X120650000Y-64389000D03*
D16*
X128270000Y-64389000D03*
%TD*%
D17*
%TO.C,MX11*%
X247396000Y-16383000D03*
X241046000Y-18923000D03*
D19*
X239776000Y-21463000D03*
X249936000Y-21463000D03*
D18*
X244856000Y-21463000D03*
%TD*%
D15*
%TO.C,D27*%
X120650000Y-49149000D03*
D16*
X128270000Y-49149000D03*
%TD*%
D15*
%TO.C,D30*%
X120650000Y-56769000D03*
D16*
X128270000Y-56769000D03*
%TD*%
D15*
%TO.C,D22*%
X157480000Y-33909000D03*
D16*
X149860000Y-33909000D03*
%TD*%
D15*
%TO.C,D18*%
X120650000Y-41529000D03*
D16*
X128270000Y-41529000D03*
%TD*%
D17*
%TO.C,MX40*%
X108153200Y-73533000D03*
X101803200Y-76073000D03*
D19*
X110693200Y-78613000D03*
D18*
X124663200Y-70358000D03*
D19*
X100533200Y-78613000D03*
D22*
X86563200Y-85598000D03*
X124663200Y-85598000D03*
D18*
X86563200Y-70358000D03*
X105613200Y-78613000D03*
%TD*%
D15*
%TO.C,D21*%
X157480000Y-36449000D03*
D16*
X149860000Y-36449000D03*
%TD*%
D15*
%TO.C,D36*%
X157480000Y-44069000D03*
D16*
X149860000Y-44069000D03*
%TD*%
D17*
%TO.C,MX10*%
X228346000Y-16383000D03*
X221996000Y-18923000D03*
D19*
X230886000Y-21463000D03*
X220726000Y-21463000D03*
D18*
X225806000Y-21463000D03*
%TD*%
D15*
%TO.C,D31*%
X157480000Y-56769000D03*
D16*
X149860000Y-56769000D03*
%TD*%
D15*
%TO.C,D32*%
X157480000Y-54229000D03*
D16*
X149860000Y-54229000D03*
%TD*%
D17*
%TO.C,MX4*%
X73977500Y-16383000D03*
X67627500Y-18923000D03*
D19*
X66357500Y-21463000D03*
X76517500Y-21463000D03*
D18*
X71437500Y-21463000D03*
%TD*%
D17*
%TO.C,MX32*%
X190246000Y-54483000D03*
X183896000Y-57023000D03*
D19*
X192786000Y-59563000D03*
D18*
X187706000Y-59563000D03*
D19*
X182626000Y-59563000D03*
%TD*%
D17*
%TO.C,MX22*%
X228346000Y-35433000D03*
X221996000Y-37973000D03*
D19*
X220726000Y-40513000D03*
D18*
X225806000Y-40513000D03*
D19*
X230886000Y-40513000D03*
%TD*%
D15*
%TO.C,D35*%
X157480000Y-46609000D03*
D16*
X149860000Y-46609000D03*
%TD*%
D15*
%TO.C,D12*%
X157480000Y-13589000D03*
D16*
X149860000Y-13589000D03*
%TD*%
D17*
%TO.C,MX27*%
X54927500Y-54483000D03*
X48577500Y-57023000D03*
D18*
X52387500Y-59563000D03*
D19*
X57467500Y-59563000D03*
X47307500Y-59563000D03*
%TD*%
D17*
%TO.C,MX36*%
X266446000Y-54483000D03*
X260096000Y-57023000D03*
D18*
X263906000Y-59563000D03*
D19*
X268986000Y-59563000D03*
X258826000Y-59563000D03*
%TD*%
D15*
%TO.C,D9*%
X157480000Y-21209000D03*
D16*
X149860000Y-21209000D03*
%TD*%
D17*
%TO.C,MX20*%
X190246000Y-35433000D03*
X183896000Y-37973000D03*
D19*
X192786000Y-40513000D03*
X182626000Y-40513000D03*
D18*
X187706000Y-40513000D03*
%TD*%
D15*
%TO.C,D15*%
X120650000Y-33909000D03*
D16*
X128270000Y-33909000D03*
%TD*%
D15*
%TO.C,D51*%
X143256000Y-67056000D03*
D16*
X135636000Y-67056000D03*
%TD*%
D15*
%TO.C,D7*%
X157480000Y-26289000D03*
D16*
X149860000Y-26289000D03*
%TD*%
D17*
%TO.C,MX25*%
X16827500Y-54483000D03*
X10477500Y-57023000D03*
D18*
X14287500Y-59563000D03*
D19*
X19367500Y-59563000D03*
X9207500Y-59563000D03*
%TD*%
D15*
%TO.C,D33*%
X157480000Y-51689000D03*
D16*
X149860000Y-51689000D03*
%TD*%
D15*
%TO.C,D17*%
X120650000Y-38989000D03*
D16*
X128270000Y-38989000D03*
%TD*%
D15*
%TO.C,D16*%
X120650000Y-36449000D03*
D16*
X128270000Y-36449000D03*
%TD*%
D17*
%TO.C,MX42*%
X215569800Y-73533000D03*
X209219800Y-76073000D03*
D19*
X207949800Y-78613000D03*
D18*
X213029800Y-78613000D03*
D19*
X218109800Y-78613000D03*
%TD*%
D17*
%TO.C,MX33*%
X209296000Y-54483000D03*
X202946000Y-57023000D03*
D19*
X211836000Y-59563000D03*
D18*
X206756000Y-59563000D03*
D19*
X201676000Y-59563000D03*
%TD*%
D17*
%TO.C,MX38*%
X38252400Y-73533000D03*
X31902400Y-76073000D03*
D19*
X30632400Y-78613000D03*
D18*
X35712400Y-78613000D03*
D19*
X40792400Y-78613000D03*
%TD*%
D17*
%TO.C,MX13*%
X16827500Y-35433000D03*
X10477500Y-37973000D03*
D19*
X19367500Y-40513000D03*
X9207500Y-40513000D03*
D18*
X14287500Y-40513000D03*
%TD*%
D15*
%TO.C,D42*%
X157480000Y-64389000D03*
D16*
X149860000Y-64389000D03*
%TD*%
D17*
%TO.C,MX6*%
X112077500Y-16383000D03*
X105727500Y-18923000D03*
D19*
X114617500Y-21463000D03*
D18*
X109537500Y-21463000D03*
D19*
X104457500Y-21463000D03*
%TD*%
D17*
%TO.C,MX3*%
X54927500Y-16383000D03*
X48577500Y-18923000D03*
D18*
X52387500Y-21463000D03*
D19*
X57467500Y-21463000D03*
X47307500Y-21463000D03*
%TD*%
D17*
%TO.C,MX2*%
X35877500Y-16383000D03*
X29527500Y-18923000D03*
D19*
X28257500Y-21463000D03*
D18*
X33337500Y-21463000D03*
D19*
X38417500Y-21463000D03*
%TD*%
D17*
%TO.C,MX17*%
X93027500Y-35433000D03*
X86677500Y-37973000D03*
D18*
X90487500Y-40513000D03*
D19*
X95567500Y-40513000D03*
X85407500Y-40513000D03*
%TD*%
D15*
%TO.C,D11*%
X157480000Y-16129000D03*
D16*
X149860000Y-16129000D03*
%TD*%
D17*
%TO.C,MX1*%
X16827500Y-16383000D03*
X10477500Y-18923000D03*
D18*
X14287500Y-21463000D03*
D19*
X9207500Y-21463000D03*
X19367500Y-21463000D03*
%TD*%
D15*
%TO.C,D25*%
X120650000Y-44069000D03*
D16*
X128270000Y-44069000D03*
%TD*%
D17*
%TO.C,MX37*%
X16827500Y-73533000D03*
X10477500Y-76073000D03*
D19*
X19367500Y-78613000D03*
X9207500Y-78613000D03*
D18*
X14287500Y-78613000D03*
%TD*%
D17*
%TO.C,MX39*%
X67665600Y-73533000D03*
X61315600Y-76073000D03*
D18*
X65125600Y-78613000D03*
D19*
X70205600Y-78613000D03*
X60045600Y-78613000D03*
%TD*%
D15*
%TO.C,D19*%
X157480000Y-41529000D03*
D16*
X149860000Y-41529000D03*
%TD*%
D15*
%TO.C,D8*%
X157480000Y-23749000D03*
D16*
X149860000Y-23749000D03*
%TD*%
D17*
%TO.C,MX23*%
X247396000Y-35433000D03*
X241046000Y-37973000D03*
D19*
X249936000Y-40513000D03*
X239776000Y-40513000D03*
D18*
X244856000Y-40513000D03*
%TD*%
D15*
%TO.C,D44*%
X157480000Y-59309000D03*
D16*
X149860000Y-59309000D03*
%TD*%
D17*
%TO.C,MX9*%
X209296000Y-16383000D03*
X202946000Y-18923000D03*
D19*
X211836000Y-21463000D03*
D18*
X206756000Y-21463000D03*
D19*
X201676000Y-21463000D03*
%TD*%
D15*
%TO.C,D20*%
X157480000Y-38989000D03*
D16*
X149860000Y-38989000D03*
%TD*%
D17*
%TO.C,MX34*%
X228346000Y-54483000D03*
X221996000Y-57023000D03*
D18*
X225806000Y-59563000D03*
D19*
X220726000Y-59563000D03*
X230886000Y-59563000D03*
%TD*%
D15*
%TO.C,D26*%
X120650000Y-46609000D03*
D16*
X128270000Y-46609000D03*
%TD*%
D15*
%TO.C,D1*%
X120650000Y-13589000D03*
D16*
X128270000Y-13589000D03*
%TD*%
D15*
%TO.C,D13*%
X120650000Y-28829000D03*
D16*
X128270000Y-28829000D03*
%TD*%
D17*
%TO.C,MX19*%
X171196000Y-35433000D03*
X164846000Y-37973000D03*
D19*
X163576000Y-40513000D03*
D18*
X168656000Y-40513000D03*
D19*
X173736000Y-40513000D03*
%TD*%
D15*
%TO.C,D29*%
X120650000Y-54229000D03*
D16*
X128270000Y-54229000D03*
%TD*%
D17*
%TO.C,MX12*%
X266446000Y-16383000D03*
X260096000Y-18923000D03*
D18*
X263906000Y-21463000D03*
D19*
X258826000Y-21463000D03*
X268986000Y-21463000D03*
%TD*%
D15*
%TO.C,D10*%
X157480000Y-18669000D03*
D16*
X149860000Y-18669000D03*
%TD*%
D15*
%TO.C,D41*%
X157480000Y-66929000D03*
D16*
X149860000Y-66929000D03*
%TD*%
D17*
%TO.C,MX31*%
X171196000Y-54483000D03*
X164846000Y-57023000D03*
D18*
X168656000Y-59563000D03*
D19*
X173736000Y-59563000D03*
X163576000Y-59563000D03*
%TD*%
D15*
%TO.C,D37*%
X120650000Y-59309000D03*
D16*
X128270000Y-59309000D03*
%TD*%
D17*
%TO.C,MX29*%
X93027500Y-54483000D03*
X86677500Y-57023000D03*
D18*
X90487500Y-59563000D03*
D19*
X85407500Y-59563000D03*
X95567500Y-59563000D03*
%TD*%
D17*
%TO.C,MX8*%
X190246000Y-16383000D03*
X183896000Y-18923000D03*
D19*
X192786000Y-21463000D03*
X182626000Y-21463000D03*
D18*
X187706000Y-21463000D03*
%TD*%
D15*
%TO.C,D38*%
X120650000Y-61849000D03*
D16*
X128270000Y-61849000D03*
%TD*%
M02*
