%TF.GenerationSoftware,KiCad,Pcbnew,(6.0.7)*%
%TF.CreationDate,2022-10-09T17:11:01+02:00*%
%TF.ProjectId,skoosk switchplate,736b6f6f-736b-4207-9377-69746368706c,rev?*%
%TF.SameCoordinates,Original*%
%TF.FileFunction,Profile,NP*%
%FSLAX46Y46*%
G04 Gerber Fmt 4.6, Leading zero omitted, Abs format (unit mm)*
G04 Created by KiCad (PCBNEW (6.0.7)) date 2022-10-09 17:11:01*
%MOMM*%
%LPD*%
G01*
G04 APERTURE LIST*
%TA.AperFunction,Profile*%
%ADD10C,0.100000*%
%TD*%
G04 APERTURE END LIST*
D10*
X45481000Y-47513000D02*
X45481000Y-33543000D01*
X165582600Y-71602600D02*
X179603400Y-71602600D01*
X213756000Y-33543000D02*
X213756000Y-47513000D01*
X45481000Y-14493000D02*
X59451000Y-14493000D01*
X148590000Y-69215000D02*
X158496000Y-69215000D01*
X158496000Y-69215000D02*
X158496000Y-89281000D01*
X158496000Y-89281000D02*
X148590000Y-89281000D01*
X148590000Y-89281000D02*
X148590000Y-69215000D01*
X2489200Y-12319000D02*
X2463800Y-88138000D01*
X175656000Y-66563000D02*
X161686000Y-66563000D01*
X7366000Y-14478000D02*
X7366000Y-28448000D01*
X251856000Y-66563000D02*
X237886000Y-66563000D01*
X180736000Y-33543000D02*
X194706000Y-33543000D01*
X28844000Y-85613000D02*
X28844000Y-71643000D01*
X3759200Y-11049000D02*
G75*
G03*
X2489200Y-12319000I0J-1270000D01*
G01*
X21325600Y-47513000D02*
X7355600Y-47513000D01*
X119126000Y-11049000D02*
X3759200Y-11049000D01*
X180736000Y-66563000D02*
X180736000Y-52593000D01*
X251856000Y-28463000D02*
X237886000Y-28463000D01*
X213756000Y-52593000D02*
X213756000Y-66563000D01*
X59451000Y-14493000D02*
X59451000Y-28463000D01*
X21336000Y-28448000D02*
X7366000Y-28448000D01*
X256936000Y-66537600D02*
X256936000Y-52567600D01*
X256936000Y-71643000D02*
X270906000Y-71643000D01*
X78501000Y-52593000D02*
X78501000Y-66563000D01*
X72151000Y-71643000D02*
X72151000Y-85613000D01*
X81661000Y-69240400D02*
X91567000Y-69240400D01*
X91567000Y-69240400D02*
X91567000Y-89306400D01*
X91567000Y-89306400D02*
X81661000Y-89306400D01*
X81661000Y-89306400D02*
X81661000Y-69240400D01*
X112674400Y-71602600D02*
X112674400Y-85623400D01*
X218836000Y-28463000D02*
X218836000Y-14493000D01*
X7381000Y-66563000D02*
X7381000Y-52593000D01*
X237886000Y-52593000D02*
X251856000Y-52593000D01*
X40401000Y-33543000D02*
X40401000Y-47513000D01*
X78486000Y-28448000D02*
X64516000Y-28448000D01*
X64516000Y-28448000D02*
X64516000Y-14478000D01*
X232806000Y-14493000D02*
X232806000Y-28463000D01*
X251856000Y-52593000D02*
X251856000Y-66563000D01*
X275691600Y-12319000D02*
G75*
G03*
X274421600Y-11049000I-1270000J0D01*
G01*
X26431000Y-14493000D02*
X40401000Y-14493000D01*
X78501000Y-47513000D02*
X64531000Y-47513000D01*
X249443000Y-71643000D02*
X249443000Y-85613000D01*
X58181000Y-71643000D02*
X72151000Y-71643000D01*
X180736000Y-14493000D02*
X194706000Y-14493000D01*
X194706000Y-52593000D02*
X194706000Y-66563000D01*
X180736000Y-47513000D02*
X180736000Y-33543000D01*
X199786000Y-47513000D02*
X199786000Y-33543000D01*
X83581000Y-28463000D02*
X83581000Y-14493000D01*
X116601000Y-28463000D02*
X102631000Y-28463000D01*
X102631000Y-52593000D02*
X116601000Y-52593000D01*
X26431000Y-52593000D02*
X40401000Y-52593000D01*
X175656000Y-14493000D02*
X175656000Y-28463000D01*
X270906000Y-14493000D02*
X270906000Y-28463000D01*
X59451000Y-28463000D02*
X45481000Y-28463000D01*
X42814000Y-71643000D02*
X42814000Y-85613000D01*
X251856000Y-33543000D02*
X251856000Y-47513000D01*
X251856000Y-47513000D02*
X237886000Y-47513000D01*
X270906000Y-85613000D02*
X256936000Y-85613000D01*
X102631000Y-66563000D02*
X102631000Y-52593000D01*
X232806000Y-47513000D02*
X218836000Y-47513000D01*
X237886000Y-66563000D02*
X237886000Y-52593000D01*
X256936000Y-47513000D02*
X256936000Y-33543000D01*
X7355600Y-33543000D02*
X21325600Y-33543000D01*
X64531000Y-47513000D02*
X64531000Y-33543000D01*
X40401000Y-28463000D02*
X26431000Y-28463000D01*
X275691600Y-88112600D02*
X275691600Y-12319000D01*
X98653600Y-85623400D02*
X98653600Y-71602600D01*
X270906000Y-71643000D02*
X270906000Y-85613000D01*
X194706000Y-14493000D02*
X194706000Y-28463000D01*
X180736000Y-52593000D02*
X194706000Y-52593000D01*
X116601000Y-33543000D02*
X116601000Y-47513000D01*
X199786000Y-28463000D02*
X199786000Y-14493000D01*
X199786000Y-33543000D02*
X213756000Y-33543000D01*
X97551000Y-33543000D02*
X97551000Y-47513000D01*
X175656000Y-47513000D02*
X161686000Y-47513000D01*
X26431000Y-47513000D02*
X26431000Y-33543000D01*
X270906000Y-33543000D02*
X270906000Y-47513000D01*
X7381000Y-71643000D02*
X21351000Y-71643000D01*
X161686000Y-52593000D02*
X175656000Y-52593000D01*
X220106000Y-71643000D02*
X220106000Y-85613000D01*
X42814000Y-85613000D02*
X28844000Y-85613000D01*
X26431000Y-66563000D02*
X26431000Y-52593000D01*
X21336000Y-14478000D02*
X7366000Y-14478000D01*
X102631000Y-14493000D02*
X116601000Y-14493000D01*
X72151000Y-85613000D02*
X58181000Y-85613000D01*
X161686000Y-47513000D02*
X161686000Y-33543000D01*
X119126000Y-11049000D02*
X119126000Y-68707000D01*
X78501000Y-33543000D02*
X78501000Y-47513000D01*
X7355600Y-47513000D02*
X7355600Y-33543000D01*
X194706000Y-33543000D02*
X194706000Y-47513000D01*
X7381000Y-85613000D02*
X7381000Y-71643000D01*
X40401000Y-52593000D02*
X40401000Y-66563000D01*
X270906000Y-28463000D02*
X256936000Y-28463000D01*
X175656000Y-52593000D02*
X175656000Y-66563000D01*
X78486000Y-14478000D02*
X78486000Y-28448000D01*
X116601000Y-14493000D02*
X116601000Y-28463000D01*
X256936000Y-85613000D02*
X256936000Y-71643000D01*
X213756000Y-47513000D02*
X199786000Y-47513000D01*
X97551000Y-14493000D02*
X97551000Y-28463000D01*
X249443000Y-85613000D02*
X235473000Y-85613000D01*
X194706000Y-47513000D02*
X180736000Y-47513000D01*
X98653600Y-71602600D02*
X112674400Y-71602600D01*
X194706000Y-66563000D02*
X180736000Y-66563000D01*
X161686000Y-33543000D02*
X175656000Y-33543000D01*
X251856000Y-14493000D02*
X251856000Y-28463000D01*
X64531000Y-33543000D02*
X78501000Y-33543000D01*
X45481000Y-66563000D02*
X45481000Y-52593000D01*
X218836000Y-47513000D02*
X218836000Y-33543000D01*
X159131000Y-68707000D02*
X159131000Y-11049000D01*
X21351000Y-66563000D02*
X7381000Y-66563000D01*
X270906000Y-47513000D02*
X256936000Y-47513000D01*
X237886000Y-47513000D02*
X237886000Y-33543000D01*
X232806000Y-52593000D02*
X232806000Y-66563000D01*
X64516000Y-14478000D02*
X78486000Y-14478000D01*
X218836000Y-52593000D02*
X232806000Y-52593000D01*
X237886000Y-28463000D02*
X237886000Y-14493000D01*
X102631000Y-47513000D02*
X102631000Y-33543000D01*
X256936000Y-52567600D02*
X270906000Y-52567600D01*
X274421600Y-89382600D02*
G75*
G03*
X275691600Y-88112600I0J1270000D01*
G01*
X235473000Y-71643000D02*
X249443000Y-71643000D01*
X83581000Y-47513000D02*
X83581000Y-33543000D01*
X270906000Y-66537600D02*
X256936000Y-66537600D01*
X83581000Y-33543000D02*
X97551000Y-33543000D01*
X161686000Y-66563000D02*
X161686000Y-52593000D01*
X194706000Y-28463000D02*
X180736000Y-28463000D01*
X165582600Y-85623400D02*
X165582600Y-71602600D01*
X179603400Y-71602600D02*
X179603400Y-85623400D01*
X232806000Y-33543000D02*
X232806000Y-47513000D01*
X161686000Y-14493000D02*
X175656000Y-14493000D01*
X78501000Y-66563000D02*
X64531000Y-66563000D01*
X102631000Y-33543000D02*
X116601000Y-33543000D01*
X21351000Y-85613000D02*
X7381000Y-85613000D01*
X116601000Y-47513000D02*
X102631000Y-47513000D01*
X83581000Y-14493000D02*
X97551000Y-14493000D01*
X218836000Y-33543000D02*
X232806000Y-33543000D01*
X26431000Y-33543000D02*
X40401000Y-33543000D01*
X237886000Y-33543000D02*
X251856000Y-33543000D01*
X119761000Y-69215000D02*
X129667000Y-69215000D01*
X129667000Y-69215000D02*
X129667000Y-89281000D01*
X129667000Y-89281000D02*
X119761000Y-89281000D01*
X119761000Y-89281000D02*
X119761000Y-69215000D01*
X45481000Y-52593000D02*
X59451000Y-52593000D01*
X112674400Y-85623400D02*
X98653600Y-85623400D01*
X97551000Y-66563000D02*
X83581000Y-66563000D01*
X199786000Y-14493000D02*
X213756000Y-14493000D01*
X28844000Y-71643000D02*
X42814000Y-71643000D01*
X45481000Y-33543000D02*
X59451000Y-33543000D01*
X21351000Y-71643000D02*
X21351000Y-85613000D01*
X59451000Y-66563000D02*
X45481000Y-66563000D01*
X3733800Y-89408000D02*
X274421600Y-89382600D01*
X26431000Y-28463000D02*
X26431000Y-14493000D01*
X7381000Y-52593000D02*
X21351000Y-52593000D01*
X270906000Y-52567600D02*
X270906000Y-66537600D01*
X40401000Y-14493000D02*
X40401000Y-28463000D01*
X161686000Y-28463000D02*
X161686000Y-14493000D01*
X218836000Y-66563000D02*
X218836000Y-52593000D01*
X58181000Y-85613000D02*
X58181000Y-71643000D01*
X83581000Y-66563000D02*
X83581000Y-52593000D01*
X237886000Y-14493000D02*
X251856000Y-14493000D01*
X64531000Y-66563000D02*
X64531000Y-52593000D01*
X220106000Y-85613000D02*
X206136000Y-85613000D01*
X206136000Y-71643000D02*
X220106000Y-71643000D01*
X21336000Y-14478000D02*
X21336000Y-28448000D01*
X116601000Y-66563000D02*
X102631000Y-66563000D01*
X83581000Y-52593000D02*
X97551000Y-52593000D01*
X213756000Y-14493000D02*
X213756000Y-28463000D01*
X199786000Y-66563000D02*
X199786000Y-52593000D01*
X116601000Y-52593000D02*
X116601000Y-66563000D01*
X40401000Y-66563000D02*
X26431000Y-66563000D01*
X59451000Y-47513000D02*
X45481000Y-47513000D01*
X235473000Y-85613000D02*
X235473000Y-71643000D01*
X97551000Y-52593000D02*
X97551000Y-66563000D01*
X274421600Y-11049000D02*
X159131000Y-11049000D01*
X232806000Y-66563000D02*
X218836000Y-66563000D01*
X179603400Y-85623400D02*
X165582600Y-85623400D01*
X97551000Y-47513000D02*
X83581000Y-47513000D01*
X213756000Y-28463000D02*
X199786000Y-28463000D01*
X21351000Y-52593000D02*
X21351000Y-66563000D01*
X256936000Y-28463000D02*
X256936000Y-14493000D01*
X40401000Y-47513000D02*
X26431000Y-47513000D01*
X218836000Y-14493000D02*
X232806000Y-14493000D01*
X256936000Y-33543000D02*
X270906000Y-33543000D01*
X180736000Y-28463000D02*
X180736000Y-14493000D01*
X45481000Y-28463000D02*
X45481000Y-14493000D01*
X119126000Y-68707000D02*
X159131000Y-68707000D01*
X186690000Y-69215000D02*
X196596000Y-69215000D01*
X196596000Y-69215000D02*
X196596000Y-89281000D01*
X196596000Y-89281000D02*
X186690000Y-89281000D01*
X186690000Y-89281000D02*
X186690000Y-69215000D01*
X232806000Y-28463000D02*
X218836000Y-28463000D01*
X175656000Y-33543000D02*
X175656000Y-47513000D01*
X102631000Y-28463000D02*
X102631000Y-14493000D01*
X97551000Y-28463000D02*
X83581000Y-28463000D01*
X21325600Y-33543000D02*
X21325600Y-47513000D01*
X59451000Y-52593000D02*
X59451000Y-66563000D01*
X206136000Y-85613000D02*
X206136000Y-71643000D01*
X199786000Y-52593000D02*
X213756000Y-52593000D01*
X64531000Y-52593000D02*
X78501000Y-52593000D01*
X213756000Y-66563000D02*
X199786000Y-66563000D01*
X2463800Y-88138000D02*
G75*
G03*
X3733800Y-89408000I1270000J0D01*
G01*
X59451000Y-33543000D02*
X59451000Y-47513000D01*
X256936000Y-14493000D02*
X270906000Y-14493000D01*
X175656000Y-28463000D02*
X161686000Y-28463000D01*
M02*
